<svg width="96" height="96" xmlns="http://www.w3.org/2000/svg" xmlns:xlink="http://www.w3.org/1999/xlink" overflow="hidden"><defs><clipPath id="clip0"><rect x="592" y="312" width="96" height="96"/></clipPath></defs><g clip-path="url(#clip0)" transform="translate(-592 -312)"><path d="M631 327C631 330.866 627.866 334 624 334 620.134 334 617 330.866 617 327 617 323.134 620.134 320 624 320 627.866 320 631 323.134 631 327Z" fill="#FFFFFF"/><path d="M663 327C663 330.866 659.866 334 656 334 652.134 334 649 330.866 649 327 649 323.134 652.134 320 656 320 659.866 320 663 323.134 663 327Z" fill="#FFFFFF"/><path d="M674.8 364.1 669.2 343C669 342.4 668.7 341.8 668.3 341.4 666.4 339.4 664 337.9 661.4 337 659.7 336.3 657.9 336 656 336 654.1 336 652.3 336.3 650.6 336.9 647.9 337.8 645.6 339.3 643.7 341.3 643.3 341.8 643 342.3 642.8 342.9L640 353.3 637.2 343C637 342.4 636.7 341.8 636.3 341.4 634.4 339.4 632 337.9 629.4 337 627.7 336.3 625.9 336 624 336 622.1 336 620.3 336.3 618.6 336.9 615.9 337.8 613.6 339.3 611.7 341.3 611.3 341.8 611 342.3 610.8 342.9L605.2 364C604.8 365.6 605.6 367.4 607.3 367.8 607.4 368 607.7 368 608 368 609.3 368 610.5 367.1 610.9 365.8L616 346.6 616 354.7 610.3 376 616 376 616 400 622 400 622 376 626 376 626 400 632 400 632 376 637.7 376 632 354.7 632 346.6 637.1 365.7C637.5 367 638.7 367.9 640 367.9 640.3 367.9 640.5 367.9 640.8 367.8 641.8 367.5 642.5 366.7 642.8 365.8L648 346.6 648 354.7 642.3 376 648 376 648 400 654 400 654 376 658 376 658 400 664 400 664 376 669.7 376 664 354.7 664 346.6 669.1 365.7C669.5 367 670.7 367.9 672 367.9 672.3 367.9 672.5 367.9 672.8 367.8 674.4 367.4 675.3 365.7 674.8 364.1Z" fill="#FFFFFF"/></g></svg>