<svg width="96" height="96" xmlns="http://www.w3.org/2000/svg" xmlns:xlink="http://www.w3.org/1999/xlink" overflow="hidden"><defs><clipPath id="clip0"><rect x="592" y="312" width="96" height="96"/></clipPath></defs><g clip-path="url(#clip0)" transform="translate(-592 -312)"><path d="M681.5 340.3C681.5 344.718 677.918 348.3 673.5 348.3 669.082 348.3 665.5 344.718 665.5 340.3 665.5 335.882 669.082 332.3 673.5 332.3 677.918 332.3 681.5 335.882 681.5 340.3Z" fill="#FFFFFF"/><path d="M656.9 341.5 656.9 341.5C642.6 337.5 629.3 343.9 622.6 347.3L622.6 347.3C619.6 348.8 617.5 351.8 617.5 355.4L617.5 372.2 600.8 380.1C598.8 381 598 383.4 598.9 385.4 599.6 386.8 601 387.7 602.5 387.7 603.1 387.7 603.7 387.6 604.2 387.3L623.2 378.3C624.6 377.6 625.5 376.2 625.5 374.7L625.5 360.1 636.3 367.9 629 381.8C628 383.8 628.7 386.2 630.7 387.2 631.3 387.5 631.9 387.7 632.6 387.7 634 387.7 635.4 386.9 636.1 385.6L645.1 368.6C646 366.8 645.5 364.6 643.9 363.5L635.9 357.8 655.6 357.8 655.6 383.8C655.6 386 657.4 387.8 659.6 387.8 661.8 387.8 663.6 386 663.6 383.8L663.6 349.3C663.5 345.4 660.6 342.1 656.9 341.5Z" fill="#FFFFFF"/></g></svg>