<svg width="96" height="96" xmlns="http://www.w3.org/2000/svg" xmlns:xlink="http://www.w3.org/1999/xlink" overflow="hidden"><defs><clipPath id="clip0"><rect x="592" y="312" width="96" height="96"/></clipPath></defs><g clip-path="url(#clip0)" transform="translate(-592 -312)"><path d="M646.5 323C646.5 327.418 642.918 331 638.5 331 634.082 331 630.5 327.418 630.5 323 630.5 318.582 634.082 315 638.5 315 642.918 315 646.5 318.582 646.5 323Z" fill="#FFFFFF"/><path d="M663.5 331C663.5 334.314 660.814 337 657.5 337 654.186 337 651.5 334.314 651.5 331 651.5 327.686 654.186 325 657.5 325 660.814 325 663.5 327.686 663.5 331Z" fill="#FFFFFF"/><path d="M645 363.8 645 363.8 645 363.8C644.7 363.8 644 364 643.5 364 639.6 364 636.5 360.9 636.5 357 636.5 353.8 638.6 351 641.7 350.2 641.9 350.1 646 348.8 647.7 341.4 648.2 339.3 649.6 337.6 651.5 336.7 649.6 335.5 647.5 334.5 645.1 333.8 643 333.4 640.8 333 638.5 333 636.3 333 634.1 333.4 631.9 334 628.7 334.8 625.9 336.4 623.5 338.4 622.9 339 622.5 339.8 622.3 340.6L616.7 364.4C616.7 364.6 616.5 365 616.5 365.4 616.5 367.6 618.3 369.4 620.5 369.4 622.3 369.4 623.9 368 624.3 366.4L628.5 349 628.5 405 636.5 405 636.5 369 640.5 369 640.5 405 648.5 405 648.5 362.5C646.5 363.5 645.2 363.8 645 363.8Z" fill="#FFFFFF"/><path d="M657.052 353.384C658.413 354.756 658.246 357.13 656.677 358.686 655.109 360.242 652.734 360.391 651.373 359.018 650.011 357.646 650.179 355.272 651.747 353.717 653.316 352.161 655.691 352.012 657.052 353.384Z" fill="#FFFFFF"/><path d="M650.4 352.3C651.6 351.1 653.2 350.4 654.8 350.4 655.6 350.4 656.3 350.6 657 350.9 658 349 658.8 346.7 659.4 344 660 341.3 658.3 338.6 655.6 338 652.9 337.4 650.2 339.1 649.6 341.8 647.6 350.4 642.5 352 642.2 352.1L642.3 352.1C640.1 352.6 638.4 354.6 638.4 357 638.4 359.8 640.6 362 643.4 362 643.8 362 644.5 361.9 644.5 361.9 644.7 361.9 646.7 361.4 649.3 359.7 647.9 357.5 648.2 354.4 650.4 352.3Z" fill="#FFFFFF"/></g></svg>