<svg width="96" height="96" xmlns="http://www.w3.org/2000/svg" xmlns:xlink="http://www.w3.org/1999/xlink" overflow="hidden"><defs><clipPath id="clip0"><rect x="737" y="282" width="96" height="96"/></clipPath></defs><g clip-path="url(#clip0)" transform="translate(-737 -282)"><path d="M782.1 297C782.1 300.866 778.966 304 775.1 304 771.234 304 768.1 300.866 768.1 297 768.1 293.134 771.234 290 775.1 290 778.966 290 782.1 293.134 782.1 297Z" fill="#FFFFFF"/><path d="M793 335.4 788.3 311.8C786.4 309.7 784 308.1 781.2 307.1 779.3 306.4 777.2 306 775 306 772.8 306 770.8 306.4 768.8 307.1 766.1 308.1 763.7 309.7 761.7 311.8L757 335.4C756.7 337 757.7 338.6 759.4 338.9 759.6 338.9 759.8 339 760 339 761.4 339 762.7 338 762.9 336.6L767.1 316.3 767.1 370 773.1 370 773.1 339 777.1 339 777.1 370 783.1 370 783.1 316.3 787.2 336.6C787.4 338 788.7 339 790.1 339 790.3 339 790.5 339 790.7 338.9 792.3 338.6 793.4 337 793 335.4Z" fill="#FFFFFF"/><path d="M807.1 338C807.1 340.761 804.861 343 802.1 343 799.339 343 797.1 340.761 797.1 338 797.1 335.239 799.339 333 802.1 333 804.861 333 807.1 335.239 807.1 338Z" fill="#FFFFFF"/><path d="M812.9 356.2 809.4 347.8C808.2 346.1 806.3 344.8 804.2 344.2 803.6 344.1 802.8 344 802.1 344L797.1 344 791.8 335C791.2 334 790 333.7 789.1 334.3 788.1 334.9 787.8 336.1 788.4 337L797.1 351.8 797.1 370 801.1 370 801.1 358 803.1 358 803.1 370 807.1 370 807.1 352.6 809.3 357.8C809.6 358.6 810.4 359 811.1 359 811.4 359 811.6 359 811.9 358.8 812.9 358.4 813.4 357.2 812.9 356.2Z" fill="#FFFFFF"/></g></svg>