<svg width="96" height="96" xmlns="http://www.w3.org/2000/svg" xmlns:xlink="http://www.w3.org/1999/xlink" overflow="hidden"><defs><clipPath id="clip0"><rect x="592" y="312" width="96" height="96"/></clipPath></defs><g clip-path="url(#clip0)" transform="translate(-592 -312)"><path d="M652.5 332.5C652.5 339.404 646.904 345 640 345 633.096 345 627.5 339.404 627.5 332.5 627.5 325.596 633.096 320 640 320 646.904 320 652.5 325.596 652.5 332.5Z" fill="#FFFFFF"/><path d="M649 374.5C649 374.6 649 374.7 649 374.8 645.5 375.1 642.9 378 643 381.5 643 382.5 643.3 383.5 643.8 384.3 642.7 384.7 641.3 384.9 639.8 384.9 638.2 384.9 636.9 384.7 635.9 384.3 637.4 382.1 637.4 379.1 635.8 376.8 634.6 375.2 632.9 374.2 631 374L631 372 649 372 649 374.5ZM668.2 356.2 651 347.2C650.6 347.1 650.2 347 649.8 347L631 347C630.5 347 630.1 347.1 629.6 347.2L611.6 357.2C609.5 358 608.5 360.3 609.2 362.3 609.8 364 611.4 365 613 365 613.5 365 613.9 364.9 614.4 364.8L627 358.2C627 358.2 627 374.7 627 375 626.8 375.1 618.8 380.7 618.8 380.7 617.1 381.9 616.6 384.3 617.7 386.1L624.7 397.1C625.9 399 628.4 399.5 630.2 398.3 632 397.1 632.6 394.6 631.4 392.8L628 387.3 630.2 387.3C630.9 387.3 631.6 387.2 632.3 387 634.1 388.2 636.5 388.9 639.7 388.9 642.7 388.9 645.1 388.2 647 387.2 647.8 387.6 648.8 387.7 649.8 387.7L651.6 387.6 648 392.6C646.7 394.4 647.1 396.9 648.9 398.2 650.7 399.5 653.2 399.1 654.5 397.3L662.5 386.3C662.6 386.2 662.7 386.1 662.7 385.9 663.8 384 663.1 381.5 661.2 380.4L653 375.8C653 375.4 653 357.8 653 357.8L665.8 363.9C666.2 364 666.6 364.1 667 364.1 668.7 364.1 670.3 363 670.8 361.3 671.5 359.1 670.3 356.9 668.2 356.2Z" fill="#FFFFFF"/></g></svg>