<svg width="96" height="96" xmlns="http://www.w3.org/2000/svg" xmlns:xlink="http://www.w3.org/1999/xlink" overflow="hidden"><defs><clipPath id="clip0"><rect x="592" y="312" width="96" height="96"/></clipPath></defs><g clip-path="url(#clip0)" transform="translate(-592 -312)"><path d="M622 327C622 330.866 618.866 334 615 334 611.134 334 608 330.866 608 327 608 323.134 611.134 320 615 320 618.866 320 622 323.134 622 327Z" fill="#FFFFFF"/><path d="M652 327C652 330.866 648.866 334 645 334 641.134 334 638 330.866 638 327 638 323.134 641.134 320 645 320 648.866 320 652 323.134 652 327Z" fill="#FFFFFF"/><path d="M677 368C677 370.761 674.761 373 672 373 669.239 373 667 370.761 667 368 667 365.239 669.239 363 672 363 674.761 363 677 365.239 677 368Z" fill="#FFFFFF"/><path d="M682.8 386.2 679.3 377.8C678.1 376.1 676.2 374.8 674.1 374.2 673.5 374.1 672.7 374 672 374L667 374 662.8 366.9C662.9 366.4 663 365.9 662.9 365.4L658.2 341.8C656.3 339.7 653.9 338.1 651.1 337.1 649.2 336.4 647.1 336 644.9 336 642.7 336 640.7 336.4 638.7 337.1 636 338.1 633.6 339.7 631.6 341.8L630 350.7 628.2 341.8C626.3 339.7 623.9 338.1 621.1 337.1 619.2 336.4 617.1 336 614.9 336 612.7 336 610.7 336.4 608.7 337.1 606 338.1 603.6 339.7 601.6 341.8L597.1 365.4C596.8 367 597.8 368.6 599.5 368.9 599.6 369 599.8 369 600 369 601.4 369 602.7 368 602.9 366.6L607 346.3 607 400 613 400 613 369 617 369 617 400 623 400 623 346.3 627.1 366.6C627.3 368 628.6 369 630 369L630 369C631.4 369 632.7 368 632.9 366.6L637 346.3 637 357.2 633.2 376.1 637 376.1 637 400 643 400 643 376 647 376 647 400 653 400 653 376.1 656.8 376.1 653 357.2 653 346.3 657.1 366.6C657.3 367.8 658.3 368.7 659.4 368.9L667 381.8 667 400 671 400 671 388 673 388 673 400 677 400 677 382.6 679.2 387.8C679.5 388.6 680.3 389 681 389 681.3 389 681.5 389 681.8 388.8 682.8 388.4 683.3 387.2 682.8 386.2Z" fill="#FFFFFF"/></g></svg>