<svg width="96" height="96" xmlns="http://www.w3.org/2000/svg" xmlns:xlink="http://www.w3.org/1999/xlink" overflow="hidden"><defs><clipPath id="clip0"><rect x="592" y="312" width="96" height="96"/></clipPath></defs><g clip-path="url(#clip0)" transform="translate(-592 -312)"><path d="M653 325C653 329.418 649.418 333 645 333 640.582 333 637 329.418 637 325 637 320.582 640.582 317 645 317 649.418 317 653 320.582 653 325Z" fill="#FFFFFF"/><path d="M665.3 356.2 655 352.8C655 352.8 649.3 339.6 649.1 339.2 647.7 336.7 645.1 335 642.1 335 640.9 335 639.7 335.3 638.7 335.8L624.7 341.3C623.7 341.7 622.9 342.5 622.5 343.5L617.5 355.5C616.7 357.5 617.6 359.9 619.7 360.7 620.2 360.9 620.7 361 621.2 361 622.8 361 624.3 360.1 624.9 358.5L629 348.1 633.2 346.5 626.3 380.2 612.9 396.5C611.5 398.2 611.7 400.7 613.4 402.1 614.1 402.7 615 403 615.9 403 617.1 403 618.2 402.5 619 401.5L633 384.5C633.4 384 633.7 383.4 633.8 382.8L636.2 371.2 647 379 647 399C647 401.2 648.8 403 651 403 653.2 403 655 401.2 655 399L655 377C655 375.7 654.4 374.5 653.4 373.8L643.7 366.7 646.4 353.2 648.3 357.6C648.8 358.6 649.6 359.4 650.7 359.8L662.7 363.8C663.1 363.9 663.5 364 664 364 665.7 364 667.2 362.9 667.8 361.3 668.5 359.2 667.4 356.9 665.3 356.2Z" fill="#FFFFFF"/></g></svg>