<svg width="96" height="96" xmlns="http://www.w3.org/2000/svg" xmlns:xlink="http://www.w3.org/1999/xlink" overflow="hidden"><defs><clipPath id="clip0"><rect x="592" y="312" width="96" height="96"/></clipPath></defs><g clip-path="url(#clip0)" transform="translate(-592 -312)"><path d="M637.5 326C637.5 330.418 633.918 334 629.5 334 625.082 334 621.5 330.418 621.5 326 621.5 321.582 625.082 318 629.5 318 633.918 318 637.5 321.582 637.5 326Z" fill="#FFFFFF"/><path d="M656.6 381.3C653.9 390.9 645 398 634.5 398 621.8 398 611.5 387.7 611.5 375 611.5 374.5 611.5 374.1 611.5 373.6L609.1 365.8C608.1 368.7 607.5 371.7 607.5 374.9 607.5 389.8 619.6 401.9 634.5 401.9 645.5 401.9 655 395.3 659.2 385.8L656.6 381.3Z" fill="#FFFFFF"/><path d="M672 384 660 363C659.3 361.8 658 361 656.5 361L640.4 361 638.4 342.6C637.6 338.2 633.5 335.3 629.1 336.1 628.1 336.3 627.2 336.6 626.4 337.1L610.5 346.5C608.9 347.4 608.2 349.4 608.7 351.1L613.7 367.1C614.2 368.8 615.8 369.9 617.5 369.9 617.9 369.9 618.3 369.8 618.7 369.7 620.8 369 622 366.8 621.3 364.7L617.2 351.7 623.1 348.2 625.6 362.3C626.3 366.2 629.7 368.9 633.5 368.9L633.5 368.9 654.2 368.9 665 388C665.7 389.3 667.1 390 668.5 390 669.2 390 669.9 389.8 670.5 389.5 672.4 388.4 673.1 385.9 672 384Z" fill="#FFFFFF"/></g></svg>