<svg width="96" height="96" xmlns="http://www.w3.org/2000/svg" xmlns:xlink="http://www.w3.org/1999/xlink" overflow="hidden"><defs><clipPath id="clip0"><rect x="592" y="312" width="96" height="96"/></clipPath></defs><g clip-path="url(#clip0)" transform="translate(-592 -312)"><path d="M675 337C675 339.761 672.761 342 670 342 667.239 342 665 339.761 665 337 665 334.239 667.239 332 670 332 672.761 332 675 334.239 675 337Z" fill="#FFFFFF"/><path d="M615 337C615 339.761 612.761 342 610 342 607.239 342 605 339.761 605 337 605 334.239 607.239 332 610 332 612.761 332 615 334.239 615 337Z" fill="#FFFFFF"/><path d="M655 337C655 339.761 652.761 342 650 342 647.239 342 645 339.761 645 337 645 334.239 647.239 332 650 332 652.761 332 655 334.239 655 337Z" fill="#FFFFFF"/><path d="M635 337C635 339.761 632.761 342 630 342 627.239 342 625 339.761 625 337 625 334.239 627.239 332 630 332 632.761 332 635 334.239 635 337Z" fill="#FFFFFF"/><path d="M681.9 361.5 678.7 346.9C678.6 346.5 678.4 346.1 678 345.8 676.8 344.9 675.5 344.1 674 343.7 672.7 343.3 671.4 343 670 343 668.6 343 667.2 343.2 666 343.7 664.5 344.2 663.2 344.9 662 345.8 661.6 346.1 661.4 346.5 661.3 346.9L660 352.8 660 352.8 658.7 346.9C658.6 346.5 658.4 346.1 658 345.8 656.8 344.9 655.5 344.1 654 343.7 652.7 343.3 651.4 343 650 343 648.6 343 647.2 343.2 646 343.7 644.5 344.2 643.2 344.9 642 345.8 641.6 346.1 641.4 346.5 641.3 346.9L640 352.7 640 352.8 638.7 346.9C638.6 346.5 638.4 346.1 638 345.8 636.8 344.9 635.5 344.1 634 343.7 632.7 343.3 631.4 343 630 343 628.6 343 627.2 343.2 626 343.7 624.5 344.2 623.2 344.9 622 345.8 621.6 346.1 621.4 346.5 621.3 346.9L620 352.7 620 352.7 618.7 346.9C618.6 346.5 618.4 346.1 618 345.8 616.8 344.9 615.5 344.1 614 343.7 612.7 343.3 611.4 343 610 343 608.6 343 607.2 343.2 606 343.7 604.5 344.2 603.2 344.9 602 345.8 601.6 346.1 601.4 346.5 601.3 346.9L598.1 361.4C597.8 362.5 598.5 363.7 599.7 363.9 599.8 363.9 599.9 363.9 600 363.9 600.9 363.9 601.7 363.3 602 362.3L605 349 605 356.1 602 371 605 371 605 388 609 388 609 371 611 371 611 388 615 388 615 371 618 371 615 356.1 615 349 618 362.4C618.2 363.3 619 364 619.9 364L619.9 364C620.8 364 621.6 363.4 621.8 362.4L625 349 625 365 625 388 629 388 629 365 631 365 631 388 635 388 635 365 635 349 638 362.4C638.2 363.3 639 364 640 364 640 364 640 364 640 364L640 364C640.9 364 641.7 363.4 641.9 362.4L645 349 645 356.2 642 371 645 371 645 388 649 388 649 371 651 371 651 388 655 388 655 371 658 371 655 356 655 349 658 362.4C658.2 363.3 659 364 660 364 660 364 660 364 660 364L660 364C660 364 660 364 660 364 660.9 364 661.7 363.4 662 362.4L665 349 665 365 665 388 669 388 669 365 671 365 671 388 675 388 675 365 675 349 678 362.4C678.2 363.3 679 364 680 364 680.2 364 680.5 364 680.7 363.9 681.6 363.5 682.1 362.5 681.9 361.5Z" fill="#FFFFFF"/></g></svg>