<svg width="96" height="96" xmlns="http://www.w3.org/2000/svg" xmlns:xlink="http://www.w3.org/1999/xlink" overflow="hidden"><defs><clipPath id="clip0"><rect x="592" y="312" width="96" height="96"/></clipPath></defs><g clip-path="url(#clip0)" transform="translate(-592 -312)"><path d="M679.8 331 615.8 331C613.6 331 611.8 332.8 611.8 335L611.8 349.5C612.9 349.2 614.2 349 615.4 349 616.2 349 617 349.1 617.8 349.2L617.8 337 677.8 337 677.8 375 643.9 375 638.2 381 679.8 381C682 381 683.8 379.2 683.8 377L683.8 335C683.8 332.8 682 331 679.8 331"/><path d="M615.5 370C620.2 370 624 366.2 624 361.5 624 356.8 620.2 353 615.5 353 610.8 353 607 356.8 607 361.5 606.9 366.2 610.8 370 615.5 370"/><path d="M648.2 360.1C646.9 358.1 644.3 357.6 642.3 358.8 641.9 359 641.7 359.4 641.5 359.6L626.9 374.8C625.5 374.1 624 373.5 622.5 373 620.2 372.6 617.8 372.1 615.5 372.1 613.2 372.1 610.8 372.5 608.5 373.2 605.1 374.1 602.1 375.8 599.6 377.9 599 378.5 598.5 379.4 598.3 380.2L596.2 389 626.1 389 626.1 388.9 634.6 379 647.7 365.2C648.9 364 649.3 361.7 648.2 360.1"/></g></svg>