<svg width="96" height="96" xmlns="http://www.w3.org/2000/svg" xmlns:xlink="http://www.w3.org/1999/xlink" overflow="hidden"><defs><clipPath id="clip0"><rect x="592" y="312" width="96" height="96"/></clipPath></defs><g clip-path="url(#clip0)" transform="translate(-592 -312)"><path d="M656 335C656 337.761 653.761 340 651 340 648.239 340 646 337.761 646 335 646 332.239 648.239 330 651 330 653.761 330 656 332.239 656 335Z" fill="#FFFFFF"/><path d="M677 359C677 361.209 675.209 363 673 363 670.791 363 669 361.209 669 359 669 356.791 670.791 355 673 355 675.209 355 677 356.791 677 359Z" fill="#FFFFFF"/><path d="M634 335C634 337.761 631.761 340 629 340 626.239 340 624 337.761 624 335 624 332.239 626.239 330 629 330 631.761 330 634 332.239 634 335Z" fill="#FFFFFF"/><path d="M611 359C611 361.209 609.209 363 607 363 604.791 363 603 361.209 603 359 603 356.791 604.791 355 607 355 609.209 355 611 356.791 611 359Z" fill="#FFFFFF"/><path d="M683.8 376.2 680.3 367.9C679.1 366.2 677.2 364.9 675.1 364.3 674.5 364.1 673.7 364 673 364 671.6 364 670.3 364.3 669.1 364.9L663 360.6 659.4 345.6C659.3 345.2 659 344.7 658.7 344.5 657.5 343.6 656.1 342.9 654.6 342.5 653.4 342.2 652.2 342 651 342 649.8 342 648.6 342.2 647.5 342.5 646 342.9 644.6 343.6 643.4 344.5 643 344.8 642.8 345.2 642.7 345.6L640 356.4 637.4 345.6C637.3 345.2 637 344.7 636.7 344.5 635.5 343.6 634.1 342.9 632.6 342.5 631.4 342.2 630.2 342 629 342 627.8 342 626.6 342.2 625.5 342.5 624 342.9 622.6 343.6 621.4 344.5 621 344.8 620.8 345.2 620.7 345.6L617.1 360.6 611 364.9C609.7 364.3 608.4 364 607 364 606.3 364 605.5 364.1 604.9 364.3 602.8 364.8 600.9 366.1 599.7 367.9L596.2 376.2C595.8 377.1 596.1 378.1 596.8 378.7 597.2 378.9 597.6 379 598 379 598.8 379 599.5 378.5 599.8 377.8L602 372.6 602 378 602 390 606 390 606 378 608 378 608 390 612 390 612 369 612.1 369 620 363.5C620.4 363.2 620.7 362.8 620.8 362.3L624 349 624 390 628 390 628 367 630 367 630 390 634 390 634 349 638.1 365.5C638.3 366.4 639.1 367 640 367 640.9 367 641.7 366.4 641.9 365.5L646 349 646 357.4 642.5 372 646 372 646 390 650 390 650 372 652 372 652 390 656 390 656 372 659.5 372 656 357.4 656 349 659.3 362.3C659.4 362.8 659.7 363.2 660.1 363.5L668.1 369.1 668.1 375.3 666 381 668 381 668 390 672 390 672 381 674 381 674 390 678 390 678 381 680 381 678.1 375.7 678.1 372.6 680.3 377.8C680.6 378.6 681.4 379 682.1 379 682.5 379 682.9 378.9 683.3 378.6 683.9 378.1 684.2 377 683.8 376.2Z" fill="#FFFFFF"/></g></svg>