<svg width="96" height="96" xmlns="http://www.w3.org/2000/svg" xmlns:xlink="http://www.w3.org/1999/xlink" overflow="hidden"><defs><clipPath id="clip0"><rect x="592" y="312" width="96" height="96"/></clipPath></defs><g clip-path="url(#clip0)" transform="translate(-592 -312)"><path d="M676 369.5C676 373.366 672.866 376.5 669 376.5 665.134 376.5 662 373.366 662 369.5 662 365.634 665.134 362.5 669 362.5 672.866 362.5 676 365.634 676 369.5Z" fill="#FFFFFF"/><path d="M650 332.5C650 336.918 646.418 340.5 642 340.5 637.582 340.5 634 336.918 634 332.5 634 328.082 637.582 324.5 642 324.5 646.418 324.5 650 328.082 650 332.5Z" fill="#FFFFFF"/><path d="M635.2 361.3 642.1 364.4 638.3 370.1C638 370.6 637.7 371.2 637.6 371.9 637.3 374.2 638.9 376.2 641.1 376.5 641.3 376.5 656 376.5 656 376.5 658.2 376.5 660 374.7 660 372.5L659 361.3C658.9 360.2 657.9 359.4 656.8 359.5 655.7 359.6 654.9 360.6 655 361.7L655.7 368.5 646.3 368.5 646.9 363.7C647 362.9 646.6 362 645.8 361.7L636.8 357.7C635.8 357.3 634.6 357.7 634.2 358.7 633.7 359.7 634.2 360.9 635.2 361.3Z" fill="#FFFFFF"/><path d="M634 379.5 677 379.5 677 383.5 634 383.5Z" fill="#FFFFFF"/><path d="M646 357.5C647.5 357.5 649 356.6 649.6 355.2 650.5 353.2 649.6 350.8 647.6 349.9L636 344.5 631.5 334.6C629.3 332.1 625.5 331.8 623 334L605 349.6C603.5 350.9 602.7 352.5 603 355L605 371.9 603 391.1C602.8 393.3 604.4 395.3 606.6 395.5 606.7 395.5 606.9 395.5 607 395.5 609 395.5 610.8 394 611 391.9L613 372.3C613 372 613 371.7 613 371.4L612.5 367 617 374.5 616 391.3C615.9 393.5 617.6 395.4 619.8 395.5 619.9 395.5 620 395.5 620 395.5 622.1 395.5 623.9 393.9 624 391.7L625 373.7C625 372.9 624.8 372.1 624.4 371.4L615.4 356.4 627.8 345.7 629.3 349.1C629.7 350 630.4 350.7 631.3 351.1L644.3 357.1C644.9 357.4 645.4 357.5 646 357.5Z" fill="#FFFFFF"/></g></svg>