<svg width="96" height="96" xmlns="http://www.w3.org/2000/svg" xmlns:xlink="http://www.w3.org/1999/xlink" overflow="hidden"><defs><clipPath id="clip0"><rect x="592" y="312" width="96" height="96"/></clipPath></defs><g clip-path="url(#clip0)" transform="translate(-592 -312)"><path d="M676.5 340C676.5 343.314 673.814 346 670.5 346 667.186 346 664.5 343.314 664.5 340 664.5 336.686 667.186 334 670.5 334 673.814 334 676.5 336.686 676.5 340Z" fill="#FFFFFF"/><path d="M682.9 364.1 679.9 355 678.9 352.1C678.8 351.8 678.7 351.6 678.5 351.3 676.9 349.6 674.8 348.5 672.4 348.1 671.7 348 671.1 348 670.5 348 669.9 348 669.3 348 668.8 348.1 666.4 348.5 664.3 349.6 662.7 351.3 662.5 351.5 662.3 351.8 662.3 352.1L661.3 355 660.6 357.1 659.8 355 658.8 352.1C658.7 351.8 658.6 351.6 658.4 351.3 656.8 349.6 654.7 348.5 652.3 348.1 651.7 348 651.1 348 650.5 348 649.9 348 649.3 348 648.8 348.1 646.4 348.5 644.3 349.6 642.7 351.3 642.5 351.5 642.3 351.8 642.3 352.1L641.3 355 640.6 357.1 639.8 355 638.8 352.1C638.7 351.8 638.6 351.6 638.4 351.3 636.8 349.6 634.7 348.5 632.3 348.1 631.7 348 631.1 348 630.5 348 629.9 348 629.3 348 628.8 348.1 626.4 348.5 624.3 349.6 622.7 351.3 622.5 351.5 622.3 351.8 622.3 352.1L621.3 355 620.6 357.1 619.8 355 618.8 352.1C618.7 351.8 618.6 351.6 618.4 351.3 616.8 349.6 614.7 348.5 612.3 348.1 611.6 348 611.1 348 610.5 348 609.9 348 609.3 348 608.8 348.1 606.4 348.5 604.3 349.6 602.7 351.3 602.5 351.5 602.3 351.8 602.3 352.1L601.3 355 598.3 364.1C597.9 365.3 598.4 366.7 599.6 367.3 600 367.5 600.3 367.5 600.7 367.5 601.7 367.5 602.7 366.8 603.1 365.8L604.7 360.9 604.7 365.9 601.7 373.9 604.7 373.9 604.7 382.9 609.7 382.9 609.7 373.9 611.7 373.9 611.7 382.9 616.7 382.9 616.7 373.9 619.7 373.9 616.7 365.7 616.7 360.8 618.3 365.7C618.6 366.7 619.6 367.4 620.7 367.4 620.7 367.4 620.7 367.4 620.7 367.4 620.7 367.4 620.7 367.4 620.7 367.4L620.7 367.4 620.7 367.4C621.7 367.4 622.7 366.7 623.1 365.7L624.7 360.8 624.7 383 629.7 383 629.7 368 631.7 368 631.7 383 636.7 383 636.7 360.9 638.3 365.8C638.7 366.9 639.6 367.5 640.7 367.5L640.7 367.5C640.7 367.5 640.7 367.5 640.7 367.5 641.7 367.5 642.7 366.8 643.1 365.8L644.7 360.9 644.7 365.8 641.7 374 644.7 374 644.7 383 649.7 383 649.7 374 651.7 374 651.7 383 656.7 383 656.7 374 659.7 374 656.7 366 656.7 361 658.3 365.9C658.6 366.9 659.6 367.6 660.7 367.6 660.7 367.6 660.7 367.6 660.7 367.6 660.7 367.6 660.7 367.6 660.7 367.6 660.7 367.6 660.7 367.6 660.7 367.6 660.7 367.6 660.7 367.6 660.7 367.6 661.7 367.6 662.7 366.9 663.1 365.9L664.7 361 664.7 383 669.7 383 669.7 368 671.7 368 671.7 383 676.7 383 676.7 360.9 678.3 365.8C678.6 366.8 679.6 367.5 680.7 367.5 681.1 367.5 681.4 367.4 681.8 367.3 682.8 366.7 683.3 365.3 682.9 364.1Z" fill="#FFFFFF"/><path d="M616.5 340C616.5 343.314 613.814 346 610.5 346 607.186 346 604.5 343.314 604.5 340 604.5 336.686 607.186 334 610.5 334 613.814 334 616.5 336.686 616.5 340Z" fill="#FFFFFF"/><path d="M656.5 340C656.5 343.314 653.814 346 650.5 346 647.186 346 644.5 343.314 644.5 340 644.5 336.686 647.186 334 650.5 334 653.814 334 656.5 336.686 656.5 340Z" fill="#FFFFFF"/><path d="M636.5 340C636.5 343.314 633.814 346 630.5 346 627.186 346 624.5 343.314 624.5 340 624.5 336.686 627.186 334 630.5 334 633.814 334 636.5 336.686 636.5 340Z" fill="#FFFFFF"/></g></svg>