<svg width="96" height="96" xmlns="http://www.w3.org/2000/svg" xmlns:xlink="http://www.w3.org/1999/xlink" overflow="hidden"><defs><clipPath id="clip0"><rect x="592" y="312" width="96" height="96"/></clipPath></defs><g clip-path="url(#clip0)" transform="translate(-592 -312)"><path d="M648 323C648 327.418 644.418 331 640 331 635.582 331 632 327.418 632 323 632 318.582 635.582 315 640 315 644.418 315 648 318.582 648 323Z" fill="#FFFFFF"/><path d="M661.8 364.2 656.2 340.4C656 339.6 655.6 338.8 655 338.2 652.6 336.2 649.8 334.8 646.6 333.8 644.4 333.4 642.2 333 640 333 637.8 333 635.6 333.4 633.4 334 630.2 334.8 627.4 336.4 625 338.4 624.4 339 624 339.8 623.8 340.6L618.2 364.4C618.2 364.6 618 365 618 365.4 618 367.6 619.8 369.4 622 369.4 623.8 369.4 625.4 368 625.8 366.4L630 349 630 405 638 405 638 369 642 369 642 405 650 405 650 348.8 654.2 366.2C654.6 367.8 656.2 369.2 658 369.2 660.2 369.2 662 367.4 662 365.2 662 364.8 661.8 364.4 661.8 364.2Z" fill="#FFFFFF"/></g></svg>