<svg width="96" height="96" xmlns="http://www.w3.org/2000/svg" xmlns:xlink="http://www.w3.org/1999/xlink" overflow="hidden"><defs><clipPath id="clip0"><rect x="592" y="312" width="96" height="96"/></clipPath></defs><g clip-path="url(#clip0)" transform="translate(-592 -312)"><path d="M672 328.2C672 332.066 668.866 335.2 665 335.2 661.134 335.2 658 332.066 658 328.2 658 324.334 661.134 321.2 665 321.2 668.866 321.2 672 324.334 672 328.2Z" fill="#FFFFFF"/><path d="M622 328.2C622 332.066 618.866 335.2 615 335.2 611.134 335.2 608 332.066 608 328.2 608 324.334 611.134 321.2 615 321.2 618.866 321.2 622 324.334 622 328.2Z" fill="#FFFFFF"/><path d="M647 328.2C647 332.066 643.866 335.2 640 335.2 636.134 335.2 633 332.066 633 328.2 633 324.334 636.134 321.2 640 321.2 643.866 321.2 647 324.334 647 328.2Z" fill="#FFFFFF"/><path d="M657.8 360.8 653.3 344.2C653.1 343.6 652.8 343 652.4 342.6 650.5 340.6 648.1 339.1 645.5 338.2 643.8 337.6 642 337.3 640.1 337.3 638.2 337.3 636.4 337.6 634.7 338.2 632 339.1 629.7 340.6 627.8 342.6 627.4 343.1 627.1 343.6 626.9 344.2L622.4 360.8C622 362.4 622.8 364.2 624.5 364.6 624.8 364.7 625 364.7 625.3 364.7 626.6 364.7 627.8 363.8 628.2 362.5L632.2 347.9 632.2 398.8 638.2 398.8 638.2 370.2 642.2 370.2 642.2 398.7 648.2 398.7 648.2 347.9 652.2 362.5C652.6 363.8 653.8 364.7 655.1 364.7 655.4 364.7 655.6 364.7 655.9 364.6 657.3 364.2 658.2 362.4 657.8 360.8Z" fill="#FFFFFF"/><path d="M620.3 360.3 624.8 343.7C625 342.8 625.5 342 626 341.3 624.4 339.9 622.4 338.8 620.3 338.1 618.6 337.5 616.8 337.2 614.9 337.2 613 337.2 611.2 337.5 609.5 338.1 606.8 339 604.5 340.5 602.6 342.5 602.2 343 601.9 343.5 601.7 344.1L597.2 360.8C596.8 362.4 597.6 364.2 599.3 364.6 599.6 364.7 599.8 364.7 600.1 364.7 601.4 364.7 602.6 363.8 603 362.5L607 347.9 607 398.8 613 398.8 613 370.2 617 370.2 617 398.7 623 398.7 623 366.3C620.9 365.3 619.7 362.8 620.3 360.3Z" fill="#FFFFFF"/><path d="M682.8 360.8 678.2 344.2C678 343.6 677.7 343 677.3 342.6 675.4 340.6 673 339.1 670.4 338.2 668.7 337.6 666.9 337.3 665 337.3 663.1 337.3 661.3 337.6 659.6 338.2 657.5 338.9 655.6 340 653.9 341.4 654.5 342.1 654.9 342.9 655.1 343.7L659.6 360.3C660.3 362.8 659 365.3 656.9 366.3L656.9 398.8 662.9 398.8 662.9 370.2 666.9 370.2 666.9 398.7 672.9 398.7 672.9 347.9 676.9 362.5C677.3 363.8 678.5 364.7 679.8 364.7 680.1 364.7 680.3 364.7 680.6 364.6 682.3 364.2 683.2 362.4 682.8 360.8Z" fill="#FFFFFF"/></g></svg>