<svg width="96" height="96" xmlns="http://www.w3.org/2000/svg" xmlns:xlink="http://www.w3.org/1999/xlink" overflow="hidden"><defs><clipPath id="clip0"><rect x="592" y="312" width="96" height="96"/></clipPath></defs><g clip-path="url(#clip0)" transform="translate(-592 -312)"><path d="M640 331.5C644.4 331.5 648 327.9 648 323.5 648 319.1 644.4 315.5 640 315.5 635.6 315.5 632 319.1 632 323.5 632 327.9 635.6 331.5 640 331.5" fill="#FFFFFF"/><path d="M660 361.5 664 349.5 616 349.5 620 361.5 626 361.5 630 400.5 624 400.5 624 404.5 656 404.5 656 400.5 650 400.5 654 361.5Z" fill="#FFFFFF"/><path d="M656.2 340.9C656 340.1 655.6 339.3 655 338.7 652.6 336.7 649.8 335.3 646.6 334.3 644.4 333.9 642.2 333.5 640 333.5 637.8 333.5 635.6 333.9 633.4 334.5 630.2 335.3 627.4 336.9 625 338.9 624.4 339.5 624 340.3 623.8 341.1L622.8 345.5 657.3 345.5 656.2 340.9Z" fill="#FFFFFF"/></g></svg>