<svg width="96" height="96" xmlns="http://www.w3.org/2000/svg" xmlns:xlink="http://www.w3.org/1999/xlink" overflow="hidden"><defs><clipPath id="clip0"><rect x="592" y="312" width="96" height="96"/></clipPath></defs><g clip-path="url(#clip0)" transform="translate(-592 -312)"><path d="M664.2 325C664.2 329.418 660.618 333 656.2 333 651.782 333 648.2 329.418 648.2 325 648.2 320.582 651.782 317 656.2 317 660.618 317 664.2 320.582 664.2 325Z" fill="#FFFFFF"/><path d="M675.6 336C673.6 335 671.2 335.7 670.2 337.7L666.7 344.3 651.3 334.6C650.7 334.2 650 334 649.2 334L632.2 334C630.7 334 629.4 334.8 628.7 336.1L622.2 348.1C621.1 350 621.9 352.5 623.8 353.5 624.4 353.8 625.1 354 625.7 354 627.1 354 628.5 353.2 629.2 351.9L634.6 342 640.5 342 622.8 375 606.2 375C604 375 602.2 376.8 602.2 379 602.2 381.2 604 383 606.2 383L625.2 383C626.7 383 628 382.2 628.7 380.9L635.7 368 647.2 378.7 646.3 398.8C646.1 401 647.8 402.9 650 403 650.1 403 650.1 403 650.2 403 652.3 403 654.1 401.3 654.2 399.2L655.2 377.2C655.3 376 654.8 374.9 653.9 374.1L644.2 365.1 654.4 346.1 666 353.4C666.9 354 668.1 354.2 669.2 353.9 670.3 353.6 671.2 352.9 671.7 351.9L677.2 341.4C678.3 339.5 677.6 337.1 675.6 336Z" fill="#FFFFFF"/></g></svg>