<svg width="96" height="96" xmlns="http://www.w3.org/2000/svg" xmlns:xlink="http://www.w3.org/1999/xlink" overflow="hidden"><defs><clipPath id="clip0"><rect x="592" y="312" width="96" height="96"/></clipPath></defs><g clip-path="url(#clip0)" transform="translate(-592 -312)"><path d="M680 346.5C680 353.404 674.404 359 667.5 359 660.596 359 655 353.404 655 346.5 655 339.596 660.596 334 667.5 334 674.404 334 680 339.596 680 346.5Z" fill="#FFFFFF"/><path d="M610 371C610 372.6 610.6 374 611.6 375.1 609.2 373.9 608 371.8 608 368 608 360.6 614.8 359.6 624 359L624 372.8 622 369C620.7 366.4 618.8 365 616 365 612.7 365 610 367.7 610 371ZM601 383C601 385.2 602.8 387 605 387L625 387C626.5 387 628 386.1 628.6 384.7 629.3 383.3 628.9 381.7 628.1 380.5L626.7 378 625.9 376.5 650.2 369.8 651.1 374.7C651.2 375.5 651.6 376.3 652.2 376.8L661.2 385.8C662 386.6 663 387 664 387 665 387 666 386.6 666.8 385.8 668.4 384.2 668.4 381.7 666.8 380.1L658.7 372 655.9 356.2C655.6 354.3 653.9 352.9 652 352.9L624 354.9C616.2 355.4 604 356.2 604 367.9 604 374.2 606.8 377.3 610.7 378.9L605 378.9C602.8 379 601 380.8 601 383Z" fill="#FFFFFF"/></g></svg>