<svg width="96" height="96" xmlns="http://www.w3.org/2000/svg" xmlns:xlink="http://www.w3.org/1999/xlink" overflow="hidden"><defs><clipPath id="clip0"><rect x="592" y="312" width="96" height="96"/></clipPath></defs><g clip-path="url(#clip0)" transform="translate(-592 -312)"><path d="M648.1 323C648.1 327.418 644.518 331 640.1 331 635.682 331 632.1 327.418 632.1 323 632.1 318.582 635.682 315 640.1 315 644.518 315 648.1 318.582 648.1 323Z" fill="#FFFFFF"/><path d="M661.9 363.8 654.7 339C654.5 338 653.9 337.2 653.1 336.8 650.7 335.2 647.9 334.2 644.7 333.4 643.1 333.2 641.7 333 640.1 333 638.5 333 637.1 333.2 635.5 333.4 632.3 334 629.5 335.2 627.1 336.8 626.3 337.4 625.7 338 625.5 339L618.1 363.8C617.5 366 618.7 368.2 620.9 368.8 621.3 369 621.7 369 622.1 369 623.9 369 625.5 367.8 625.9 366.2L632.1 345.2 632.1 352.2 624.7 377 630.1 377 630.1 405 638.1 405 638.1 377 642.1 377 642.1 405 650.1 405 650.1 377 655.5 377 648.1 352.2 648.1 345.2 654.3 366.2C654.9 368 656.5 369 658.1 369 658.5 369 658.9 369 659.3 368.8 661.3 368.2 662.5 366 661.9 363.8Z" fill="#FFFFFF"/></g></svg>