<svg width="96" height="96" xmlns="http://www.w3.org/2000/svg" xmlns:xlink="http://www.w3.org/1999/xlink" overflow="hidden"><defs><clipPath id="clip0"><rect x="592" y="312" width="96" height="96"/></clipPath></defs><g clip-path="url(#clip0)" transform="translate(-592 -312)"><path d="M660.5 359C660.1 359 659.8 359 659.4 359.1 659.1 357.9 658.3 356.8 657 356.3L648.5 352.9 643 340.2 643 340.2C641.9 337.2 639 335 635.5 335 633.7 335 632.1 335.6 630.8 336.5L630.8 336.5 617.3 345.6C616.5 346.2 615.9 347 615.6 348L612.6 361C612.1 363.2 613.4 365.3 615.6 365.8 615.9 365.9 616.2 365.9 616.5 365.9 618.3 365.9 620 364.6 620.4 362.8L623 351.4 625.5 349.7C624.5 356.5 624.4 361.9 624.4 362.8L623.4 380.3 619.5 398C619 400.2 620.4 402.3 622.5 402.8 622.8 402.9 623.1 402.9 623.4 402.9 625.2 402.9 626.9 401.6 627.3 399.8L631.3 381.8C631.3 381.6 631.4 381.4 631.4 381.2L631.9 371.4 638.4 378.6 639.3 397.2C639.4 399.3 641.2 401 643.3 401 643.4 401 643.4 401 643.5 401 645.7 400.9 647.4 399 647.3 396.8L646.3 376.8C646.3 375.9 645.9 375 645.3 374.3L638.3 366.6 638.3 350.4C638.3 350.4 638.4 350.4 638.4 350.3L641.6 357.6C642 358.6 642.8 359.3 643.8 359.7L653.7 363.7C653.4 364.4 653.3 365.2 653.3 366 653.3 368.2 654.3 370.1 655.9 371.4 655.9 371.4 656 371.5 656 371.5 656.3 371.8 656.8 372 657.3 372 658.4 372 659.3 371.1 659.3 370 659.3 369.3 659 368.7 658.5 368.4 658 367.8 657.5 367 657.5 366 657.5 364.3 658.8 363 660.5 363 662.2 363 663.5 364.3 663.5 366L663.5 372.3 663.5 375 663.5 401C663.5 402.1 664.4 403 665.5 403 666.6 403 667.5 402.1 667.5 401L667.5 366C667.5 362.1 664.4 359 660.5 359Z" fill="#FFFFFF"/><path d="M649 326C649 330.418 645.418 334 641 334 636.582 334 633 330.418 633 326 633 321.582 636.582 318 641 318 645.418 318 649 321.582 649 326Z" fill="#FFFFFF"/></g></svg>