<svg width="512" height="512" xmlns="http://www.w3.org/2000/svg" xmlns:xlink="http://www.w3.org/1999/xlink" overflow="hidden"><defs><clipPath id="clip0"><rect x="384" y="104" width="512" height="512"/></clipPath></defs><g clip-path="url(#clip0)" transform="translate(-384 -104)"><path d="M776 615.963 504 615.963C437.832 615.963 384 562.131 384 495.963L384 327.692C384 290.501 401.655 254.832 431.226 232.277L567.226 128.548C610.075 95.867 669.925 95.867 712.774 128.548L848.774 232.277C878.345 254.831 896 290.5 896 327.692L896 495.963C896 562.131 842.168 615.963 776 615.963ZM640 144.012C622.881 144.012 605.769 149.458 591.484 160.352L455.484 264.081C435.77 279.118 424 302.897 424 327.692L424 495.963C424 540.075 459.888 575.963 504 575.963L776 575.963C820.112 575.963 856 540.075 856 495.963L856 327.692C856 302.898 844.23 279.118 824.516 264.082L688.516 160.353C674.235 149.461 657.115 144.012 640 144.012ZM640 498.892C626.583 498.893 613.171 494.702 601.975 486.319 555.776 451.727 530.889 410.296 530.004 366.505 530.002 366.37 530 366.235 530 366.101 530 330.184 559.159 300.964 595 300.964 612.448 300.964 628.313 307.874 640 319.102 651.688 307.874 667.552 300.964 685 300.964 720.841 300.964 750 330.184 750 366.101 750 366.236 749.999 366.371 749.996 366.505 749.111 410.296 724.224 451.727 678.024 486.319 666.832 494.7 653.414 498.891 640 498.892ZM570 365.915C570.901 405.005 600.908 435.549 625.95 454.3 634.223 460.495 645.779 460.495 654.049 454.3 679.091 435.55 709.098 405.006 709.999 365.915 709.899 352.139 698.723 340.962 684.999 340.962 671.214 340.962 659.999 352.177 659.999 365.962 659.999 377.008 651.045 385.962 639.999 385.962 628.953 385.962 619.999 377.008 619.999 365.962 619.999 352.177 608.784 340.962 594.999 340.962 581.276 340.963 570.1 352.139 570 365.915Z" fill="#FFFFFF"/></g></svg>