<svg width="512" height="512" xmlns="http://www.w3.org/2000/svg" xmlns:xlink="http://www.w3.org/1999/xlink" overflow="hidden"><defs><clipPath id="clip0"><rect x="384" y="104" width="512" height="512"/></clipPath></defs><g clip-path="url(#clip0)" transform="translate(-384 -104)"><path d="M776 616 504 616C437.832 616 384 562.168 384 496L384 360C384 291.62 410.629 227.333 458.98 178.98 507.333 130.629 571.62 104 640 104 708.38 104 772.667 130.629 821.02 178.98 869.371 227.333 896 291.62 896 360L896 496C896 562.168 842.168 616 776 616ZM640 144C520.897 144 424 240.897 424 360L424 496C424 540.112 459.888 576 504 576L776 576C820.112 576 856 540.112 856 496L856 360C856 240.897 759.103 144 640 144ZM725 414C691.916 414 665 387.084 665 354 665 320.916 691.916 294 725 294 758.084 294 785 320.916 785 354 785 387.084 758.084 414 725 414ZM725 334C713.972 334 705 342.972 705 354 705 365.028 713.972 374 725 374 736.028 374 745 365.028 745 354 745 342.972 736.028 334 725 334ZM546.979 536.004C537.705 536.004 529.386 529.517 527.42 520.079 514.114 456.209 472.419 424.315 472 424 466.411 419.808 463.414 413.003 464.095 406.049 464.777 399.096 469.037 393.002 475.334 389.975 561.913 348.35 627.017 282.525 658.654 204.624 660.27 200.644 661.16 198.452 663 195.999 669.627 187.163 682.162 185.372 691 191.999 699.026 198.019 700 208.999 695.714 219.674 691.162 231.013 677.125 265.445 645.888 305.333 612.07 348.517 569.046 384.673 517.747 413.074 534.696 432.524 556.894 465.432 566.579 511.92 568.832 522.733 561.892 533.326 551.079 535.579 549.704 535.866 548.331 536.004 546.979 536.004ZM814 518C814 472.785 776.698 436 730.848 436L719.153 436C673.302 436 636 472.785 636 518 636 529.046 644.954 538 656 538 667.046 538 676 529.046 676 518 676 494.841 695.358 476 719.152 476L730.847 476C754.642 476 774 494.841 774 518 774 529.046 782.954 538 794 538 805.046 538 814 529.046 814 518Z" fill="#FFFFFF"/></g></svg>