<svg width="512" height="512" xmlns="http://www.w3.org/2000/svg" xmlns:xlink="http://www.w3.org/1999/xlink" overflow="hidden"><defs><clipPath id="clip0"><rect x="384" y="104" width="512" height="512"/></clipPath></defs><g clip-path="url(#clip0)" transform="translate(-384 -104)"><path d="M668.989 402.91C636.208 402.91 609.302 429.575 609.01 462.35 608.997 463.728 607.941 464.891 606.7 464.891L506.346 464.891C505.236 464.891 504.039 464.266 504.039 462.892 504.039 429.818 477.131 402.91 444.057 402.91 410.983 402.91 384.075 429.818 384.075 462.892 384.075 511.559 412.731 553.654 454.054 573.205L454.054 596.005C454.054 607.048 463.005 615.999 474.048 615.999 485.091 615.999 494.042 607.048 494.042 596.005L494.042 584.266C497.99 584.652 501.991 584.855 506.038 584.855L607.008 584.855C611.056 584.855 615.057 584.652 619.004 584.266L619.004 595.852C619.004 606.895 627.956 615.846 638.998 615.846 650.041 615.846 658.992 606.895 658.992 595.852L658.992 573.205C700.315 553.654 728.971 511.559 728.971 462.892 728.971 429.818 702.063 402.91 668.989 402.91ZM607.008 544.867 506.038 544.867C460.837 544.867 424.063 508.093 424.063 462.892 424.063 451.867 433.032 442.898 444.057 442.898 455.082 442.898 464.051 451.867 464.051 462.892 464.051 486.044 483.024 504.879 506.346 504.879L606.701 504.879C629.816 504.879 648.789 485.961 648.997 462.706 649.095 451.783 658.064 442.898 668.99 442.898 680.015 442.898 688.984 451.867 688.984 462.892 688.983 508.093 652.209 544.867 607.008 544.867ZM433.431 350.649C453.219 299.989 502.485 265.951 556.023 265.951 609.561 265.951 658.827 299.989 678.615 350.649 682.633 360.935 677.552 372.529 667.266 376.547 664.877 377.481 662.415 377.923 659.996 377.923 652 377.923 644.452 373.094 641.368 365.197 627.524 329.753 593.226 305.939 556.023 305.939 518.82 305.939 484.523 329.753 470.678 365.198 466.66 375.484 455.066 380.563 444.78 376.548 434.495 372.529 429.413 360.935 433.431 350.649ZM875.927 595.852C875.927 606.895 866.976 615.846 855.933 615.846L818.944 615.846C785.87 615.846 758.962 588.938 758.962 555.864L758.962 345.927C758.962 334.885 767.914 325.933 778.956 325.933 789.999 325.933 798.95 334.885 798.95 345.927L798.95 555.864C798.95 566.889 807.919 575.858 818.944 575.858L855.933 575.858C866.976 575.858 875.927 584.809 875.927 595.852ZM828.941 375.918 828.941 345.927C828.941 334.885 837.892 325.933 848.935 325.933 859.978 325.933 868.929 334.885 868.929 345.927L868.929 375.918C868.929 386.961 859.978 395.912 848.935 395.912 837.892 395.912 828.941 386.961 828.941 375.918ZM845.918 295.942 711.994 295.942C696.683 295.942 682.43 289.074 672.89 277.099 663.356 265.131 659.849 249.713 663.268 234.801 669.551 207.399 679.822 174.734 687.332 152.157 696.913 123.352 723.748 104 754.109 104L803.805 104C834.166 104 861 123.352 870.581 152.156 878.09 174.733 888.361 207.399 894.644 234.8 898.063 249.712 894.556 265.13 885.022 277.098 875.482 289.074 861.229 295.942 845.918 295.942ZM754.109 143.988C740.999 143.988 729.412 152.342 725.276 164.777 718.043 186.525 708.176 217.88 702.245 243.738 701.311 247.813 703.049 250.778 704.168 252.182 705.29 253.591 707.799 255.953 711.995 255.953L845.919 255.953C850.116 255.953 852.625 253.59 853.747 252.182 854.865 250.778 856.603 247.813 855.669 243.738 849.739 217.879 839.872 186.525 832.638 164.776 828.5 152.342 816.914 143.988 803.805 143.988Z" fill="#FFFFFF"/></g></svg>