<svg width="512" height="512" xmlns="http://www.w3.org/2000/svg" xmlns:xlink="http://www.w3.org/1999/xlink" overflow="hidden"><defs><clipPath id="clip0"><rect x="384" y="104" width="512" height="512"/></clipPath></defs><g clip-path="url(#clip0)" transform="translate(-384 -104)"><path d="M890.142 581.858 418.142 109.858C410.331 102.047 397.668 102.047 389.858 109.858 382.048 117.669 382.047 130.332 389.858 138.142L406.18 154.465C391.782 174.66 384 198.809 384 224L384 496C384 562.168 437.832 616 504 616L630 616C695.414 616 748.764 563.387 749.971 498.256L861.857 610.143C865.763 614.047 870.881 616 876 616 881.119 616 886.237 614.047 890.142 610.142 897.953 602.332 897.953 589.668 890.142 581.858ZM710 459 710 496C710 540.112 674.112 576 630 576L504 576C459.888 576 424 540.112 424 496L424 224C424 209.521 427.869 195.567 435.082 183.366L710.035 458.319C710.027 458.547 710 458.77 710 459ZM494 124C494 112.954 502.954 104 514 104L630 104C696.168 104 750 157.832 750 224L750 271C750 282.046 741.046 291 730 291 718.954 291 710 282.046 710 271L710 224C710 179.888 674.112 144 630 144L514 144C502.954 144 494 135.046 494 124ZM818 445C812.872 445 807.746 443.041 803.839 439.124 796.039 431.303 796.056 418.64 803.877 410.839L850.166 364.673C853.93 360.922 856 355.942 856 350.648 856 345.375 853.945 340.412 850.212 336.668L803.986 291.269C796.106 283.529 795.991 270.867 803.731 262.986 811.471 255.105 824.133 254.991 832.014 262.731L878.303 308.192C878.339 308.227 878.374 308.262 878.409 308.297 889.753 319.606 895.999 334.647 895.999 350.648 895.999 366.649 889.752 381.689 878.409 392.998L832.122 439.162C828.22 443.054 823.109 445 818 445ZM816 351C816 339.954 807.046 331 796 331L730 331C718.954 331 710 339.954 710 351 710 362.046 718.954 371 730 371L796 371C807.046 371 816 362.046 816 351Z" fill="#FFFFFF"/></g></svg>