<svg width="512" height="512" xmlns="http://www.w3.org/2000/svg" xmlns:xlink="http://www.w3.org/1999/xlink" overflow="hidden"><defs><clipPath id="clip0"><rect x="384" y="104" width="512" height="512"/></clipPath></defs><g clip-path="url(#clip0)" transform="translate(-384 -104)"><path d="M798 480.963C762.159 480.963 733 451.804 733 415.963 733 380.122 762.159 350.963 798 350.963 833.841 350.963 863 380.122 863 415.963 863 451.804 833.841 480.963 798 480.963ZM798 390.963C784.215 390.963 773 402.178 773 415.963 773 429.748 784.215 440.963 798 440.963 811.785 440.963 823 429.748 823 415.963 823 402.178 811.785 390.963 798 390.963ZM638 491.963C602.159 491.963 573 462.804 573 426.963 573 391.122 602.159 361.963 638 361.963 673.841 361.963 703 391.122 703 426.963 703 462.804 673.841 491.963 638 491.963ZM638 401.963C624.215 401.963 613 413.178 613 426.963 613 440.748 624.215 451.963 638 451.963 651.785 451.963 663 440.748 663 426.963 663 413.178 651.785 401.963 638 401.963ZM517.965 596.966C518.617 585.94 510.208 576.472 499.181 575.82 457.023 573.326 424 538.248 424 495.963L424 327.692C424 302.898 435.77 279.118 455.484 264.082L591.484 160.353C620.05 138.567 659.951 138.567 688.516 160.353L824.516 264.082C844.23 279.118 856 302.897 856 327.692 856 338.738 864.954 347.692 876 347.692 887.046 347.692 896 338.738 896 327.692 896 290.501 878.345 254.831 848.774 232.277L712.774 128.548C669.925 95.867 610.075 95.867 567.226 128.548L431.226 232.277C401.655 254.831 384 290.5 384 327.692L384 495.963C384 559.391 433.556 612.007 496.819 615.751 497.221 615.774 497.621 615.786 498.019 615.786 508.523 615.785 517.336 607.59 517.965 596.966ZM590 595.963C590 574.458 607.716 556.963 629.491 556.963L656 556.963C667.046 556.963 676 548.009 676 536.963 676 525.917 667.046 516.963 656 516.963L629.491 516.963C585.659 516.963 550 552.402 550 595.963 550 607.009 558.954 615.963 570 615.963 581.046 615.963 590 607.008 590 595.963ZM896 595.963C896 544.744 854.182 503.074 802.78 503.074L789.22 503.074C737.818 503.074 696 544.744 696 595.963 696 607.009 704.954 615.963 716 615.963 727.046 615.963 736 607.009 736 595.963 736 566.8 759.875 543.074 789.22 543.074L802.78 543.074C832.126 543.074 856 566.8 856 595.963 856 607.009 864.954 615.963 876 615.963 887.046 615.963 896 607.008 896 595.963Z" fill="#FFFFFF"/></g></svg>