<svg width="512" height="512" xmlns="http://www.w3.org/2000/svg" xmlns:xlink="http://www.w3.org/1999/xlink" overflow="hidden"><defs><clipPath id="clip0"><rect x="384" y="104" width="512" height="512"/></clipPath></defs><g clip-path="url(#clip0)" transform="translate(-384 -104)"><path d="M532.211 558.113C532.211 569.138 523.274 578.074 512.25 578.074L506.261 578.074C491.539 578.074 477.419 575.446 464.343 570.638L464.343 595.195C464.343 606.219 455.407 615.156 444.382 615.156 433.358 615.156 424.421 606.219 424.421 595.195L424.421 547.135C424.421 546.895 424.449 546.662 424.457 546.426 399.925 524.135 384.499 491.991 384.499 456.312L384.499 406.409C384.499 373.39 411.363 346.526 444.382 346.526 477.402 346.526 504.265 373.39 504.265 406.409L504.265 456.312C504.265 457.413 505.16 458.308 506.261 458.308 517.286 458.308 526.222 467.245 526.222 478.269 526.222 489.293 517.286 498.23 506.261 498.23 483.147 498.23 464.343 479.426 464.343 456.312L464.343 406.409C464.343 395.403 455.389 386.448 444.382 386.448 433.376 386.448 424.421 395.403 424.421 406.409L424.421 456.312C424.421 501.439 461.134 538.152 506.261 538.152L512.25 538.152C523.274 538.152 532.211 547.089 532.211 558.113ZM878.344 364.45C867.294 353.2 852.534 346.839 836.779 346.537 820.809 346.229 805.627 352.313 794.059 363.66 782.415 375.085 775.736 390.954 775.736 407.198L775.736 456.312C775.736 457.413 774.841 458.308 773.74 458.308 762.715 458.308 753.779 467.245 753.779 478.269 753.779 489.293 762.715 498.23 773.74 498.23 796.854 498.23 815.658 479.426 815.658 456.312L815.658 407.198C815.658 401.605 817.975 396.123 822.017 392.158 825.869 388.381 830.854 386.377 836.015 386.452 846.802 386.658 855.579 395.611 855.579 406.409L855.579 456.312C855.579 501.439 818.866 538.152 773.739 538.152L768.749 538.152C757.724 538.152 748.788 547.089 748.788 558.113 748.788 569.138 757.724 578.074 768.749 578.074L773.739 578.074C788.838 578.074 803.301 575.303 816.655 570.257L816.655 596.039C816.655 607.063 825.592 616 836.616 616 847.64 616 856.577 607.063 856.577 596.039L856.577 547.135C856.577 546.596 856.538 546.067 856.496 545.539 880.471 523.287 895.501 491.524 895.501 456.312L895.501 406.409C895.501 390.617 889.408 375.716 878.344 364.45ZM546.183 209.793C492.112 209.793 445.266 242.039 423.924 293.947 419.732 304.143 424.6 315.806 434.796 319.999 437.28 321.02 439.85 321.504 442.379 321.504 450.231 321.504 457.677 316.84 460.849 309.128 476.142 271.925 508.044 249.715 546.183 249.715 557.208 249.715 566.144 240.779 566.144 229.754 566.144 218.73 557.208 209.793 546.183 209.793ZM819.152 309.127C822.324 316.84 829.769 321.503 837.622 321.503 840.149 321.503 842.721 321.019 845.205 319.998 855.401 315.806 860.269 304.142 856.077 293.946 834.734 242.039 787.888 209.793 733.817 209.793 722.792 209.793 713.856 218.73 713.856 229.754 713.856 240.779 722.792 249.715 733.817 249.715 771.956 249.715 803.858 271.925 819.152 309.127ZM704.873 168.873C704.873 204.644 675.771 233.747 640 233.747 604.229 233.747 575.127 204.644 575.127 168.873 575.127 133.102 604.229 104 640 104 675.771 104 704.873 133.102 704.873 168.873ZM664.951 168.873C664.951 155.115 653.758 143.922 640 143.922 626.242 143.922 615.049 155.115 615.049 168.873 615.049 182.631 626.242 193.825 640 193.825 653.758 193.825 664.951 182.631 664.951 168.873ZM605.061 615.007C596.513 615.007 588.605 609.473 585.979 600.873L548.715 478.902C548.654 478.705 548.599 478.509 548.545 478.311 543.746 460.68 547.196 442.106 558.008 427.347 568.6 412.89 584.858 404.185 602.613 403.465 603.432 403.432 636.007 403.415 636.007 403.415 647.031 403.415 655.968 412.352 655.968 423.376 655.968 434.401 647.031 443.337 636.007 443.337L605.067 443.337C604.785 443.337 604.503 443.343 604.223 443.354 596.644 443.662 592.19 448.24 590.212 450.94 586.674 455.769 585.509 461.819 586.999 467.581L624.156 589.209C627.378 599.752 621.441 610.91 610.899 614.132 608.958 614.724 606.992 615.007 605.061 615.007ZM695.034 600.83 717.068 528.115C729.506 487.068 735.813 444.508 735.813 401.619L735.813 350.519C735.813 299.399 694.076 257.811 642.775 257.811L629.241 257.811C577.94 257.811 536.203 299.399 536.203 350.519 536.203 361.543 545.139 370.48 556.164 370.48 567.188 370.48 576.125 361.543 576.125 350.519 576.125 321.412 599.952 297.733 629.241 297.733L642.776 297.733C672.064 297.733 695.892 321.412 695.892 350.519L695.892 401.62C695.892 440.584 690.163 479.247 678.862 516.538L656.826 589.252C653.629 599.803 659.591 610.947 670.141 614.145 672.071 614.729 674.02 615.008 675.937 615.008 684.502 615.007 692.421 609.451 695.034 600.83Z" fill="#FFFFFF"/></g></svg>