<svg width="512" height="512" xmlns="http://www.w3.org/2000/svg" xmlns:xlink="http://www.w3.org/1999/xlink" overflow="hidden"><defs><clipPath id="clip0"><rect x="384" y="104" width="512" height="512"/></clipPath></defs><g clip-path="url(#clip0)" transform="translate(-384 -104)"><path d="M690.989 220.008C683.652 220.008 676.59 215.957 673.085 208.948 670.326 203.431 664.781 200.004 658.613 200.004L621.334 200.004C615.166 200.004 609.621 203.431 606.862 208.948 601.921 218.828 589.906 222.832 580.029 217.892 570.15 212.952 566.146 200.939 571.086 191.059 580.663 171.903 599.918 160.004 621.334 160.004L658.613 160.004C680.029 160.004 699.284 171.903 708.861 191.059 713.8 200.938 709.797 212.952 699.918 217.892 697.047 219.327 693.994 220.007 690.989 220.008ZM786.098 599.406C793.918 591.605 793.933 578.942 786.132 571.122 778.33 563.303 765.667 563.286 757.848 571.088 754.718 574.21 750.39 576.001 745.973 576.001 742.459 576.001 737.372 575.106 733.098 570.842 722.702 560.471 708.049 554.864 691.783 555.003 676.12 555.151 661.937 560.777 651.849 570.842 648.584 574.099 644.219 575.979 639.874 576.001 639.85 576.001 639.825 576.001 639.801 576.001 635.589 576.001 631.436 574.17 628.099 570.842 617.418 560.187 602.024 553.919 586.827 554.003 572.04 554.112 557.47 560.25 546.85 570.842 543.643 574.041 539.15 575.969 534.831 576.001 534.795 576.001 534.759 576.001 534.723 576.001 530.501 576.001 526.485 574.219 523.1 570.842 515.283 563.041 502.618 563.055 494.816 570.875 487.015 578.695 487.03 591.358 494.85 599.159 505.842 610.126 520.129 616.097 535.12 615.999 549.908 615.892 564.48 609.754 575.099 599.16 578.305 595.961 582.8 594.033 587.12 594.001L587.232 594.001C591.758 594.001 596.699 596.019 599.848 599.16 610.742 610.027 624.917 616.001 639.795 616.001L640.073 616.001C654.855 615.927 669.444 609.789 680.098 599.16 683.659 595.607 689.186 595.029 692.163 595 694.725 594.99 701.01 595.333 704.846 599.161 715.733 610.02 730.338 616.001 745.971 616.001 760.901 616 775.526 609.952 786.098 599.406ZM845.972 394.002 845.972 322.002C845.972 276.788 809.188 240.003 763.973 240.003L515.975 240.003C470.76 240.003 433.976 276.788 433.976 322.002L433.976 394.002C433.976 460.169 487.807 514.001 553.975 514.001L725.973 514.001C792.14 514.001 845.972 460.169 845.972 394.002ZM763.973 280.003C787.132 280.003 805.973 298.843 805.973 322.002L805.973 394.002C805.973 438.113 770.085 474.001 725.973 474.001L553.975 474.001C509.863 474.001 473.975 438.113 473.975 394.002L473.975 322.002C473.975 298.843 492.816 280.003 515.975 280.003ZM765.973 340.002C765.973 328.956 757.019 320.002 745.973 320.002L533.975 320.002C522.929 320.002 513.975 328.956 513.975 340.002 513.975 351.048 522.929 360.002 533.975 360.002L745.973 360.002C757.018 360.002 765.973 351.048 765.973 340.002ZM518.711 200.005C514.695 200.005 510.644 198.8 507.124 196.294 498.128 189.885 496.029 177.397 502.437 168.4 502.971 167.651 503.339 167.056 503.589 166.61 503.151 165.81 502.551 164.804 502.063 163.987 497.181 155.813 487.023 138.805 501.426 113.97 506.967 104.414 519.207 101.16 528.761 106.703 538.316 112.245 541.57 124.483 536.028 134.038 534.035 137.475 533.974 138.943 533.974 138.957 534.119 139.649 535.494 141.952 536.404 143.476 541.274 151.63 551.408 168.596 535.017 191.606 531.116 197.084 524.959 200.005 518.711 200.005ZM455.018 191.607C471.409 168.596 461.275 151.63 456.405 143.477 455.495 141.954 454.12 139.651 453.975 138.958 453.975 138.944 454.036 137.476 456.029 134.039 461.571 124.484 458.317 112.246 448.763 106.704 439.209 101.16 426.97 104.414 421.428 113.97 407.025 138.805 417.183 155.813 422.065 163.987 422.553 164.804 423.154 165.809 423.591 166.61 423.341 167.056 422.973 167.651 422.439 168.4 416.031 177.397 418.129 189.885 427.126 196.294 430.646 198.801 434.697 200.005 438.713 200.005 444.96 200.005 451.116 197.084 455.018 191.607ZM857.014 191.607C873.405 168.596 863.271 151.63 858.401 143.477 857.491 141.954 856.116 139.651 855.971 138.958 855.971 138.944 856.032 137.476 858.025 134.039 863.567 124.484 860.313 112.246 850.758 106.704 841.204 101.161 828.964 104.414 823.424 113.971 809.021 138.806 819.179 155.814 824.061 163.988 824.549 164.805 825.15 165.81 825.587 166.611 825.337 167.057 824.969 167.652 824.435 168.401 818.027 177.398 820.125 189.886 829.122 196.295 832.641 198.802 836.693 200.006 840.708 200.006 846.956 200.005 853.113 197.084 857.014 191.607ZM777.015 191.607C793.406 168.596 783.272 151.63 778.402 143.477 777.492 141.954 776.117 139.651 775.972 138.958 775.972 138.944 776.033 137.476 778.026 134.039 783.568 124.484 780.314 112.246 770.759 106.704 761.205 101.161 748.966 104.414 743.424 113.971 729.021 138.806 739.179 155.814 744.061 163.988 744.549 164.805 745.15 165.81 745.587 166.611 745.337 167.057 744.969 167.652 744.435 168.401 738.027 177.398 740.125 189.886 749.122 196.295 752.642 198.802 756.693 200.006 760.709 200.006 766.957 200.005 773.114 197.084 777.015 191.607Z" fill="#FFFFFF"/></g></svg>