<svg width="512" height="512" xmlns="http://www.w3.org/2000/svg" xmlns:xlink="http://www.w3.org/1999/xlink" overflow="hidden"><defs><clipPath id="clip0"><rect x="384" y="104" width="512" height="512"/></clipPath></defs><g clip-path="url(#clip0)" transform="translate(-384 -104)"><path d="M474 306C509.841 306 539 276.841 539 241 539 205.159 509.841 176 474 176 438.159 176 409 205.159 409 241 409 276.841 438.159 306 474 306ZM474 216C487.785 216 499 227.215 499 241 499 254.785 487.785 266 474 266 460.215 266 449 254.785 449 241 449 227.215 460.215 216 474 216ZM876 289C864.954 289 856 297.954 856 309L856 501C856 520.299 840.299 536 821 536L459 536C439.701 536 424 520.299 424 501 424 481.701 439.701 466 459 466L527 466C538.046 466 547 457.046 547 446 547 437.236 541.354 429.808 533.509 427.105 537.03 419.109 539 410.282 539 401 539 365.159 509.841 336 474 336 438.159 336 409 365.159 409 401 409 414.311 413.028 426.697 419.921 437.013 398.394 450.209 384 473.953 384 501 384 537.219 409.808 567.522 444 574.491L444 596C444 607.046 452.954 616 464 616 475.046 616 484 607.046 484 596L484 576 802 576 802 596C802 607.046 810.954 616 822 616 833.046 616 842 607.046 842 596L842 572.986C873.163 563.879 896 535.065 896 501L896 309C896 297.954 887.046 289 876 289ZM474 376C487.785 376 499 387.215 499 401 499 414.785 487.785 426 474 426 460.215 426 449 414.785 449 401 449 387.215 460.215 376 474 376ZM580 421 580 251.118C580 231.054 587.821 212.2 602.024 198.028 616.186 183.896 634.994 176.118 654.995 176.118L655.161 176.118C666.207 176.142 675.141 185.116 675.118 196.161 675.095 207.192 666.144 216.118 655.119 216.118 655.08 216.118 655.038 216.118 654.998 216.118 645.663 216.118 636.888 219.747 630.278 226.343 623.65 232.956 620 241.755 620 251.118L620 421C620 440.299 635.701 456 655 456L796 456C807.046 456 816 464.954 816 476 816 487.046 807.046 496 796 496L655 496C613.645 496 580 462.355 580 421ZM796 284.378C783.605 284.378 771.211 280.506 760.868 272.762 719.234 241.587 696.805 204.16 696.004 164.526 696.001 164.391 696 164.256 696 164.122 696 130.971 722.916 104 756 104 771.353 104 785.377 109.796 796 119.315 806.623 109.796 820.647 104 836 104 869.084 104 896 130.971 896 164.122 896 164.257 895.999 164.392 895.996 164.526 895.194 204.16 872.766 241.587 831.132 272.762 820.789 280.506 808.395 284.378 796 284.378ZM736.001 163.94C736.798 197.779 762.986 224.377 784.843 240.743 791.412 245.661 800.588 245.661 807.157 240.743 829.013 224.377 855.202 197.779 855.999 163.94 855.902 152.928 846.968 144 836 144 824.972 144 816 152.972 816 164 816 175.046 807.046 184 796 184 784.954 184 776 175.046 776 164 776 152.972 767.028 144 756 144 745.032 144 736.098 152.928 736.001 163.94Z" fill="#FFFFFF"/></g></svg>