<svg width="512" height="512" xmlns="http://www.w3.org/2000/svg" xmlns:xlink="http://www.w3.org/1999/xlink" overflow="hidden"><defs><clipPath id="clip0"><rect x="384" y="104" width="512" height="512"/></clipPath></defs><g clip-path="url(#clip0)" transform="translate(-384 -104)"><path d="M848.773 232.277 712.773 128.548C669.925 95.867 610.074 95.867 567.226 128.548L431.226 232.277C401.654 254.831 384 290.5 384 327.692L384 495.963C384 562.131 437.832 615.963 504 615.963L776 615.963C842.168 615.963 896 562.131 896 495.963L896 327.692C896 290.5 878.346 254.831 848.773 232.277ZM856 495.963C856 540.075 820.112 575.963 776 575.963L504 575.963C459.888 575.963 424 540.075 424 495.963L424 327.692C424 302.898 435.77 279.119 455.484 264.082L591.484 160.353C605.766 149.459 622.883 144.013 640 144.013 657.117 144.013 674.233 149.46 688.516 160.353L824.516 264.082C844.23 279.118 856 302.898 856 327.692ZM747 375.963 732.875 375.963C730.425 364.574 725.93 353.937 719.79 344.458L730.143 334.105C737.954 326.294 737.953 313.631 730.142 305.821 722.331 298.01 709.668 298.01 701.858 305.821L691.506 316.173C682.027 310.033 671.39 305.538 660.001 303.088L660.001 288.963C660.001 277.917 651.047 268.963 640.001 268.963 628.955 268.963 620.001 277.917 620.001 288.963L620.001 303.088C608.612 305.538 597.975 310.033 588.496 316.173L578.144 305.821C570.333 298.01 557.67 298.011 549.86 305.821 542.05 313.631 542.048 326.295 549.859 334.105L560.212 344.458C554.072 353.937 549.577 364.574 547.127 375.963L533 375.963C521.954 375.963 513 384.917 513 395.963 513 407.009 521.954 415.963 533 415.963L547.125 415.963C549.575 427.352 554.07 437.989 560.21 447.468L549.857 457.821C542.046 465.632 542.047 478.295 549.858 486.105 553.763 490.01 558.881 491.963 564 491.963 569.119 491.963 574.237 490.01 578.143 486.105L588.495 475.753C597.974 481.893 608.611 486.388 620 488.838L620 502.963C620 514.009 628.954 522.963 640 522.963 651.046 522.963 660 514.009 660 502.963L660 488.838C671.389 486.388 682.026 481.893 691.505 475.753L701.857 486.105C705.763 490.011 710.88 491.963 716 491.963 721.118 491.963 726.237 490.01 730.142 486.105 737.953 478.295 737.954 465.631 730.143 457.821L719.79 447.468C725.93 437.989 730.425 427.352 732.875 415.963L747 415.963C758.046 415.963 767 407.009 767 395.963 767 384.917 758.046 375.963 747 375.963ZM640 450.963C609.673 450.963 585 426.29 585 395.963 585 365.636 609.673 340.963 640 340.963 670.327 340.963 695 365.636 695 395.963 695 426.29 670.327 450.963 640 450.963ZM640 370.963C653.807 370.963 665 382.156 665 395.963 665 409.77 653.807 420.963 640 420.963 626.193 420.963 615 409.77 615 395.963 615 382.156 626.193 370.963 640 370.963Z" fill="#FFFFFF"/></g></svg>