<svg width="512" height="512" xmlns="http://www.w3.org/2000/svg" xmlns:xlink="http://www.w3.org/1999/xlink" overflow="hidden"><defs><clipPath id="clip0"><rect x="384" y="104" width="512" height="512"/></clipPath></defs><g clip-path="url(#clip0)" transform="translate(-384 -104)"><path d="M614.629 247.163C646.815 269.48 695.212 296.083 743 296.083 790.788 296.083 839.186 269.48 871.37 247.164 886.793 236.47 896 218.871 896 200.084 896 181.297 886.793 163.697 871.371 153.003 839.185 130.686 790.787 104.083 743 104.083 695.213 104.083 646.815 130.686 614.629 153.003 599.207 163.697 590 181.297 590 200.084 590 218.871 599.207 236.47 614.629 247.163ZM637.422 185.874C664.917 166.809 705.554 144.083 743 144.083 780.446 144.083 821.083 166.809 848.578 185.874 853.295 189.145 856 194.323 856 200.083 856 205.842 853.295 211.021 848.578 214.291 821.083 233.356 780.447 256.082 743 256.082 705.553 256.082 664.917 233.356 637.421 214.291 632.705 211.021 630 205.842 630 200.083 630 194.323 632.705 189.145 637.422 185.874ZM756 595.917C756 606.963 747.046 615.917 736 615.917L544 615.917C532.954 615.917 524 606.963 524 595.917 524 584.871 532.954 575.917 544 575.917L736 575.917C747.046 575.917 756 584.871 756 595.917ZM896 308.917 896 415.917C896 482.085 842.168 535.917 776 535.917L503.979 535.917C437.822 535.917 384 482.094 384 415.937L384 251.917C384 185.749 437.832 131.917 504 131.917L541 131.917C552.046 131.917 561 140.871 561 151.917 561 162.963 552.046 171.917 541 171.917L504 171.917C459.888 171.917 424 207.805 424 251.917L424 415.938C424 460.039 459.879 495.917 503.979 495.917L776 495.917C820.112 495.917 856 460.029 856 415.917L856 308.917C856 297.871 864.954 288.917 876 288.917 887.046 288.917 896 297.871 896 308.917ZM719 200.917C719 187.11 730.193 175.917 744 175.917 757.807 175.917 769 187.11 769 200.917 769 214.724 757.807 225.917 744 225.917 730.193 225.917 719 214.724 719 200.917Z" fill="#FFFFFF"/></g></svg>