<svg width="512" height="512" xmlns="http://www.w3.org/2000/svg" xmlns:xlink="http://www.w3.org/1999/xlink" overflow="hidden"><defs><clipPath id="clip0"><rect x="384" y="104" width="512" height="512"/></clipPath></defs><g clip-path="url(#clip0)" transform="translate(-384 -104)"><path d="M896 239.265 896 443.861C896 469.451 886.155 493.583 868.28 511.812 860.545 519.699 847.883 519.821 839.997 512.088 832.111 504.354 831.987 491.691 839.721 483.805 850.218 473.1 856 458.914 856 443.861L856 239.265C856 202.041 829.688 169.204 793.437 161.187 741.869 149.782 690.078 144 639.5 144 589.081 144 537.591 149.749 486.462 161.085 450.269 169.11 424 201.937 424 239.14L424 443.733C424 474.462 449.287 499.947 480.369 500.546 489.98 500.731 498.96 504.618 505.654 511.491 512.425 518.444 516.046 527.609 515.851 537.299 515.741 542.74 515.824 547.992 515.903 553.072 515.953 556.241 516 559.235 516 562.178 516 569.208 518.494 575.116 519.798 575.861 519.8 575.862 520.118 576.001 521 576.001 542.635 576.001 560.325 558.8 576.218 540.211 591.954 521.805 615.471 511.18 640 511 664.529 511.18 688.046 521.805 703.782 540.21 719.675 558.799 737.365 576 759 576 759.881 576 760.199 575.861 760.202 575.86 761.506 575.116 764 569.208 764 562.178 764 526.919 757.108 475.769 741.711 440.98 731.107 417.019 708.282 401.029 682.145 399.25 665.524 398.119 656.923 398 641.259 398 626.767 398 600.427 399.142 597.633 399.265 571.59 401.12 548.863 417.088 538.29 440.98 536.056 446.027 533.932 451.563 531.976 457.436 528.486 467.916 517.161 473.582 506.681 470.091 496.202 466.601 490.535 455.276 494.026 444.796 496.381 437.725 498.967 430.995 501.712 424.793 518.344 387.213 554.143 362.134 595.139 359.344 595.293 359.333 625.121 358.002 641.26 358.002 657.498 358.002 667.093 358.134 684.863 359.344 725.859 362.135 761.658 387.213 778.29 424.793 797.266 467.67 804 525.6 804 562.178 804 588.1 789.918 616 759 616 715.955 616 686.12 581.105 673.38 566.205 665.152 556.582 652.994 551.046 640 551.001 627.006 551.046 614.848 556.583 606.62 566.205 593.88 581.105 564.045 616 521 616 490.082 616 476 588.1 476 562.178 476 559.549 475.956 556.707 475.908 553.699 475.844 549.626 475.774 545.125 475.807 540.393 451.995 539.02 429.661 529.068 412.56 512.129 394.143 493.886 384 469.596 384 443.733L384 239.14C384 211.965 393.345 185.317 410.313 164.104 427.311 142.855 451.279 127.915 477.803 122.033 531.77 110.067 586.173 104 639.5 104 692.978 104 747.675 110.1 802.074 122.13 828.625 128.002 852.62 142.937 869.64 164.183 886.639 185.403 896 212.067 896 239.265ZM620 203 620 301C620 312.046 628.954 321 640 321 651.046 321 660 312.046 660 301L660 203C660 191.954 651.046 183 640 183 628.954 183 620 191.954 620 203ZM715 462C715 448.193 703.807 437 690 437 676.193 437 665 448.193 665 462 665 475.807 676.193 487 690 487 703.807 487 715 475.807 715 462ZM615 462C615 475.807 603.807 487 590 487 576.193 487 565 475.807 565 462 565 448.193 576.193 437 590 437 603.807 437 615 448.193 615 462Z" fill="#FFFFFF"/></g></svg>