<svg width="512" height="512" xmlns="http://www.w3.org/2000/svg" xmlns:xlink="http://www.w3.org/1999/xlink" overflow="hidden"><defs><clipPath id="clip0"><rect x="384" y="104" width="512" height="512"/></clipPath></defs><g clip-path="url(#clip0)" transform="translate(-384 -104)"><path d="M884.929 217.325 853.761 310.828C845.752 334.855 823.354 350.999 798.026 350.999L704.956 350.999C693.91 350.999 684.956 342.045 684.956 330.999 684.956 319.953 693.91 310.999 704.956 310.999L798.026 310.999C806.109 310.999 813.257 305.847 815.814 298.179L846.982 204.676C850.475 194.197 861.8 188.532 872.28 192.027 882.759 195.519 888.422 206.846 884.929 217.325ZM506.045 169C506.045 133.159 535.203 104 571.044 104 606.885 104 636.044 133.159 636.044 169 636.044 204.841 606.885 233.999 571.044 233.999 535.203 233.999 506.045 204.841 506.045 169ZM546.044 169C546.044 182.785 557.259 194 571.044 194 584.829 194 596.044 182.785 596.044 169 596.044 155.215 584.829 144 571.044 144 557.259 144 546.044 155.215 546.044 169ZM695.957 519.998C695.957 549.324 674.803 573.786 646.957 578.97L646.957 595.998C646.957 607.044 638.003 615.998 626.957 615.998 615.911 615.998 606.957 607.044 606.957 595.998L606.957 579.998 549.406 579.998C538.201 579.998 527.314 578.421 516.957 575.495L516.957 595.998C516.957 607.044 508.004 615.998 496.958 615.998 485.912 615.998 476.958 607.044 476.958 595.998L476.958 559.998C476.958 558.54 477.123 557.123 477.419 555.754 456.403 539.75 440.746 516.756 434.066 489.553L395.806 333.741C391.355 315.616 395.408 296.797 406.924 282.109 418.441 267.422 435.751 258.999 454.415 258.999 482.192 258.999 506.276 277.825 512.98 304.781L551.591 459.999 635.957 459.999C669.041 459.999 695.957 486.914 695.957 519.998ZM655.957 519.998C655.957 508.97 646.985 499.998 635.957 499.998L550.623 499.998C532.782 499.998 517.314 487.906 513.008 470.594L474.163 314.437C471.902 305.347 463.781 298.999 454.415 298.999 448.122 298.999 442.285 301.839 438.401 306.792 434.518 311.744 433.151 318.09 434.652 324.202L472.912 480.015C481.584 515.332 513.039 539.998 549.405 539.998L635.956 539.998C646.985 539.998 655.957 531.026 655.957 519.998ZM755.876 598.585 775.189 450.531C775.194 450.493 775.199 450.454 775.204 450.416 777.329 433.351 772.021 416.171 760.636 403.281 749.253 390.391 732.861 382.999 715.665 382.999L653.62 382.999 633.435 303.1C633.408 302.991 633.379 302.882 633.35 302.773 626.22 276.429 602.416 258.021 575.465 258.007L558.56 257.999C558.556 257.999 558.554 257.999 558.55 257.999 547.509 257.999 538.556 266.947 538.55 277.989 538.544 289.034 547.494 297.993 558.54 297.999L575.444 298.008C584.194 298.012 592.271 304.347 594.702 313.091L618.654 407.899C620.897 416.779 628.886 423 638.045 423L715.666 423C721.482 423 726.806 425.401 730.657 429.761 734.499 434.111 736.224 439.676 735.518 445.435L716.214 593.413C714.785 604.366 722.506 614.403 733.459 615.832 734.337 615.947 735.209 616.002 736.071 616.002 745.963 615.999 754.562 608.66 755.876 598.585Z" fill="#FFFFFF"/></g></svg>