<svg width="512" height="512" xmlns="http://www.w3.org/2000/svg" xmlns:xlink="http://www.w3.org/1999/xlink" overflow="hidden"><defs><clipPath id="clip0"><rect x="384" y="104" width="512" height="512"/></clipPath></defs><g clip-path="url(#clip0)" transform="translate(-384 -104)"><path d="M640.011 594.939C611.577 594.941 583.147 585.719 559.417 567.275 526.291 541.528 497.237 514.015 473.063 485.498 462.494 473.03 457.515 457.214 459.041 440.963 460.562 424.763 468.366 410.204 481.014 399.968L567.466 330.002C567.615 329.881 567.766 329.762 567.919 329.646 610.767 296.966 670.618 296.965 713.467 329.646 713.538 329.7 713.609 329.755 713.679 329.81L733 344.962 733 322.061C733 311.015 741.954 302.061 753 302.061 764.046 302.061 773 311.015 773 322.061L773 386.061C773 393.714 768.633 400.696 761.751 404.045 754.87 407.393 746.68 406.522 740.658 401.799L689.105 361.373C660.619 339.721 620.908 339.692 592.394 361.286L506.177 431.061C501.968 434.467 499.371 439.312 498.865 444.704 498.354 450.145 500.027 455.448 503.575 459.634 525.966 486.048 553.013 511.638 583.963 535.693 616.954 561.336 663.026 561.348 696.002 535.72 767.657 480.035 853.558 388.347 856 267.712 855.903 211.09 811.978 165.061 758 165.061 701.911 165.061 660 207.297 660 245.061 660 256.107 651.046 265.061 640 265.061 628.954 265.061 620 256.107 620 245.061 620 227.357 609.586 207.522 592.144 192.002 572.618 174.629 547.707 165.061 522 165.061 468.022 165.061 424.097 211.091 424 267.712 424.669 300.742 431.666 333.619 444.798 365.429 449.013 375.639 444.153 387.332 433.943 391.548 423.734 395.763 412.04 390.903 407.824 380.693 392.76 344.201 384.746 306.384 384.004 268.292 384.001 268.162 384 268.032 384 267.903 384 189.139 445.907 125.061 522 125.061 557.521 125.061 591.875 138.222 618.733 162.12 626.776 169.277 633.769 177.083 639.597 185.314 664.183 149.876 709.092 125.061 758 125.061 834.093 125.061 896 189.14 896 267.903 896 268.033 895.999 268.163 895.996 268.292 893.338 404.803 799.119 506.244 720.547 567.304 696.841 585.726 668.424 594.938 640.011 594.939ZM640 467.061C653.807 467.061 665 455.868 665 442.061 665 428.254 653.807 417.061 640 417.061 626.193 417.061 615 428.254 615 442.061 615 455.868 626.193 467.061 640 467.061" fill="#FFFFFF"/></g></svg>