<svg width="512" height="512" xmlns="http://www.w3.org/2000/svg" xmlns:xlink="http://www.w3.org/1999/xlink" overflow="hidden"><defs><clipPath id="clip0"><rect x="384" y="104" width="512" height="512"/></clipPath></defs><g clip-path="url(#clip0)" transform="translate(-384 -104)"><path d="M776 615.963 504 615.963C437.832 615.963 384 562.131 384 495.963L384 327.692C384 290.501 401.655 254.832 431.226 232.277L567.226 128.548C610.075 95.867 669.925 95.867 712.774 128.548L848.774 232.277C878.345 254.831 896 290.5 896 327.692L896 495.963C896 562.131 842.168 615.963 776 615.963ZM640 144.012C622.881 144.012 605.769 149.458 591.484 160.352L455.484 264.081C435.77 279.118 424 302.897 424 327.692L424 495.963C424 540.075 459.888 575.963 504 575.963L776 575.963C820.112 575.963 856 540.075 856 495.963L856 327.692C856 302.898 844.23 279.118 824.516 264.082L688.516 160.353C674.235 149.461 657.115 144.012 640 144.012ZM712 502.963 569 502.963C535.916 502.963 509 476.047 509 442.963L509 367.963C509 334.879 535.916 307.963 569 307.963L596.849 307.963C613.885 307.963 629.414 314.676 640.925 325.597 652.399 314.673 667.904 307.963 684.946 307.963L712 307.963C745.084 307.963 772 334.879 772 367.963L772 442.963C772 476.047 745.084 502.963 712 502.963ZM569 347.963C557.972 347.963 549 356.935 549 367.963L549 442.963C549 453.991 557.972 462.963 569 462.963L712 462.963C723.028 462.963 732 453.991 732 442.963L732 367.963C732 356.935 723.028 347.963 712 347.963L684.946 347.963C671.749 347.963 661.011 358.74 661 371.992L661 372.042 661 408.963C661 420.009 652.046 428.963 641 428.963 629.954 428.963 621 420.009 621 408.963L621 372.065C620.927 358.773 610.099 347.963 596.849 347.963Z" fill="#FFFFFF"/></g></svg>