<svg width="512" height="512" xmlns="http://www.w3.org/2000/svg" xmlns:xlink="http://www.w3.org/1999/xlink" overflow="hidden"><defs><clipPath id="clip0"><rect x="384" y="104" width="512" height="512"/></clipPath></defs><g clip-path="url(#clip0)" transform="translate(-384 -104)"><path d="M776 616 503.98 616C437.823 616 384 562.178 384 496.021L384 342C384 275.832 437.832 222 504 222L776 222C842.168 222 896 275.832 896 342L896 496C896 562.169 842.169 616 776 616ZM504 262C459.888 262 424 297.888 424 342L424 496.021C424 540.121 459.879 576 503.98 576L776 576C820.112 576 856 540.112 856 496L856 342C856 297.888 820.112 262 776 262ZM746 516 746 322C746 310.954 737.046 302 726 302 714.954 302 706 310.954 706 322L706 516C706 527.046 714.954 536 726 536 737.046 536 746 527.046 746 516ZM801 374C787.193 374 776 362.807 776 349 776 335.193 787.193 324 801 324 814.807 324 826 335.193 826 349 826 362.807 814.807 374 801 374M801 454C814.807 454 826 442.807 826 429 826 415.193 814.807 404 801 404 787.193 404 776 415.193 776 429 776 442.807 787.193 454 801 454M682.703 184.41C682.738 184.375 682.774 184.339 682.808 184.304L728.269 138.015C736.009 130.134 735.894 117.472 728.014 109.732 720.133 101.992 707.47 102.107 699.731 109.987L654.332 156.213C650.588 159.946 645.625 162.001 640.352 162.001 635.059 162.001 630.079 159.93 626.327 156.167L580.161 109.877C572.36 102.055 559.696 102.04 551.876 109.839 544.055 117.639 544.039 130.302 551.838 138.123L598.002 184.41C609.311 195.753 624.351 202 640.352 202 656.353 202 671.395 195.753 682.703 184.41Z" fill="#FFFFFF"/></g></svg>