<svg width="512" height="512" xmlns="http://www.w3.org/2000/svg" xmlns:xlink="http://www.w3.org/1999/xlink" overflow="hidden"><defs><clipPath id="clip0"><rect x="384" y="104" width="512" height="512"/></clipPath></defs><g clip-path="url(#clip0)" transform="translate(-384 -104)"><path d="M639.228 616C610.254 616 583.355 602.95 565.428 580.194 533.098 539.155 488.266 478.176 458.274 420.734 444.02 393.431 451.128 359.693 475.177 340.515L566.633 267.584C566.779 267.468 566.926 267.354 567.075 267.241 609.865 235.035 669.631 235.035 712.421 267.241L733.249 282.918 733.249 265.003C733.249 253.956 742.204 245.002 753.25 245.002 764.296 245.002 773.25 253.956 773.25 265.003L773.25 323.003C773.25 330.586 768.963 337.515 762.179 340.9 755.394 344.285 747.279 343.541 741.223 338.983L688.367 299.2C659.812 277.709 619.953 277.657 591.344 299.041L500.118 371.789C491.007 379.056 488.321 391.854 493.734 402.222 522.297 456.93 565.575 515.739 596.85 555.441 607.142 568.506 622.589 575.999 639.228 575.999 655.894 575.999 671.37 568.489 681.685 555.394 765.297 449.247 813.251 362.852 813.251 318.359 813.251 222.218 735.193 144.001 639.248 144.001 551.646 144.001 477.422 209.551 466.597 296.475 465.232 307.436 455.242 315.216 444.279 313.85 433.318 312.485 425.539 302.493 426.904 291.532 440.218 184.621 531.506 104 639.248 104 696.493 104 750.267 126.303 790.662 166.802 831.023 207.265 853.251 261.089 853.251 318.359 853.251 351.366 837.139 394.548 803.994 450.371 780.964 489.159 750.386 532.822 713.106 580.146 695.159 602.931 668.23 615.999 639.228 616ZM639.248 435.005C653.055 435.005 664.248 423.812 664.248 410.005 664.248 396.198 653.055 385.004 639.248 385.004 625.441 385.004 614.248 396.198 614.248 410.005 614.248 423.812 625.441 435.005 639.248 435.005" fill="#FFFFFF"/></g></svg>