<svg width="512" height="512" xmlns="http://www.w3.org/2000/svg" xmlns:xlink="http://www.w3.org/1999/xlink" overflow="hidden"><defs><clipPath id="clip0"><rect x="384" y="104" width="512" height="512"/></clipPath></defs><g clip-path="url(#clip0)" transform="translate(-384 -104)"><path d="M739.807 233.746C775.578 233.746 804.68 204.644 804.68 168.873 804.68 133.102 775.578 104 739.807 104 704.036 104 674.934 133.102 674.934 168.873 674.934 204.644 704.036 233.746 739.807 233.746ZM739.807 143.922C753.565 143.922 764.758 155.115 764.758 168.873 764.758 182.631 753.565 193.824 739.807 193.824 726.049 193.824 714.856 182.631 714.856 168.873 714.856 155.115 726.049 143.922 739.807 143.922ZM628.026 359.499C628.026 370.524 619.089 379.46 608.065 379.46L504.268 379.46C460.243 379.46 424.425 415.278 424.425 459.304L424.425 496.232C424.425 540.257 460.243 576.075 504.268 576.075L545.188 576.075C556.213 576.075 565.149 585.012 565.149 596.036 565.149 607.061 556.213 615.997 545.188 615.997L504.268 615.997C438.23 615.997 384.503 562.27 384.503 496.232L384.503 459.304C384.503 393.265 438.23 339.539 504.268 339.539L608.065 339.539C619.089 339.539 628.026 348.475 628.026 359.499ZM835.633 265.683C835.627 265.683 835.624 265.683 835.618 265.683 819.627 265.683 804.59 271.91 793.28 283.217 781.966 294.528 775.736 309.567 775.736 325.566L775.736 435.351C775.736 446.357 766.781 455.312 755.775 455.312L726.831 455.312C693.812 455.312 666.949 482.175 666.949 515.194 666.949 544.463 688.061 568.877 715.853 574.051L715.853 596.036C715.853 607.061 724.789 615.997 735.814 615.997 746.838 615.997 755.775 607.061 755.775 596.036L755.775 575.077 757.272 575.077C833.491 575.077 895.501 513.068 895.501 436.848L895.501 325.566C895.502 292.555 868.646 265.691 835.633 265.683ZM855.58 436.848C855.58 491.055 811.48 535.155 757.273 535.155L726.832 535.155C715.826 535.155 706.871 526.201 706.871 515.194 706.871 504.188 715.826 495.234 726.832 495.234L755.776 495.234C788.795 495.234 815.658 468.37 815.658 435.351L815.658 325.566C815.658 320.233 817.735 315.22 821.506 311.45 825.277 307.68 830.288 305.605 835.619 305.605L835.624 305.605C846.628 305.607 855.58 314.562 855.58 325.566ZM427.629 261.691 481.313 261.691 481.313 297.621C481.313 308.645 490.25 317.582 501.274 317.582 512.299 317.582 521.235 308.645 521.235 297.621L521.235 261.691 572.924 261.691C586.158 261.691 598.467 255.762 606.696 245.422 614.89 235.126 617.897 221.874 614.946 209.063 610.055 187.832 602.079 162.573 596.25 145.124 588.231 121.123 565.792 104.998 540.416 104.998L460.137 104.998C434.76 104.998 412.322 121.123 404.303 145.124 398.474 162.573 390.498 187.832 385.607 209.064 382.656 221.875 385.663 235.127 393.857 245.423 402.086 255.762 414.394 261.691 427.629 261.691ZM424.51 218.026C429.045 198.338 436.616 174.394 442.168 157.775 444.736 150.086 451.958 144.92 460.137 144.92L540.416 144.92C548.595 144.92 555.816 150.086 558.384 157.775 563.937 174.394 571.508 198.338 576.043 218.025 576.256 218.954 576.06 219.807 575.459 220.563 575.021 221.114 574.225 221.769 572.924 221.769L427.629 221.769C426.327 221.769 425.532 221.113 425.094 220.563 424.493 219.807 424.296 218.953 424.51 218.026ZM625.009 616C615.58 616 607.194 609.291 605.407 599.687L587.275 502.232C582.324 475.617 593.37 448.27 615.416 432.559L667.947 395.123 667.947 321.585C667.947 284.725 697.934 254.723 734.794 254.704L734.804 254.704C745.823 254.704 754.759 263.634 754.765 274.655 754.771 285.679 745.838 294.62 734.814 294.626 719.957 294.633 707.87 306.727 707.87 321.585L707.87 405.41C707.87 411.864 704.749 417.919 699.493 421.665L638.585 465.071C629.137 471.804 624.402 483.525 626.525 494.93L644.655 592.384C646.672 603.222 639.52 613.643 628.683 615.66 627.449 615.89 626.219 616 625.009 616Z" fill="#FFFFFF"/></g></svg>