<svg width="512" height="512" xmlns="http://www.w3.org/2000/svg" xmlns:xlink="http://www.w3.org/1999/xlink" overflow="hidden"><defs><clipPath id="clip0"><rect x="384" y="104" width="512" height="512"/></clipPath></defs><g clip-path="url(#clip0)" transform="translate(-384 -104)"><path d="M848.773 232.277 712.773 128.548C669.925 95.867 610.074 95.867 567.226 128.548L431.226 232.277C401.654 254.831 384 290.5 384 327.692L384 495.963C384 562.131 437.832 615.963 504 615.963L776 615.963C842.168 615.963 896 562.131 896 495.963L896 327.692C896 290.5 878.346 254.831 848.773 232.277ZM856 495.963C856 540.075 820.112 575.963 776 575.963L504 575.963C459.888 575.963 424 540.075 424 495.963L424 327.692C424 302.898 435.77 279.119 455.484 264.082L591.484 160.353C605.766 149.459 622.883 144.013 640 144.013 657.117 144.013 674.233 149.46 688.516 160.353L824.516 264.082C844.23 279.118 856 302.898 856 327.692ZM701 332.324 701 305.963C701 272.879 674.084 245.963 641 245.963 607.916 245.963 581 272.879 581 305.963L581 331.985C549.098 342.509 526 372.581 526 407.963L526 434.963C526 479.075 561.888 514.963 606 514.963L675 514.963C719.112 514.963 755 479.075 755 434.963L755 407.963C755 372.951 732.383 343.142 701 332.324ZM641 285.963C652.028 285.963 661 294.935 661 305.963L661 327.963 621 327.963 621 305.963C621 294.935 629.972 285.963 641 285.963ZM715 434.963C715 457.019 697.056 474.963 675 474.963L606 474.963C583.944 474.963 566 457.019 566 434.963L566 407.963C566 385.907 583.944 367.963 606 367.963L675 367.963C697.056 367.963 715 385.907 715 407.963ZM666 421.963C666 435.77 654.807 446.963 641 446.963 627.193 446.963 616 435.77 616 421.963 616 408.156 627.193 396.963 641 396.963 654.807 396.963 666 408.155 666 421.963Z" fill="#FFFFFF"/></g></svg>