<svg width="512" height="512" xmlns="http://www.w3.org/2000/svg" xmlns:xlink="http://www.w3.org/1999/xlink" overflow="hidden"><defs><clipPath id="clip0"><rect x="384" y="104" width="512" height="512"/></clipPath></defs><g clip-path="url(#clip0)" transform="translate(-384 -104)"><path d="M494 124C494 112.954 502.954 104 514 104L551 104C562.046 104 571 112.954 571 124 571 135.046 562.046 144 551 144L514 144C502.954 144 494 135.046 494 124ZM776 104 770 104C758.954 104 750 112.954 750 124 750 135.046 758.954 144 770 144L776 144C820.112 144 856 179.888 856 224L856 486C856 497.046 864.954 506 876 506 887.046 506 896 497.046 896 486L896 224C896 157.832 842.168 104 776 104ZM644.643 336.358C636.832 328.547 624.168 328.547 616.358 336.358 608.548 344.169 608.548 356.832 616.358 364.642L816.627 564.911C804.418 572.123 790.454 576 776 576L504 576C459.888 576 424 540.112 424 496L424 224C424 209.471 427.856 195.537 435.069 183.353L501.858 250.142C505.763 254.047 510.882 256 516 256 521.118 256 526.237 254.047 530.143 250.142 537.953 242.331 537.953 229.668 530.143 221.858L418.143 109.858C410.332 102.047 397.668 102.047 389.858 109.858 382.048 117.669 382.048 130.332 389.858 138.142L406.175 154.46C391.772 174.632 384 198.718 384 224L384 496C384 562.168 437.832 616 504 616L776 616C801.146 616 825.322 608.205 845.527 593.812L861.858 610.143C865.763 614.047 870.882 616 876 616 881.118 616 886.237 614.047 890.143 610.142 897.953 602.331 897.953 589.668 890.143 581.858ZM595 169C595 133.159 624.159 104 660 104 695.841 104 725 133.159 725 169 725 204.841 695.841 234 660 234 624.159 234 595 204.841 595 169ZM635 169C635 182.785 646.215 194 660 194 673.785 194 685 182.785 685 169 685 155.215 673.785 144 660 144 646.215 144 635 155.215 635 169ZM692.001 546C686.817 546 681.639 543.998 677.723 540.005L595.823 456.514 579.413 495.737C568.416 522.019 542.904 539 514.417 539L489 539C477.954 539 469 530.046 469 519 469 507.954 477.954 499 489 499L514.417 499C526.73 499 537.759 491.66 542.512 480.299L570.55 413.281C573.136 407.099 578.647 402.623 585.228 401.359 591.8 400.093 598.584 402.21 603.278 406.995L706.278 511.995C714.013 519.88 713.891 532.543 706.007 540.278 702.113 544.096 697.055 546 692.001 546ZM541.606 387.335 567.892 320.658C573.798 305.679 588.018 296 604.12 296L641.891 296C667.154 296 691.825 306.309 709.578 324.284L755.771 371.055C763.531 378.913 776.197 378.992 784.054 371.23 791.913 363.468 791.992 350.805 784.23 342.946L738.037 296.175C712.819 270.644 677.775 256 641.891 256L604.12 256C571.477 256 542.65 275.622 530.68 305.988L504.394 372.664C500.343 382.94 505.389 394.555 515.665 398.606 518.073 399.555 520.554 400.005 522.994 400.005 530.968 400.005 538.505 395.203 541.606 387.335Z" fill="#FFFFFF"/></g></svg>