<svg width="512" height="512" xmlns="http://www.w3.org/2000/svg" xmlns:xlink="http://www.w3.org/1999/xlink" overflow="hidden"><defs><clipPath id="clip0"><rect x="384" y="104" width="512" height="512"/></clipPath></defs><g clip-path="url(#clip0)" transform="translate(-384 -104)"><path d="M776 615.963 747 615.963C735.954 615.963 727 607.009 727 595.963 727 584.917 735.954 575.963 747 575.963L776 575.963C820.112 575.963 856 540.075 856 495.963L856 327.692C856 302.898 844.23 279.119 824.516 264.082L688.516 160.353C659.952 138.566 620.049 138.566 591.485 160.353L455.485 264.082C435.77 279.118 424 302.898 424 327.692L424 495.963C424 540.075 459.888 575.963 504 575.963L530 575.963C541.046 575.963 550 584.917 550 595.963 550 607.009 541.046 615.963 530 615.963L504 615.963C437.832 615.963 384 562.131 384 495.963L384 327.692C384 290.501 401.654 254.832 431.227 232.277L567.227 128.548C610.075 95.867 669.926 95.867 712.774 128.548L848.774 232.277C878.346 254.831 896 290.5 896 327.692L896 495.963C896 562.131 842.168 615.963 776 615.963ZM698.977 572.963C698.977 533.573 728.496 504.732 728.728 504.508 732.732 500.729 735 495.468 735 489.963L735 424.963C735 401.275 725.746 379.097 708.944 362.512 692.252 346.036 670.024 336.963 646.356 336.963L633.643 336.963C609.975 336.963 587.747 346.037 571.055 362.512 554.254 379.096 545 401.275 545 424.963L545 489.963C545 495.468 547.269 500.729 551.272 504.508 551.569 504.789 581.023 533.686 581.023 572.963 581.023 596.673 601.435 615.963 626.525 615.963L653.474 615.963C678.564 615.963 698.977 596.673 698.977 572.963ZM585 424.963C585 398.496 606.821 376.963 633.644 376.963L646.357 376.963C673.179 376.963 695.001 398.496 695.001 424.963L695.001 482.095C683.189 495.698 658.978 528.953 658.978 572.963 658.978 574.12 656.46 575.963 653.476 575.963L626.527 575.963C623.543 575.963 621.025 574.12 621.025 572.963 621.025 528.953 596.813 495.698 585.002 482.095L585.002 424.963ZM715 489.963 715.01 489.963ZM639 317.963C603.159 317.963 574 288.804 574 252.963 574 217.122 603.159 187.963 639 187.963 674.841 187.963 704 217.122 704 252.963 704 288.804 674.841 317.963 639 317.963ZM639 227.963C625.215 227.963 614 239.178 614 252.963 614 266.748 625.215 277.963 639 277.963 652.785 277.963 664 266.748 664 252.963 664 239.178 652.785 227.963 639 227.963Z" fill="#FFFFFF"/></g></svg>