<svg width="512" height="512" xmlns="http://www.w3.org/2000/svg" xmlns:xlink="http://www.w3.org/1999/xlink" overflow="hidden"><defs><clipPath id="clip0"><rect x="384" y="104" width="512" height="512"/></clipPath></defs><g clip-path="url(#clip0)" transform="translate(-384 -104)"><path d="M390.742 485.786C403.758 460.782 433.225 450.237 460.805 460.699 480.04 468 503.56 476.924 529.16 483.984 526.797 472.617 527.975 460.579 532.698 449.134 539.582 432.447 553.73 420.032 571.514 415.073 580.608 412.538 590.476 411.967 600.845 413.377 669.243 422.678 709.972 399.551 745.908 379.144 770.059 365.428 792.872 352.473 819.578 352.473 850.753 352.473 881.441 363.366 881.441 363.366 891.964 366.659 897.825 377.86 894.531 388.382 891.238 398.905 880.036 404.763 869.515 401.471 869.515 401.471 843.995 392.401 819.578 392.401 803.419 392.401 786.74 401.872 765.624 413.864 734.005 431.82 692.491 455.401 630.779 455.399 619.682 455.399 607.925 454.635 595.463 452.94 590.585 452.277 586.011 452.482 582.24 453.533 578.031 454.707 572.424 457.539 569.609 464.362 567.424 469.655 567.316 474.607 569.284 479.081 571.699 484.57 577.203 489.119 584.779 491.889 595.694 495.88 611.262 498.01 628.921 498.211 647.913 498.33 666.451 496.16 682.741 491.879 693.406 489.074 704.322 495.45 707.124 506.113 709.927 516.777 703.554 527.694 692.89 530.496 673.807 535.511 651.881 538.139 628.922 538.139 553.024 537.814 488.048 513.746 446.638 498.029 439.699 495.398 430.143 496.572 425.979 504.571 422.233 511.765 424.99 520.72 432.126 524.531 482.23 551.299 540.373 576.071 625.814 576.071 701.877 576.071 771.939 546.719 817.319 522.096 852.279 503.126 877.823 509.118 880.621 509.865L880.587 509.991C889.133 512.25 895.442 520.013 895.442 529.27 895.442 540.296 886.504 549.234 875.478 549.234 873.553 549.234 871.699 548.947 869.937 548.438 866.527 548.034 854.22 547.5 836.361 557.191 786.917 584.018 710.253 615.999 625.814 615.999 518.599 615.999 447.486 578.006 413.311 559.749 386.964 545.675 376.946 512.289 390.742 485.786ZM870.89 547.583 870.9 547.583ZM443.261 417.357C432.234 417.357 423.296 408.419 423.296 397.393L423.296 298.083C423.296 260.959 440.92 225.354 470.438 202.839L567.209 128.502C610.034 95.8397 669.779 95.8387 712.551 128.461L810.351 202.821C840.334 225.69 857.516 260.218 857.516 297.572 857.516 308.597 848.578 317.536 837.552 317.536 826.526 317.536 817.588 308.597 817.588 297.572 817.588 272.779 806.132 249.821 786.16 234.587L688.36 160.227C659.822 138.46 619.993 138.461 591.478 160.208L494.707 234.545C474.974 249.596 463.225 273.333 463.225 298.082L463.225 397.392C463.225 408.419 454.287 417.357 443.261 417.357ZM599.979 230.692C586.197 230.692 575.024 241.865 575.024 255.648 575.024 269.43 586.197 280.603 599.979 280.603 613.761 280.603 624.934 269.43 624.934 255.648 624.934 241.865 613.761 230.692 599.979 230.692ZM704.791 255.648C704.791 269.43 693.618 280.603 679.835 280.603 666.053 280.603 654.88 269.43 654.88 255.648 654.88 241.865 666.053 230.692 679.835 230.692 693.618 230.692 704.791 241.865 704.791 255.648ZM624.934 335.504C624.934 349.286 613.761 360.459 599.979 360.459 586.197 360.459 575.024 349.286 575.024 335.504 575.024 321.722 586.197 310.549 599.979 310.549 613.761 310.549 624.934 321.722 624.934 335.504ZM704.791 335.504C704.791 349.286 693.618 360.459 679.835 360.459 666.053 360.459 654.88 349.286 654.88 335.504 654.88 321.722 666.053 310.549 679.835 310.549 693.618 310.549 704.791 321.722 704.791 335.504Z" fill="#FFFFFF"/></g></svg>