<svg width="512" height="512" xmlns="http://www.w3.org/2000/svg" xmlns:xlink="http://www.w3.org/1999/xlink" overflow="hidden"><defs><clipPath id="clip0"><rect x="384" y="104" width="512" height="512"/></clipPath></defs><g clip-path="url(#clip0)" transform="translate(-384 -104)"><path d="M655.474 616 628.526 616C603.436 616 583.024 596.71 583.024 573 583.024 535.408 556.52 513.248 554.68 511.755 549.702 507.976 547 502.254 547 496L547 451C547 427.312 556.253 405.134 573.056 388.549 589.748 372.073 611.976 363 635.644 363L648.356 363C672.024 363 694.252 372.073 710.944 388.549 727.747 405.134 737 427.313 737 451L737 496C737 502.253 734.298 507.975 729.322 511.754 727.49 513.239 700.976 535.401 700.976 573 700.976 596.71 680.564 616 655.474 616ZM587 487.259C599.589 500.006 623.023 529.569 623.023 573 623.023 574.157 625.541 576 628.525 576L655.473 576C658.457 576 660.975 574.157 660.975 573 660.975 529.568 684.41 500.006 696.999 487.259L696.999 451C696.999 424.532 675.177 403 648.355 403L635.643 403C608.822 403 587 424.532 587 451ZM717 496 717.01 496ZM641 346C605.159 346 576 316.841 576 281 576 245.159 605.159 216 641 216 676.841 216 706 245.159 706 281 706 316.841 676.841 346 641 346ZM641 256C627.215 256 616 267.215 616 281 616 294.785 627.215 306 641 306 654.785 306 666 294.785 666 281 666 267.215 654.785 256 641 256ZM814 596 814 317C814 221.607 736.393 144 641 144 545.607 144 468 221.607 468 317L468 596C468 607.046 476.954 616 488 616 499.046 616 508 607.046 508 596L508 317C508 243.664 567.664 184 641 184 714.336 184 774 243.664 774 317L774 596C774 607.046 782.954 616 794 616 805.046 616 814 607.046 814 596ZM497 129C497 142.807 508.193 154 522 154 535.807 154 547 142.807 547 129 547 115.193 535.807 104 522 104 508.193 104 497 115.193 497 129ZM408 209C408 222.807 419.193 234 433 234 446.807 234 458 222.807 458 209 458 195.193 446.807 184 433 184 419.193 184 408 195.193 408 209ZM401 413C401 426.807 412.193 438 426 438 439.807 438 451 426.807 451 413 451 399.193 439.807 388 426 388 412.193 388 401 399.193 401 413ZM758 104C744.193 104 733 115.193 733 129 733 142.807 744.193 154 758 154 771.807 154 783 142.807 783 129 783 115.193 771.807 104 758 104ZM845 184C831.193 184 820 195.193 820 209 820 222.807 831.193 234 845 234 858.807 234 870 222.807 870 209 870 195.193 858.807 184 845 184ZM854 388C840.193 388 829 399.193 829 413 829 426.807 840.193 438 854 438 867.807 438 879 426.807 879 413 879 399.193 867.807 388 854 388ZM409 104C422.807 104 434 115.193 434 129 434 142.807 422.807 154 409 154 395.193 154 384 142.807 384 129 384 115.193 395.193 104 409 104ZM384 310C384 323.807 395.193 335 409 335 422.807 335 434 323.807 434 310 434 296.193 422.807 285 409 285 395.193 285 384 296.193 384 310ZM871 104C857.193 104 846 115.193 846 129 846 142.807 857.193 154 871 154 884.807 154 896 142.807 896 129 896 115.193 884.807 104 871 104ZM871 285C857.193 285 846 296.193 846 310 846 323.807 857.193 335 871 335 884.807 335 896 323.807 896 310 896 296.193 884.807 285 871 285Z" fill="#FFFFFF"/></g></svg>