<svg width="512" height="512" xmlns="http://www.w3.org/2000/svg" xmlns:xlink="http://www.w3.org/1999/xlink" overflow="hidden"><defs><clipPath id="clip0"><rect x="384" y="104" width="512" height="512"/></clipPath></defs><g clip-path="url(#clip0)" transform="translate(-384 -104)"><path d="M604 245C604 233.954 612.954 225 624 225L705 225C716.046 225 725 233.954 725 245 725 256.046 716.046 265 705 265L624 265C612.954 265 604 256.046 604 245ZM763.171 454.886C770.132 442.498 774.9 428.849 777.14 414.729L810.42 200.191C815.471 167.632 843.051 144 876 144 887.046 144 896 135.046 896 124 896 112.954 887.046 104 876 104 850.634 104 826.056 113.089 806.793 129.594 787.531 146.098 774.781 168.993 770.892 194.059L737.622 408.531C736.733 414.135 735.238 419.632 733.194 424.91L418.142 109.858C410.331 102.047 397.668 102.047 389.858 109.858 382.048 117.669 382.047 130.332 389.858 138.142L476.716 225 464.014 225C440.561 225 418.38 235.232 403.157 253.073 387.934 270.914 381.32 294.429 385.01 317.59L400.515 414.885C405.005 443.057 419.429 468.77 441.129 487.286 462.831 505.803 490.493 516 519.021 516L658.611 516C669.657 516 678.611 507.046 678.611 496 678.611 484.954 669.657 476 658.611 476L519.021 476C479.468 476 446.242 447.65 440.018 408.59L424.513 311.295C422.667 299.715 425.974 287.957 433.586 279.037 441.198 270.117 452.287 265 464.014 265L516.716 265 861.858 610.143C865.763 614.048 870.881 616 876 616 881.119 616 886.237 614.048 890.142 610.143 897.953 602.332 897.953 589.668 890.142 581.858ZM741 556C741 544.954 732.046 536 721 536 709.954 536 701 544.954 701 556 701 567.028 692.028 576 681 576 669.972 576 661 567.028 661 556 661 544.954 652.046 536 641 536 629.954 536 621 544.954 621 556 621 589.084 647.916 616 681 616 714.084 616 741 589.084 741 556ZM501 616C467.916 616 441 589.084 441 556 441 544.954 449.954 536 461 536 472.046 536 481 544.954 481 556 481 567.028 489.972 576 501 576 512.028 576 521 567.028 521 556 521 544.954 529.954 536 541 536 552.046 536 561 544.954 561 556 561 589.084 534.084 616 501 616Z" fill="#FFFFFF"/></g></svg>