<svg width="512" height="512" xmlns="http://www.w3.org/2000/svg" xmlns:xlink="http://www.w3.org/1999/xlink" overflow="hidden"><defs><clipPath id="clip0"><rect x="384" y="104" width="512" height="512"/></clipPath></defs><g clip-path="url(#clip0)" transform="translate(-384 -104)"><path d="M488 240C450.505 240 420 209.495 420 172 420 134.505 450.505 104 488 104 525.495 104 556 134.505 556 172 556 209.495 525.495 240 488 240ZM488 144C472.561 144 460 156.561 460 172 460 187.439 472.561 200 488 200 503.439 200 516 187.439 516 172 516 156.561 503.439 144 488 144ZM849.989 571.591C850.669 532.928 879.503 504.762 879.728 504.545 883.731 500.767 886 495.505 886 490L886 445C886 396.477 846.523 357 798 357L787.18 357C752.452 357 718.374 363.228 685.892 375.51L646.592 390.369 610.27 329.505C588.734 293.418 549.249 271 507.224 271L482.644 271C433.766 271 394 310.766 394 359.644L394 444C394 448.619 395.599 453.096 398.525 456.67 398.836 457.049 429.567 496.647 430.019 570.905 430.17 595.771 450.584 616 475.526 616L502.474 616C527.409 616 547.824 595.725 547.982 570.803 548.479 492.387 570.502 432.624 570.715 432.052 574.61 421.716 569.388 410.18 559.052 406.284 548.716 402.39 537.179 407.611 533.284 417.948 532.273 420.63 508.527 484.62 507.982 570.549 507.963 573.453 505.389 576 502.473 576L475.526 576C472.609 576 470.035 573.505 470.018 570.662 469.579 498.498 444.526 453.388 434 437.598L434 359.644C434 332.822 455.822 311 482.644 311L507.224 311C535.241 311 561.564 325.945 575.921 350.003L620.826 425.249C625.792 433.57 636.011 437.137 645.074 433.707L700.04 412.924C727.985 402.357 757.303 397 787.18 397L798 397C824.467 397 846 418.532 846 445L846 482.133C834.38 495.516 810.751 527.928 809.995 570.888 809.949 573.516 807.266 576 804.474 576L777.324 576C774.496 576 772.057 573.486 771.998 570.512 770.984 519.663 747.624 459.273 746.63 456.727 742.614 446.44 731.022 441.36 720.736 445.371 710.448 449.383 705.359 460.976 709.365 471.266 709.583 471.826 731.135 527.658 732.005 571.31 732.497 595.951 752.827 616 777.324 616L804.474 616C829.14 616 849.558 596.078 849.989 571.591ZM790 336C754.159 336 725 306.841 725 271 725 235.159 754.159 206 790 206 825.841 206 855 235.159 855 271 855 306.841 825.841 336 790 336ZM790 246C776.215 246 765 257.215 765 271 765 284.785 776.215 296 790 296 803.785 296 815 284.785 815 271 815 257.215 803.785 246 790 246Z" fill="#FFFFFF"/></g></svg>