<svg width="512" height="512" xmlns="http://www.w3.org/2000/svg" xmlns:xlink="http://www.w3.org/1999/xlink" overflow="hidden"><defs><clipPath id="clip0"><rect x="384" y="104" width="512" height="512"/></clipPath></defs><g clip-path="url(#clip0)" transform="translate(-384 -104)"><path d="M776 615.963 504 615.963C437.832 615.963 384 562.131 384 495.963L384 327.692C384 290.501 401.655 254.832 431.226 232.277L567.226 128.548C610.075 95.867 669.925 95.867 712.774 128.548L848.774 232.277C878.345 254.831 896 290.5 896 327.692L896 495.963C896 562.13 842.168 615.963 776 615.963ZM640 144.012C622.881 144.012 605.769 149.458 591.484 160.352L455.484 264.081C435.77 279.118 424 302.897 424 327.692L424 495.963C424 540.075 459.888 575.963 504 575.963L776 575.963C820.112 575.963 856 540.075 856 495.963L856 327.692C856 302.898 844.23 279.118 824.516 264.082L688.516 160.353C674.235 149.461 657.115 144.012 640 144.012ZM642 531.963C567.561 531.963 507 471.402 507 396.963 507 322.524 567.561 261.963 642 261.963 716.439 261.963 777 322.524 777 396.963 777 471.402 716.439 531.963 642 531.963ZM642 301.963C589.617 301.963 547 344.58 547 396.963 547 449.346 589.617 491.963 642 491.963 694.383 491.963 737 449.346 737 396.963 737 344.579 694.383 301.963 642 301.963ZM695.987 396.963C695.987 385.917 687.033 376.963 675.987 376.963L662 376.963 662 355.963C662 344.917 653.046 335.963 642 335.963 630.954 335.963 622 344.917 622 355.963L622 396.963C622 408.009 630.954 416.963 642 416.963L675.987 416.963C687.033 416.963 695.987 408.008 695.987 396.963Z" fill="#FFFFFF"/></g></svg>