<svg width="512" height="512" xmlns="http://www.w3.org/2000/svg" xmlns:xlink="http://www.w3.org/1999/xlink" overflow="hidden"><defs><clipPath id="clip0"><rect x="384" y="104" width="512" height="512"/></clipPath></defs><g clip-path="url(#clip0)" transform="translate(-384 -104)"><path d="M896 224 896 330C896 341.046 887.046 350 876 350 864.954 350 856 341.046 856 330L856 224C856 179.888 820.112 144 776 144L504 144C459.888 144 424 179.888 424 224L424 416C424 460.112 459.888 496 504 496L552 496C563.046 496 572 504.954 572 516 572 527.046 563.046 536 552 536L504 536C437.832 536 384 482.168 384 416L384 224C384 157.832 437.832 104 504 104L776 104C842.168 104 896 157.832 896 224ZM563 576 490 576C461.939 576 435.577 561 421.2 536.854 415.549 527.362 403.27 524.252 393.784 529.901 384.293 535.551 381.18 547.827 386.831 557.317 397.279 574.865 412.133 589.561 429.789 599.82 448.007 610.405 468.828 616 490 616L563 616C574.046 616 583 607.046 583 596 583 584.954 574.046 576 563 576ZM660 330 660 204C660 192.954 651.046 184 640 184 628.954 184 620 192.954 620 204L620 330C620 341.046 628.954 350 640 350 651.046 350 660 341.046 660 330ZM831 375C819.954 375 811 383.954 811 395 811 406.046 819.954 415 831 415 844.785 415 856 426.215 856 440L856 551C856 564.785 844.785 576 831 576 817.215 576 806 564.785 806 551L806 535 816 535C827.046 535 836 526.046 836 515 836 503.954 827.046 495 816 495L700 495C688.954 495 680 503.954 680 515 680 526.046 688.954 535 700 535L710 535 710 551C710 564.785 698.785 576 685 576 671.215 576 660 564.785 660 551L660 440C660 426.215 671.215 415 685 415 696.046 415 705 406.046 705 395 705 383.954 696.046 375 685 375 649.159 375 620 404.159 620 440L620 551C620 586.841 649.159 616 685 616 720.841 616 750 586.841 750 551L750 535 766 535 766 551C766 586.841 795.159 616 831 616 866.841 616 896 586.841 896 551L896 440C896 404.159 866.841 375 831 375ZM560 255 484 255C472.954 255 464 246.046 464 235 464 223.954 472.954 215 484 215L560 215C571.046 215 580 223.954 580 235 580 246.046 571.046 255 560 255ZM580 315C580 303.954 571.046 295 560 295L484 295C472.954 295 464 303.954 464 315 464 326.046 472.954 335 484 335L560 335C571.046 335 580 326.046 580 315ZM540 395C540 383.954 531.046 375 520 375L484 375C472.954 375 464 383.954 464 395 464 406.046 472.954 415 484 415L520 415C531.046 415 540 406.046 540 395ZM816 235C816 223.954 807.046 215 796 215L720 215C708.954 215 700 223.954 700 235 700 246.046 708.954 255 720 255L796 255C807.046 255 816 246.046 816 235ZM776 315C776 303.954 767.046 295 756 295L720 295C708.954 295 700 303.954 700 315 700 326.046 708.954 335 720 335L756 335C767.046 335 776 326.046 776 315Z" fill="#FFFFFF"/></g></svg>