<svg width="512" height="512" xmlns="http://www.w3.org/2000/svg" xmlns:xlink="http://www.w3.org/1999/xlink" overflow="hidden"><defs><clipPath id="clip0"><rect x="384" y="104" width="512" height="512"/></clipPath></defs><g clip-path="url(#clip0)" transform="translate(-384 -104)"><path d="M877.369 386.612C866.348 422.951 845.059 456.376 824.472 488.701 800.057 527.037 776.995 563.247 776.995 595.986 776.995 607.031 768.041 615.985 756.995 615.985 745.95 615.985 736.996 607.031 736.996 595.986 736.996 551.592 763.099 510.606 790.736 467.214 809.875 437.164 829.665 406.093 839.092 375.003 864.276 291.962 856.735 210.043 845.973 155.945 844.394 148.008 836.615 142.769 828.639 144.27L828.245 144.344C819.369 146.01 815.869 154.74 816.376 162.145 816.669 166.414 817.089 171.246 817.575 176.84 822.122 229.108 830.586 326.399 773.931 416.634 773.388 417.499 770.679 421.444 769.917 422.654 764.029 432 751.682 434.801 742.336 428.918 732.991 423.031 730.187 410.684 736.073 401.338 748.481 381.636 754.618 363.711 753.819 349.5 753.366 341.444 750.608 334.855 746.053 330.95 742.339 327.766 737.564 326.432 731.856 326.987 724.502 327.702 720.16 332.249 717.813 335.938 716.311 338.299 715.145 342.566 713.909 347.084 713.577 348.296 713.243 349.514 712.896 350.733 697.235 405.736 673.105 438.48 653.716 464.791 640.111 483.256 628.342 499.226 622.232 518.944 619.787 529.404 618.733 540.382 618.919 553.428 619.154 569.987 612.823 585.658 601.091 597.56 589.376 609.442 573.823 615.987 557.299 615.987 530.163 615.987 505.958 597.592 498.438 571.252 490.99 545.172 473.53 517.568 455.044 488.345 434.681 456.152 413.624 422.863 402.631 386.615 375.043 295.636 383.146 206.705 394.801 148.122 400.635 118.801 429.322 99.4432 458.738 104.957L459.119 105.028C486.874 110.238 505.547 135.408 503.528 164.877 503.215 169.46 502.766 174.635 502.293 180.113 499.748 209.527 495.855 254.59 504.925 303.357 505.89 302.403 506.876 301.47 507.908 300.585 519.863 290.333 535.526 285.569 552.012 287.172 570.004 288.922 586.014 298.871 595.934 314.468 600.674 321.92 602.798 329.678 604.671 336.523 604.966 337.603 605.263 338.688 605.572 339.774 608.955 351.658 613.265 362.384 617.42 372.202 621.723 382.375 616.965 394.109 606.793 398.413 596.621 402.715 584.886 397.958 580.582 387.786 576.153 377.316 571.089 364.727 567.103 350.728 566.756 349.51 566.422 348.292 566.09 347.08 564.855 342.562 563.688 338.295 562.186 335.934 559.839 332.245 555.498 327.698 548.143 326.983 542.435 326.428 537.661 327.762 533.946 330.946 529.391 334.852 526.634 341.44 526.181 349.496 525.389 363.572 531.575 381.497 544.07 401.334 549.956 410.681 547.151 423.028 537.806 428.915 534.495 431 530.808 431.995 527.165 431.995 520.523 431.995 514.026 428.687 510.225 422.651 509.463 421.442 506.754 417.497 506.21 416.631 449.496 326.3 457.919 228.96 462.444 176.666 462.923 171.141 463.336 166.369 463.625 162.144 464.132 154.739 460.632 146.009 451.749 144.341L451.37 144.27C443.376 142.768 435.608 148.002 434.031 155.927 423.267 210.028 415.723 291.951 440.909 375.003 450.328 406.062 469.911 437.02 488.848 466.959 508.915 498.686 527.869 528.651 536.9 560.267 539.543 569.523 547.931 575.987 557.3 575.987 563.033 575.987 568.47 573.675 572.609 569.477 576.765 565.261 579.008 559.764 578.926 553.997 578.688 537.292 580.132 523.01 583.471 509.052 583.564 508.664 583.667 508.281 583.783 507.9 591.839 481.338 606.256 461.774 621.518 441.062 640.804 414.889 660.746 387.828 674.427 339.778 674.737 338.691 675.033 337.605 675.328 336.525 677.202 329.68 679.325 321.922 684.065 314.469 693.985 298.872 709.995 288.923 727.987 287.174 744.471 285.572 760.135 290.335 772.09 300.586 773.152 301.497 774.165 302.458 775.155 303.441 784.194 254.725 780.283 209.697 777.726 180.305 777.244 174.756 776.788 169.514 776.47 164.878 774.451 135.409 793.124 110.239 820.872 105.03L821.265 104.956C850.683 99.4352 879.366 118.806 885.201 148.141 896.855 206.72 904.955 295.645 877.369 386.612ZM640 249.001C653.806 249.001 664.999 237.809 664.999 224.002 664.999 210.196 653.806 199.004 640 199.004 626.194 199.004 615.001 210.196 615.001 224.002 615.001 237.809 626.194 249.001 640 249.001ZM742.995 229.002 742.995 197.807C742.995 177.368 733.328 157.719 717.135 145.248L681.438 117.754C657.482 99.4822 624.019 99.4822 600.063 117.754 600 117.802 599.938 117.85 599.876 117.898L563.494 146.332C547.295 158.992 538.005 178.044 538.005 198.603L538.005 229.002C538.005 240.048 546.958 249.001 558.004 249.001 569.049 249.001 578.003 240.048 578.003 229.002L578.003 198.603C578.003 190.439 581.692 182.874 588.123 177.848L624.399 149.498C634.067 142.178 647.534 142.198 657.106 149.501L692.729 176.938C699.159 181.889 702.998 189.691 702.998 197.808L702.998 229.004C702.998 240.05 711.952 249.003 722.997 249.003 734.043 249.003 742.995 240.048 742.995 229.002Z" fill="#FFFFFF"/></g></svg>