<svg width="512" height="512" xmlns="http://www.w3.org/2000/svg" xmlns:xlink="http://www.w3.org/1999/xlink" overflow="hidden"><defs><clipPath id="clip0"><rect x="384" y="104" width="512" height="512"/></clipPath></defs><g clip-path="url(#clip0)" transform="translate(-384 -104)"><path d="M883.604 401.41C875.322 469.624 865.441 521.329 865.316 521.797 849.007 582.545 810.539 616 757 616 728.812 616 703.388 604.775 685.407 584.394 668.509 565.239 659.203 539.181 659.203 511.022 659.203 474.388 656.411 438.758 650.668 402.096 648.958 391.183 656.419 380.95 667.331 379.242 678.26 377.534 688.477 384.993 690.185 395.905 696.253 434.637 699.203 472.293 699.203 511.022 699.203 549.28 722.97 576 757 576 792.03 576 814.769 555.105 826.492 512.136 827.667 505.874 836.321 458.981 843.895 396.59 845.226 385.624 855.195 377.824 866.16 379.146 877.126 380.477 884.936 390.445 883.604 401.41ZM896 231C896 257.479 894.591 287.811 891.926 318.718 891.034 329.06 882.38 337 872 337 849.411 337 833.201 350.401 828.29 358.848 815.323 381.147 791.071 395 765 395 741.647 395 718.69 383.612 705.088 365.282 699.743 358.082 686.389 346 657 346 649.926 346 630.074 346 623 346 593.611 346 580.258 358.081 574.913 365.282 561.309 383.613 538.352 395 515 395 488.929 395 464.677 381.147 451.711 358.849 446.799 350.401 430.588 337 408 337 397.62 337 388.966 329.06 388.074 318.718 385.409 287.812 384 257.479 384 231 384 159.785 444.646 104 522.066 104 559.347 104 594.188 118.706 620.171 145.408 627.834 153.283 634.46 161.935 639.999 171.185 645.538 161.935 652.165 153.282 659.827 145.408 685.812 118.706 720.652 104 757.934 104 835.354 104 896 159.785 896 231ZM620 244.2C620 188.949 576.067 144 522.066 144 467.076 144 424 182.215 424 231 424 251.647 424.9 274.809 426.622 298.784 454.838 304.271 476.305 321.57 486.289 338.742 492.032 348.618 503.303 355 515 355 525.771 355 536.681 349.679 542.792 341.444 551.434 329.8 570.643 311.216 607.063 306.911 608.121 302.677 609.166 298.57 610.194 294.528 615.456 273.84 620 255.974 620 244.2ZM856 231C856 182.215 812.924 144 757.934 144 703.933 144 660 188.949 660 244.2 660 255.972 664.543 273.834 669.804 294.517 670.833 298.563 671.878 302.674 672.937 306.912 709.358 311.217 728.567 329.801 737.208 341.444 743.32 349.679 754.229 355 765 355 776.697 355 787.968 348.618 793.711 338.741 803.695 321.57 825.162 304.27 853.378 298.783 855.1 274.809 856 251.647 856 231ZM612.669 379.241C601.748 377.535 591.524 384.992 589.815 395.904 583.747 434.636 580.797 472.292 580.797 511.021 580.797 549.28 557.03 576 523 576 487.97 576 465.231 555.105 453.508 512.136 452.333 505.874 443.679 458.981 436.105 396.59 434.773 385.625 424.8 377.823 413.84 379.146 402.874 380.477 395.065 390.446 396.396 401.411 404.678 469.625 414.559 521.33 414.684 521.798 430.993 582.545 469.461 616 523 616 551.188 616 576.612 604.775 594.593 584.394 611.491 565.239 620.797 539.181 620.797 511.022 620.797 474.388 623.589 438.758 629.332 402.096 631.042 391.183 623.581 380.95 612.669 379.241ZM761.427 305C745.569 305 730.807 297.867 721.94 285.919 715.357 277.049 717.211 264.522 726.082 257.94 734.951 251.358 747.478 253.211 754.061 262.082 755.336 263.801 758.366 265.001 761.427 265.001 764.42 265.001 767.279 263.41 768.71 260.949 774.263 251.4 786.504 248.16 796.053 253.711 805.602 259.263 808.842 271.504 803.29 281.053 794.702 295.824 778.661 305 761.427 305ZM557.061 284.919C563.643 276.049 561.79 263.523 552.919 256.94 544.048 250.356 531.523 252.21 524.94 261.081 523.282 263.315 520.115 265 517.573 265 514.579 265 511.719 263.409 510.287 260.946 504.732 251.397 492.49 248.16 482.943 253.712 473.395 259.265 470.156 271.507 475.709 281.056 484.299 295.826 500.34 305 517.573 305 532.736 305 547.867 297.306 557.061 284.919Z" fill="#FFFFFF"/></g></svg>