<svg width="512" height="512" xmlns="http://www.w3.org/2000/svg" xmlns:xlink="http://www.w3.org/1999/xlink" overflow="hidden"><defs><clipPath id="clip0"><rect x="384" y="104" width="512" height="512"/></clipPath></defs><g clip-path="url(#clip0)" transform="translate(-384 -104)"><path d="M894.896 479.822 880.208 371.871C876.747 346.433 865.497 323.22 847.675 304.742 829.853 286.264 807.062 274.183 781.765 269.806L754.95 265.166 755.008 164C755.008 148.01 748.907 132.989 737.83 121.705 726.622 110.288 711.603 104 695.539 104 662.162 104 635.008 130.916 635.008 163.988L634.949 265.281 612.003 269.418C560.652 278.676 521.425 319.633 514.39 371.336L495.962 506.784C490.594 546.244 456.515 576 416.693 576L404.008 576C392.962 576 384.008 584.954 384.008 596 384.008 607.046 392.962 616 404.008 616L775.99 616C810.643 616 843.59 601.029 866.382 574.927 889.174 548.825 899.567 514.159 894.896 479.822ZM836.251 548.618C821.057 566.02 799.093 576 775.99 576L506.136 576C522.033 558.228 532.352 536.029 535.597 512.178L554.025 376.73C558.715 342.262 584.867 314.957 619.101 308.785L658.489 301.683C668.008 299.967 674.934 291.684 674.94 282.012L675.008 164C675.008 153.159 684.41 144 695.539 144 706.456 144 715.008 152.785 715.008 163.988L714.94 281.988C714.934 291.722 721.938 300.047 731.53 301.707L774.945 309.22C809.475 315.196 835.849 342.54 840.574 377.264L855.262 485.215C858.375 508.106 851.446 531.216 836.251 548.618ZM804.896 469.821C806.723 483.258 806.299 496.734 803.636 509.878 801.714 519.363 793.373 525.91 784.056 525.91 782.739 525.91 781.403 525.779 780.063 525.508 769.237 523.315 762.24 512.76 764.433 501.935 766.204 493.191 766.484 484.201 765.261 475.214L763.016 458.72C761.527 447.775 769.192 437.695 780.136 436.205 791.082 434.724 801.161 442.38 802.651 453.325ZM644.896 469.822C646.729 483.297 646.297 496.812 643.613 509.995 641.683 519.472 633.345 526.008 624.036 526.008 622.713 526.008 621.372 525.876 620.024 525.602 609.201 523.398 602.213 512.837 604.418 502.013 606.204 493.243 606.487 484.227 605.262 475.215L603.027 458.785C601.538 447.84 609.203 437.761 620.148 436.271 631.092 434.787 641.173 442.447 642.662 453.392ZM724.896 469.821C726.723 483.258 726.299 496.734 723.636 509.878 721.714 519.363 713.373 525.91 704.056 525.91 702.739 525.91 701.403 525.779 700.063 525.508 689.237 523.315 682.24 512.76 684.433 501.935 686.204 493.191 686.484 484.201 685.261 475.214L683.016 458.72C681.527 447.775 689.192 437.695 700.136 436.205 711.087 434.724 721.16 442.38 722.651 453.325ZM384.008 175C384.008 161.193 395.201 150 409.008 150 422.815 150 434.008 161.193 434.008 175 434.008 188.807 422.815 200 409.008 200 395.201 200 384.008 188.807 384.008 175ZM465.008 237C465.008 223.193 476.201 212 490.008 212 503.815 212 515.008 223.193 515.008 237 515.008 250.807 503.815 262 490.008 262 476.201 262 465.008 250.807 465.008 237ZM450.008 392C463.815 392 475.008 403.193 475.008 417 475.008 430.807 463.815 442 450.008 442 436.201 442 425.008 430.807 425.008 417 425.008 403.193 436.201 392 450.008 392ZM434.008 329C434.008 342.807 422.815 354 409.008 354 395.201 354 384.008 342.807 384.008 329 384.008 315.193 395.201 304 409.008 304 422.815 304 434.008 315.193 434.008 329ZM409.008 486C395.201 486 384.008 497.193 384.008 511 384.008 524.807 395.201 536 409.008 536 422.815 536 434.008 524.807 434.008 511 434.008 497.193 422.815 486 409.008 486ZM801.008 386C801.008 374.954 792.054 366 781.008 366L613.008 366C601.962 366 593.008 374.954 593.008 386 593.008 397.046 601.962 406 613.008 406L781.008 406C792.054 406 801.008 397.046 801.008 386Z" fill="#FFFFFF"/></g></svg>