<svg width="512" height="512" xmlns="http://www.w3.org/2000/svg" xmlns:xlink="http://www.w3.org/1999/xlink" overflow="hidden"><defs><clipPath id="clip0"><rect x="384" y="104" width="512" height="512"/></clipPath></defs><g clip-path="url(#clip0)" transform="translate(-384 -104)"><path d="M404 616C392.954 616 384 607.046 384 596L384 512.729C384 490.104 390.245 468.194 402.06 449.369 407.934 440.014 420.279 437.191 429.632 443.06 438.987 448.932 441.812 461.277 435.941 470.632 428.018 483.256 424 497.419 424 512.729L424 596C424 607.046 415.046 616 404 616ZM896 596 896 512.729C896 475.538 878.345 439.869 848.773 417.315L712.773 313.586C669.924 280.905 610.073 280.905 567.275 313.549L485.866 375.25C481.089 378.87 475.242 380.138 469.396 378.813 463.518 377.483 458.753 373.796 455.979 368.432 435.598 329.019 424.838 288.048 424 246.651 424.097 190.029 468.022 144 522 144 547.707 144 572.618 153.568 592.145 170.942 609.587 186.461 620 206.296 620 224 620 235.046 628.954 244 640 244 651.046 244 660 235.046 660 224 660 186.236 701.91 144 758 144 811.978 144 855.903 190.03 856 246.651 855.318 280.331 848.059 313.836 834.421 346.242 830.136 356.423 834.916 368.149 845.097 372.434 855.28 376.72 867.005 371.938 871.288 361.757 886.927 324.597 895.24 286.065 895.996 247.23 895.999 247.101 896 246.971 896 246.841 896 168.079 834.094 104 758 104 709.093 104 664.184 128.815 639.597 164.252 633.77 156.022 626.777 148.215 618.734 141.058 591.875 117.161 557.521 104 522 104 445.906 104 384 168.079 384 246.842 384 246.972 384.001 247.102 384.004 247.232 384.932 294.878 397.194 341.838 420.45 386.807 428.618 402.6 443.241 413.907 460.571 417.827 477.87 421.74 495.894 417.841 510.027 407.128L591.484 345.391C620.048 323.604 659.951 323.604 688.515 345.391L824.515 449.12C844.23 464.155 856 487.935 856 512.729L856 596C856 607.046 864.954 616 876 616 887.046 616 896 607.046 896 596ZM626 492C626 505.807 614.807 517 601 517 587.193 517 576 505.807 576 492 576 478.193 587.193 467 601 467 614.807 467 626 478.193 626 492ZM681 467C667.193 467 656 478.193 656 492 656 505.807 667.193 517 681 517 694.807 517 706 505.807 706 492 706 478.193 694.807 467 681 467ZM601 547C587.193 547 576 558.193 576 572 576 585.807 587.193 597 601 597 614.807 597 626 585.807 626 572 626 558.193 614.807 547 601 547ZM681 547C667.193 547 656 558.193 656 572 656 585.807 667.193 597 681 597 694.807 597 706 585.807 706 572 706 558.193 694.807 547 681 547Z" fill="#FFFFFF"/></g></svg>