<svg width="217" height="217" xmlns="http://www.w3.org/2000/svg" xmlns:xlink="http://www.w3.org/1999/xlink" overflow="hidden"><defs><clipPath id="clip0"><rect x="466" y="212" width="217" height="217"/></clipPath></defs><g clip-path="url(#clip0)" transform="translate(-466 -212)"><path d="M683 320.5C683 380.423 634.423 429 574.5 429 514.577 429 466 380.423 466 320.5 466 260.577 514.577 212 574.5 212 634.423 212 683 260.577 683 320.5Z" fill="#FFD42A"/><path d="M500.852 240.961C478.67 261.466 466.039 290.29 466.001 320.498 466.001 380.421 514.578 428.997 574.501 428.998 613.569 428.97 649.606 407.941 668.85 373.941 666.85 375.836 664.779 377.654 662.641 379.391 659.809 381.638 656.865 383.743 653.822 385.698 650.778 387.654 647.637 389.456 644.412 391.098 641.188 392.738 637.885 394.216 634.514 395.526 631.144 396.838 627.711 397.981 624.227 398.95 620.739 399.917 617.206 400.709 613.64 401.323 610.074 401.939 606.481 402.375 602.872 402.632 600.319 402.813 597.761 402.903 595.201 402.904 591.584 402.903 587.97 402.722 584.371 402.361 580.771 401.999 577.191 401.458 573.645 400.739 570.099 400.019 566.591 399.122 563.135 398.052 559.678 396.984 556.277 395.743 552.944 394.335 549.613 392.926 546.353 391.351 543.179 389.616 540.005 387.883 536.92 385.991 533.935 383.95 530.951 381.907 528.07 379.717 525.304 377.386 522.538 375.056 519.89 372.589 517.369 369.994 514.848 367.399 512.457 364.678 510.207 361.844 507.959 359.011 505.855 356.068 503.901 353.025 501.947 349.98 500.147 346.839 498.507 343.614 496.865 340.391 495.385 337.087 494.073 333.716 492.763 330.344 491.622 326.908 490.655 323.422 489.688 319.937 488.896 316.406 488.282 312.842 487.666 309.277 487.23 305.682 486.973 302.073 486.792 299.52 486.702 296.962 486.702 294.403 486.702 290.783 486.883 287.167 487.245 283.565 487.604 279.968 488.143 276.39 488.859 272.846 489.579 269.3 490.476 265.793 491.546 262.336 492.615 258.88 493.855 255.479 495.263 252.146 496.672 248.814 498.247 245.555 499.982 242.381 500.269 241.905 500.559 241.432 500.852 240.961Z" fill="#FFBC2A"/><path d="M541.228 352.267C541.228 352.267 604.185 321.221 612.504 352.267" stroke="#1A1A1A" stroke-width="14.255" stroke-linecap="round" stroke-linejoin="round" fill="none"/><path d="M567.32 370.086C567.32 370.086 576.042 360.057 593.412 370.086" stroke="#FFBC2A" stroke-width="14.255" stroke-linecap="round" stroke-linejoin="round" fill="none"/><path d="M513.227 270.809 553.32 270.809" stroke="#FFFFFF" stroke-width="14.255" stroke-linecap="round" stroke-linejoin="round" fill="none"/><path d="M553.32 270.809 543.456 270.809" stroke="#1A1A1A" stroke-width="14.255" stroke-linecap="round" stroke-linejoin="round" fill="none"/><path d="M598.821 270.809 638.913 270.809" stroke="#FFFFFF" stroke-width="14.255" stroke-linecap="round" stroke-linejoin="round" fill="none"/><path d="M638.913 270.809 629.05 270.809" stroke="#1A1A1A" stroke-width="14.255" stroke-linecap="round" stroke-linejoin="round" fill="none"/></g></svg>