<svg width="152" height="152" xmlns="http://www.w3.org/2000/svg" xmlns:xlink="http://www.w3.org/1999/xlink" overflow="hidden"><defs><clipPath id="clip0"><rect x="609" y="329" width="152" height="152"/></clipPath></defs><g clip-path="url(#clip0)" transform="translate(-609 -329)"><path d="M761 405C761 446.974 726.974 481 685 481 643.026 481 609 446.973 609 405 609 363.026 643.026 329 685 329 726.974 329 761 363.026 761 405Z" fill="#FFD42A"/><path d="M633.413 349.286C617.875 363.649 609.028 383.839 609.001 404.999 609.001 446.972 643.027 480.998 685.001 480.998 712.367 480.979 737.609 466.249 751.089 442.433 749.688 443.76 748.237 445.034 746.74 446.251 744.755 447.825 742.694 449.299 740.562 450.668 738.43 452.038 736.229 453.301 733.971 454.451 731.713 455.6 729.399 456.635 727.038 457.552 724.677 458.471 722.272 459.272 719.831 459.951 717.389 460.628 714.914 461.183 712.416 461.614 709.919 462.044 707.401 462.35 704.873 462.53 703.085 462.657 701.293 462.72 699.501 462.72 696.967 462.72 694.435 462.593 691.914 462.34 689.392 462.087 686.885 461.708 684.401 461.204 681.917 460.7 679.46 460.072 677.039 459.322 674.618 458.573 672.236 457.705 669.901 456.719 667.567 455.731 665.284 454.628 663.061 453.413 660.838 452.199 658.677 450.874 656.586 449.444 654.495 448.013 652.478 446.479 650.54 444.846 648.603 443.214 646.748 441.486 644.982 439.669 643.216 437.85 641.541 435.945 639.965 433.959 638.391 431.975 636.917 429.914 635.548 427.782 634.18 425.649 632.918 423.449 631.77 421.19 630.619 418.933 629.583 416.619 628.664 414.257 627.746 411.895 626.947 409.488 626.27 407.046 625.593 404.605 625.038 402.132 624.607 399.635 624.176 397.138 623.87 394.621 623.691 392.093 623.564 390.304 623.501 388.512 623.501 386.72 623.501 384.185 623.628 381.651 623.881 379.129 624.133 376.608 624.51 374.103 625.012 371.62 625.516 369.136 626.144 366.68 626.894 364.259 627.643 361.837 628.511 359.455 629.498 357.121 630.485 354.787 631.588 352.504 632.803 350.28 633.004 349.947 633.207 349.616 633.413 349.286Z" fill="#FFBC2A"/><path d="M643.651 415.886C643.651 415.886 647.209 439.361 683.92 439.361" stroke="#1A1A1A" stroke-width="9.9851" stroke-linecap="round" stroke-linejoin="round" fill="none"/><path d="M714.332 425.708C707.138 432.444 695.979 434.899 688.692 435.8 688.903 436.325 689.103 436.851 689.394 437.355L700.115 455.921C703.433 461.668 710.726 463.622 716.473 460.304L719.476 458.569C725.223 455.251 727.182 447.953 723.864 442.207Z" fill="#FF5555"/><path d="M724.189 415.886C724.189 415.886 720.631 439.361 683.92 439.361" stroke="#1A1A1A" stroke-width="9.9851" stroke-linecap="round" stroke-linejoin="round" fill="none"/><path d="M730.785 374.594C730.785 384.319 722.786 392.202 712.919 392.202 703.051 392.202 695.052 384.319 695.052 374.594 695.052 364.869 703.051 356.985 712.919 356.985 722.786 356.985 730.785 364.869 730.785 374.594Z" fill="#FFFFFF"/><path d="M676.255 360.725C676.255 370.45 668.256 378.334 658.389 378.334 648.521 378.334 640.522 370.45 640.522 360.725 640.522 351 648.521 343.116 658.389 343.116 668.256 343.116 676.255 351 676.255 360.725Z" fill="#FFFFFF"/><path d="M655.606 367.029C655.606 370.661 652.618 373.606 648.933 373.606 645.247 373.606 642.26 370.661 642.26 367.029 642.26 363.397 645.247 360.452 648.933 360.452 652.618 360.452 655.606 363.397 655.606 367.029Z" fill="#1A1A1A"/><path d="M728.733 368.29C728.733 371.922 725.745 374.867 722.06 374.867 718.374 374.867 715.387 371.922 715.387 368.29 715.387 364.658 718.374 361.713 722.06 361.713 725.745 361.713 728.733 364.658 728.733 368.29Z" fill="#1A1A1A"/><path d="M705.998 434.582 711.9 444.803" fill="#FF5555"/></g></svg>