<svg width="152" height="152" xmlns="http://www.w3.org/2000/svg" xmlns:xlink="http://www.w3.org/1999/xlink" overflow="hidden"><defs><clipPath id="clip0"><rect x="609" y="329" width="152" height="152"/></clipPath></defs><g clip-path="url(#clip0)" transform="translate(-609 -329)"><path d="M761 405C761 446.974 726.974 481 685 481 643.026 481 609 446.973 609 405 609 363.026 643.026 329 685 329 726.974 329 761 363.027 761 405Z" fill="#FFD42A"/><path d="M633.413 349.286C617.875 363.648 609.028 383.839 609.001 404.998 609.001 446.972 643.027 480.998 685.001 480.998 712.367 480.979 737.609 466.249 751.089 442.433 749.688 443.76 748.237 445.033 746.74 446.25 744.755 447.825 742.694 449.299 740.562 450.668 738.43 452.038 736.229 453.301 733.971 454.451 731.713 455.6 729.399 456.635 727.038 457.552 724.677 458.471 722.272 459.272 719.831 459.951 717.389 460.628 714.914 461.183 712.416 461.613 709.918 462.044 707.401 462.35 704.873 462.53 703.085 462.656 701.293 462.72 699.5 462.72 696.967 462.72 694.435 462.593 691.914 462.34 689.392 462.087 686.885 461.708 684.401 461.204 681.917 460.699 679.46 460.072 677.039 459.322 674.618 458.573 672.236 457.704 669.901 456.718 667.567 455.731 665.284 454.628 663.061 453.413 660.838 452.198 658.677 450.874 656.586 449.444 654.495 448.013 652.478 446.479 650.54 444.846 648.602 443.214 646.747 441.486 644.982 439.668 643.216 437.85 641.541 435.945 639.965 433.959 638.391 431.975 636.917 429.913 635.548 427.782 634.179 425.649 632.918 423.449 631.77 421.19 630.619 418.932 629.583 416.618 628.664 414.257 627.746 411.895 626.947 409.488 626.27 407.046 625.593 404.605 625.038 402.132 624.607 399.635 624.176 397.138 623.87 394.621 623.691 392.093 623.564 390.304 623.501 388.512 623.501 386.719 623.501 384.184 623.628 381.651 623.881 379.128 624.133 376.608 624.51 374.103 625.012 371.62 625.516 369.136 626.144 366.679 626.894 364.258 627.642 361.837 628.511 359.455 629.498 357.121 630.485 354.787 631.588 352.504 632.803 350.28 633.004 349.947 633.207 349.615 633.413 349.286Z" fill="#FFBC2A"/><path d="M657.793 394.713C657.512 395.953 657.368 397.22 657.364 398.491 657.366 408.214 665.363 416.096 675.228 416.097 685.095 416.098 693.095 408.216 693.097 398.491 693.088 397.22 692.939 395.953 692.653 394.713Z" fill="#FFFFFF"/><path d="M680.103 394.713C679.973 395.226 679.906 395.753 679.904 396.283 679.903 399.914 682.889 402.858 686.573 402.86 690.259 402.861 693.247 399.917 693.248 396.285 693.248 396.284 693.248 396.283 693.248 396.283 693.246 395.754 693.178 395.226 693.048 394.713Z" fill="#1A1A1A"/><path d="M715.742 394.713C715.461 395.953 715.317 397.22 715.313 398.491 715.315 408.214 723.312 416.095 733.177 416.097 743.044 416.098 751.044 408.216 751.046 398.491 751.037 397.22 750.888 395.952 750.602 394.713Z" fill="#FFFFFF"/><path d="M738.053 394.713C737.922 395.226 737.855 395.753 737.853 396.282 737.852 399.914 740.838 402.858 744.522 402.86 748.208 402.86 751.196 399.917 751.197 396.284 751.197 396.284 751.197 396.283 751.197 396.282 751.195 395.753 751.128 395.226 750.997 394.713Z" fill="#1A1A1A"/><path d="M716.469 442.593C716.469 442.593 699.133 426.517 683.058 442.593" stroke="#1A1A1A" stroke-width="9.9851" stroke-linecap="round" stroke-linejoin="round" fill="none"/><path d="M658.863 385.462 702.548 385.462" stroke="#FFBC2A" stroke-width="9.9851" stroke-linecap="round" stroke-linejoin="round" fill="none"/><path d="M702.548 385.462 746.232 385.462" stroke="#FFBC2A" stroke-width="9.9851" stroke-linecap="round" stroke-linejoin="round" fill="none"/></g></svg>