<svg width="152" height="152" xmlns="http://www.w3.org/2000/svg" xmlns:xlink="http://www.w3.org/1999/xlink" overflow="hidden"><defs><clipPath id="clip0"><rect x="609" y="329" width="152" height="152"/></clipPath></defs><g clip-path="url(#clip0)" transform="translate(-609 -329)"><path d="M761 405C761 446.974 726.974 481 685 481 643.026 481 609 446.974 609 405 609 363.026 643.026 329 685 329 726.974 329 761 363.027 761 405Z" fill="#FFD42A"/><path d="M633.413 349.286C617.875 363.648 609.028 383.839 609.001 404.998 609.001 446.972 643.027 480.998 685.001 480.998 712.367 480.979 737.609 466.249 751.089 442.433 749.688 443.76 748.237 445.033 746.74 446.25 744.755 447.825 742.694 449.299 740.562 450.668 738.43 452.038 736.229 453.301 733.971 454.451 731.713 455.6 729.399 456.635 727.038 457.552 724.677 458.471 722.272 459.272 719.831 459.951 717.389 460.628 714.914 461.183 712.416 461.613 709.918 462.044 707.401 462.35 704.873 462.53 703.085 462.656 701.293 462.72 699.5 462.72 696.967 462.72 694.435 462.593 691.914 462.34 689.392 462.087 686.885 461.708 684.401 461.204 681.917 460.699 679.46 460.072 677.039 459.322 674.618 458.573 672.236 457.705 669.901 456.718 667.567 455.731 665.284 454.628 663.061 453.413 660.838 452.198 658.677 450.874 656.586 449.444 654.495 448.013 652.478 446.479 650.54 444.846 648.602 443.214 646.747 441.486 644.982 439.669 643.216 437.85 641.541 435.945 639.965 433.959 638.391 431.975 636.917 429.913 635.548 427.782 634.179 425.649 632.918 423.449 631.77 421.19 630.619 418.932 629.583 416.618 628.664 414.257 627.746 411.895 626.947 409.488 626.27 407.046 625.593 404.605 625.038 402.132 624.607 399.635 624.176 397.138 623.87 394.621 623.691 392.093 623.564 390.304 623.501 388.512 623.501 386.72 623.501 384.185 623.628 381.651 623.881 379.129 624.133 376.608 624.51 374.103 625.012 371.62 625.516 369.136 626.144 366.679 626.894 364.258 627.642 361.837 628.511 359.455 629.498 357.121 630.485 354.787 631.588 352.504 632.803 350.28 633.004 349.947 633.207 349.616 633.413 349.286Z" fill="#FFBC2A"/><path d="M702.285 477.075C705.122 477.075 737.273 477.075 737.273 477.075L737.273 457.847 702.601 468.564Z" fill="#FFBC2A"/><path d="M708.59 406.154C695.318 406.154 684.636 420.582 684.636 438.507L684.636 466.605C684.636 468.349 684.763 470.048 684.958 471.716L732.222 471.716C732.416 470.048 732.543 468.349 732.543 466.605L732.543 438.507C732.543 420.582 721.861 406.154 708.59 406.154Z" fill="#1A1A1A"/><path d="M673.917 359.189C682.273 359.189 689.047 365.963 689.047 374.319L689.047 374.319C689.047 382.675 682.273 389.448 673.917 389.448L665.407 389.448C657.051 389.448 650.277 382.675 650.277 374.319L650.277 374.319C650.277 365.963 657.051 359.189 665.407 359.189Z" fill="#FFFFFF"/><path d="M694.658 374.319C694.658 377.951 691.67 380.896 687.985 380.896 684.3 380.896 681.312 377.951 681.312 374.319 681.312 370.687 684.3 367.742 687.985 367.742 691.67 367.742 694.658 370.687 694.658 374.319Z" fill="#1A1A1A"/><path d="M734.121 359.189C742.477 359.189 749.25 365.963 749.25 374.319L749.25 374.319C749.25 382.675 742.477 389.448 734.121 389.448L725.61 389.448C717.255 389.448 710.481 382.675 710.481 374.319L710.481 374.319C710.481 365.963 717.255 359.189 725.61 359.189Z" fill="#FFFFFF"/><path d="M755.965 374.319C755.965 377.951 752.977 380.896 749.292 380.896 745.607 380.896 742.619 377.951 742.619 374.319 742.619 370.687 745.607 367.742 749.292 367.742 752.977 367.742 755.965 370.687 755.965 374.319Z" fill="#1A1A1A"/><path d="M708.634 447.362C708.247 447.362 707.859 447.381 707.473 447.419 706.929 447.472 706.387 447.563 705.85 447.692 705.311 447.821 704.777 447.987 704.251 448.189 703.725 448.392 703.208 448.631 702.7 448.905 702.192 449.179 701.694 449.488 701.208 449.831 700.722 450.174 700.249 450.55 699.789 450.958 699.33 451.367 698.886 451.808 698.458 452.279 698.031 452.749 697.621 453.249 697.23 453.776 696.838 454.303 696.465 454.856 696.113 455.435 695.762 456.016 695.431 456.62 695.124 457.247 694.816 457.869 694.531 458.512 694.27 459.174 694.009 459.838 693.771 460.521 693.558 461.218 693.346 461.914 693.159 462.625 692.998 463.347 692.878 463.906 692.774 464.471 692.686 465.042 692.718 465.061 692.751 465.079 692.783 465.098L724.445 465.098C724.486 465.076 724.526 465.054 724.567 465.032L724.567 465.029C724.518 464.682 724.462 464.337 724.401 463.994 724.255 463.264 724.082 462.546 723.884 461.841 723.688 461.135 723.467 460.444 723.221 459.77 722.972 459.095 722.699 458.438 722.402 457.802 722.108 457.166 721.79 456.55 721.451 455.958 721.113 455.365 720.753 454.795 720.374 454.252 719.993 453.71 719.593 453.194 719.174 452.708 718.757 452.22 718.323 451.762 717.873 451.334 717.422 450.907 716.957 450.511 716.478 450.149 716 449.785 715.508 449.456 715.006 449.16 714.504 448.866 713.991 448.607 713.47 448.384 712.947 448.161 712.417 447.974 711.881 447.825 711.346 447.675 710.805 447.563 710.262 447.488 709.721 447.41 709.177 447.369 708.634 447.367Z" fill="#C24040"/><path d="M724.569 464.979C724.519 464.763 724.464 464.548 724.403 464.333 724.257 463.878 724.084 463.43 723.885 462.991 723.689 462.552 723.467 462.121 723.22 461.701 722.972 461.281 722.699 460.871 722.404 460.474 722.109 460.077 721.791 459.693 721.451 459.324 721.112 458.954 720.752 458.6 720.372 458.261 719.992 457.923 719.592 457.602 719.175 457.298 718.758 456.994 718.323 456.709 717.873 456.443 717.423 456.177 716.957 455.93 716.478 455.703 716 455.477 715.509 455.272 715.007 455.088 714.504 454.905 713.99 454.743 713.468 454.604 712.947 454.465 712.417 454.348 711.882 454.255 711.347 454.162 710.807 454.091 710.264 454.044 709.722 453.995 709.177 453.97 708.632 453.969 708.245 453.969 707.859 453.982 707.474 454.006 706.929 454.04 706.387 454.097 705.849 454.177 705.311 454.258 704.778 454.361 704.252 454.488 703.727 454.613 703.21 454.762 702.702 454.932 702.193 455.103 701.694 455.296 701.206 455.51 700.721 455.724 700.248 455.958 699.79 456.212 699.331 456.467 698.887 456.742 698.459 457.036 698.032 457.329 697.621 457.64 697.229 457.968 696.838 458.296 696.466 458.642 696.115 459.003 695.762 459.364 695.431 459.741 695.122 460.131 694.815 460.519 694.531 460.92 694.27 461.333 694.008 461.747 693.771 462.173 693.558 462.607 693.346 463.041 693.158 463.484 692.997 463.934 692.877 464.283 692.773 464.635 692.684 464.99 702.781 469.102 714.475 469.099 724.568 464.981Z" fill="#FF5555"/></g></svg>