<svg width="152" height="152" xmlns="http://www.w3.org/2000/svg" xmlns:xlink="http://www.w3.org/1999/xlink" overflow="hidden"><defs><clipPath id="clip0"><rect x="609" y="329" width="152" height="152"/></clipPath></defs><g clip-path="url(#clip0)" transform="translate(-609 -329)"><path d="M761 405C761 446.974 726.974 481 685 481 643.026 481 609 446.973 609 405 609 363.026 643.026 329 685 329 726.974 329 761 363.027 761 405Z" fill="#FFD42A"/><path d="M633.413 349.286C617.874 363.649 609.028 383.839 609.001 404.999 609.001 446.972 643.027 480.998 685.001 480.999 712.367 480.979 737.609 466.249 751.088 442.433 749.688 443.76 748.237 445.034 746.739 446.251 744.755 447.825 742.694 449.299 740.562 450.668 738.429 452.038 736.229 453.301 733.97 454.451 731.713 455.6 729.399 456.635 727.037 457.552 724.677 458.471 722.272 459.272 719.831 459.951 717.389 460.629 714.914 461.183 712.416 461.614 709.918 462.045 707.401 462.35 704.873 462.53 703.085 462.657 701.293 462.72 699.5 462.72 696.967 462.72 694.435 462.594 691.914 462.34 689.392 462.087 686.885 461.708 684.401 461.204 681.917 460.7 679.46 460.072 677.039 459.322 674.618 458.574 672.235 457.705 669.901 456.719 667.567 455.731 665.284 454.628 663.061 453.413 660.838 452.199 658.677 450.874 656.586 449.444 654.495 448.013 652.478 446.479 650.54 444.847 648.602 443.214 646.747 441.486 644.982 439.669 643.216 437.851 641.541 435.945 639.965 433.959 638.391 431.976 636.917 429.914 635.548 427.782 634.179 425.649 632.918 423.449 631.77 421.19 630.619 418.933 629.583 416.619 628.664 414.257 627.746 411.895 626.947 409.489 626.27 407.046 625.593 404.605 625.038 402.132 624.607 399.635 624.176 397.138 623.87 394.621 623.691 392.093 623.564 390.305 623.501 388.512 623.501 386.72 623.501 384.185 623.628 381.651 623.881 379.129 624.133 376.609 624.51 374.103 625.012 371.621 625.516 369.137 626.144 366.68 626.894 364.259 627.642 361.837 628.511 359.455 629.498 357.121 630.485 354.787 631.588 352.504 632.803 350.281 633.004 349.947 633.207 349.616 633.413 349.286Z" fill="#FFBC2A"/><path d="M711.566 408.736C711.566 408.736 725.12 400.855 727.326 408.421 729.532 415.985 707.468 427.648 681.622 427.648 655.775 427.648 649.786 424.811 649.786 424.811" stroke="#1A1A1A" stroke-width="9.9851" stroke-linecap="round" stroke-linejoin="round" fill="none"/><path d="M710.229 441.109C710.229 441.109 723.782 448.989 725.989 441.424 728.195 433.859 710.229 427.555 684.382 427.555" stroke="#1A1A1A" stroke-width="9.9851" stroke-linecap="round" stroke-linejoin="round" fill="none"/><path d="M645.017 410.534C645.017 410.534 653.212 428.186 640.919 438.587" stroke="#1A1A1A" stroke-width="9.9851" stroke-linecap="round" stroke-linejoin="round" fill="none"/><path d="M697.52 443.781C697.52 443.781 685.372 439.212 675.9 444.339" stroke="#FFBC2A" stroke-width="9.9851" stroke-linecap="round" stroke-linejoin="round" fill="none"/><path d="M643.797 371.857C643.797 371.857 664.758 360.982 677.839 374.063" stroke="#FFFFFF" stroke-width="9.9851" stroke-linecap="round" stroke-linejoin="round" fill="none"/><path d="M701.164 371.857C701.164 371.857 722.125 360.982 735.206 374.063" stroke="#FFFFFF" stroke-width="9.9851" stroke-linecap="round" stroke-linejoin="round" fill="none"/><path d="M683.534 373.649C683.534 377.281 680.546 380.226 676.861 380.226 673.176 380.226 670.188 377.281 670.188 373.649 670.188 370.017 673.176 367.072 676.861 367.072 680.546 367.072 683.534 370.017 683.534 373.649Z" fill="#1A1A1A"/><path d="M742.477 373.964C742.477 377.596 739.489 380.541 735.804 380.541 732.118 380.541 729.131 377.596 729.131 373.964 729.131 370.332 732.118 367.387 735.804 367.387 739.489 367.387 742.477 370.332 742.477 373.964Z" fill="#1A1A1A"/></g></svg>