<svg width="152" height="152" xmlns="http://www.w3.org/2000/svg" xmlns:xlink="http://www.w3.org/1999/xlink" overflow="hidden"><defs><clipPath id="clip0"><rect x="609" y="329" width="152" height="152"/></clipPath></defs><g clip-path="url(#clip0)" transform="translate(-609 -329)"><path d="M761 405C761 446.974 726.974 481 685 481 643.026 481 609 446.973 609 405 609 363.026 643.026 329 685 329 726.974 329 761 363.026 761 405Z" fill="#FFD42A"/><path d="M633.413 349.286C617.875 363.648 609.028 383.839 609.001 404.998 609.001 446.972 643.027 480.998 685.001 480.998 712.367 480.979 737.609 466.249 751.089 442.433 749.688 443.76 748.237 445.033 746.74 446.25 744.755 447.825 742.694 449.299 740.562 450.668 738.429 452.038 736.229 453.301 733.97 454.451 731.713 455.6 729.399 456.635 727.037 457.552 724.677 458.471 722.272 459.272 719.831 459.951 717.389 460.628 714.914 461.183 712.416 461.613 709.918 462.044 707.401 462.35 704.873 462.53 703.085 462.656 701.293 462.72 699.5 462.72 696.967 462.72 694.435 462.593 691.914 462.34 689.392 462.087 686.885 461.707 684.401 461.204 681.917 460.699 679.46 460.071 677.039 459.322 674.618 458.573 672.235 457.704 669.901 456.718 667.567 455.731 665.284 454.628 663.061 453.413 660.838 452.198 658.677 450.874 656.586 449.444 654.495 448.013 652.478 446.479 650.54 444.846 648.602 443.214 646.747 441.486 644.982 439.668 643.216 437.85 641.541 435.945 639.965 433.959 638.391 431.975 636.917 429.913 635.548 427.782 634.179 425.649 632.918 423.449 631.77 421.19 630.619 418.932 629.583 416.618 628.664 414.257 627.746 411.895 626.947 409.488 626.27 407.046 625.593 404.605 625.038 402.132 624.607 399.635 624.176 397.138 623.87 394.621 623.691 392.093 623.564 390.304 623.501 388.512 623.501 386.719 623.501 384.184 623.628 381.651 623.881 379.128 624.133 376.608 624.51 374.102 625.012 371.62 625.516 369.136 626.144 366.679 626.894 364.258 627.642 361.837 628.511 359.455 629.498 357.121 630.485 354.787 631.588 352.504 632.803 350.28 633.004 349.947 633.207 349.615 633.413 349.286Z" fill="#FFBC2A"/><path d="M687.414 405.273C667.54 405.272 651.429 411.854 651.428 419.972 651.437 420.394 651.491 420.815 651.589 421.235 650.832 423.294 650.439 425.521 650.433 427.773 650.434 436.748 656.463 444.023 663.899 444.024 668.508 444.017 672.794 441.166 675.259 436.466 677.728 441.171 682.02 444.022 686.634 444.024 691.825 444.016 696.55 440.408 698.779 434.75 701.009 440.41 705.736 444.018 710.929 444.024 718.365 444.024 724.394 436.749 724.395 427.773 724.392 425.52 724 423.292 723.244 421.23 723.34 420.812 723.392 420.392 723.4 419.972 723.4 411.854 707.288 405.272 687.414 405.273Z" fill="#1A1A1A"/><path d="M677.964 374.344C677.964 384.069 669.965 391.953 660.098 391.953 650.231 391.953 642.232 384.069 642.232 374.344 642.232 364.619 650.231 356.735 660.098 356.735 669.965 356.735 677.964 364.619 677.964 374.344Z" fill="#FFFFFF"/><path d="M677.173 374.344C677.173 377.976 674.185 380.921 670.5 380.921 666.814 380.921 663.827 377.976 663.827 374.344 663.827 370.712 666.815 367.767 670.5 367.767 674.185 367.767 677.173 370.712 677.173 374.344Z" fill="#1A1A1A"/><path d="M732.495 374.344C732.495 384.069 724.495 391.953 714.628 391.953 704.761 391.953 696.762 384.069 696.762 374.344 696.762 364.619 704.761 356.735 714.628 356.735 724.495 356.735 732.495 364.619 732.495 374.344Z" fill="#FFFFFF"/><path d="M731.703 374.344C731.703 377.976 728.715 380.921 725.03 380.921 721.344 380.921 718.357 377.976 718.357 374.344 718.357 370.712 721.344 367.767 725.03 367.767 728.715 367.767 731.703 370.712 731.703 374.344Z" fill="#1A1A1A"/></g></svg>