<svg width="152" height="152" xmlns="http://www.w3.org/2000/svg" xmlns:xlink="http://www.w3.org/1999/xlink" overflow="hidden"><defs><clipPath id="clip0"><rect x="609" y="329" width="152" height="152"/></clipPath></defs><g clip-path="url(#clip0)" transform="translate(-609 -329)"><path d="M761 405C761 446.974 726.974 481 685 481 643.026 481 609 446.973 609 405 609 363.026 643.026 329 685 329 726.974 329 761 363.026 761 405Z" fill="#FFD42A"/><path d="M633.413 349.286C617.875 363.648 609.028 383.839 609.001 404.998 609.001 446.972 643.027 480.998 685.001 480.998 712.367 480.979 737.609 466.249 751.089 442.433 749.688 443.76 748.237 445.033 746.74 446.25 744.755 447.825 742.694 449.299 740.562 450.668 738.429 452.038 736.229 453.301 733.97 454.451 731.713 455.6 729.399 456.635 727.037 457.552 724.677 458.471 722.272 459.272 719.831 459.951 717.389 460.628 714.914 461.183 712.416 461.613 709.918 462.044 707.401 462.35 704.873 462.53 703.085 462.656 701.293 462.72 699.5 462.72 696.967 462.72 694.435 462.593 691.914 462.34 689.392 462.087 686.885 461.707 684.401 461.204 681.917 460.699 679.46 460.071 677.039 459.322 674.618 458.573 672.235 457.704 669.901 456.718 667.567 455.731 665.284 454.628 663.061 453.413 660.838 452.198 658.677 450.874 656.586 449.444 654.495 448.013 652.478 446.479 650.54 444.846 648.603 443.214 646.747 441.486 644.982 439.668 643.216 437.85 641.541 435.945 639.965 433.959 638.391 431.975 636.917 429.913 635.548 427.782 634.179 425.649 632.918 423.449 631.77 421.19 630.619 418.932 629.583 416.618 628.664 414.257 627.746 411.895 626.947 409.488 626.27 407.046 625.593 404.605 625.038 402.132 624.607 399.635 624.176 397.138 623.87 394.621 623.691 392.093 623.564 390.304 623.501 388.512 623.501 386.719 623.501 384.184 623.628 381.651 623.881 379.128 624.133 376.608 624.51 374.102 625.012 371.62 625.516 369.136 626.144 366.679 626.894 364.258 627.642 361.837 628.511 359.455 629.498 357.121 630.485 354.787 631.588 352.504 632.803 350.28 633.004 349.947 633.207 349.615 633.413 349.286Z" fill="#FFBC2A"/><path d="M642.596 417.942C642.596 417.942 656.75 386.805 710.68 417.942" stroke="#1A1A1A" stroke-width="9.9851" stroke-linecap="round" stroke-linejoin="round" fill="none"/><path d="M727.977 365.959C727.977 369.591 724.99 372.535 721.304 372.535 717.619 372.535 714.632 369.591 714.632 365.959 714.632 362.326 717.619 359.382 721.304 359.382 724.99 359.382 727.977 362.326 727.977 365.959Z" fill="#1A1A1A"/><path d="M677.545 365.959C677.545 369.591 674.557 372.535 670.872 372.535 667.187 372.535 664.199 369.591 664.199 365.959 664.199 362.326 667.187 359.382 670.872 359.382 674.557 359.382 677.545 362.326 677.545 365.959Z" fill="#1A1A1A"/><path d="M683.604 424.614C683.604 424.614 671.457 420.044 661.984 425.171" stroke="#FFBC2A" stroke-width="9.9851" stroke-linecap="round" stroke-linejoin="round" fill="none"/></g></svg>