<svg width="152" height="152" xmlns="http://www.w3.org/2000/svg" xmlns:xlink="http://www.w3.org/1999/xlink" overflow="hidden"><defs><clipPath id="clip0"><rect x="609" y="329" width="152" height="152"/></clipPath></defs><g clip-path="url(#clip0)" transform="translate(-609 -329)"><path d="M761 405C761 446.974 726.974 481 685 481 643.026 481 609 446.973 609 405 609 363.026 643.026 329 685 329 726.974 329 761 363.026 761 405Z" fill="#FFD42A"/><path d="M633.413 349.286C617.875 363.648 609.028 383.839 609.001 404.998 609.001 446.972 643.027 480.998 685.001 480.998 712.367 480.979 737.609 466.249 751.089 442.433 749.688 443.76 748.237 445.033 746.74 446.25 744.755 447.825 742.694 449.299 740.562 450.668 738.429 452.038 736.229 453.301 733.971 454.451 731.713 455.6 729.399 456.635 727.037 457.552 724.677 458.471 722.272 459.272 719.831 459.951 717.389 460.628 714.914 461.183 712.416 461.613 709.918 462.044 707.401 462.35 704.873 462.53 703.085 462.656 701.293 462.72 699.5 462.72 696.967 462.72 694.435 462.593 691.914 462.34 689.392 462.087 686.885 461.707 684.401 461.204 681.917 460.699 679.46 460.071 677.039 459.322 674.618 458.573 672.235 457.704 669.901 456.718 667.567 455.731 665.284 454.628 663.061 453.413 660.838 452.198 658.677 450.874 656.586 449.444 654.495 448.013 652.478 446.479 650.54 444.846 648.603 443.214 646.747 441.486 644.982 439.668 643.216 437.85 641.541 435.945 639.965 433.959 638.391 431.975 636.917 429.913 635.548 427.782 634.179 425.649 632.918 423.449 631.77 421.19 630.619 418.932 629.583 416.618 628.664 414.257 627.746 411.895 626.947 409.488 626.27 407.046 625.593 404.605 625.038 402.132 624.607 399.635 624.176 397.138 623.87 394.621 623.691 392.093 623.564 390.304 623.501 388.512 623.501 386.719 623.501 384.184 623.628 381.651 623.881 379.128 624.133 376.608 624.51 374.102 625.012 371.62 625.516 369.136 626.144 366.679 626.894 364.258 627.642 361.837 628.511 359.455 629.498 357.121 630.485 354.787 631.588 352.504 632.803 350.28 633.004 349.947 633.207 349.615 633.413 349.286Z" fill="#FFBC2A"/><path d="M672.272 384.151C672.272 396.83 661.844 407.109 648.979 407.109 636.114 407.109 625.685 396.83 625.685 384.151 625.685 371.471 636.114 361.193 648.979 361.193 661.844 361.193 672.272 371.471 672.272 384.151Z" fill="#1A1A1A"/><path d="M671.24 384.151C671.24 388.886 667.345 392.725 662.54 392.725 657.735 392.725 653.84 388.886 653.84 384.151 653.84 379.415 657.735 375.576 662.54 375.576 667.345 375.576 671.24 379.415 671.24 384.151Z" fill="#1A1A1A"/><path d="M743.367 384.151C743.367 396.83 732.938 407.109 720.074 407.109 707.209 407.109 696.78 396.83 696.78 384.151 696.78 371.471 707.209 361.193 720.074 361.193 732.938 361.193 743.367 371.471 743.367 384.151Z" fill="#1A1A1A"/><path d="M742.335 384.151C742.335 388.886 738.44 392.725 733.635 392.725 728.83 392.725 724.935 388.886 724.935 384.151 724.935 379.415 728.83 375.576 733.635 375.576 738.44 375.576 742.335 379.415 742.335 384.151Z" fill="#1A1A1A"/><path d="M648.581 384.151 729.71 384.151" stroke="#1A1A1A" stroke-width="9.9851" stroke-linecap="round" stroke-linejoin="round" fill="none"/><path d="M723.579 444.419C723.579 444.419 663.061 464.592 643.518 425.507" stroke="#1A1A1A" stroke-width="9.9851" stroke-linecap="round" stroke-linejoin="round" fill="none"/></g></svg>