<svg width="152" height="152" xmlns="http://www.w3.org/2000/svg" xmlns:xlink="http://www.w3.org/1999/xlink" overflow="hidden"><defs><clipPath id="clip0"><rect x="609" y="329" width="152" height="152"/></clipPath></defs><g clip-path="url(#clip0)" transform="translate(-609 -329)"><path d="M761 405C761 446.974 726.974 481 685 481 643.026 481 609 446.973 609 405 609 363.026 643.026 329 685 329 726.974 329 761 363.026 761 405Z" fill="#FFD42A"/><path d="M633.413 349.286C617.875 363.648 609.028 383.839 609.001 404.998 609.001 446.972 643.027 480.998 685.001 480.998 712.367 480.979 737.609 466.249 751.089 442.433 749.688 443.76 748.237 445.033 746.74 446.25 744.755 447.825 742.694 449.299 740.562 450.668 738.43 452.038 736.229 453.301 733.971 454.451 731.713 455.6 729.399 456.635 727.038 457.552 724.677 458.471 722.272 459.272 719.831 459.951 717.389 460.628 714.914 461.183 712.416 461.613 709.919 462.044 707.401 462.35 704.873 462.53 703.085 462.656 701.293 462.72 699.5 462.72 696.967 462.72 694.435 462.593 691.914 462.34 689.392 462.087 686.885 461.707 684.401 461.204 681.917 460.699 679.46 460.071 677.039 459.322 674.618 458.573 672.235 457.704 669.901 456.718 667.567 455.731 665.284 454.628 663.061 453.413 660.838 452.198 658.677 450.874 656.586 449.444 654.495 448.013 652.478 446.479 650.54 444.846 648.603 443.214 646.747 441.486 644.982 439.668 643.216 437.85 641.541 435.945 639.965 433.959 638.391 431.975 636.917 429.913 635.548 427.782 634.18 425.649 632.918 423.449 631.77 421.19 630.619 418.932 629.583 416.618 628.664 414.257 627.746 411.895 626.947 409.488 626.27 407.046 625.593 404.605 625.038 402.132 624.607 399.635 624.176 397.138 623.87 394.621 623.691 392.093 623.564 390.304 623.501 388.512 623.501 386.719 623.501 384.184 623.628 381.651 623.881 379.128 624.133 376.608 624.51 374.102 625.012 371.62 625.516 369.136 626.144 366.679 626.894 364.258 627.642 361.837 628.511 359.455 629.498 357.121 630.485 354.787 631.588 352.504 632.803 350.28 633.004 349.947 633.207 349.615 633.413 349.286Z" fill="#FFBC2A"/><path d="M651.556 361.051C647.638 364.389 645.383 369.238 645.374 374.342 645.373 384.067 653.371 391.952 663.239 391.953 663.24 391.953 663.241 391.953 663.243 391.953 673.11 391.951 681.108 384.067 681.107 374.342 681.1 372.426 680.775 370.524 680.146 368.711Z" fill="#FFFFFF"/><path d="M680.317 374.344C680.317 377.976 677.329 380.921 673.644 380.921 669.959 380.921 666.971 377.976 666.971 374.344 666.971 370.712 669.959 367.767 673.644 367.767 677.329 367.767 680.317 370.712 680.317 374.344Z" fill="#1A1A1A"/><path d="M700.531 369.818C700.125 371.293 699.915 372.814 699.907 374.342 699.906 384.067 707.904 391.951 717.771 391.953 727.638 391.954 735.638 384.071 735.64 374.346 735.64 374.345 735.64 374.344 735.64 374.342 735.631 369.556 733.645 364.979 730.14 361.666Z" fill="#FFFFFF"/><path d="M733.287 370.109C733.287 373.741 730.299 376.686 726.614 376.686 722.928 376.686 719.941 373.741 719.941 370.109 719.941 366.477 722.929 363.532 726.614 363.532 730.299 363.532 733.287 366.477 733.287 370.109Z" fill="#1A1A1A"/><path d="M699.139 430.112C699.139 430.112 672.393 414.956 657.237 430.112" stroke="#1A1A1A" stroke-width="9.9851" stroke-linecap="round" stroke-linejoin="round" fill="none"/><path d="M642.712 358.684 692.509 372.026 736.024 360.367" stroke="#1A1A1A" stroke-width="9.9851" stroke-linecap="round" stroke-linejoin="round" fill="none"/><path d="M687.972 442.444C687.972 442.444 675.825 437.875 666.353 443.001" stroke="#FFBC2A" stroke-width="9.9851" stroke-linecap="round" stroke-linejoin="round" fill="none"/></g></svg>