<svg width="152" height="152" xmlns="http://www.w3.org/2000/svg" xmlns:xlink="http://www.w3.org/1999/xlink" overflow="hidden"><defs><clipPath id="clip0"><rect x="609" y="329" width="152" height="152"/></clipPath></defs><g clip-path="url(#clip0)" transform="translate(-609 -329)"><path d="M761 405C761 446.974 726.974 481 685 481 643.026 481 609 446.973 609 405 609 363.026 643.026 329 685 329 726.974 329 761 363.026 761 405Z" fill="#FFD42A"/><path d="M633.413 349.286C617.874 363.648 609.028 383.839 609.001 404.998 609.001 446.972 643.027 480.998 685.001 480.998 712.367 480.979 737.609 466.249 751.088 442.433 749.688 443.76 748.237 445.033 746.739 446.25 744.755 447.825 742.694 449.299 740.562 450.668 738.429 452.038 736.229 453.301 733.97 454.451 731.713 455.6 729.399 456.635 727.037 457.552 724.677 458.471 722.272 459.272 719.831 459.951 717.389 460.628 714.914 461.183 712.416 461.613 709.918 462.044 707.401 462.35 704.873 462.53 703.085 462.656 701.293 462.72 699.5 462.72 696.967 462.72 694.435 462.593 691.914 462.34 689.392 462.087 686.885 461.707 684.401 461.204 681.917 460.699 679.46 460.071 677.039 459.322 674.618 458.573 672.235 457.704 669.901 456.718 667.567 455.731 665.284 454.628 663.061 453.413 660.838 452.198 658.677 450.874 656.586 449.444 654.495 448.013 652.478 446.479 650.54 444.846 648.602 443.214 646.747 441.486 644.982 439.668 643.216 437.85 641.541 435.945 639.965 433.959 638.391 431.975 636.917 429.913 635.548 427.782 634.179 425.649 632.918 423.449 631.77 421.19 630.619 418.932 629.583 416.618 628.664 414.257 627.746 411.895 626.947 409.488 626.27 407.046 625.593 404.605 625.038 402.132 624.607 399.635 624.176 397.138 623.87 394.621 623.691 392.093 623.564 390.304 623.501 388.512 623.501 386.719 623.501 384.184 623.628 381.651 623.881 379.128 624.133 376.608 624.51 374.102 625.012 371.62 625.516 369.136 626.144 366.679 626.894 364.258 627.642 361.837 628.511 359.455 629.498 357.121 630.485 354.787 631.588 352.504 632.803 350.28 633.004 349.947 633.207 349.615 633.413 349.286Z" fill="#FFBC2A"/><path d="M645.388 369.934 673.471 369.934" stroke="#FFFFFF" stroke-width="9.9851" stroke-linecap="round" stroke-linejoin="round" fill="none"/><path d="M673.471 369.934 666.561 369.934" stroke="#1A1A1A" stroke-width="9.9851" stroke-linecap="round" stroke-linejoin="round" fill="none"/><path d="M705.343 369.934 733.426 369.934" stroke="#FFFFFF" stroke-width="9.9851" stroke-linecap="round" stroke-linejoin="round" fill="none"/><path d="M733.426 369.934 726.516 369.934" stroke="#1A1A1A" stroke-width="9.9851" stroke-linecap="round" stroke-linejoin="round" fill="none"/><path d="M650.338 432.874C650.338 432.874 653.896 409.399 690.607 409.399" stroke="#1A1A1A" stroke-width="9.9851" stroke-linecap="round" stroke-linejoin="round" fill="none"/><path d="M730.875 432.874C730.875 432.874 727.317 409.399 690.607 409.399" stroke="#1A1A1A" stroke-width="9.9851" stroke-linecap="round" stroke-linejoin="round" fill="none"/><path d="M680.161 430.467C680.161 430.467 686.271 423.442 698.438 430.467" stroke="#FFBC2A" stroke-width="9.9851" stroke-linecap="round" stroke-linejoin="round" fill="none"/><path d="M249.733 573.758C249.733 615.732 215.707 649.758 173.733 649.758 131.76 649.758 97.7335 615.732 97.7335 573.758 97.7335 531.784 131.76 497.758 173.733 497.758 215.707 497.758 249.733 531.785 249.733 573.758Z" fill="#FFD42A"/><path d="M122.146 518.044C106.608 532.406 97.7611 552.597 97.7343 573.756 97.7344 615.73 131.761 649.756 173.734 649.756 201.1 649.737 226.343 635.007 239.822 611.191 238.421 612.518 236.971 613.792 235.473 615.009 233.489 616.583 231.427 618.057 229.296 619.426 227.163 620.796 224.963 622.059 222.704 623.209 220.446 624.358 218.132 625.393 215.771 626.31 213.41 627.229 211.005 628.03 208.565 628.709 206.122 629.386 203.647 629.941 201.149 630.371 198.652 630.802 196.135 631.108 193.607 631.288 191.819 631.415 190.027 631.478 188.234 631.478 185.7 631.478 183.168 631.351 180.648 631.098 178.126 630.845 175.618 630.466 173.134 629.962 170.651 629.458 168.193 628.83 165.772 628.08 163.351 627.332 160.969 626.463 158.635 625.476 156.301 624.489 154.018 623.386 151.794 622.171 149.571 620.957 147.41 619.632 145.32 618.202 143.229 616.771 141.211 615.237 139.274 613.604 137.336 611.972 135.481 610.244 133.716 608.427 131.949 606.608 130.275 604.703 128.699 602.717 127.124 600.733 125.65 598.671 124.282 596.54 122.913 594.407 121.652 592.207 120.503 589.948 119.353 587.69 118.316 585.376 117.397 583.015 116.48 580.653 115.681 578.246 115.003 575.804 114.326 573.363 113.771 570.89 113.341 568.393 112.91 565.896 112.604 563.379 112.424 560.851 112.298 559.062 112.234 557.27 112.234 555.478 112.234 552.943 112.361 550.409 112.615 547.887 112.866 545.366 113.244 542.861 113.746 540.378 114.25 537.895 114.878 535.438 115.628 533.016 116.376 530.595 117.245 528.213 118.231 525.879 119.218 523.545 120.322 521.262 121.537 519.038 121.737 518.705 121.941 518.374 122.146 518.044Z" fill="#FFBC2A"/><path d="M205.623 539.709C205.623 543.342 202.635 546.286 198.95 546.286 195.264 546.286 192.277 543.342 192.277 539.709 192.277 536.077 195.264 533.133 198.95 533.133 202.635 533.133 205.623 536.077 205.623 539.709Z" fill="#1A1A1A"/><path d="M155.19 539.709C155.19 543.342 152.203 546.286 148.517 546.286 144.832 546.286 141.844 543.342 141.844 539.709 141.844 536.077 144.832 533.133 148.517 533.133 152.203 533.133 155.19 536.077 155.19 539.709Z" fill="#1A1A1A"/><path d="M80.9755 573.758C80.9755 615.732 46.9492 649.758 4.97552 649.758-36.9981 649.758-71.0245 615.732-71.0245 573.758-71.0245 531.784-36.9981 497.758 4.97552 497.758 46.9492 497.758 80.9755 531.785 80.9755 573.758Z" fill="#FFD42A"/><path d="M-46.6119 518.044C-62.15 532.406-70.9969 552.597-71.0237 573.756-71.0236 615.73-36.9974 649.756 4.97614 649.756 32.3421 649.737 57.5846 635.007 71.064 611.191 69.6633 612.518 68.2126 613.792 66.715 615.009 64.7308 616.583 62.6691 618.057 60.5377 619.426 58.405 620.796 56.205 622.059 53.946 623.209 51.6881 624.358 49.3742 625.393 47.013 626.31 44.6525 627.229 42.2474 628.03 39.8069 628.709 37.3643 629.386 34.8893 629.941 32.3913 630.371 29.894 630.802 27.3766 631.108 24.8488 631.288 23.0607 631.415 21.2686 631.478 19.476 631.478 16.9424 631.478 14.4105 631.351 11.8896 631.098 9.36787 630.845 6.86034 630.466 4.37645 629.962 1.89259 629.458-0.564507 628.83-2.98561 628.08-5.40678 627.332-7.78902 626.463-10.1234 625.476-12.4572 624.489-14.7402 623.386-16.9638 622.171-19.1868 620.957-21.3477 619.632-23.4385 618.202-25.5291 616.771-27.5468 615.237-29.4841 613.604-31.422 611.972-33.277 610.244-35.0423 608.427-36.8087 606.608-38.4831 604.703-40.0592 602.717-41.6336 600.733-43.1079 598.671-44.4764 596.54-45.845 594.407-47.1061 592.207-48.255 589.948-49.4051 587.69-50.4417 585.376-51.3607 583.015-52.2784 580.653-53.0773 578.246-53.7546 575.804-54.4319 573.363-54.9868 570.89-55.4171 568.393-55.8482 565.896-56.1541 563.379-56.3337 560.851-56.4604 559.062-56.5238 557.27-56.5238 555.478-56.5237 552.943-56.3968 550.409-56.1435 547.887-55.8918 545.366-55.5143 542.861-55.0124 540.378-54.5082 537.895-53.8801 535.438-53.1304 533.016-52.3821 530.595-51.5132 528.213-50.5269 525.879-49.5397 523.545-48.4365 521.262-47.2213 519.038-47.0206 518.705-46.8175 518.374-46.6118 518.044Z" fill="#FFBC2A"/><path d="M206.867 598.653C206.867 598.653 146.348 618.826 126.805 579.741" stroke="#1A1A1A" stroke-width="9.9851" stroke-linecap="round" stroke-linejoin="round" fill="none"/><path d="M35.415 584.053C40.4133 603.925 27.7688 624.934 13.3759 610.19-1.01698 595.447 30.5304 557.299 35.415 584.053Z" fill="#1A1A1A"/><path d="M-36.3592 536.32-8.27616 536.32" stroke="#FFFFFF" stroke-width="9.9851" stroke-linecap="round" stroke-linejoin="round" fill="none"/><path d="M-8.27616 536.32-15.1855 536.32" stroke="#1A1A1A" stroke-width="9.9851" stroke-linecap="round" stroke-linejoin="round" fill="none"/><path d="M23.5959 536.32 51.679 536.32" stroke="#FFFFFF" stroke-width="9.9851" stroke-linecap="round" stroke-linejoin="round" fill="none"/><path d="M51.679 536.32 44.7697 536.32" stroke="#1A1A1A" stroke-width="9.9851" stroke-linecap="round" stroke-linejoin="round" fill="none"/><path d="M423.484 573.758C423.484 615.732 389.458 649.758 347.484 649.758 305.51 649.758 271.484 615.732 271.484 573.758 271.484 531.784 305.51 497.758 347.484 497.758 389.458 497.758 423.484 531.785 423.484 573.758Z" fill="#FFD42A"/><path d="M295.897 518.044C280.359 532.406 271.512 552.597 271.485 573.756 271.485 615.73 305.511 649.756 347.485 649.756 374.851 649.737 400.093 635.007 413.573 611.191 412.172 612.518 410.721 613.792 409.224 615.009 407.239 616.583 405.178 618.057 403.046 619.426 400.914 620.796 398.714 622.059 396.455 623.209 394.197 624.358 391.883 625.393 389.521 626.31 387.161 627.229 384.756 628.03 382.315 628.709 379.873 629.386 377.398 629.941 374.9 630.371 372.402 630.802 369.885 631.108 367.357 631.288 365.569 631.415 363.777 631.478 361.984 631.478 359.451 631.478 356.919 631.351 354.398 631.098 351.876 630.845 349.369 630.466 346.885 629.962 344.401 629.458 341.944 628.83 339.523 628.08 337.102 627.332 334.719 626.463 332.385 625.476 330.051 624.489 327.768 623.386 325.545 622.171 323.322 620.957 321.161 619.632 319.07 618.202 316.979 616.771 314.962 615.237 313.024 613.604 311.087 611.972 309.232 610.244 307.466 608.427 305.7 606.608 304.025 604.703 302.449 602.717 300.875 600.733 299.401 598.671 298.032 596.54 296.663 594.407 295.402 592.207 294.254 589.948 293.103 587.69 292.067 585.376 291.148 583.015 290.23 580.653 289.431 578.246 288.754 575.804 288.077 573.363 287.522 570.89 287.091 568.393 286.66 565.896 286.354 563.379 286.175 560.851 286.048 559.062 285.985 557.27 285.985 555.478 285.985 552.943 286.112 550.409 286.365 547.887 286.617 545.366 286.994 542.861 287.496 540.378 288 537.895 288.628 535.438 289.378 533.016 290.126 530.595 290.995 528.213 291.982 525.879 292.969 523.545 294.072 521.262 295.287 519.038 295.488 518.705 295.691 518.374 295.897 518.044Z" fill="#FFBC2A"/><path d="M323.603 527.947C331.959 527.947 338.732 534.721 338.732 543.077L338.732 543.077C338.732 551.433 331.959 558.207 323.603 558.207L315.092 558.207C306.736 558.207 299.963 551.433 299.963 543.077L299.963 543.077C299.963 534.721 306.736 527.947 315.092 527.947Z" fill="#FFFFFF"/><path d="M344.343 543.077C344.343 546.709 341.356 549.654 337.671 549.654 333.985 549.654 330.998 546.709 330.998 543.077 330.998 539.445 333.985 536.5 337.671 536.5 341.356 536.5 344.343 539.445 344.343 543.077Z" fill="#1A1A1A"/><path d="M383.806 527.947C392.162 527.947 398.936 534.721 398.936 543.077L398.936 543.077C398.936 551.433 392.162 558.207 383.806 558.207L375.296 558.207C366.94 558.207 360.166 551.433 360.166 543.077L360.166 543.077C360.166 534.721 366.94 527.947 375.296 527.947Z" fill="#FFFFFF"/><path d="M405.65 543.077C405.65 546.709 402.663 549.654 398.977 549.654 395.292 549.654 392.304 546.709 392.304 543.077 392.304 539.445 395.292 536.5 398.977 536.5 402.663 536.5 405.65 539.445 405.65 543.077Z" fill="#1A1A1A"/><path d="M385.205 575.546 385.205 578.603C385.205 579.776 384.969 580.89 384.542 581.904 384.114 582.917 383.493 583.829 382.728 584.595 381.962 585.36 381.05 585.981 380.036 586.408 379.023 586.836 377.909 587.072 376.736 587.072L353.889 587.072 353.889 620.006 353.889 622.697C353.889 632.32 361.638 640.069 371.261 640.069 376.906 640.069 381.671 637.225 384.839 633.077 387.071 630.155 388.627 626.674 388.627 622.697L388.627 585.385C388.627 581.644 387.201 578.375 385.205 575.546Z" fill="#1A1A1A"/><path d="M353.889 587.072 376.736 587.072C377.909 587.072 379.023 586.836 380.036 586.408 381.05 585.981 381.962 585.36 382.728 584.595 383.493 583.829 384.114 582.917 384.542 581.904 384.969 580.89 385.205 579.776 385.205 578.603L385.205 575.546C382.065 571.097 377.143 568.013 371.261 568.013 361.638 568.013 353.889 575.762 353.889 585.385Z" fill="#FF8080"/><path d="M361.695 579.168C359.472 579.168 357.687 580.958 357.687 583.181L357.687 590.801 369.349 590.801 381.012 590.801 381.012 583.181C381.012 580.958 379.222 579.168 376.999 579.168L373.357 579.168C371.134 579.168 369.349 580.958 369.349 583.181 369.349 580.958 367.559 579.168 365.337 579.168Z" fill="#FFFFFF"/><path d="M354.272 563.51C354.272 563.51 343.351 568.413 343.574 582.455" stroke="#FFBC2A" stroke-width="9.9851" stroke-linecap="round" stroke-linejoin="round" fill="none"/><path d="M592.242 573.758C592.242 615.732 558.216 649.758 516.242 649.758 474.268 649.758 440.242 615.732 440.242 573.758 440.242 531.784 474.268 497.758 516.242 497.758 558.216 497.758 592.242 531.785 592.242 573.758Z" fill="#FFD42A"/><path d="M464.655 518.044C449.117 532.406 440.27 552.597 440.243 573.756 440.243 615.73 474.269 649.756 516.243 649.756 543.609 649.737 568.851 635.007 582.331 611.191 580.93 612.518 579.479 613.792 577.982 615.009 575.997 616.583 573.936 618.057 571.804 619.426 569.672 620.796 567.471 622.059 565.213 623.209 562.955 624.358 560.641 625.393 558.28 626.31 555.919 627.229 553.514 628.03 551.073 628.709 548.631 629.386 546.156 629.941 543.658 630.371 541.161 630.802 538.643 631.108 536.115 631.288 534.327 631.415 532.535 631.478 530.742 631.478 528.209 631.478 525.677 631.351 523.156 631.098 520.634 630.845 518.127 630.466 515.643 629.962 513.159 629.458 510.702 628.83 508.281 628.08 505.86 627.332 503.477 626.463 501.143 625.476 498.809 624.489 496.526 623.386 494.303 622.171 492.08 620.957 489.919 619.632 487.828 618.202 485.737 616.771 483.72 615.237 481.782 613.604 479.845 611.972 477.99 610.244 476.224 608.427 474.458 606.608 472.783 604.703 471.207 602.717 469.633 600.733 468.159 598.671 466.79 596.54 465.422 594.407 464.16 592.207 463.012 589.948 461.861 587.69 460.825 585.376 459.906 583.015 458.988 580.653 458.189 578.246 457.512 575.804 456.835 573.363 456.28 570.89 455.849 568.393 455.418 565.896 455.112 563.379 454.933 560.851 454.806 559.062 454.743 557.27 454.743 555.478 454.743 552.943 454.87 550.409 455.123 547.887 455.375 545.366 455.752 542.861 456.254 540.378 456.758 537.895 457.386 535.438 458.136 533.016 458.884 530.595 459.753 528.213 460.74 525.879 461.727 523.545 462.83 521.262 464.045 519.038 464.246 518.705 464.449 518.374 464.655 518.044Z" fill="#FFBC2A"/><path d="M518.656 574.031C498.782 574.031 482.671 580.612 482.67 588.73 482.679 589.152 482.733 589.573 482.831 589.993 482.074 592.053 481.681 594.279 481.675 596.531 481.676 605.507 487.705 612.781 495.141 612.782 499.75 612.775 504.036 609.924 506.501 605.225 508.97 609.929 513.262 612.781 517.876 612.782 523.067 612.774 527.792 609.166 530.021 603.509 532.251 609.168 536.978 612.776 542.171 612.782 549.607 612.782 555.636 605.507 555.637 596.531 555.633 594.278 555.242 592.05 554.486 589.989 554.582 589.57 554.634 589.151 554.642 588.73 554.642 580.612 538.53 574.031 518.656 574.031Z" fill="#1A1A1A"/><path d="M473.905 539.325C473.624 540.566 473.48 541.833 473.476 543.104 473.478 552.827 481.475 560.708 491.34 560.71 501.207 560.711 509.207 552.829 509.209 543.104 509.2 541.832 509.051 540.565 508.765 539.325Z" fill="#FFFFFF"/><path d="M496.216 539.325C496.085 539.839 496.018 540.366 496.016 540.895 496.016 544.526 499.001 547.471 502.685 547.472 506.371 547.473 509.359 544.53 509.36 540.897 509.36 540.897 509.36 540.896 509.36 540.895 509.358 540.366 509.291 539.839 509.16 539.325Z" fill="#1A1A1A"/><path d="M531.854 539.325C531.573 540.566 531.43 541.833 531.425 543.104 531.427 552.827 539.424 560.708 549.289 560.709 559.156 560.711 567.156 552.829 567.158 543.104 567.149 541.833 567 540.565 566.714 539.325Z" fill="#FFFFFF"/><path d="M554.165 539.325C554.034 539.839 553.967 540.366 553.965 540.895 553.965 544.526 556.95 547.47 560.635 547.472 564.32 547.473 567.308 544.529 567.309 540.897 567.309 540.897 567.309 540.896 567.309 540.895 567.307 540.366 567.24 539.839 567.109 539.325Z" fill="#1A1A1A"/><path d="M758.669 573.758C758.669 615.732 724.642 649.758 682.669 649.758 640.695 649.758 606.669 615.732 606.669 573.758 606.669 531.784 640.695 497.758 682.669 497.758 724.642 497.758 758.669 531.785 758.669 573.758Z" fill="#FFD42A"/><path d="M631.081 518.044C615.543 532.406 606.696 552.597 606.67 573.756 606.67 615.73 640.696 649.756 682.669 649.756 710.035 649.737 735.278 635.007 748.757 611.191 747.357 612.518 745.906 613.792 744.408 615.009 742.424 616.583 740.362 618.057 738.231 619.426 736.098 620.796 733.898 622.059 731.639 623.209 729.381 624.358 727.068 625.393 724.706 626.31 722.346 627.229 719.941 628.03 717.5 628.709 715.058 629.386 712.583 629.941 710.085 630.371 707.587 630.802 705.07 631.108 702.542 631.288 700.754 631.415 698.962 631.478 697.169 631.478 694.636 631.478 692.104 631.351 689.583 631.098 687.061 630.845 684.554 630.466 682.07 629.962 679.586 629.458 677.129 628.83 674.708 628.08 672.286 627.332 669.904 626.463 667.57 625.476 665.236 624.489 662.953 623.386 660.729 622.171 658.506 620.957 656.346 619.632 654.255 618.202 652.164 616.771 650.146 615.237 648.209 613.604 646.271 611.972 644.416 610.244 642.651 608.427 640.885 606.608 639.21 604.703 637.634 602.717 636.06 600.733 634.585 598.671 633.217 596.54 631.848 594.407 630.587 592.207 629.438 589.948 628.288 587.69 627.252 585.376 626.333 583.015 625.415 580.653 624.616 578.246 623.939 575.804 623.261 573.363 622.706 570.89 622.276 568.393 621.845 565.896 621.539 563.379 621.36 560.851 621.233 559.062 621.169 557.27 621.169 555.478 621.17 552.943 621.297 550.409 621.55 547.887 621.802 545.366 622.179 542.861 622.681 540.378 623.185 537.895 623.813 535.438 624.563 533.016 625.311 530.595 626.18 528.213 627.166 525.879 628.154 523.545 629.257 521.262 630.472 519.038 630.673 518.705 630.876 518.374 631.082 518.044Z" fill="#FFBC2A"/><path d="M699.954 645.833C702.791 645.833 734.942 645.833 734.942 645.833L734.942 626.605 700.269 637.322Z" fill="#FFBC2A"/><path d="M706.259 574.912C692.987 574.912 682.305 589.34 682.305 607.265L682.305 635.364C682.305 637.107 682.432 638.806 682.627 640.474L729.89 640.474C730.085 638.806 730.212 637.107 730.212 635.364L730.212 607.265C730.212 589.34 719.53 574.912 706.259 574.912Z" fill="#1A1A1A"/><path d="M671.586 527.947C679.942 527.947 686.716 534.721 686.716 543.077L686.716 543.077C686.716 551.433 679.942 558.207 671.586 558.207L663.076 558.207C654.72 558.207 647.946 551.433 647.946 543.077L647.946 543.077C647.946 534.721 654.72 527.947 663.076 527.947Z" fill="#FFFFFF"/><path d="M692.327 543.077C692.327 546.709 689.339 549.654 685.654 549.654 681.968 549.654 678.981 546.709 678.981 543.077 678.981 539.445 681.969 536.5 685.654 536.5 689.339 536.5 692.327 539.445 692.327 543.077Z" fill="#1A1A1A"/><path d="M731.79 527.947C740.145 527.947 746.919 534.721 746.919 543.077L746.919 543.077C746.919 551.433 740.145 558.207 731.79 558.207L723.279 558.207C714.923 558.207 708.149 551.433 708.149 543.077L708.149 543.077C708.149 534.721 714.923 527.947 723.279 527.947Z" fill="#FFFFFF"/><path d="M753.634 543.077C753.634 546.709 750.646 549.654 746.961 549.654 743.275 549.654 740.288 546.709 740.288 543.077 740.288 539.445 743.275 536.5 746.961 536.5 750.646 536.5 753.634 539.445 753.634 543.077Z" fill="#1A1A1A"/><path d="M706.302 616.12C705.915 616.12 705.528 616.139 705.142 616.177 704.598 616.23 704.056 616.322 703.519 616.45 702.98 616.579 702.446 616.745 701.919 616.948 701.394 617.15 700.877 617.389 700.369 617.663 699.861 617.937 699.363 618.246 698.877 618.589 698.391 618.932 697.917 619.308 697.458 619.716 696.999 620.125 696.555 620.566 696.127 621.037 695.7 621.507 695.29 622.007 694.898 622.534 694.507 623.061 694.134 623.615 693.782 624.193 693.43 624.774 693.1 625.378 692.792 626.005 692.485 626.627 692.2 627.27 691.939 627.932 691.677 628.596 691.44 629.279 691.227 629.976 691.015 630.672 690.828 631.383 690.667 632.105 690.547 632.664 690.443 633.229 690.354 633.8 690.387 633.819 690.419 633.837 690.452 633.856L722.114 633.856C722.154 633.834 722.195 633.812 722.236 633.79L722.236 633.787C722.186 633.44 722.131 633.095 722.07 632.752 721.924 632.022 721.751 631.304 721.553 630.599 721.357 629.894 721.136 629.202 720.89 628.528 720.641 627.853 720.367 627.197 720.071 626.56 719.776 625.924 719.459 625.308 719.12 624.716 718.782 624.123 718.422 623.553 718.043 623.01 717.662 622.468 717.261 621.952 716.843 621.466 716.426 620.978 715.992 620.52 715.541 620.092 715.091 619.665 714.626 619.27 714.147 618.907 713.668 618.543 713.177 618.214 712.675 617.918 712.172 617.624 711.66 617.365 711.139 617.142 710.616 616.919 710.086 616.732 709.549 616.583 709.014 616.433 708.474 616.321 707.931 616.246 707.39 616.168 706.846 616.127 706.302 616.125Z" fill="#C24040"/><path d="M722.237 633.738C722.188 633.521 722.133 633.306 722.072 633.091 721.925 632.636 721.753 632.188 721.554 631.749 721.357 631.31 721.135 630.879 720.889 630.459 720.641 630.039 720.368 629.629 720.073 629.232 719.777 628.835 719.459 628.451 719.12 628.082 718.781 627.712 718.421 627.358 718.041 627.02 717.661 626.681 717.261 626.36 716.844 626.056 716.426 625.752 715.992 625.467 715.542 625.201 715.091 624.935 714.626 624.688 714.147 624.461 713.669 624.235 713.178 624.03 712.676 623.846 712.173 623.663 711.659 623.501 711.137 623.362 710.615 623.223 710.086 623.106 709.551 623.013 709.016 622.92 708.476 622.849 707.933 622.802 707.391 622.753 706.846 622.729 706.301 622.727 705.914 622.728 705.528 622.74 705.143 622.764 704.598 622.798 704.056 622.855 703.517 622.935 702.98 623.016 702.447 623.119 701.921 623.246 701.396 623.371 700.879 623.52 700.371 623.69 699.862 623.861 699.362 624.054 698.875 624.268 698.39 624.482 697.917 624.716 697.458 624.97 696.999 625.225 696.555 625.5 696.128 625.794 695.7 626.087 695.29 626.398 694.898 626.726 694.507 627.054 694.135 627.4 693.784 627.761 693.431 628.122 693.1 628.499 692.791 628.889 692.484 629.277 692.2 629.678 691.939 630.091 691.677 630.505 691.439 630.931 691.227 631.365 691.014 631.799 690.827 632.242 690.666 632.692 690.546 633.041 690.442 633.393 690.353 633.749 700.449 637.86 712.144 637.857 722.237 633.739Z" fill="#FF5555"/><path d="M249.733 742.516C249.733 784.49 215.707 818.516 173.733 818.516 131.76 818.516 97.7335 784.49 97.7335 742.516 97.7335 700.542 131.76 666.516 173.733 666.516 215.707 666.516 249.733 700.543 249.733 742.516Z" fill="#FFD42A"/><path d="M122.146 686.802C106.608 701.165 97.7611 721.355 97.7343 742.514 97.7344 784.488 131.761 818.514 173.734 818.514 201.1 818.495 226.343 803.765 239.822 779.949 238.421 781.276 236.971 782.55 235.473 783.767 233.489 785.341 231.427 786.815 229.296 788.184 227.163 789.554 224.963 790.817 222.704 791.967 220.446 793.116 218.132 794.151 215.771 795.068 213.41 795.987 211.005 796.788 208.565 797.467 206.122 798.144 203.647 798.699 201.149 799.129 198.652 799.56 196.135 799.866 193.607 800.046 191.819 800.173 190.027 800.236 188.234 800.236 185.7 800.236 183.168 800.109 180.648 799.856 178.126 799.603 175.618 799.224 173.134 798.72 170.651 798.216 168.193 797.587 165.772 796.838 163.351 796.089 160.969 795.22 158.635 794.234 156.301 793.247 154.018 792.144 151.794 790.929 149.571 789.715 147.41 788.39 145.32 786.96 143.229 785.529 141.211 783.995 139.274 782.362 137.336 780.73 135.481 779.002 133.716 777.185 131.949 775.366 130.275 773.461 128.699 771.475 127.124 769.491 125.65 767.429 124.282 765.298 122.913 763.165 121.652 760.965 120.503 758.706 119.353 756.448 118.316 754.135 117.397 751.773 116.48 749.411 115.681 747.004 115.003 744.562 114.326 742.121 113.771 739.648 113.341 737.151 112.91 734.654 112.604 732.137 112.424 729.609 112.298 727.82 112.234 726.028 112.234 724.236 112.234 721.7 112.361 719.167 112.615 716.645 112.866 714.124 113.244 711.618 113.746 709.136 114.25 706.652 114.878 704.196 115.628 701.774 116.376 699.353 117.245 696.971 118.231 694.637 119.218 692.303 120.322 690.02 121.537 687.796 121.737 687.463 121.941 687.132 122.146 686.802Z" fill="#FFBC2A"/><path d="M80.9755 742.516C80.9755 784.49 46.9492 818.516 4.97552 818.516-36.9981 818.516-71.0245 784.49-71.0245 742.516-71.0245 700.542-36.9981 666.516 4.97552 666.516 46.9492 666.516 80.9755 700.543 80.9755 742.516Z" fill="#FFD42A"/><path d="M-46.6119 686.802C-62.15 701.165-70.9969 721.355-71.0237 742.514-71.0236 784.488-36.9974 818.514 4.97614 818.514 32.3421 818.495 57.5846 803.765 71.064 779.949 69.6633 781.276 68.2126 782.55 66.715 783.767 64.7308 785.341 62.6691 786.815 60.5377 788.184 58.405 789.554 56.205 790.817 53.946 791.967 51.6881 793.116 49.3742 794.151 47.013 795.068 44.6525 795.987 42.2474 796.788 39.8069 797.467 37.3643 798.144 34.8893 798.699 32.3913 799.129 29.894 799.56 27.3766 799.866 24.8488 800.046 23.0607 800.173 21.2686 800.236 19.476 800.236 16.9424 800.236 14.4105 800.109 11.8896 799.856 9.36787 799.603 6.86034 799.224 4.37645 798.72 1.89259 798.216-0.564507 797.587-2.98561 796.838-5.40678 796.089-7.78902 795.22-10.1234 794.234-12.4572 793.247-14.7402 792.144-16.9638 790.929-19.1868 789.715-21.3477 788.39-23.4385 786.96-25.5291 785.529-27.5468 783.995-29.4841 782.362-31.422 780.73-33.277 779.002-35.0423 777.185-36.8087 775.366-38.4831 773.461-40.0592 771.475-41.6336 769.491-43.1079 767.429-44.4764 765.298-45.845 763.165-47.1061 760.965-48.255 758.706-49.4051 756.448-50.4417 754.135-51.3607 751.773-52.2784 749.411-53.0773 747.004-53.7546 744.562-54.4319 742.121-54.9868 739.648-55.4171 737.151-55.8482 734.654-56.1541 732.137-56.3337 729.609-56.4604 727.82-56.5238 726.028-56.5238 724.236-56.5237 721.7-56.3968 719.167-56.1435 716.645-55.8918 714.124-55.5143 711.618-55.0124 709.136-54.5082 706.652-53.8801 704.196-53.1304 701.774-52.3821 699.353-51.5132 696.971-50.5269 694.637-49.5397 692.303-48.4365 690.02-47.2213 687.796-47.0206 687.463-46.8175 687.132-46.6118 686.802Z" fill="#FFBC2A"/><path d="M423.484 742.516C423.484 784.49 389.458 818.516 347.484 818.516 305.51 818.516 271.484 784.49 271.484 742.516 271.484 700.542 305.51 666.516 347.484 666.516 389.458 666.516 423.484 700.543 423.484 742.516Z" fill="#FFD42A"/><path d="M295.897 686.802C280.359 701.165 271.512 721.355 271.485 742.514 271.485 784.488 305.511 818.514 347.485 818.514 374.851 818.495 400.093 803.765 413.573 779.949 412.172 781.276 410.721 782.55 409.224 783.767 407.239 785.341 405.178 786.815 403.046 788.184 400.914 789.554 398.714 790.817 396.455 791.967 394.197 793.116 391.883 794.151 389.521 795.068 387.161 795.987 384.756 796.788 382.315 797.467 379.873 798.144 377.398 798.699 374.9 799.129 372.402 799.56 369.885 799.866 367.357 800.046 365.569 800.173 363.777 800.236 361.984 800.236 359.451 800.236 356.919 800.109 354.398 799.856 351.876 799.603 349.369 799.224 346.885 798.72 344.401 798.216 341.944 797.587 339.523 796.838 337.102 796.089 334.719 795.22 332.385 794.234 330.051 793.247 327.768 792.144 325.545 790.929 323.322 789.715 321.161 788.39 319.07 786.96 316.979 785.529 314.962 783.995 313.024 782.362 311.087 780.73 309.232 779.002 307.466 777.185 305.7 775.366 304.025 773.461 302.449 771.475 300.875 769.491 299.401 767.429 298.032 765.298 296.663 763.165 295.402 760.965 294.254 758.706 293.103 756.448 292.067 754.135 291.148 751.773 290.23 749.411 289.431 747.004 288.754 744.562 288.077 742.121 287.522 739.648 287.091 737.151 286.66 734.654 286.354 732.137 286.175 729.609 286.048 727.82 285.985 726.028 285.985 724.236 285.985 721.7 286.112 719.167 286.365 716.645 286.617 714.124 286.994 711.618 287.496 709.136 288 706.652 288.628 704.196 289.378 701.774 290.126 699.353 290.995 696.971 291.982 694.637 292.969 692.303 294.072 690.02 295.287 687.796 295.488 687.463 295.691 687.132 295.897 686.802Z" fill="#FFBC2A"/><path d="M592.242 742.516C592.242 784.49 558.216 818.516 516.242 818.516 474.268 818.516 440.242 784.49 440.242 742.516 440.242 700.542 474.268 666.516 516.242 666.516 558.216 666.516 592.242 700.543 592.242 742.516Z" fill="#FFD42A"/><path d="M464.655 686.802C449.117 701.165 440.27 721.355 440.243 742.515 440.243 784.488 474.269 818.514 516.243 818.514 543.609 818.495 568.851 803.765 582.331 779.949 580.93 781.277 579.479 782.55 577.982 783.767 575.997 785.341 573.936 786.815 571.804 788.184 569.672 789.554 567.471 790.817 565.213 791.968 562.955 793.116 560.641 794.151 558.28 795.068 555.919 795.988 553.514 796.788 551.073 797.467 548.631 798.145 546.156 798.699 543.658 799.13 541.161 799.561 538.643 799.866 536.115 800.046 534.327 800.173 532.535 800.236 530.742 800.236 528.209 800.236 525.677 800.109 523.156 799.856 520.634 799.603 518.127 799.224 515.643 798.72 513.159 798.216 510.702 797.588 508.281 796.838 505.86 796.09 503.477 795.221 501.143 794.235 498.809 793.247 496.526 792.144 494.303 790.929 492.08 789.715 489.919 788.39 487.828 786.96 485.737 785.53 483.72 783.995 481.782 782.363 479.845 780.73 477.99 779.002 476.224 777.185 474.458 775.367 472.783 773.461 471.207 771.476 469.633 769.491 468.159 767.43 466.79 765.298 465.422 763.165 464.16 760.965 463.012 758.706 461.861 756.449 460.825 754.135 459.906 751.773 458.988 749.411 458.189 747.004 457.512 744.562 456.835 742.121 456.28 739.648 455.849 737.151 455.418 734.654 455.112 732.137 454.933 729.609 454.806 727.821 454.743 726.029 454.743 724.236 454.743 721.701 454.87 719.167 455.123 716.645 455.375 714.125 455.752 711.619 456.254 709.136 456.758 706.653 457.386 704.196 458.136 701.775 458.884 699.354 459.753 696.971 460.74 694.637 461.727 692.303 462.83 690.02 464.045 687.796 464.246 687.463 464.449 687.132 464.655 686.802Z" fill="#FFBC2A"/><path d="M758.669 742.516C758.669 784.49 724.642 818.516 682.669 818.516 640.695 818.516 606.669 784.49 606.669 742.516 606.669 700.542 640.695 666.516 682.669 666.516 724.642 666.516 758.669 700.543 758.669 742.516Z" fill="#FFD42A"/><path d="M631.081 686.802C615.543 701.165 606.696 721.355 606.67 742.515 606.67 784.488 640.696 818.514 682.669 818.514 710.035 818.495 735.278 803.765 748.757 779.949 747.357 781.277 745.906 782.55 744.408 783.767 742.424 785.341 740.362 786.815 738.231 788.184 736.098 789.554 733.898 790.817 731.639 791.968 729.381 793.116 727.068 794.151 724.706 795.068 722.346 795.988 719.941 796.788 717.5 797.467 715.058 798.145 712.583 798.699 710.085 799.13 707.587 799.561 705.07 799.866 702.542 800.046 700.754 800.173 698.962 800.236 697.169 800.236 694.636 800.236 692.104 800.109 689.583 799.856 687.061 799.603 684.554 799.224 682.07 798.72 679.586 798.216 677.129 797.588 674.708 796.838 672.286 796.09 669.904 795.221 667.57 794.235 665.236 793.247 662.953 792.144 660.729 790.929 658.506 789.715 656.346 788.39 654.255 786.96 652.164 785.53 650.146 783.995 648.209 782.363 646.271 780.73 644.416 779.002 642.651 777.185 640.885 775.367 639.21 773.461 637.634 771.476 636.06 769.491 634.585 767.43 633.217 765.298 631.848 763.165 630.587 760.965 629.438 758.706 628.288 756.449 627.252 754.135 626.333 751.773 625.415 749.411 624.616 747.004 623.939 744.562 623.261 742.121 622.706 739.648 622.276 737.151 621.845 734.654 621.539 732.137 621.36 729.609 621.233 727.821 621.169 726.029 621.169 724.236 621.17 721.701 621.297 719.167 621.55 716.645 621.802 714.125 622.179 711.619 622.681 709.136 623.185 706.653 623.813 704.196 624.563 701.775 625.311 699.354 626.18 696.971 627.166 694.637 628.154 692.303 629.257 690.02 630.472 687.796 630.673 687.463 630.876 687.132 631.082 686.802Z" fill="#FFBC2A"/><path d="M-23.9172 717.691C-24.1982 718.932-24.3421 720.199-24.3463 721.47-24.3445 731.193-16.3475 739.074-6.48234 739.075 3.38469 739.077 11.3847 731.195 11.3865 721.47 11.3775 720.198 11.2287 718.931 10.9428 717.691Z" fill="#FFFFFF"/><path d="M-1.60678 717.691C-1.73728 718.205-1.8044 718.732-1.80669 719.261-1.80693 722.893 1.17876 725.837 4.86303 725.839 8.54838 725.839 11.5367 722.896 11.5376 719.263 11.5376 719.263 11.5376 719.262 11.5376 719.261 11.5354 718.732 11.4682 718.205 11.3377 717.691Z" fill="#1A1A1A"/><path d="M34.032 717.691C33.751 718.932 33.6071 720.199 33.6029 721.47 33.6047 731.193 41.6018 739.074 51.4669 739.075 61.3339 739.077 69.3339 731.195 69.3357 721.47 69.3267 720.198 69.1779 718.931 68.892 717.691Z" fill="#FFFFFF"/><path d="M56.3424 717.691C56.2119 718.205 56.1448 718.732 56.1425 719.261 56.1423 722.892 59.128 725.836 62.8122 725.838 66.4976 725.839 69.4859 722.895 69.4868 719.263 69.4868 719.263 69.4868 719.262 69.4868 719.261 69.4845 718.732 69.4174 718.205 69.2869 717.691Z" fill="#1A1A1A"/><path d="M23.215 755.523C23.215 755.523 41.4967 748.273 44.6487 753.632 47.8008 758.99 29.519 764.349 35.5079 773.805 41.4967 783.261 33.9319 782.946 27.6278 780.424 21.3238 777.903 21.3238 777.903 21.3238 777.903" stroke="#1A1A1A" stroke-width="9.9851" stroke-linecap="round" stroke-linejoin="round" fill="none"/><path d="M152.978 815.554 152.978 716.541 125.441 716.541 125.441 801.151C133.53 807.798 142.905 812.701 152.978 815.554Z" fill="#0085A6"/><path d="M218.057 804.135 218.057 716.541 190.524 716.541 190.524 816.543C200.439 814.291 209.802 810.071 218.057 804.135Z" fill="#0085A6"/><path d="M122.719 716.542 157.391 716.542" stroke="#1A1A1A" stroke-width="9.9851" stroke-linecap="round" stroke-linejoin="round" fill="none"/><path d="M186.074 716.542 220.746 716.542" stroke="#1A1A1A" stroke-width="9.9851" stroke-linecap="round" stroke-linejoin="round" fill="none"/><path d="M183.527 782.791C183.527 782.791 171.38 778.222 161.907 783.348" stroke="#FFBC2A" stroke-width="9.9851" stroke-linecap="round" stroke-linejoin="round" fill="none"/><path d="M142.204 766.24C142.204 766.24 149.611 761.354 156.861 766.083 164.11 770.811 173.566 760.094 180.816 762.615 188.066 765.137 192.006 771.599 202.565 764.664" stroke="#1A1A1A" stroke-width="9.9851" stroke-linecap="round" stroke-linejoin="round" fill="none"/><path d="M310.477 703.837 334.993 728.354" stroke="#1A1A1A" stroke-width="9.9851" stroke-linecap="round" stroke-linejoin="round" fill="none"/><path d="M334.993 703.837 310.477 728.354" stroke="#1A1A1A" stroke-width="9.9851" stroke-linecap="round" stroke-linejoin="round" fill="none"/><path d="M363.968 703.837 388.485 728.354" stroke="#1A1A1A" stroke-width="9.9851" stroke-linecap="round" stroke-linejoin="round" fill="none"/><path d="M388.485 703.837 363.968 728.354" stroke="#1A1A1A" stroke-width="9.9851" stroke-linecap="round" stroke-linejoin="round" fill="none"/><path d="M365.209 769.491C365.209 778.195 358.153 785.251 349.449 785.251 340.745 785.251 333.689 778.195 333.689 769.491 333.689 760.787 340.745 753.731 349.449 753.731 358.153 753.731 365.209 760.787 365.209 769.491Z" fill="#1A1A1A"/><path d="M470.203 740.809C470.203 740.809 486.216 751.123 504.081 740.809" stroke="#1A1A1A" stroke-width="9.9851" stroke-linecap="round" stroke-linejoin="round" fill="none"/><path d="M527.26 740.809C527.26 740.809 543.274 751.123 561.138 740.809" stroke="#1A1A1A" stroke-width="9.9851" stroke-linecap="round" stroke-linejoin="round" fill="none"/><path d="M517.836 703.149 532.1 703.149 517.836 717.413 532.1 717.413" stroke="#0085A6" stroke-width="9.9851" stroke-linecap="round" stroke-linejoin="round" fill="none"/><path d="M541.322 683.733 555.586 683.733 544.158 706.823 558.738 706.823" stroke="#0085A6" stroke-width="9.9851" stroke-linecap="round" stroke-linejoin="round" fill="none"/><path d="M567.168 673.016 581.432 673.016 570.005 696.106 584.585 696.106" stroke="#0085A6" stroke-width="9.9851" stroke-linecap="round" stroke-linejoin="round" fill="none"/><path d="M527.467 780.635C527.467 783.923 524.802 786.588 521.514 786.588 518.226 786.588 515.561 783.923 515.561 780.635 515.561 777.347 518.226 774.682 521.514 774.682 524.802 774.682 527.467 777.347 527.467 780.635Z" fill="#1A1A1A"/><path d="M655.462 732.229C655.181 733.47 655.037 734.737 655.033 736.008 655.034 745.731 663.031 753.612 672.897 753.613 682.764 753.615 690.764 745.732 690.765 736.008 690.756 734.736 690.608 733.469 690.322 732.229Z" fill="#FFFFFF"/><path d="M677.772 732.229C677.642 732.742 677.574 733.27 677.572 733.799 677.572 737.43 680.558 740.375 684.242 740.376 687.927 740.377 690.916 737.433 690.917 733.801 690.917 733.801 690.917 733.8 690.917 733.799 690.914 733.27 690.847 732.743 690.717 732.229Z" fill="#1A1A1A"/><path d="M713.411 732.229C713.13 733.47 712.986 734.737 712.982 736.008 712.984 745.73 720.981 753.612 730.846 753.613 740.713 753.615 748.713 745.732 748.715 736.008 748.706 734.736 748.557 733.469 748.271 732.229Z" fill="#FFFFFF"/><path d="M735.721 732.229C735.591 732.742 735.524 733.27 735.521 733.799 735.521 737.43 738.507 740.374 742.191 740.376 745.877 740.377 748.865 737.433 748.866 733.801 748.866 733.8 748.866 733.799 748.866 733.799 748.863 733.27 748.796 732.742 748.666 732.229Z" fill="#1A1A1A"/><path d="M714.138 780.109C714.138 780.109 696.802 764.033 680.727 780.109" stroke="#1A1A1A" stroke-width="9.9851" stroke-linecap="round" stroke-linejoin="round" fill="none"/><path d="M656.532 722.978 700.216 722.978" stroke="#FFBC2A" stroke-width="9.9851" stroke-linecap="round" stroke-linejoin="round" fill="none"/><path d="M700.216 722.978 743.901 722.978" stroke="#FFBC2A" stroke-width="9.9851" stroke-linecap="round" stroke-linejoin="round" fill="none"/></g></svg>