<svg width="152" height="152" xmlns="http://www.w3.org/2000/svg" xmlns:xlink="http://www.w3.org/1999/xlink" overflow="hidden"><defs><clipPath id="clip0"><rect x="564" y="284" width="152" height="152"/></clipPath></defs><g clip-path="url(#clip0)" transform="translate(-564 -284)"><path d="M716 360C716 401.974 681.974 436 640 436 598.026 436 564 401.974 564 360 564 318.026 598.026 284 640 284 681.974 284 716 318.027 716 360Z" fill="#FFD42A"/><path d="M588.413 304.286C572.875 318.648 564.028 338.839 564.001 359.998 564.001 401.972 598.027 435.998 640.001 435.998 667.367 435.979 692.609 421.249 706.089 397.433 704.688 398.76 703.237 400.033 701.74 401.25 699.755 402.825 697.694 404.299 695.562 405.668 693.429 407.038 691.229 408.301 688.97 409.451 686.713 410.6 684.399 411.635 682.037 412.552 679.677 413.471 677.272 414.272 674.831 414.951 672.389 415.628 669.914 416.183 667.416 416.613 664.918 417.044 662.401 417.35 659.873 417.53 658.085 417.656 656.293 417.72 654.5 417.72 651.967 417.72 649.435 417.593 646.914 417.34 644.392 417.087 641.885 416.708 639.401 416.204 636.917 415.699 634.46 415.072 632.039 414.322 629.618 413.573 627.235 412.705 624.901 411.718 622.567 410.731 620.284 409.628 618.061 408.413 615.838 407.198 613.677 405.874 611.586 404.444 609.495 403.013 607.478 401.479 605.54 399.846 603.603 398.214 601.747 396.486 599.982 394.669 598.216 392.85 596.541 390.945 594.965 388.959 593.391 386.975 591.917 384.913 590.548 382.782 589.179 380.649 587.918 378.449 586.77 376.19 585.619 373.932 584.583 371.618 583.664 369.257 582.746 366.895 581.947 364.488 581.27 362.046 580.593 359.605 580.038 357.132 579.607 354.635 579.176 352.138 578.87 349.621 578.691 347.093 578.564 345.304 578.501 343.512 578.501 341.72 578.501 339.185 578.628 336.651 578.881 334.129 579.133 331.608 579.51 329.103 580.012 326.62 580.516 324.136 581.144 321.679 581.894 319.258 582.642 316.837 583.511 314.455 584.498 312.121 585.485 309.787 586.588 307.504 587.803 305.28 588.004 304.947 588.207 304.616 588.413 304.286Z" fill="#FFBC2A"/><path d="M671.889 325.951C671.889 329.584 668.901 332.528 665.216 332.528 661.531 332.528 658.543 329.584 658.543 325.951 658.543 322.319 661.531 319.375 665.216 319.375 668.901 319.375 671.889 322.319 671.889 325.951Z" fill="#1A1A1A"/><path d="M621.457 325.951C621.457 329.584 618.469 332.528 614.784 332.528 611.099 332.528 608.111 329.584 608.111 325.951 608.111 322.319 611.099 319.375 614.784 319.375 618.469 319.375 621.457 322.319 621.457 325.951Z" fill="#1A1A1A"/><path d="M673.133 384.895C673.133 384.895 612.614 405.068 593.072 365.983" stroke="#1A1A1A" stroke-width="9.9851" stroke-linecap="round" stroke-linejoin="round" fill="none"/></g></svg>