<svg width="152" height="152" xmlns="http://www.w3.org/2000/svg" xmlns:xlink="http://www.w3.org/1999/xlink" overflow="hidden"><defs><clipPath id="clip0"><rect x="609" y="329" width="152" height="152"/></clipPath></defs><g clip-path="url(#clip0)" transform="translate(-609 -329)"><path d="M761 405C761 446.974 726.974 481 685 481 643.026 481 609 446.974 609 405 609 363.026 643.026 329 685 329 726.974 329 761 363.027 761 405Z" fill="#FFD42A"/><path d="M633.413 349.286C617.875 363.648 609.028 383.839 609.001 404.998 609.001 446.972 643.027 480.998 685.001 480.998 712.367 480.979 737.609 466.249 751.089 442.433 749.688 443.76 748.237 445.033 746.74 446.25 744.755 447.825 742.694 449.299 740.562 450.668 738.429 452.038 736.229 453.301 733.971 454.451 731.713 455.6 729.399 456.635 727.037 457.552 724.677 458.471 722.272 459.272 719.831 459.951 717.389 460.628 714.914 461.183 712.416 461.613 709.918 462.044 707.401 462.35 704.873 462.53 703.085 462.656 701.293 462.72 699.5 462.72 696.967 462.72 694.435 462.593 691.914 462.34 689.392 462.087 686.885 461.708 684.401 461.204 681.917 460.699 679.46 460.072 677.039 459.322 674.618 458.573 672.235 457.705 669.901 456.718 667.567 455.731 665.284 454.628 663.061 453.413 660.838 452.198 658.677 450.874 656.586 449.444 654.495 448.013 652.478 446.479 650.54 444.846 648.603 443.214 646.747 441.486 644.982 439.669 643.216 437.85 641.541 435.945 639.965 433.959 638.391 431.975 636.917 429.913 635.548 427.782 634.179 425.649 632.918 423.449 631.77 421.19 630.619 418.932 629.583 416.618 628.664 414.257 627.746 411.895 626.947 409.488 626.27 407.046 625.593 404.605 625.038 402.132 624.607 399.635 624.176 397.138 623.87 394.621 623.691 392.093 623.564 390.304 623.501 388.512 623.501 386.72 623.501 384.185 623.628 381.651 623.881 379.129 624.133 376.608 624.51 374.103 625.012 371.62 625.516 369.136 626.144 366.679 626.894 364.258 627.642 361.837 628.511 359.455 629.498 357.121 630.485 354.787 631.588 352.504 632.803 350.28 633.004 349.947 633.207 349.616 633.413 349.286Z" fill="#FFBC2A"/><path d="M661.119 359.189C669.475 359.189 676.248 365.963 676.248 374.319L676.248 374.319C676.248 382.675 669.475 389.448 661.119 389.448L652.608 389.448C644.252 389.448 637.479 382.675 637.479 374.319L637.479 374.319C637.479 365.963 644.252 359.189 652.608 359.189Z" fill="#FFFFFF"/><path d="M681.859 374.319C681.859 377.951 678.872 380.896 675.187 380.896 671.501 380.896 668.514 377.951 668.514 374.319 668.514 370.687 671.501 367.742 675.187 367.742 678.872 367.742 681.859 370.687 681.859 374.319Z" fill="#1A1A1A"/><path d="M721.322 359.189C729.678 359.189 736.452 365.963 736.452 374.319L736.452 374.319C736.452 382.675 729.678 389.448 721.322 389.448L712.812 389.448C704.456 389.448 697.682 382.675 697.682 374.319L697.682 374.319C697.682 365.963 704.456 359.189 712.812 359.189Z" fill="#FFFFFF"/><path d="M743.166 374.319C743.166 377.951 740.179 380.896 736.493 380.896 732.808 380.896 729.82 377.951 729.82 374.319 729.82 370.687 732.808 367.742 736.493 367.742 740.179 367.742 743.166 370.687 743.166 374.319Z" fill="#1A1A1A"/><path d="M722.721 406.788 722.721 409.845C722.721 411.018 722.485 412.131 722.057 413.145 721.63 414.159 721.009 415.071 720.244 415.837 719.478 416.602 718.566 417.223 717.552 417.65 716.539 418.078 715.425 418.313 714.252 418.313L691.405 418.313 691.405 451.248 691.405 453.939C691.405 463.562 699.154 471.31 708.776 471.31 714.422 471.31 719.187 468.467 722.355 464.319 724.587 461.397 726.143 457.916 726.143 453.939L726.143 416.626C726.143 412.886 724.717 409.616 722.721 406.788Z" fill="#1A1A1A"/><path d="M691.405 418.313 714.252 418.313C715.425 418.313 716.539 418.078 717.552 417.65 718.566 417.223 719.478 416.602 720.244 415.837 721.009 415.071 721.63 414.159 722.057 413.145 722.485 412.131 722.721 411.018 722.721 409.845L722.721 406.788C719.581 402.339 714.659 399.255 708.776 399.255 699.154 399.255 691.405 407.004 691.405 416.626Z" fill="#FF8080"/><path d="M699.211 410.41C696.988 410.41 695.203 412.2 695.203 414.423L695.203 422.043 706.865 422.043 718.528 422.043 718.528 414.423C718.528 412.2 716.738 410.41 714.515 410.41L710.873 410.41C708.65 410.41 706.865 412.2 706.865 414.423 706.865 412.2 705.075 410.41 702.853 410.41Z" fill="#FFFFFF"/><path d="M691.788 394.752C691.788 394.752 680.867 399.655 681.09 413.697" stroke="#FFBC2A" stroke-width="9.9851" stroke-linecap="round" stroke-linejoin="round" fill="none"/></g></svg>