<svg width="152" height="152" xmlns="http://www.w3.org/2000/svg" xmlns:xlink="http://www.w3.org/1999/xlink" overflow="hidden"><defs><clipPath id="clip0"><rect x="609" y="329" width="152" height="152"/></clipPath></defs><g clip-path="url(#clip0)" transform="translate(-609 -329)"><path d="M761 405C761 446.974 726.974 481 685 481 643.026 481 609 446.974 609 405 609 363.026 643.026 329 685 329 726.974 329 761 363.027 761 405Z" fill="#FFD42A"/><path d="M633.413 349.286C617.875 363.648 609.028 383.839 609.001 404.998 609.001 446.972 643.027 480.998 685.001 480.998 712.367 480.979 737.609 466.249 751.089 442.433 749.688 443.76 748.237 445.033 746.74 446.25 744.755 447.825 742.694 449.299 740.562 450.668 738.43 452.038 736.229 453.301 733.971 454.451 731.713 455.6 729.399 456.635 727.038 457.552 724.677 458.471 722.272 459.272 719.831 459.951 717.389 460.628 714.914 461.183 712.416 461.613 709.919 462.044 707.401 462.35 704.873 462.53 703.085 462.656 701.293 462.72 699.5 462.72 696.967 462.72 694.435 462.593 691.914 462.34 689.392 462.087 686.885 461.708 684.401 461.204 681.917 460.699 679.46 460.072 677.039 459.322 674.618 458.573 672.235 457.705 669.901 456.718 667.567 455.731 665.284 454.628 663.061 453.413 660.838 452.198 658.677 450.874 656.586 449.444 654.495 448.013 652.478 446.479 650.54 444.846 648.603 443.214 646.747 441.486 644.982 439.669 643.216 437.85 641.541 435.945 639.965 433.959 638.391 431.975 636.917 429.913 635.548 427.782 634.18 425.649 632.918 423.449 631.77 421.19 630.619 418.932 629.583 416.618 628.664 414.257 627.746 411.895 626.947 409.488 626.27 407.046 625.593 404.605 625.038 402.132 624.607 399.635 624.176 397.138 623.87 394.621 623.691 392.093 623.564 390.304 623.501 388.512 623.501 386.72 623.501 384.185 623.628 381.651 623.881 379.129 624.133 376.608 624.51 374.103 625.012 371.62 625.516 369.136 626.144 366.679 626.894 364.258 627.642 361.837 628.511 359.455 629.498 357.121 630.485 354.787 631.588 352.504 632.803 350.28 633.004 349.947 633.207 349.616 633.413 349.286Z" fill="#FFBC2A"/><path d="M687.414 405.273C667.54 405.272 651.429 411.854 651.428 419.972 651.437 420.394 651.491 420.815 651.589 421.235 650.832 423.295 650.439 425.521 650.433 427.773 650.434 436.749 656.463 444.023 663.899 444.024 668.508 444.017 672.794 441.166 675.259 436.467 677.728 441.171 682.02 444.023 686.634 444.024 691.825 444.016 696.55 440.408 698.779 434.75 701.009 440.41 705.736 444.018 710.929 444.024 718.365 444.024 724.394 436.749 724.395 427.773 724.391 425.52 724 423.292 723.244 421.23 723.34 420.812 723.392 420.393 723.4 419.972 723.4 411.854 707.288 405.272 687.414 405.273Z" fill="#1A1A1A"/><path d="M642.663 370.567C642.382 371.808 642.238 373.075 642.234 374.346 642.236 384.069 650.233 391.95 660.098 391.951 669.965 391.953 677.965 384.071 677.967 374.346 677.958 373.074 677.809 371.807 677.523 370.567Z" fill="#FFFFFF"/><path d="M664.974 370.567C664.843 371.081 664.776 371.608 664.774 372.137 664.773 375.768 667.759 378.713 671.443 378.714 675.129 378.715 678.117 375.771 678.118 372.139 678.118 372.139 678.118 372.138 678.118 372.137 678.116 371.608 678.049 371.081 677.918 370.567Z" fill="#1A1A1A"/><path d="M700.612 370.567C700.331 371.808 700.188 373.075 700.183 374.346 700.185 384.069 708.182 391.95 718.047 391.951 727.914 391.953 735.914 384.071 735.916 374.346 735.907 373.074 735.758 371.807 735.472 370.567Z" fill="#FFFFFF"/><path d="M722.923 370.567C722.792 371.081 722.725 371.608 722.723 372.137 722.723 375.768 725.708 378.712 729.393 378.714 733.078 378.715 736.066 375.771 736.067 372.139 736.067 372.139 736.067 372.138 736.067 372.137 736.065 371.608 735.998 371.081 735.867 370.567Z" fill="#1A1A1A"/></g></svg>