<svg width="152" height="152" xmlns="http://www.w3.org/2000/svg" xmlns:xlink="http://www.w3.org/1999/xlink" overflow="hidden"><defs><clipPath id="clip0"><rect x="609" y="329" width="152" height="152"/></clipPath></defs><g clip-path="url(#clip0)" transform="translate(-609 -329)"><path d="M761 405C761 446.974 726.974 481 685 481 643.026 481 609 446.973 609 405 609 363.026 643.026 329 685 329 726.974 329 761 363.026 761 405Z" fill="#FFD42A"/><path d="M633.413 349.286C617.875 363.649 609.028 383.839 609.001 404.999 609.001 446.972 643.027 480.999 685.001 480.999 712.367 480.979 737.609 466.249 751.089 442.433 749.688 443.76 748.237 445.034 746.74 446.251 744.755 447.825 742.694 449.299 740.562 450.668 738.43 452.038 736.23 453.301 733.971 454.451 731.713 455.6 729.399 456.635 727.038 457.552 724.677 458.471 722.272 459.272 719.832 459.951 717.389 460.628 714.914 461.183 712.416 461.614 709.919 462.044 707.401 462.35 704.873 462.53 703.085 462.657 701.293 462.72 699.501 462.72 696.967 462.72 694.435 462.593 691.914 462.34 689.392 462.087 686.885 461.708 684.401 461.204 681.917 460.7 679.46 460.072 677.039 459.322 674.618 458.573 672.236 457.705 669.901 456.719 667.567 455.731 665.284 454.628 663.061 453.413 660.838 452.199 658.677 450.874 656.586 449.444 654.496 448.013 652.478 446.479 650.54 444.846 648.603 443.214 646.748 441.486 644.982 439.669 643.216 437.85 641.542 435.945 639.965 433.959 638.391 431.975 636.917 429.914 635.548 427.782 634.18 425.649 632.918 423.449 631.77 421.19 630.62 418.932 629.583 416.619 628.664 414.257 627.746 411.895 626.947 409.488 626.27 407.046 625.593 404.605 625.038 402.132 624.608 399.635 624.176 397.138 623.87 394.621 623.691 392.093 623.564 390.305 623.501 388.513 623.501 386.72 623.501 384.185 623.628 381.651 623.881 379.129 624.133 376.609 624.51 374.103 625.012 371.621 625.516 369.137 626.145 366.68 626.894 364.259 627.643 361.837 628.511 359.455 629.498 357.121 630.485 354.787 631.588 352.504 632.803 350.281 633.004 349.948 633.207 349.616 633.413 349.286Z" fill="#FFBC2A"/><path d="M735.666 406.961C735.666 425.062 726.009 441.789 710.333 450.839 694.657 459.89 675.343 459.89 659.667 450.839 643.991 441.789 634.334 425.063 634.334 406.961L685 406.961Z" fill="#1A1A1A"/><path d="M652.011 406.962 634.333 406.962C634.334 425.062 643.991 441.787 659.666 450.837 675.342 459.888 694.656 459.888 710.333 450.837 726.008 441.787 735.665 425.062 735.666 406.962L717.987 406.962 717.987 415.923C717.987 417.529 717.665 419.055 717.08 420.443 716.495 421.83 715.646 423.077 714.599 424.124 713.551 425.171 712.305 426.016 710.918 426.601 709.53 427.186 708.003 427.512 706.398 427.512L663.605 427.512C662 427.512 660.473 427.186 659.086 426.601 657.698 426.016 656.447 425.171 655.4 424.124 654.352 423.077 653.508 421.83 652.923 420.443 652.338 419.055 652.011 417.529 652.011 415.923Z" fill="#1A1A1A"/><path d="M652.011 406.962 652.011 415.923C652.011 417.529 652.338 419.055 652.923 420.443 653.508 421.83 654.352 423.077 655.4 424.124 656.447 425.171 657.698 426.016 659.086 426.601 660.473 427.186 662 427.512 663.605 427.512L706.398 427.512C708.003 427.512 709.53 427.186 710.918 426.601 712.305 426.016 713.551 425.171 714.599 424.124 715.646 423.077 716.495 421.83 717.08 420.443 717.665 419.055 717.987 417.529 717.987 415.923L717.987 406.962 684.999 406.962Z" fill="#FFFFFF"/><path d="M700.934 449.298C700.885 449.081 700.83 448.866 700.769 448.651 700.622 448.197 700.449 447.749 700.251 447.309 700.054 446.87 699.832 446.439 699.586 446.02 699.337 445.599 699.065 445.189 698.769 444.792 698.474 444.395 698.156 444.011 697.816 443.642 697.478 443.273 697.118 442.918 696.738 442.58 696.357 442.242 695.958 441.92 695.54 441.616 695.123 441.313 694.689 441.027 694.239 440.761 693.788 440.495 693.323 440.248 692.843 440.022 692.365 439.796 691.875 439.59 691.373 439.407 690.869 439.223 690.356 439.061 689.834 438.922 689.312 438.783 688.783 438.667 688.248 438.574 687.713 438.48 687.173 438.41 686.63 438.362 686.087 438.314 685.543 438.289 684.997 438.287 684.611 438.288 684.225 438.3 683.839 438.325 683.295 438.358 682.752 438.415 682.214 438.495 681.676 438.576 681.143 438.679 680.618 438.806 680.093 438.932 679.576 439.08 679.068 439.25 678.558 439.421 678.059 439.614 677.572 439.828 677.086 440.042 676.614 440.276 676.155 440.531 675.696 440.786 675.252 441.061 674.825 441.354 674.397 441.647 673.987 441.958 673.595 442.286 673.204 442.615 672.832 442.96 672.48 443.321 672.128 443.682 671.797 444.059 671.488 444.449 671.181 444.837 670.896 445.239 670.636 445.651 670.374 446.065 670.136 446.491 669.924 446.926 669.711 447.359 669.524 447.802 669.363 448.252 669.243 448.601 669.138 448.953 669.05 449.309 679.146 453.421 690.841 453.417 700.934 449.299Z" fill="#FF5555"/><path d="M642.342 358.148C639.737 358.22 637.685 360.39 637.757 362.995 637.815 365.102 639.265 366.916 641.308 367.436 640.301 367.166 641.128 367.389 641.713 367.695 642.298 368 643.105 368.451 644.053 368.987 645.95 370.057 648.38 371.455 650.743 372.853 652.03 373.614 652.09 373.664 653.258 374.364 652.09 375.065 652.03 375.114 650.743 375.876 648.38 377.274 645.95 378.696 644.053 379.766 643.105 380.301 642.298 380.749 641.713 381.054 641.128 381.358 640.301 381.583 641.308 381.312 638.759 381.849 637.127 384.352 637.664 386.901 638.201 389.451 640.704 391.083 643.253 390.545 643.418 390.51 643.581 390.467 643.741 390.415 645.193 390.026 645.315 389.81 646.062 389.42 646.809 389.031 647.699 388.546 648.7 387.982 650.702 386.852 653.143 385.419 655.535 384.003 660.321 381.171 664.877 378.401 664.877 378.401 664.878 378.4 664.88 378.398 664.882 378.396 664.892 378.39 664.901 378.384 664.911 378.377 664.939 378.359 664.967 378.34 664.994 378.321 667.199 376.933 667.862 374.02 666.474 371.815 665.944 370.973 665.162 370.32 664.238 369.95 663.677 369.611 659.994 367.381 655.536 364.742 653.143 363.326 650.702 361.894 648.7 360.764 647.699 360.199 646.809 359.715 646.062 359.326 645.316 358.937 645.193 358.7 643.742 358.312 643.286 358.187 642.814 358.131 642.342 358.146Z" fill="#1A1A1A"/><path d="M727.532 358.148C727.109 358.147 726.688 358.203 726.279 358.314 724.828 358.703 724.7 358.94 723.954 359.328 723.207 359.717 722.322 360.202 721.321 360.767 719.319 361.896 716.878 363.329 714.485 364.745 709.952 367.428 706.074 369.773 705.631 370.04 703.253 371.104 702.188 373.895 703.252 376.273 703.55 376.94 703.999 377.528 704.564 377.992 704.672 378.082 704.784 378.166 704.9 378.246 704.939 378.271 704.978 378.297 705.017 378.321 705.057 378.35 705.098 378.378 705.139 378.406 705.139 378.406 709.7 381.176 714.485 384.008 716.878 385.424 719.319 386.857 721.321 387.986 722.322 388.551 723.207 389.036 723.954 389.425 724.7 389.813 724.828 390.03 726.279 390.419 728.76 391.215 731.417 389.847 732.212 387.366 733.007 384.885 731.64 382.229 729.159 381.434 729.056 381.401 728.953 381.372 728.849 381.346 729.262 381.454 728.817 381.318 728.322 381.058 727.737 380.753 726.911 380.306 725.962 379.771 724.065 378.701 721.655 377.278 719.293 375.881 718.005 375.118 717.943 375.07 716.772 374.369 717.942 373.669 718.005 373.62 719.293 372.858 721.655 371.459 724.065 370.062 725.962 368.991 726.911 368.456 727.737 368.004 728.322 367.699 728.907 367.395 729.734 367.171 728.727 367.441 731.251 366.794 732.772 364.224 732.126 361.7 731.589 359.604 729.695 358.142 727.532 358.153Z" fill="#1A1A1A"/></g></svg>