<svg width="152" height="152" xmlns="http://www.w3.org/2000/svg" xmlns:xlink="http://www.w3.org/1999/xlink" overflow="hidden"><defs><clipPath id="clip0"><rect x="609" y="329" width="152" height="152"/></clipPath></defs><g clip-path="url(#clip0)" transform="translate(-609 -329)"><path d="M761 405C761 446.974 726.974 481 685 481 643.026 481 609 446.973 609 405 609 363.026 643.026 329 685 329 726.974 329 761 363.027 761 405Z" fill="#FFD42A"/><path d="M633.413 349.285C617.875 363.648 609.028 383.839 609.001 404.998 609.001 446.971 643.027 480.998 685.001 480.998 712.367 480.979 737.609 466.248 751.089 442.433 749.688 443.76 748.237 445.033 746.74 446.25 744.755 447.824 742.694 449.299 740.562 450.667 738.429 452.038 736.229 453.301 733.97 454.451 731.713 455.599 729.399 456.634 727.037 457.552 724.677 458.471 722.272 459.271 719.831 459.95 717.389 460.628 714.914 461.183 712.416 461.613 709.918 462.044 707.401 462.35 704.873 462.529 703.085 462.656 701.293 462.719 699.5 462.72 696.967 462.719 694.435 462.593 691.914 462.339 689.392 462.086 686.885 461.707 684.401 461.203 681.917 460.699 679.46 460.071 677.039 459.321 674.618 458.573 672.235 457.704 669.901 456.718 667.567 455.731 665.284 454.628 663.061 453.412 660.838 452.198 658.677 450.874 656.586 449.444 654.495 448.013 652.478 446.478 650.54 444.846 648.602 443.214 646.747 441.486 644.982 439.668 643.216 437.85 641.541 435.945 639.965 433.959 638.391 431.975 636.917 429.913 635.548 427.781 634.179 425.648 632.918 423.448 631.77 421.19 630.619 418.932 629.583 416.618 628.664 414.257 627.746 411.895 626.947 409.488 626.27 407.046 625.593 404.605 625.038 402.131 624.607 399.635 624.176 397.138 623.87 394.62 623.691 392.092 623.564 390.304 623.501 388.512 623.501 386.719 623.501 384.184 623.628 381.651 623.881 379.128 624.133 376.608 624.51 374.102 625.012 371.62 625.516 369.136 626.144 366.679 626.894 364.258 627.642 361.837 628.511 359.455 629.498 357.12 630.485 354.786 631.588 352.503 632.803 350.28 633.004 349.947 633.207 349.615 633.413 349.285Z" fill="#FFBC2A"/><path d="M656.107 380.175C655.826 381.416 655.682 382.683 655.678 383.954 655.68 393.677 663.677 401.558 673.542 401.559 683.409 401.56 691.409 393.678 691.411 383.954 691.402 382.682 691.253 381.415 690.967 380.175Z" fill="#FFFFFF"/><path d="M678.418 380.175C678.287 380.688 678.22 381.216 678.218 381.745 678.218 385.376 681.203 388.321 684.888 388.322 688.573 388.323 691.561 385.379 691.562 381.747 691.562 381.747 691.562 381.746 691.562 381.745 691.56 381.216 691.493 380.689 691.362 380.175Z" fill="#1A1A1A"/><path d="M714.056 380.175C713.776 381.416 713.632 382.683 713.627 383.954 713.629 393.677 721.626 401.558 731.491 401.559 741.358 401.56 749.358 393.678 749.36 383.954 749.351 382.682 749.202 381.415 748.917 380.175Z" fill="#FFFFFF"/><path d="M736.367 380.175C736.236 380.688 736.169 381.216 736.167 381.745 736.167 385.376 739.152 388.32 742.837 388.322 746.522 388.323 749.51 385.379 749.511 381.747 749.511 381.746 749.511 381.745 749.511 381.745 749.509 381.216 749.442 380.688 749.311 380.175Z" fill="#1A1A1A"/><path d="M703.24 418.007C703.24 418.007 721.521 410.757 724.673 416.116 727.825 421.474 709.544 426.833 715.532 436.289 721.521 445.745 713.956 445.429 707.652 442.908 701.348 440.386 701.348 440.386 701.348 440.386" stroke="#1A1A1A" stroke-width="9.9851" stroke-linecap="round" stroke-linejoin="round" fill="none"/></g></svg>