<svg width="152" height="152" xmlns="http://www.w3.org/2000/svg" xmlns:xlink="http://www.w3.org/1999/xlink" overflow="hidden"><defs><clipPath id="clip0"><rect x="609" y="329" width="152" height="152"/></clipPath></defs><g clip-path="url(#clip0)" transform="translate(-609 -329)"><path d="M761 405C761 446.974 726.974 481 685 481 643.026 481 609 446.973 609 405 609 363.026 643.026 329 685 329 726.974 329 761 363.027 761 405Z" fill="#FFD42A"/><path d="M633.413 349.285C617.875 363.648 609.028 383.839 609.001 404.998 609.001 446.971 643.027 480.998 685.001 480.998 712.367 480.979 737.609 466.248 751.089 442.433 749.688 443.76 748.237 445.033 746.74 446.25 744.755 447.824 742.694 449.299 740.562 450.667 738.429 452.038 736.229 453.301 733.971 454.451 731.713 455.599 729.399 456.634 727.037 457.552 724.677 458.471 722.272 459.271 719.831 459.95 717.389 460.628 714.914 461.183 712.416 461.613 709.918 462.044 707.401 462.35 704.873 462.529 703.085 462.656 701.293 462.719 699.5 462.72 696.967 462.719 694.435 462.593 691.914 462.339 689.392 462.086 686.885 461.707 684.401 461.203 681.917 460.699 679.46 460.071 677.039 459.321 674.618 458.573 672.235 457.704 669.901 456.718 667.567 455.731 665.284 454.628 663.061 453.412 660.838 452.198 658.677 450.874 656.586 449.444 654.495 448.013 652.478 446.478 650.54 444.846 648.603 443.214 646.747 441.486 644.982 439.668 643.216 437.85 641.541 435.945 639.965 433.959 638.391 431.975 636.917 429.913 635.548 427.781 634.179 425.648 632.918 423.448 631.77 421.19 630.619 418.932 629.583 416.618 628.664 414.257 627.746 411.895 626.947 409.488 626.27 407.046 625.593 404.605 625.038 402.131 624.607 399.635 624.176 397.138 623.87 394.62 623.691 392.092 623.564 390.304 623.501 388.512 623.501 386.719 623.501 384.184 623.628 381.651 623.881 379.128 624.133 376.608 624.51 374.102 625.012 371.62 625.516 369.136 626.144 366.679 626.894 364.258 627.642 361.837 628.511 359.455 629.498 357.12 630.485 354.786 631.588 352.503 632.803 350.28 633.004 349.947 633.207 349.615 633.413 349.285Z" fill="#FFBC2A"/><path d="M647.992 366.321 672.509 390.838" stroke="#1A1A1A" stroke-width="9.9851" stroke-linecap="round" stroke-linejoin="round" fill="none"/><path d="M672.509 366.321 647.992 390.838" stroke="#1A1A1A" stroke-width="9.9851" stroke-linecap="round" stroke-linejoin="round" fill="none"/><path d="M701.484 366.321 726.001 390.838" stroke="#1A1A1A" stroke-width="9.9851" stroke-linecap="round" stroke-linejoin="round" fill="none"/><path d="M726.001 366.321 701.484 390.838" stroke="#1A1A1A" stroke-width="9.9851" stroke-linecap="round" stroke-linejoin="round" fill="none"/><path d="M702.725 431.975C702.725 440.678 695.669 447.735 686.965 447.735 678.261 447.735 671.205 440.679 671.205 431.975 671.205 423.271 678.261 416.214 686.965 416.214 695.669 416.214 702.725 423.27 702.725 431.975Z" fill="#1A1A1A"/></g></svg>