<svg width="152" height="152" xmlns="http://www.w3.org/2000/svg" xmlns:xlink="http://www.w3.org/1999/xlink" overflow="hidden"><defs><clipPath id="clip0"><rect x="609" y="329" width="152" height="152"/></clipPath></defs><g clip-path="url(#clip0)" transform="translate(-609 -329)"><path d="M761 405C761 446.974 726.974 481 685 481 643.026 481 609 446.973 609 405 609 363.026 643.026 329 685 329 726.974 329 761 363.026 761 405Z" fill="#FFD42A"/><path d="M633.413 349.286C617.875 363.649 609.028 383.839 609.001 404.999 609.001 446.972 643.027 480.998 685.001 480.998 712.367 480.979 737.609 466.249 751.089 442.433 749.688 443.76 748.237 445.034 746.74 446.251 744.755 447.825 742.694 449.299 740.562 450.668 738.43 452.038 736.229 453.301 733.971 454.451 731.713 455.6 729.399 456.635 727.038 457.552 724.677 458.471 722.272 459.272 719.831 459.951 717.389 460.628 714.914 461.183 712.416 461.614 709.918 462.044 707.401 462.35 704.873 462.53 703.085 462.657 701.293 462.72 699.5 462.72 696.967 462.72 694.435 462.593 691.914 462.34 689.392 462.087 686.885 461.708 684.401 461.204 681.917 460.7 679.46 460.072 677.039 459.322 674.618 458.573 672.235 457.705 669.901 456.719 667.567 455.731 665.284 454.628 663.061 453.413 660.838 452.199 658.677 450.874 656.586 449.444 654.495 448.013 652.478 446.479 650.54 444.846 648.603 443.214 646.748 441.486 644.982 439.669 643.216 437.85 641.541 435.945 639.965 433.959 638.391 431.975 636.917 429.914 635.548 427.782 634.18 425.649 632.918 423.449 631.77 421.19 630.619 418.933 629.583 416.619 628.664 414.257 627.746 411.895 626.947 409.488 626.27 407.046 625.593 404.605 625.038 402.132 624.607 399.635 624.176 397.138 623.87 394.621 623.691 392.093 623.564 390.304 623.501 388.512 623.501 386.72 623.501 384.185 623.628 381.651 623.881 379.129 624.133 376.608 624.51 374.103 625.012 371.62 625.516 369.136 626.144 366.68 626.894 364.259 627.642 361.837 628.511 359.455 629.498 357.121 630.485 354.787 631.588 352.504 632.803 350.28 633.004 349.947 633.207 349.616 633.413 349.286Z" fill="#FFBC2A"/><path d="M657.699 413.065C657.699 425.321 647.763 435.257 635.507 435.257 623.251 435.257 613.315 425.321 613.315 413.065 613.315 400.809 623.251 390.873 635.507 390.873 647.763 390.873 657.699 400.809 657.699 413.065Z" fill="#FF5555"/><path d="M756.673 413.065C756.673 425.321 746.737 435.257 734.481 435.257 722.224 435.257 712.289 425.321 712.289 413.065 712.289 400.809 722.224 390.873 734.481 390.873 746.737 390.873 756.673 400.809 756.673 413.065Z" fill="#FF5555"/><path d="M644.677 416.931C644.677 416.931 648.145 456.173 683.92 456.173" stroke="#1A1A1A" stroke-width="9.9851" stroke-linecap="round" stroke-linejoin="round" fill="none"/><path d="M723.163 416.931C723.163 416.931 719.696 456.173 683.92 456.173" stroke="#1A1A1A" stroke-width="9.9851" stroke-linecap="round" stroke-linejoin="round" fill="none"/><path d="M730.785 374.594C730.785 384.319 722.786 392.202 712.919 392.202 703.052 392.202 695.052 384.319 695.052 374.594 695.052 364.869 703.052 356.985 712.919 356.985 722.786 356.985 730.785 364.869 730.785 374.594Z" fill="#FFFFFF"/><path d="M676.255 360.725C676.255 370.45 668.256 378.334 658.389 378.334 648.521 378.334 640.522 370.45 640.522 360.725 640.522 351 648.521 343.116 658.389 343.116 668.256 343.116 676.255 351 676.255 360.725Z" fill="#FFFFFF"/><path d="M658.758 350.638C658.758 354.271 655.77 357.215 652.085 357.215 648.399 357.215 645.412 354.271 645.412 350.638 645.412 347.006 648.399 344.062 652.085 344.062 655.77 344.062 658.758 347.006 658.758 350.638Z" fill="#1A1A1A"/><path d="M729.993 380.898C729.993 384.53 727.006 387.475 723.32 387.475 719.635 387.475 716.648 384.53 716.648 380.898 716.648 377.266 719.635 374.321 723.32 374.321 727.006 374.321 729.993 377.266 729.993 380.898Z" fill="#1A1A1A"/></g></svg>