<svg width="152" height="152" xmlns="http://www.w3.org/2000/svg" xmlns:xlink="http://www.w3.org/1999/xlink" overflow="hidden"><defs><clipPath id="clip0"><rect x="609" y="329" width="152" height="152"/></clipPath></defs><g clip-path="url(#clip0)" transform="translate(-609 -329)"><path d="M761 405C761 446.974 726.974 481 685 481 643.026 481 609 446.973 609 405 609 363.026 643.026 329 685 329 726.974 329 761 363.026 761 405Z" fill="#FFD42A"/><path d="M633.413 349.286C617.874 363.649 609.028 383.839 609.001 404.999 609.001 446.972 643.027 480.998 685.001 480.998 712.367 480.979 737.609 466.249 751.088 442.433 749.688 443.76 748.237 445.034 746.739 446.251 744.755 447.825 742.694 449.299 740.562 450.668 738.429 452.038 736.229 453.301 733.97 454.451 731.713 455.6 729.399 456.635 727.037 457.552 724.677 458.471 722.272 459.272 719.831 459.951 717.389 460.628 714.914 461.183 712.416 461.614 709.918 462.044 707.401 462.35 704.873 462.53 703.085 462.657 701.293 462.72 699.5 462.72 696.967 462.72 694.435 462.593 691.914 462.34 689.392 462.087 686.885 461.708 684.401 461.204 681.917 460.7 679.46 460.072 677.039 459.322 674.618 458.573 672.235 457.705 669.901 456.719 667.567 455.731 665.284 454.628 663.061 453.413 660.838 452.199 658.677 450.874 656.586 449.444 654.495 448.013 652.478 446.479 650.54 444.846 648.602 443.214 646.747 441.486 644.982 439.669 643.216 437.85 641.541 435.945 639.965 433.959 638.391 431.975 636.917 429.914 635.548 427.782 634.179 425.649 632.918 423.449 631.77 421.19 630.619 418.933 629.583 416.619 628.664 414.257 627.746 411.895 626.947 409.488 626.27 407.046 625.593 404.605 625.038 402.132 624.607 399.635 624.176 397.138 623.87 394.621 623.691 392.093 623.564 390.304 623.501 388.512 623.501 386.72 623.501 384.185 623.628 381.651 623.881 379.129 624.133 376.608 624.51 374.103 625.012 371.62 625.516 369.136 626.144 366.68 626.894 364.259 627.642 361.837 628.511 359.455 629.498 357.121 630.485 354.787 631.588 352.504 632.803 350.28 633.004 349.947 633.207 349.616 633.413 349.286Z" fill="#FFBC2A"/><path d="M643.651 415.886C643.651 415.886 647.209 439.361 683.92 439.361" stroke="#1A1A1A" stroke-width="9.9851" stroke-linecap="round" stroke-linejoin="round" fill="none"/><path d="M724.189 415.886C724.189 415.886 720.631 439.361 683.92 439.361" stroke="#1A1A1A" stroke-width="9.9851" stroke-linecap="round" stroke-linejoin="round" fill="none"/><path d="M730.785 367.659C730.785 377.384 722.786 385.268 712.919 385.268 703.051 385.268 695.052 377.384 695.052 367.659 695.052 357.935 703.051 350.051 712.919 350.051 722.786 350.051 730.785 357.935 730.785 367.659Z" fill="#FFFFFF"/><path d="M676.255 367.659C676.255 377.384 668.256 385.268 658.389 385.268 648.521 385.268 640.522 377.384 640.522 367.659 640.522 357.935 648.522 350.051 658.389 350.051 668.256 350.051 676.255 357.935 676.255 367.659Z" fill="#FFFFFF"/><path d="M665.062 367.659C665.062 371.292 662.074 374.236 658.389 374.236 654.703 374.236 651.716 371.292 651.716 367.659 651.716 364.027 654.703 361.083 658.389 361.083 662.074 361.083 665.062 364.027 665.062 367.659Z" fill="#1A1A1A"/><path d="M719.592 367.659C719.592 371.292 716.604 374.236 712.919 374.236 709.233 374.236 706.246 371.292 706.246 367.659 706.246 364.027 709.233 361.083 712.919 361.083 716.604 361.083 719.592 364.027 719.592 367.659Z" fill="#1A1A1A"/></g></svg>