<svg width="512" height="512" xmlns="http://www.w3.org/2000/svg" xmlns:xlink="http://www.w3.org/1999/xlink" overflow="hidden"><defs><clipPath id="clip0"><rect x="384" y="104" width="512" height="512"/></clipPath></defs><g clip-path="url(#clip0)" transform="translate(-384 -104)"><path d="M640 104C498.842 104 384 218.842 384 360 384 501.158 498.842 616 640 616 781.158 616 896 501.158 896 360 896 218.842 781.158 104 640 104ZM640 598.933C508.254 598.933 401.067 491.746 401.067 360 401.067 228.254 508.254 121.067 640 121.067 771.746 121.067 878.933 228.254 878.933 360 878.933 491.746 771.746 598.933 640 598.933Z" fill="#FFFFFF"/><path d="M877.278 436.954C838.059 412.421 810.667 338.667 810.667 257.6 810.667 231.514 813.355 206.221 818.663 182.43 819.687 177.831 816.786 173.265 812.186 172.241 807.569 171.234 803.021 174.118 801.997 178.718 796.425 203.729 793.6 230.268 793.6 257.6 793.6 345.613 823.595 423.505 868.233 451.418 869.641 452.297 871.203 452.715 872.747 452.715 875.589 452.715 878.37 451.298 879.992 448.713 882.483 444.719 881.271 439.445 877.278 436.954Z" fill="#FFFFFF"/><path d="M576.444 113.796C574.695 113.105 572.775 112.985 570.957 113.497 460.885 144.269 384 245.636 384 360 384 501.158 498.842 616 640 616 682.103 616 723.883 605.53 760.823 585.715 763.067 584.512 764.654 582.361 765.158 579.87L767.897 566.14 768.076 565.022C772.232 538.91 776.533 511.919 776.533 483.733 776.533 310.626 696.124 161.958 576.444 113.796ZM751.224 562.334 749.219 572.54C715.632 589.82 677.957 598.934 640.001 598.934 508.254 598.933 401.067 491.746 401.067 360 401.067 254.229 471.518 160.371 572.758 130.726 684.553 177.472 759.467 318.835 759.467 483.733 759.467 510.571 755.277 536.888 751.224 562.334Z" fill="#FFFFFF"/><path d="M583.014 548.194C566.963 542.716 550.843 534.652 533.717 523.516 529.758 520.947 524.475 522.065 521.907 526.016 519.339 529.967 520.456 535.249 524.407 537.818 542.737 549.731 560.102 558.409 577.51 564.34 578.423 564.647 579.353 564.801 580.266 564.801 583.816 564.801 587.135 562.565 588.339 559.032 589.858 554.569 587.477 549.713 583.014 548.194Z" fill="#FFFFFF"/><path d="M493.056 491.192C491.059 488.709 488.875 486.098 486.613 483.41 479.974 475.5 472.439 466.54 468.42 458.552 466.295 454.345 461.167 452.638 456.96 454.772 452.753 456.897 451.055 462.025 453.18 466.232 458.095 475.994 466.304 485.765 473.549 494.392 475.725 496.978 477.833 499.486 479.744 501.867 481.434 503.975 483.908 505.067 486.409 505.067 488.278 505.067 490.164 504.453 491.742 503.19 495.42 500.237 496.009 494.869 493.056 491.192Z" fill="#FFFFFF"/><path d="M878.933 286.733C629.12 284.745 481.783 368.474 402.133 439.36 398.617 442.492 398.302 447.885 401.433 451.409 403.114 453.303 405.461 454.268 407.807 454.268 409.821 454.268 411.852 453.551 413.473 452.109 490.879 383.219 634.555 301.777 878.77 303.8 878.804 303.8 878.83 303.8 878.855 303.8 883.531 303.8 887.346 300.028 887.388 295.343 887.433 290.633 883.644 286.776 878.933 286.733Z" fill="#FFFFFF"/><path d="M461.662 189.333C459.059 189.333 456.474 189.222 453.888 189.094 449.152 189.009 445.184 192.507 444.962 197.218 444.732 201.92 448.367 205.922 453.077 206.144 455.927 206.281 458.786 206.4 461.662 206.4 574.592 206.4 666.462 315.499 666.462 449.6 666.462 509.316 651.964 562.172 624.538 602.449 621.884 606.349 622.891 611.656 626.791 614.31 628.259 615.308 629.931 615.786 631.587 615.786 634.318 615.786 636.997 614.48 638.653 612.057 668.008 568.93 683.53 512.755 683.53 449.599 683.529 306.086 583.996 189.333 461.662 189.333Z" fill="#FFFFFF"/></g></svg>