<svg width="512" height="512" xmlns="http://www.w3.org/2000/svg" xmlns:xlink="http://www.w3.org/1999/xlink" overflow="hidden"><defs><clipPath id="clip0"><rect x="384" y="104" width="512" height="512"/></clipPath></defs><g clip-path="url(#clip0)" transform="translate(-384 -104)"><path d="M696.003 345.975C692.852 343.287 688.118 343.664 685.43 346.816L658.525 378.372C653.046 375.312 646.737 373.567 640.029 373.567 639.005 373.567 637.991 373.608 636.988 373.688L631.852 374.07 580.13 255.326 585.681 255.326C601.022 255.326 613.503 242.89 613.503 227.605 613.503 218.104 605.752 210.374 596.224 210.374L542.791 210.374C533.263 210.374 525.512 218.104 525.512 227.605 525.512 242.89 537.993 255.326 553.334 255.326L563.77 255.326 577.948 287.877 535.535 329.58C520.135 319.494 501.737 313.624 481.994 313.624 427.959 313.623 384 357.587 384 411.625 384 465.663 427.959 509.627 481.992 509.627 524.347 509.627 560.511 482.613 574.165 444.908L640.029 449.683C661.013 449.683 678.085 432.61 678.085 411.624 678.085 402.757 675.037 394.588 669.933 388.111L696.845 356.547C699.531 353.396 699.155 348.662 696.003 345.975ZM553.331 240.325C546.261 240.325 540.509 234.619 540.509 227.604 540.509 226.374 541.531 225.373 542.788 225.373L596.221 225.373C597.478 225.373 598.5 226.374 598.5 227.604 598.5 234.619 592.748 240.325 585.678 240.325ZM536.811 349.358C546.149 357.591 553.627 367.887 558.526 379.526L501.84 383.744ZM481.992 494.627C436.23 494.627 399 457.393 399 411.625 399 365.857 436.23 328.623 481.992 328.623 497.535 328.623 512.093 332.918 524.543 340.384L478.716 385.443C465.709 387.061 455.61 398.185 455.61 411.624 455.61 425.616 466.558 437.099 480.336 437.956L558.515 443.748C545.936 473.611 516.372 494.627 481.992 494.627ZM493.373 411.625C493.373 417.902 488.268 423.009 481.992 423.009 475.716 423.009 470.61 417.903 470.61 411.625 470.61 405.347 475.716 400.241 481.992 400.241 488.268 400.241 493.373 405.348 493.373 411.625ZM563.157 428.984 504.91 424.681C507.113 420.829 508.373 416.371 508.373 411.624 508.373 406.877 507.113 402.42 504.91 398.567L563.157 394.264C564.353 399.864 564.983 405.671 564.983 411.623 564.983 417.575 564.353 423.384 563.157 428.984ZM608.094 432.304 578.236 430.098C579.382 424.114 579.982 417.938 579.982 411.625 579.982 405.312 579.382 399.136 578.236 393.151L608.094 390.945C604.223 396.903 601.973 404.006 601.973 411.624 601.973 419.242 604.224 426.346 608.094 432.304ZM574.172 378.361C568.634 363.058 559.388 349.515 547.525 338.823L584.361 302.604 616.003 375.249ZM640.028 434.684C627.315 434.684 616.973 424.34 616.973 411.625 616.973 398.91 627.315 388.566 640.028 388.566 643.005 388.566 645.853 389.133 648.468 390.166L634.321 406.759C631.633 409.911 632.01 414.645 635.162 417.332 636.574 418.536 638.304 419.125 640.025 419.125 642.145 419.125 644.252 418.23 645.735 416.491L659.877 399.904C661.913 403.341 663.083 407.348 663.083 411.625 663.084 424.34 652.741 434.684 640.028 434.684Z" fill="#FFFFFF"/><path d="M798.008 313.623C787.876 313.623 778.098 315.169 768.898 318.037L732.791 225.373 775.252 225.373C776.509 225.373 777.531 226.374 777.531 227.604 777.531 234.619 771.779 240.325 764.709 240.325 760.567 240.325 757.209 243.682 757.209 247.825 757.209 251.968 760.567 255.325 764.709 255.325 780.05 255.325 792.531 242.889 792.531 227.604 792.531 218.103 784.78 210.373 775.252 210.373L721.82 210.373C719.343 210.373 717.026 211.596 715.629 213.641 714.231 215.686 713.933 218.288 714.832 220.596L739.364 283.556 708.364 319.916C705.676 323.068 706.053 327.802 709.205 330.489 710.617 331.693 712.346 332.282 714.067 332.282 716.187 332.282 718.294 331.387 719.777 329.648L745.546 299.424 754.964 323.594C722.45 339.56 700.016 373.022 700.016 411.626 700.016 465.664 743.974 509.628 798.007 509.628 852.04 509.628 896 465.663 896 411.625 896 357.587 852.041 313.623 798.008 313.623ZM798.008 494.627C752.246 494.627 715.017 457.393 715.017 411.625 715.017 379.375 733.503 351.362 760.434 337.628L781.313 391.212C775.404 396.055 771.627 403.407 771.627 411.625 771.627 426.173 783.461 438.009 798.008 438.009 812.555 438.009 824.39 426.173 824.39 411.625 824.39 397.077 812.555 385.241 798.008 385.241 797.041 385.241 796.086 385.294 795.145 385.396L774.361 332.055C781.858 329.822 789.796 328.623 798.009 328.623 843.771 328.623 881.001 365.857 881.001 411.625 881.001 457.393 843.77 494.627 798.008 494.627ZM786.627 411.625C786.627 405.348 791.732 400.241 798.008 400.241 804.284 400.241 809.39 405.347 809.39 411.625 809.39 417.903 804.284 423.009 798.008 423.009 791.732 423.009 786.627 417.902 786.627 411.625Z" fill="#FFFFFF"/></g></svg>