<svg width="512" height="512" xmlns="http://www.w3.org/2000/svg" xmlns:xlink="http://www.w3.org/1999/xlink" overflow="hidden"><defs><clipPath id="clip0"><rect x="384" y="104" width="512" height="512"/></clipPath></defs><g clip-path="url(#clip0)" transform="translate(-384 -104)"><path d="M717.171 493.269C693.34 505.659 666.86 512.086 640 512 547.364 512 472 436.636 472 344 471.904 308.289 483.279 273.491 504.45 244.732L491.55 235.268C431.514 317.24 449.297 432.361 531.269 492.397 538.569 497.744 546.253 502.544 554.26 506.76L528.36 589.613C527.042 593.83 529.392 598.317 533.609 599.636 534.383 599.878 535.189 600 536 600L568 600C571.499 600 574.592 597.726 575.636 594.386L578.882 584 701.118 584 704.364 594.386C705.408 597.726 708.501 600 712 600L744 600C748.418 600 752 596.419 752 592 752 591.191 751.878 590.386 751.636 589.613L731.636 525.613 716.364 530.387 733.118 584 717.882 584 697.5 518.786C706.801 515.749 715.841 511.966 724.533 507.475 749.75 494.362 771.618 475.633 788.453 452.732L775.553 443.268C760.177 464.185 740.203 481.291 717.171 493.269ZM597.907 523.136C625.592 529.63 654.405 529.621 682.085 523.109L686.115 536 593.885 536ZM562.118 584 546.882 584 568.858 513.686C573.319 515.562 577.866 517.262 582.501 518.786ZM583.883 568 588.883 552 691.116 552 696.116 568ZM640 160C593.957 159.942 549.575 177.203 515.671 208.356L504.685 197.37 511.845 161.57C512.37 158.947 511.549 156.235 509.657 154.344L477.657 122.344C474.532 119.221 469.467 119.222 466.343 122.347 465.227 123.463 464.467 124.884 464.157 126.432L457.2 161.2 422.43 168.154C418.098 169.021 415.289 173.236 416.156 177.569 416.465 179.116 417.226 180.538 418.342 181.654L450.342 213.654C452.233 215.546 454.945 216.367 457.568 215.842L493.368 208.682 538.391 253.705C516.216 278.552 503.973 310.697 504 344 504 418.99 565.01 480 640 480 714.99 480 776 418.99 776 344 776 269.01 714.99 208 640 208 606.698 207.974 574.554 220.218 549.708 242.393L526.99 219.675C557.825 191.419 598.177 175.824 640 176 732.636 176 808 251.364 808 344 808.018 373.777 800.114 403.024 785.1 428.739L798.908 436.821C815.357 408.654 824.017 376.618 824 344 824 242.542 741.458 160 640 160ZM458.629 199.315 440.229 180.915 461.37 176.685 479.77 195.085ZM491.087 183.772 472.687 165.372 476.915 144.229 495.315 162.629ZM549.721 265.036 572.405 287.719C541.266 325.106 546.332 380.658 583.719 411.796 621.106 442.935 676.658 437.87 707.796 400.482 738.935 363.095 733.87 307.544 696.482 276.405 663.817 249.199 616.384 249.199 583.719 276.405L561.036 253.721C610.976 210.03 686.88 215.096 730.571 265.036 774.262 314.976 769.196 390.88 719.256 434.571 669.316 478.262 593.412 473.196 549.721 423.256 510.093 377.96 510.093 310.332 549.721 265.036ZM640 384C662.091 384.019 680.016 366.126 680.035 344.035 680.054 321.943 662.161 304.019 640.069 304 632.206 303.993 624.515 306.304 617.958 310.644L595.094 287.78C626.208 262.915 671.587 267.98 696.452 299.094 721.317 330.207 716.251 375.587 685.138 400.452 654.024 425.317 608.645 420.251 583.78 389.138 562.74 362.81 562.74 325.421 583.78 299.094L606.644 321.958C594.456 340.365 599.497 365.167 617.904 377.356 624.456 381.694 632.142 384.005 640 384ZM629.66 322.345C641.625 316.629 655.957 321.695 661.673 333.66 667.389 345.625 662.323 359.957 650.358 365.673 638.393 371.389 624.061 366.323 618.345 354.358 615.218 347.813 615.218 340.205 618.345 333.66L634.345 349.66 645.659 338.346ZM806.96 194.665C826.478 216.409 841.528 241.78 851.252 269.334L836.166 274.666C827.136 249.082 813.162 225.524 795.038 205.335ZM795.236 182.514 784.146 194.047C779.865 189.931 775.355 185.947 770.746 182.219L780.811 169.781C785.772 173.8 790.627 178.082 795.236 182.514ZM532.154 521.9 523.846 535.573C501.706 522.132 482.061 504.958 465.781 484.813L478.219 474.748C493.341 493.46 511.589 509.413 532.154 521.9Z" fill="#FFFFFF"/></g></svg>