<svg width="512" height="512" xmlns="http://www.w3.org/2000/svg" xmlns:xlink="http://www.w3.org/1999/xlink" overflow="hidden"><defs><clipPath id="clip0"><rect x="384" y="104" width="512" height="512"/></clipPath></defs><g clip-path="url(#clip0)" transform="translate(-384 -104)"><path d="M869 186.692 859.748 186.692 859.748 166.068C859.733 151.163 847.653 139.083 832.748 139.068L803.748 139.068C788.844 139.086 776.767 151.164 776.752 166.068L776.752 236.068 702.124 236.068 702.124 233.844C702.241 220.595 692.375 209.377 679.22 207.8 672.088 207.125 665 209.475 659.684 214.276 659.233 214.689 658.797 215.116 658.376 215.556 657.957 215.116 657.521 214.689 657.068 214.276 651.757 209.462 644.663 207.111 637.528 207.8 631.473 208.421 625.858 211.251 621.756 215.748 612.264 205.528 596.283 204.938 586.063 214.43 585.654 214.809 585.259 215.202 584.876 215.608 575.261 205.439 559.223 204.991 549.054 214.606 543.982 219.402 541.114 226.076 541.124 233.056L541.124 236.068 503.252 236.068 503.252 166.068C503.234 151.164 491.156 139.086 476.252 139.068L447.252 139.068C432.347 139.083 420.267 151.163 420.252 166.068L420.252 186.692 411 186.692C396.096 186.71 384.018 198.788 384 213.692L384 331.944C384.018 346.848 396.096 358.926 411 358.944L420.252 358.944 420.252 379.568C420.267 394.473 432.347 406.553 447.252 406.568L476.252 406.568C491.156 406.55 503.234 394.472 503.252 379.568L503.252 309.568 541.2 309.568C541.2 309.72 541.2 309.876 541.224 310.028 541.173 310.33 541.142 310.634 541.132 310.94L541.132 339.74C541.141 352.485 544.371 365.022 550.524 376.184L577.884 425.744 577.884 573.932C577.884 577.798 581.018 580.932 584.884 580.932L695.124 580.932C698.99 580.932 702.124 577.798 702.124 573.932L702.124 426.136 730.8 384.8C736.072 377.223 738.892 368.211 738.88 358.98L738.88 309.556 776.756 309.556 776.756 379.556C776.771 394.46 788.848 406.538 803.752 406.556L832.752 406.556C847.657 406.541 859.737 394.461 859.752 379.556L859.752 358.944 869.004 358.944C883.908 358.926 895.986 346.848 896.004 331.944L896.004 213.692C895.986 198.786 883.906 186.707 869 186.692ZM665.376 233.068C665.375 226.785 670.468 221.692 676.751 221.691 677.131 221.691 677.51 221.71 677.888 221.748 683.882 222.594 688.287 227.804 688.124 233.856L688.124 236.08 664.696 236.08C665.145 235.14 665.378 234.11 665.376 233.068ZM638.86 221.748C639.24 221.712 639.624 221.692 640 221.692 646.282 221.694 651.374 226.786 651.376 233.068 651.374 234.11 651.607 235.14 652.056 236.08L640 236.08C636.05 236.084 632.155 237.009 628.624 238.78L628.624 233.856C628.461 227.804 632.866 222.594 638.86 221.748ZM651.376 308.2C651.376 314.483 646.283 319.576 640 319.576 633.717 319.576 628.624 314.483 628.624 308.2L628.624 283.884C632.386 285.82 636.557 286.831 640.788 286.832L651.376 286.832ZM603.252 221.692C609.531 221.701 614.617 226.79 614.624 233.068L614.624 308.2C614.742 314.482 609.745 319.669 603.463 319.787 597.182 319.905 591.994 314.908 591.876 308.627 591.873 308.484 591.873 308.342 591.876 308.2L591.876 233.068C591.883 226.788 596.972 221.699 603.252 221.692ZM555.124 233.068C555.124 226.785 560.217 221.692 566.5 221.692 572.783 221.692 577.876 226.785 577.876 233.068L577.876 308.2C577.876 314.483 572.783 319.576 566.5 319.576 560.217 319.576 555.124 314.483 555.124 308.2L555.124 233.068ZM411 344.944C403.824 344.935 398.009 339.12 398 331.944L398 213.692C398.009 206.516 403.824 200.701 411 200.692L420.252 200.692 420.252 344.944ZM489.252 379.568C489.243 386.744 483.428 392.559 476.252 392.568L447.252 392.568C440.075 392.561 434.259 386.745 434.252 379.568L434.252 166.068C434.259 158.891 440.075 153.075 447.252 153.068L476.252 153.068C483.428 153.077 489.243 158.892 489.252 166.068L489.252 379.568ZM503.252 250.08 541.124 250.08 541.124 295.556 503.252 295.556ZM724.876 358.992C724.88 365.372 722.925 371.599 719.276 376.832L689.356 419.952C688.542 421.127 688.106 422.523 688.108 423.952L688.108 566.94 591.876 566.94 591.876 423.944C591.876 422.76 591.576 421.596 591.004 420.56L562.772 369.42C557.762 360.33 555.131 350.12 555.124 339.74L555.124 330.848C565.097 335.908 577.211 333.791 584.876 325.648 594.446 335.796 610.43 336.264 620.578 326.694 620.937 326.356 621.286 326.007 621.624 325.648 631.196 335.797 647.183 336.264 657.332 326.692 657.69 326.354 658.038 326.006 658.376 325.648 667.994 335.814 684.032 336.259 694.198 326.642 699.266 321.847 702.133 315.176 702.124 308.2L702.124 279.832C702.124 275.966 698.99 272.832 695.124 272.832L640.8 272.832C634.748 272.995 629.538 268.59 628.692 262.596 628.656 262.24 628.64 261.884 628.636 261.532L628.636 261.38C628.68 255.133 633.752 250.089 640 250.08L693.576 250.08 694.832 250.156 694.912 250.156C711.646 250.877 724.849 264.639 724.876 281.388L724.876 358.988ZM665.376 286.832 688.124 286.832 688.124 308.2C688.242 314.482 683.245 319.669 676.963 319.787 670.682 319.905 665.494 314.908 665.376 308.627 665.373 308.484 665.373 308.342 665.376 308.2ZM738.876 295.556 738.876 281.38C738.884 269.713 734.376 258.496 726.296 250.08L776.752 250.08 776.752 295.556ZM845.748 379.556C845.739 386.732 839.924 392.547 832.748 392.556L803.748 392.556C796.572 392.547 790.757 386.732 790.748 379.556L790.748 166.068C790.757 158.892 796.572 153.077 803.748 153.068L832.748 153.068C839.924 153.077 845.739 158.892 845.748 166.068L845.748 379.568ZM882 331.944C881.991 339.12 876.176 344.935 869 344.944L859.748 344.944 859.748 200.692 869 200.692C876.176 200.701 881.991 206.516 882 213.692Z" fill="#FFFFFF"/></g></svg>