<svg width="512" height="512" xmlns="http://www.w3.org/2000/svg" xmlns:xlink="http://www.w3.org/1999/xlink" overflow="hidden"><defs><clipPath id="clip0"><rect x="384" y="104" width="512" height="512"/></clipPath></defs><g clip-path="url(#clip0)" transform="translate(-384 -104)"><path d="M472 496C446.666 496.012 422.2 486.765 403.207 470L413.794 458C429.864 472.186 450.564 480.01 472 480 476.917 480.001 481.826 479.594 486.676 478.783L489.324 494.562C483.599 495.52 477.805 496.001 472 496ZM403.6 315.709 414.676 327.256C416.364 325.636 418.138 324.063 419.948 322.583 429.722 314.545 441.127 308.729 453.373 305.536L449.329 290.056C434.853 293.827 421.371 300.7 409.816 310.2 407.682 311.945 405.591 313.8 403.6 315.709ZM478.925 302.745 479.525 286.757C474.783 286.579 470.034 286.725 465.311 287.194L466.891 303.116C470.889 302.723 474.91 302.599 478.925 302.745ZM500.884 439.957 497.008 428.322 484.686 416 444.944 416 440 425.889 440 437.917C458.105 450.579 481.972 451.379 500.884 439.957ZM427.056 416 431.966 406.178 431.643 388.043 417.612 378.689C414.541 391.192 415.884 404.373 421.414 416ZM456 356.2 456 338.341C442.473 342.407 430.971 351.414 423.78 363.572L436.547 372.083ZM447.568 383.737 447.858 400 480 400 480 380.281 464.48 369.935ZM524.83 410.542C530.475 394.511 528.511 376.782 519.494 362.376L496 380 496 404.686 506.454 415.141ZM509.145 350.142C498.921 341.026 485.698 335.992 472 336L472 355.719 487.728 366.2ZM632 208 638.311 208C672.906 208.034 706.794 198.203 736 179.66L736 146.048C732.216 139.789 725.425 135.974 718.111 136L688 136C673.835 135.993 660.198 141.374 649.856 151.052 667.396 149.115 676.356 144.878 676.466 144.823L683.578 159.155C682.896 159.497 667.378 167.075 637.451 167.92 635.192 172.647 633.613 177.67 632.761 182.84 662.697 178.652 682.661 171.659 694.472 166.278 708.517 159.878 714.336 154.349 714.394 154.294L725.657 165.657C724.63 166.683 700.483 190.119 632 199.089ZM752 152.8 752 184C751.986 199.671 762.016 213.588 776.888 218.529L784 220.9 784 192C783.976 172.999 770.612 156.627 752 152.8ZM803.32 267.3C809.557 261.058 809.554 250.941 803.311 244.704 802.323 243.716 801.21 242.863 800 242.165L800 268C800 268.626 802.3 268.322 803.32 267.307ZM578.343 173.656 576.663 171.977C571.396 166.701 563.001 166.236 557.183 170.898L515.521 204.228C503.427 213.754 496.259 228.215 496 243.608 495.787 262.8 506.582 280.419 523.778 288.945L557.493 306.215 576.81 268.063 532.59 247.237C529.443 245.755 527.614 242.41 528.065 238.961 528.386 236.755 529.584 234.771 531.388 233.461L563.2 209.6C564.585 208.561 566.269 208 568 208L572.464 211.422C574.29 212.833 576.914 212.497 578.325 210.671 579.559 209.074 579.475 206.823 578.125 205.322 577.502 204.654 576.99 203.89 576.609 203.059 575.371 200.07 576.055 196.629 578.343 194.341 584.044 188.625 584.044 179.372 578.343 173.656ZM648 223.758C679.592 222.248 710.359 213.179 737.72 197.314 742.202 214.435 755.034 228.13 771.828 233.714L784 237.766 784 268C784 305.555 753.555 336 716 336 678.445 336 648 305.555 648 268ZM728 248C728 256.837 735.163 264 744 264 752.837 264 760 256.837 760 248 760 239.163 752.837 232 744 232 735.168 232.01 728.01 239.168 728 248ZM692.363 274.2 683.637 287.61C700.884 298.822 723.116 298.822 740.363 287.61L731.637 274.2C719.696 281.962 704.304 281.962 692.363 274.2ZM664 248C664 256.837 671.163 264 680 264 688.837 264 696 256.837 696 248 696 239.163 688.837 232 680 232 671.168 232.01 664.01 239.168 664 248ZM628.68 244.693C622.44 250.934 622.44 261.052 628.681 267.292 629.684 268.295 630.816 269.16 632.047 269.864 632.034 269.242 632 268.625 632 268L632 242.161C630.789 242.858 629.673 243.709 628.68 244.693ZM628.691 291.666 591.346 274.776 571.565 313.844 605.032 333.069ZM760 559.015 765.209 579.851C765.941 582.786 768.914 584.571 771.849 583.839 774.289 583.23 776.001 581.037 776 578.522L776 528 760 528ZM779.546 398.083 762.53 392.41C758.753 391.151 754.625 392.861 752.845 396.422L716.197 469.722 579.369 412.106 640.147 304.056C660.005 345.922 710.042 363.763 751.908 343.905 753.686 343.061 755.433 342.156 757.147 341.19L797.364 356.509ZM727.859 382.046 725.775 366.183C703.494 369.149 680.93 363.37 662.818 350.057L653.364 362.965C671.016 375.943 692.354 382.941 714.264 382.938 718.81 382.937 723.352 382.639 727.859 382.046ZM836.221 375.055 812.011 362.95 794.583 403.616 826.971 416.572C831.073 418.213 833.069 422.868 831.428 426.971 830.883 428.333 829.974 429.52 828.8 430.4L796.8 454.4C794.376 456.218 791.132 456.51 788.422 455.155L781.722 451.805C781.393 451.637 781.029 451.549 780.659 451.548 780.398 451.548 780.14 451.591 779.893 451.675 779.288 451.871 778.787 452.304 778.507 452.875 778.045 453.797 778.226 454.912 778.956 455.64L781.656 458.34C784.779 461.464 784.779 466.528 781.656 469.652 775.953 475.369 775.953 484.623 781.656 490.34L783.336 492.019C788.604 497.295 796.998 497.76 802.816 493.098L845.139 459.239C866.811 441.901 870.324 410.277 852.986 388.605 848.444 382.927 842.724 378.303 836.22 375.051ZM546.265 467.774 583.226 489.131 588.333 492.082 601.709 475.058C604.056 472.071 608.18 471.146 611.578 472.845L627.578 480.845C629.126 481.619 630.381 482.874 631.155 484.422L644.944 512 698.583 512 709.654 484.324 571.29 426.065ZM460.017 545.854C459.21 547.46 459.816 549.417 461.389 550.286L517.436 581.424 525.275 569.665 493.194 544 463.017 544C461.745 543.996 460.582 544.715 460.017 545.854ZM578.131 504.666 538.031 481.496 506.456 534.121 534.856 556.843ZM654.5 533.307C661.365 549.157 677.641 558.797 694.839 557.2L744 552.7 744 528 652.2 528Z" fill="#FFFFFF"/></g></svg>