<svg width="512" height="512" xmlns="http://www.w3.org/2000/svg" xmlns:xlink="http://www.w3.org/1999/xlink" overflow="hidden"><defs><clipPath id="clip0"><rect x="384" y="104" width="512" height="512"/></clipPath></defs><g clip-path="url(#clip0)" transform="translate(-384 -104)"><path d="M876.116 553.14 839.538 531.193 826.969 411.78C824.823 391.259 809.79 374.41 789.645 369.948L680 345.583 680 315.314 685.172 310.143C699.609 295.704 699.609 272.296 685.172 257.857L665.825 238.511C674.814 230.925 680.001 219.762 680 208L680 176C680.013 153.922 662.126 136.013 640.047 136 627.749 135.993 616.131 141.647 608.549 151.33L599.677 146.894C586.133 140.123 569.664 145.614 562.894 159.158 560.991 162.964 560 167.161 560 171.416L560 190.059C560.054 209.68 552.255 228.507 538.343 242.343 535.219 245.468 535.219 250.533 538.344 253.657 539.844 255.157 541.879 256 544 256L568 256C584.682 255.991 600.164 247.322 608.891 233.105 610.969 235.677 613.355 237.984 615.996 239.975 613.019 242.203 610.374 244.842 608.14 247.813L581.6 283.2C563.467 307.378 563.467 340.622 581.6 364.8L584 368 584 398.7 554.234 488 408 488C403.582 488 400 491.582 400 496L400 576C400 580.418 403.582 584 408 584L424 584C426.81 584 429.414 582.526 430.86 580.116L452.235 544.49 573.198 557.223C592.132 559.214 610.453 549.829 619.899 533.301L668.643 448 761.441 448 784 560.792 784 576C784 580.418 787.582 584 792 584L872 584C876.418 584 880 580.418 880 576L880 560C880 557.19 878.526 554.586 876.116 553.14ZM680 284C680.015 289.565 677.803 294.904 673.857 298.828L666.343 306.343C664.843 307.843 664 309.878 664 312L664 344 640.945 344 633.31 328.73 665.996 282.97 665.996 282.969C669.325 278.32 671.348 272.864 671.855 267.169L673.857 269.172C677.803 273.096 680.015 278.435 680 284ZM640 152C650.166 152.013 659.224 158.419 662.624 168L640 168C637.878 168 635.843 168.843 634.343 170.343L620.687 184 616 184 616 176C616.015 162.751 626.751 152.015 640 152ZM568 240 560.894 240C570.788 225.228 576.048 207.838 576 190.059L576 171.416C576 165.111 581.112 160 587.417 160 589.189 160 590.936 160.413 592.521 161.205L601.371 165.63C600.461 169.011 600 172.498 600 176L600 208C599.98 225.665 585.665 239.98 568 240ZM616 200 624 200C626.122 200 628.157 199.157 629.657 197.657L643.313 184 664 184 664 208C664 221.255 653.255 232 640 232 626.745 232 616 221.255 616 208ZM594.4 292.8 620.94 257.413C625.396 251.501 632.364 248.017 639.767 248 648.732 248 656 255.268 656 264.234 656 267.617 654.943 270.916 652.977 273.669L617.49 323.35C615.768 325.761 615.519 328.927 616.845 331.578L640.845 379.578C641.794 381.476 643.457 382.919 645.47 383.59L667.679 390.992 670.266 393.58 667.056 400 628 400 594.4 355.2C580.533 336.711 580.533 311.289 594.4 292.8ZM617.6 412.8C619.111 414.814 621.482 416 624 416L672 416C675.03 416 677.8 414.288 679.155 411.578L687.155 395.578C688.695 392.498 688.092 388.778 685.657 386.343L677.657 378.343C676.779 377.465 675.708 376.804 674.53 376.41L653.674 369.458 648.945 360 671.122 360 728 372.64 728 432 632 432C614.335 431.98 600.02 417.665 600 400L600 389.334ZM419.471 568 416 568 416 504 433.441 504 439.549 534.536ZM606.007 525.363C599.708 536.38 587.495 542.636 574.874 541.311L454.691 528.66 449.759 504 560 504C563.443 504 566.501 501.797 567.59 498.53L574.959 476.424 620.858 499.374ZM628.809 485.46 580.07 461.091 591.738 426.085C600.577 439.742 615.733 447.991 632 448L650.214 448ZM775.845 438.431C775.097 434.691 771.813 432 768 432L744 432 744 376.195 786.174 385.567C799.604 388.542 809.626 399.775 811.057 413.456L823.51 531.764 797.618 547.299ZM864 568 800 568 800 564.53 832 545.33 864 564.529Z" fill="#FFFFFF"/></g></svg>