<svg width="508" height="508" xmlns="http://www.w3.org/2000/svg" xmlns:xlink="http://www.w3.org/1999/xlink" overflow="hidden"><defs><clipPath id="clip0"><rect x="386" y="106" width="508" height="508"/></clipPath></defs><g clip-path="url(#clip0)" transform="translate(-386 -106)"><path d="M806.984 244.945C797.288 235.249 791.89 222.354 791.89 208.56 791.89 171.274 761.502 140.886 724.217 140.886 710.522 140.886 697.527 135.488 687.831 125.792 661.442 99.4026 618.558 99.4026 592.169 125.792 582.473 135.488 569.578 140.886 555.783 140.886 518.498 140.886 488.11 171.274 488.11 208.56 488.11 222.254 482.812 235.249 473.016 244.945 460.221 257.74 453.224 274.734 453.224 292.826 453.224 310.919 460.221 327.913 473.016 340.708 482.712 350.404 488.11 363.299 488.11 377.093 488.11 407.781 508.602 433.671 536.591 441.968L497.306 588.71 556.583 555.723 591.369 614 627.655 478.553C631.753 479.253 635.852 479.653 639.95 479.653 644.048 479.653 648.147 479.253 652.245 478.553L688.631 613.9 723.417 555.623 782.694 588.61 743.409 441.868C771.398 433.571 791.89 407.681 791.89 376.993 791.89 363.299 797.288 350.304 806.984 340.608 833.374 314.318 833.374 271.335 806.984 244.945ZM585.771 572.616 562.58 533.832 523.096 555.823 552.884 444.667C553.984 444.767 554.983 444.767 555.983 444.767 569.678 444.767 582.673 450.164 592.369 459.861 593.968 461.46 595.568 462.859 597.267 464.259 597.767 464.659 598.266 465.059 598.766 465.458 599.966 466.358 601.165 467.258 602.465 468.157 603.164 468.657 603.964 469.057 604.664 469.557 605.763 470.157 606.763 470.856 607.863 471.456 608.762 471.956 609.762 472.456 610.662 472.856 611.061 473.055 611.661 473.355 612.261 473.555L585.771 572.616ZM757.204 555.823 717.719 533.832 694.529 572.616 668.039 473.555C668.639 473.255 669.139 472.956 669.738 472.756 670.738 472.256 671.638 471.856 672.637 471.256 673.737 470.656 674.736 470.057 675.736 469.457 676.536 468.957 677.235 468.557 678.035 468.057 679.235 467.258 680.334 466.358 681.534 465.458 682.133 465.059 682.733 464.659 683.233 464.159 684.932 462.76 686.532 461.36 688.131 459.761 697.827 450.065 710.722 444.667 724.517 444.667 725.316 444.767 726.316 444.667 727.416 444.667L757.204 555.823ZM795.489 329.212C782.694 342.007 775.697 359 775.697 377.093 775.697 401.884 758.104 422.575 734.713 427.473L732.114 427.873C730.714 428.073 729.515 428.273 728.215 428.373 726.916 428.473 725.516 428.573 724.217 428.573 717.419 428.573 710.822 429.573 704.525 431.472 694.029 434.671 684.333 440.368 676.436 448.365 675.036 449.765 673.637 450.964 672.137 452.164 671.638 452.564 671.138 452.863 670.638 453.263 669.638 454.063 668.539 454.763 667.439 455.462 666.939 455.762 666.34 456.162 665.74 456.462 664.54 457.162 663.341 457.762 662.141 458.361 661.641 458.561 661.242 458.761 660.742 459.061 659.242 459.761 657.643 460.36 656.144 460.86 655.844 460.96 655.444 461.16 655.144 461.26L654.544 461.46C645.148 464.159 635.052 464.159 625.656 461.46L624.856 461.26C624.556 461.16 624.356 461.06 624.056 460.96 622.457 460.46 620.858 459.761 619.258 459.161 618.858 458.961 618.359 458.761 617.959 458.561 616.659 457.961 615.46 457.262 614.26 456.562 613.76 456.262 613.26 455.962 612.761 455.662 611.561 454.963 610.462 454.163 609.362 453.363 608.962 453.063 608.462 452.763 608.063 452.364 606.563 451.164 605.164 449.865 603.764 448.565 595.767 440.568 586.171 434.871 575.675 431.672 569.378 429.773 562.78 428.773 555.983 428.773 554.584 428.773 553.284 428.673 551.985 428.573 550.785 428.473 549.486 428.273 548.086 428.073L545.487 427.673C522.096 422.775 504.503 402.083 504.503 377.293 504.503 359.2 497.506 342.207 484.711 329.412 475.015 319.716 469.617 306.821 469.617 293.026 469.617 279.332 475.015 266.337 484.711 256.641 497.506 243.846 504.503 226.852 504.503 208.76 504.503 180.371 527.594 157.38 555.883 157.38 573.976 157.38 590.969 150.383 603.764 137.588 613.76 127.591 626.955 122.593 640.15 122.593 653.345 122.593 666.54 127.591 676.536 137.588 689.331 150.383 706.324 157.38 724.417 157.38 752.806 157.38 775.797 180.471 775.797 208.76 775.797 226.852 782.794 243.846 795.589 256.641 815.581 276.533 815.581 309.12 795.489 329.212Z" fill="#FFFFFF"/><path d="M640.05 171.074C572.876 171.074 518.198 225.753 518.198 292.926 518.198 360.1 572.876 414.678 640.05 414.678 707.224 414.678 761.902 360 761.902 292.826 761.902 225.653 707.224 171.074 640.05 171.074ZM640.05 398.385C581.873 398.385 534.492 351.004 534.492 292.826 534.492 234.649 581.873 187.268 640.05 187.268 698.227 187.268 745.608 234.649 745.608 292.826 745.608 351.004 698.227 398.385 640.05 398.385Z" fill="#FFFFFF"/><path d="M640.05 209.759 621.957 265.537 563.28 265.537 610.761 300.024 592.669 355.802 640.15 321.315 687.631 355.802 669.438 300.024 716.92 265.537 658.243 265.537 640.05 209.759ZM656.643 313.318 640.05 301.223 623.457 313.318 629.754 293.826 613.161 281.731 633.652 281.731 639.95 262.238 646.248 281.731 666.74 281.731 650.146 293.826 656.643 313.318Z" fill="#FFFFFF"/></g></svg>