<svg width="512" height="512" xmlns="http://www.w3.org/2000/svg" xmlns:xlink="http://www.w3.org/1999/xlink" overflow="hidden"><defs><clipPath id="clip0"><rect x="384" y="104" width="512" height="512"/></clipPath></defs><g clip-path="url(#clip0)" transform="translate(-384 -104)"><path d="M825.063 296.043 821.334 296.001C769.335 296.001 722.551 325.068 698.76 370.586 683.794 363.836 667.566 360 650.67 360 622.758 360 596.508 369.951 575.727 387.284 575.326 368.96 572.939 350.712 570.61 334.5 568.615 320.639 566.701 307.19 566.576 295.992L620.505 296.001C629.047 296.001 637.088 292.668 643.129 286.626L685.796 243.96C697.99 231.765 698.074 212.205 686.434 199.671 690.5 193.577 692.437 186.279 691.692 178.826 690.744 169.253 685.609 160.691 677.598 155.357L651.702 138.097C639.193 129.754 624.62 125.338 609.568 125.338 578.194 125.338 548.704 137.556 526.518 159.743 485.652 200.606 453.497 247.397 430.914 298.824 403.707 360.78 389.915 406.489 389.915 434.665 389.915 450.811 388.519 463.925 385.759 473.655 379.863 494.435 389.144 516.602 408.322 527.56 485.143 571.455 572.517 594.662 660.994 594.662L676.421 594.662C731.264 594.662 785.45 585.87 837.481 568.528L844.95 566.028C875.48 555.861 896.001 527.394 896.001 495.206L896.001 370.76C896 330.594 864.178 297.074 825.063 296.043ZM874.666 495.206C874.666 518.196 860.011 538.528 838.188 545.799L830.719 548.299C780.887 564.903 728.971 573.33 676.42 573.33L660.993 573.33C576.224 573.33 492.506 551.101 418.903 509.039 408.258 502.956 403.071 490.799 406.279 479.476 409.581 467.862 411.248 452.779 411.248 434.664 411.248 409.811 424.799 365.811 450.455 307.406 471.954 258.407 502.621 213.804 541.599 174.826 559.755 156.67 583.891 146.67 609.567 146.67 620.39 146.67 630.869 149.847 639.869 155.847L665.764 173.107C668.441 174.888 670.149 177.742 670.462 180.93 670.785 184.128 669.66 187.253 667.399 189.523L633.327 223.596C629.681 227.242 624.129 228.138 619.525 225.836 616.046 224.096 613.692 220.898 613.067 217.055 612.442 213.212 613.661 209.43 616.411 206.68L626.213 196.878C630.38 192.711 630.38 185.962 626.213 181.796 622.046 177.629 615.296 177.629 611.13 181.796L601.328 191.597C593.672 199.253 590.265 209.785 592.005 220.482 593.745 231.17 600.297 240.076 609.984 244.92 622.797 251.315 638.265 248.836 648.41 238.68L671.742 215.348C674.625 219.502 674.41 225.18 670.712 228.878L628.046 271.544C626.056 273.534 623.306 274.669 620.504 274.669L570.698 274.661C571.367 273.554 572.009 272.415 572.88 271.544 577.047 267.377 577.047 260.627 572.88 256.461 568.713 252.294 561.963 252.294 557.797 256.461 540.349 273.909 544.589 303.398 549.495 337.543 552.037 355.272 554.672 373.605 554.672 392 554.672 435.937 521.423 445.291 520.006 445.666 514.339 447.135 510.902 452.895 512.329 458.583 513.537 463.437 517.881 466.666 522.662 466.666 523.516 466.666 524.391 466.562 525.255 466.343 538.027 463.152 558.958 450.895 569.479 425.754 569.624 425.56 569.86 425.487 569.995 425.28 587.786 397.76 617.942 381.333 650.67 381.333 676.149 381.333 700.148 391.208 718.242 409.146 722.43 413.292 729.19 413.271 733.325 409.083 737.471 404.895 737.45 398.145 733.262 394 728.327 389.107 722.917 384.888 717.323 381.001 737.372 342.166 777.125 317.334 821.333 317.334L824.489 317.376C852.156 318.105 874.665 342.053 874.665 370.76L874.665 495.206Z" fill="#FFFFFF"/></g></svg>