<svg width="512" height="512" xmlns="http://www.w3.org/2000/svg" xmlns:xlink="http://www.w3.org/1999/xlink" overflow="hidden"><defs><clipPath id="clip0"><rect x="384" y="104" width="512" height="512"/></clipPath></defs><g clip-path="url(#clip0)" transform="translate(-384 -104)"><path d="M505 172.5 429 172.5C420.709 172.5 414 179.209 414 187.5 414 195.791 420.709 202.5 429 202.5L505 202.5C513.291 202.5 520 195.791 520 187.5 520 179.209 513.291 172.5 505 172.5Z" fill="#FFFFFF"/><path d="M505 292.5 429 292.5C420.709 292.5 414 299.209 414 307.5 414 315.791 420.709 322.5 429 322.5L505 322.5C513.291 322.5 520 315.791 520 307.5 520 299.209 513.291 292.5 505 292.5Z" fill="#FFFFFF"/><path d="M475 232.5 399 232.5C390.709 232.5 384 239.209 384 247.5 384 255.791 390.709 262.5 399 262.5L475 262.5C483.291 262.5 490 255.791 490 247.5 490 239.209 483.291 232.5 475 232.5Z" fill="#FFFFFF"/><path d="M866 307.5 775 307.5 775 247.5C775 221.154 742.771 207.282 723.78 226.298L603.789 346.289C592.07 358.008 592.07 376.992 603.789 388.711L672.578 457.5 588.789 541.289C577.07 553.008 577.07 571.992 588.789 583.711 600.507 595.429 619.492 595.43 631.211 583.711L736.211 478.711C747.93 466.992 747.93 448.008 736.211 436.289L667.422 367.5 715 319.922 715 337.5C715 354.067 728.433 367.5 745 367.5L866 367.5C882.567 367.5 896 354.067 896 337.5 896 320.933 882.567 307.5 866 307.5Z" fill="#FFFFFF"/><path d="M664.14 155.04C652.216 147.115 636.396 148.683 626.288 158.79L543.788 241.29C532.069 253.009 532.069 271.993 543.788 283.712 555.507 295.431 574.492 295.43 586.211 283.711L651.323 218.599 673.257 234.399 702.563 205.093C707.465 200.191 713.247 196.386 719.57 193.415L664.14 155.04Z" fill="#FFFFFF"/><path d="M582.578 409.922C574.977 402.321 569.903 392.966 567.228 382.85L408.789 541.289C397.07 553.008 397.07 571.992 408.789 583.711 420.507 595.429 439.492 595.43 451.211 583.711L603.789 431.133 582.578 409.922Z" fill="#FFFFFF"/><path d="M835 172.5C835 197.353 814.853 217.5 790 217.5 765.147 217.5 745 197.353 745 172.5 745 147.647 765.147 127.5 790 127.5 814.853 127.5 835 147.647 835 172.5Z" fill="#FFFFFF"/></g></svg>