<svg width="720" height="720" xmlns="http://www.w3.org/2000/svg" xmlns:xlink="http://www.w3.org/1999/xlink" overflow="hidden"><defs><clipPath id="clip0"><rect x="280" y="0" width="720" height="720"/></clipPath></defs><g clip-path="url(#clip0)" transform="translate(-280 0)"><path d="M894.469 105.417C861.422 72.3705 822.93 46.4321 780.052 28.2827 735.662 9.52841 688.55 0 639.924 0 591.375 0.0756223 544.262 9.52841 499.872 28.3584 456.994 46.5077 418.502 72.4462 385.455 105.493 352.408 138.54 326.47 177.032 308.321 219.91 289.566 264.3 280.038 311.413 280.038 360.038 280.038 408.588 289.566 455.776 308.321 500.167 326.47 543.044 352.408 581.536 385.455 614.583 418.502 647.63 456.994 673.568 499.872 691.717 544.262 710.472 591.375 720 640 720 688.55 720 735.739 710.472 780.128 691.717 823.006 673.568 861.498 647.63 894.545 614.583 927.592 581.536 953.531 543.044 971.68 500.167 990.435 455.776 999.962 408.664 999.962 360.038 999.962 311.488 990.434 264.3 971.68 219.91 953.454 176.956 927.516 138.54 894.469 105.417ZM440.735 81.294C443.987 78.7984 447.163 76.1517 450.49 73.8074 467.959 61.5566 487.319 51.65 506.98 43.4072 548.875 25.8628 594.4 16.6369 639.924 16.6369 670.249 16.6369 701.33 20.7205 730.595 28.7365 719.025 33.4251 704.883 42.3485 681.139 62.6153 661.4 60.4978 641.437 60.4222 621.397 62.3128 595.231 64.8083 568.915 70.6312 543.203 79.7059 519.987 87.8731 501.611 97.1747 489.209 104.283 470.228 97.4771 445.726 89.4612 433.627 85.5288 435.517 86.1338 439.45 82.2771 440.735 81.294ZM768.634 171.285 707.077 339.317 559.387 367.676 437.332 241.613C445.575 184.443 484.747 133.776 484.747 133.776 484.974 133.625 510.535 115.173 551.522 100.88 575.419 92.4861 599.769 87.1169 624.044 84.8482 643.857 83.0333 663.594 83.3358 683.105 85.6801L768.634 171.285ZM309.757 348.014C305.976 372.44 305.144 397.773 307.111 423.258 304.161 417.36 301.817 412.37 300.078 408.361 297.809 392.556 296.675 376.372 296.675 359.887 296.675 309.22 307.64 261.049 327.377 217.717 325.184 240.404 326.243 263.923 327.831 281.77 319.361 303.019 313.312 325.176 309.757 348.014ZM339.628 478.917C336.15 466.137 332.066 447.534 330.024 425.225 327.755 400.042 328.436 375.012 332.217 351.039 335.091 332.663 339.704 314.816 346.056 297.649 370.936 276.626 403.907 264.3 422.132 258.628L541.918 382.346 529.365 517.937 412.301 557.034C382.506 535.103 358.156 506.064 339.628 478.917ZM695.356 675.232C669.266 692.322 603.323 696.406 576.553 697.388 547.06 691.869 518.399 682.416 491.401 669.408 467.807 658.065 445.423 643.999 425.005 627.515 425.383 626.834 421.829 590.761 421.98 577.604L540.253 538.128 676.752 597.189 695.581 675.005C695.431 675.157 695.356 675.232 695.356 675.232ZM922.147 555.521C901.804 584.863 877.454 612.163 848.188 632.883 820.737 652.242 783.986 658.897 751.316 664.266 748.82 664.644 717.589 669.786 717.362 668.728L698.532 590.837 794.648 490.789 921.92 479.067C923.887 499.335 926.457 528.902 927.97 546.977 926.004 549.85 924.113 552.723 922.147 555.521ZM924.113 453.734C923.659 454.49 923.206 455.322 922.752 456.23L796.009 467.874 727.797 348.543 789.505 180.132 876.622 185.653C895.15 201.155 911.56 218.397 925.474 237 942.867 260.368 956.404 286.004 965.63 313.152 955.95 397.245 933.641 439.138 924.113 453.734ZM969.562 264.527C962.076 250.083 953.303 236.168 943.397 222.935 927.743 201.987 909.14 182.704 888.041 165.537 884.184 146.405 873.597 116.307 845.163 84.697 845.693 85.0751 846.222 85.5288 846.752 85.9069 848.491 87.1925 850.155 88.5537 851.894 89.8393 871.481 105.266 889.328 122.735 905.133 141.943 934.474 177.712 956.631 219.229 969.638 263.771 969.562 264.073 969.562 264.3 969.562 264.527Z" fill="#FFFFFF"/></g></svg>