<svg width="683" height="683" xmlns="http://www.w3.org/2000/svg" xmlns:xlink="http://www.w3.org/1999/xlink" overflow="hidden"><defs><clipPath id="clip0"><rect x="298" y="18" width="683" height="683"/></clipPath></defs><g clip-path="url(#clip0)" transform="translate(-298 -18)"><path d="M865.463 433.176C861.784 426.804 853.635 424.62 847.262 428.299L832.89 436.6 809.712 396.455 824.084 388.16C830.462 384.481 832.645 376.326 828.961 369.953 825.282 363.58 817.133 361.397 810.76 365.076L796.388 373.377 773.21 333.232 787.582 324.936C793.96 321.257 796.143 313.102 792.464 306.73 788.78 300.357 780.63 298.173 774.258 301.852L759.886 310.153 736.708 270.009 751.08 261.713C757.458 258.034 759.641 249.879 755.962 243.506 752.278 237.133 744.128 234.95 737.755 238.629L723.384 246.93 705.266 215.55C701.587 209.177 693.437 206.994 687.064 210.672 680.691 214.351 678.503 222.506 682.187 228.879L700.3 260.254 685.928 268.555C679.555 272.234 677.367 280.383 681.051 286.756 683.521 291.034 687.997 293.421 692.603 293.421 694.865 293.421 697.158 292.848 699.252 291.634L713.629 283.338 736.802 323.477 722.43 331.778C716.057 335.457 713.869 343.607 717.553 349.98 720.018 354.258 724.499 356.644 729.105 356.644 731.367 356.644 733.66 356.071 735.754 354.857L750.131 346.561 773.304 386.701 758.932 395.002C752.559 398.681 750.371 406.83 754.055 413.203 756.52 417.481 761.001 419.868 765.608 419.868 767.869 419.868 770.162 419.295 772.257 418.081L786.633 409.785 809.806 449.924 795.435 458.225C789.062 461.904 786.873 470.054 790.557 476.427 793.022 480.705 797.503 483.091 802.11 483.091 804.371 483.091 806.664 482.518 808.759 481.304L823.135 473.008 841.248 504.383C843.718 508.661 848.195 511.048 852.801 511.048 855.062 511.048 857.355 510.474 859.455 509.26 865.828 505.581 868.011 497.432 864.333 491.059L846.214 459.679 860.586 451.383C866.959 447.704 869.147 439.549 865.463 433.176Z" fill="#FFFFFF"/><path d="M961.192 323.191C958.712 316.26 951.088 312.654 944.153 315.129 937.227 317.61 933.616 325.239 936.097 332.169 965.84 415.329 958.988 505.071 917.291 578.377 911.835 587.97 901.616 593.911 890.585 593.911 890.517 593.911 890.449 593.911 890.382 593.911 787.055 593.244 689.055 534.267 634.632 440.003 589.188 361.293 580.252 268.576 608.281 187.833 608.323 187.713 608.375 187.604 608.417 187.484 608.432 187.432 608.443 187.385 608.453 187.333 613.966 171.554 620.881 156.229 629.224 141.561 634.679 131.968 644.898 126.027 655.929 126.027L656.127 126.027C740.475 126.569 821.63 165.515 878.777 232.876 883.54 238.488 891.945 239.181 897.562 234.418 903.174 229.656 903.862 221.245 899.099 215.633 836.918 142.342 748.422 99.9676 656.299 99.3736 635.56 99.2277 616.311 110.358 606.056 128.388 598.943 140.883 592.784 153.817 587.552 167.078 568.392 162.024 548.611 159.46 528.581 159.46 505.293 159.46 482.814 162.941 461.606 169.392 460.923 169.543 460.251 169.741 459.605 170.002 411.467 185.124 370.087 215.649 341.25 255.767 340.354 256.716 339.593 257.789 338.999 258.967 314.034 294.974 299.053 338.391 298.089 385.2 297.984 386.101 297.974 387.008 298.052 387.904 298.047 388.608 298.026 389.306 298.026 390.01 298.026 441.113 314.748 488.375 342.991 526.639 343.632 527.832 344.455 528.926 345.429 529.88 372.646 565.423 409.945 592.853 453.029 607.834 453.685 608.121 454.362 608.366 455.056 608.543 478.155 616.333 502.881 620.564 528.581 620.564 553.885 620.564 578.694 616.417 602.132 608.527 602.836 608.345 603.518 608.1 604.185 607.808 638.165 596.011 669.206 576.329 694.609 549.968 750.486 594.484 819.16 620.106 890.21 620.564L890.58 620.564C911.178 620.564 930.266 609.47 940.458 591.55 985.996 511.485 993.557 413.672 961.192 323.191ZM528.581 457.714 464.378 411.067 488.9 335.593 569.773 335.593C573.874 361.553 581.054 387.274 591.299 412.145ZM438.125 405.601 384.229 423.25 324.925 380.161C326.717 342.674 338.686 307.808 358.113 278.268L430.669 278.268 464.44 324.613ZM326.097 413.959 365.887 442.869 350.708 489.589C337.858 466.729 329.291 441.154 326.097 413.959ZM578.834 192.356C567.678 229.89 563.629 269.451 566.657 308.939L485.998 308.939 452.408 262.844 475.018 193.263C492.094 188.61 510.051 186.108 528.581 186.108 545.641 186.108 562.488 188.214 578.834 192.356ZM443.222 204.862 428.032 251.614 378.987 251.614C397.033 232.12 418.83 216.149 443.222 204.862ZM369.644 517.577 392.004 448.747 446.385 430.946 515.251 480.981 515.251 537.811 456.28 580.654C422.055 567.627 392.218 545.648 369.644 517.577ZM488.77 589.992 528.581 561.072 568.371 589.982C555.375 592.566 542.061 593.906 528.581 593.906 514.96 593.911 501.651 592.556 488.77 589.992ZM600.876 580.654 541.905 537.811 541.905 480.981 602.638 436.855C605.452 442.405 608.417 447.897 611.548 453.327 628.791 483.19 650.088 509.787 674.396 532.506 653.485 553.897 628.359 570.227 600.876 580.654Z" fill="#FFFFFF"/><path d="M923.419 286.605C926.936 286.605 930.359 285.177 932.85 282.687 935.331 280.222 936.743 276.783 936.743 273.265 936.743 269.758 935.331 266.319 932.85 263.839 930.359 261.364 926.936 259.936 923.419 259.936 919.912 259.936 916.488 261.364 913.997 263.839 911.517 266.319 910.105 269.758 910.105 273.265 910.105 276.783 911.517 280.222 913.997 282.687 916.488 285.177 919.912 286.605 923.419 286.605Z" fill="#FFFFFF"/></g></svg>