<svg width="512" height="512" xmlns="http://www.w3.org/2000/svg" xmlns:xlink="http://www.w3.org/1999/xlink" overflow="hidden"><defs><clipPath id="clip0"><rect x="384" y="104" width="512" height="512"/></clipPath></defs><g clip-path="url(#clip0)" transform="translate(-384 -104)"><path d="M639.107 169.06C644.669 169.06 649.178 164.551 649.178 158.989L649.178 114.071C649.178 108.509 644.669 104 639.107 104 633.545 104 629.036 108.509 629.036 114.071L629.036 158.989C629.037 164.551 633.546 169.06 639.107 169.06Z" fill="#FFFFFF"/><path d="M885.28 449.985 867.489 432.244C861.16 425.923 852.725 422.441 843.737 422.441 837.99 422.441 832.473 423.871 827.584 426.55L794.058 393.064 795.691 391.433C809.292 377.805 809.287 355.66 795.69 342.078 790.831 337.21 784.768 333.964 778.159 332.598 779.069 329.457 779.548 326.167 779.548 322.8 779.548 313.445 775.914 304.673 769.336 298.122 764.476 293.254 758.414 290.008 751.805 288.642 752.715 285.501 753.194 282.212 753.194 278.844 753.194 269.488 749.56 260.717 742.971 254.156 737.995 249.186 731.878 246.04 725.455 244.701 728.891 232.854 725.955 219.525 716.635 210.189 708.877 202.464 698.35 199.144 688.205 200.22L621.77 187.645C611.638 185.723 598.985 184.452 590.998 191.737 590.494 192.197 589.98 192.726 589.474 193.315 577.09 188.801 562.646 191.489 552.729 201.395 546.15 207.966 542.526 216.734 542.526 226.084 542.526 229.452 543.003 232.741 543.912 235.883 537.31 237.248 531.255 240.49 526.412 245.342 519.82 251.907 516.185 260.665 516.178 270.004 516.175 273.38 516.654 276.68 517.568 279.83 510.963 281.192 504.904 284.428 500.046 289.28 493.454 295.865 489.824 304.638 489.824 313.983 489.824 321.141 491.961 327.96 495.921 333.72 490.921 335.415 486.341 338.236 482.506 342.067 468.896 355.66 468.891 377.806 482.515 391.454L484.142 393.074 450.612 426.543C438.151 420.676 422.798 422.874 412.515 433.144L394.713 450.896C388.381 457.22 384.895 465.656 384.894 474.649 384.894 483.643 388.381 492.08 394.713 498.405L416.93 520.595C420.865 524.526 427.242 524.522 431.172 520.587 435.103 516.652 435.099 510.275 431.164 506.345L408.947 484.155C406.425 481.636 405.036 478.26 405.036 474.65 405.036 471.041 406.425 467.666 408.941 465.153L426.744 447.4C431.192 442.957 438 442.295 443.17 445.386 443.534 445.933 443.955 446.453 444.437 446.936 445.3 447.801 446.285 448.464 447.331 448.949L549.424 550.892C549.909 551.949 550.575 552.944 551.444 553.814 552.29 554.661 553.255 555.316 554.279 555.798 556.438 558.239 557.631 561.357 557.631 564.683 557.631 568.293 556.242 571.668 553.72 574.187L535.935 591.951C530.68 597.183 522.132 597.182 516.893 591.967L494.676 569.748C490.743 565.815 484.367 565.815 480.434 569.748 476.501 573.681 476.501 580.057 480.434 583.99L502.667 606.225C509.211 612.742 517.805 615.999 526.403 615.999 535.003 615.999 543.607 612.737 550.159 606.214L567.955 588.439C574.287 582.114 577.774 573.678 577.774 564.683 577.774 558.264 575.989 552.134 572.67 546.848L610.406 509.158C610.446 509.117 610.486 509.076 610.527 509.035 614.848 504.568 626.881 505.404 638.518 506.212 646.786 506.787 656.004 507.426 665.01 506.388L706.334 547.663C703.657 552.544 702.228 558.054 702.228 563.792 702.228 572.777 705.715 581.208 712.047 587.533L729.844 605.308C736.172 611.629 744.607 615.111 753.595 615.111 762.582 615.111 771.017 611.63 777.346 605.308L885.287 497.498C891.619 491.174 895.106 482.738 895.106 473.744 895.105 464.751 891.618 456.315 885.28 449.985ZM618.02 207.435 661.707 215.704 635.558 241.843C631.513 239.899 625.969 236.273 619.887 230.455 611.562 222.491 605.607 213.296 605.065 207.561 605.064 207.558 605.064 207.555 605.064 207.552 605.064 207.551 605.063 207.55 605.063 207.549 605.024 207.137 605.014 206.808 605.019 206.557 606.336 206.237 609.834 205.882 618.02 207.435ZM566.962 215.646C572.064 210.549 579.99 209.961 585.755 213.865 589.022 227.563 600.707 239.978 605.964 245.008 609.86 248.736 622.361 259.913 634.979 262.985 636.686 265.432 637.615 268.349 637.615 271.427 637.615 275.392 636.09 279.099 633.311 281.875 630.54 284.651 626.827 286.179 622.855 286.179 618.882 286.179 615.169 284.651 612.385 281.862L612.384 281.861 612.379 281.856 566.961 236.52C564.192 233.755 562.667 230.048 562.667 226.084 562.668 222.119 564.193 218.412 566.962 215.646ZM540.646 259.593C543.417 256.818 547.126 255.289 551.092 255.289 555.063 255.289 558.784 256.821 561.573 259.607L598.145 296.106C603.904 301.874 603.904 311.26 598.165 317.008 595.379 319.783 591.653 321.311 587.674 321.311 583.695 321.311 579.969 319.783 577.195 317.02L577.194 317.019 549.449 289.28C549.406 289.237 549.359 289.197 549.315 289.153L540.635 280.477C537.85 277.695 536.317 273.981 536.32 270.019 536.324 266.07 537.852 262.375 540.646 259.593ZM514.28 303.531C517.053 300.762 520.77 299.237 524.748 299.237 528.693 299.237 532.378 300.74 535.139 303.461L562.969 331.278C565.744 334.042 567.273 337.745 567.273 341.705 567.273 345.664 565.744 349.367 562.958 352.142 560.186 354.91 556.473 356.435 552.502 356.435 548.525 356.435 544.8 354.906 542.024 352.142L531.935 342.065C531.933 342.062 531.93 342.06 531.928 342.058L514.281 324.432C511.499 321.653 509.967 317.941 509.967 313.981 509.967 310.022 511.499 306.309 514.28 303.531ZM496.74 356.317C499.525 353.535 503.247 352.003 507.22 352.003 511.192 352.003 514.913 353.534 517.697 356.314L527.8 366.405C530.576 369.169 532.104 372.872 532.104 376.832 532.104 380.792 530.575 384.494 527.779 387.28 525.008 390.055 521.295 391.584 517.323 391.584 513.35 391.584 509.637 390.056 506.846 387.26L505.581 386C505.564 385.983 505.551 385.965 505.535 385.949 505.516 385.931 505.496 385.915 505.477 385.897L496.75 377.204C490.991 371.433 490.986 362.064 496.74 356.317ZM701.974 470.775C698.043 466.839 691.666 466.836 687.732 470.766L678.772 479.715C670.258 488.229 654.831 487.157 639.912 486.122 623.711 484.996 606.958 483.834 596.117 494.964L559.022 532.014 466.259 439.387 499.087 406.618C504.513 409.944 510.774 411.727 517.325 411.727 526.684 411.727 535.46 408.099 542.015 401.532 548.614 394.96 552.249 386.189 552.249 376.833 552.249 376.746 552.243 376.66 552.243 376.573 552.33 376.574 552.417 376.579 552.504 376.579 561.85 376.579 570.619 372.962 577.183 366.406 583.782 359.834 587.417 351.062 587.417 341.707 587.417 341.62 587.411 341.534 587.411 341.447 587.499 341.447 587.587 341.453 587.676 341.453 597.019 341.453 605.793 337.84 612.401 331.259 619.261 324.388 622.654 315.342 622.589 306.315 622.679 306.316 622.769 306.321 622.859 306.321 632.218 306.32 640.993 302.693 647.558 296.116 654.137 289.545 657.761 280.777 657.761 271.427 657.761 264.888 655.983 258.637 652.668 253.222L681.441 224.461C683.585 222.326 686.229 220.986 689 220.433 689.3 220.401 689.596 220.353 689.889 220.295 694.335 219.682 699.004 221.054 702.404 224.44 708.163 230.209 708.163 239.595 702.425 245.343L693.662 254.07C693.633 254.099 693.602 254.125 693.573 254.154L683.48 264.23C679.544 268.16 679.54 274.537 683.471 278.472 687.403 282.408 693.779 282.411 697.713 278.481L706.511 269.695C706.513 269.693 706.515 269.691 706.517 269.689L707.847 268.364C713.622 262.642 722.978 262.654 728.747 268.415 731.523 271.179 733.052 274.882 733.052 278.842 733.052 282.801 731.523 286.504 728.725 289.29L719.912 298.121C719.911 298.122 719.91 298.123 719.909 298.125L709.817 308.176C705.876 312.101 705.863 318.478 709.788 322.418 713.713 326.359 720.089 326.371 724.03 322.447L734.168 312.35C736.939 309.574 740.652 308.046 744.624 308.046 748.597 308.046 752.311 309.574 755.102 312.37 757.878 315.135 759.406 318.838 759.406 322.798 759.406 326.757 757.878 330.46 755.086 333.24L737.516 350.817C733.584 354.751 733.585 361.127 737.518 365.059 739.485 367.025 742.061 368.007 744.638 368.007 747.216 368.007 749.794 367.023 751.76 365.056L760.371 356.442C760.42 356.395 760.473 356.354 760.522 356.305 763.293 353.529 767.006 352.001 770.978 352.001 774.951 352.001 778.664 353.529 781.445 356.315 787.198 362.062 787.193 371.432 781.445 377.19L772.69 385.935C772.687 385.938 772.683 385.941 772.68 385.944 772.677 385.947 772.674 385.951 772.671 385.954L758.775 399.833C754.84 403.764 754.836 410.141 758.766 414.076 760.733 416.045 763.313 417.03 765.892 417.03 768.467 417.03 771.043 416.048 773.009 414.085L779.806 407.296 812.383 439.835 719.628 532.477 686.394 499.283C688.711 497.793 690.928 496.041 693.009 493.96L701.964 485.016C705.901 481.087 705.905 474.71 701.974 470.775ZM871.052 483.247 763.111 591.057C760.586 593.579 757.206 594.968 753.594 594.968 749.982 594.968 746.602 593.579 744.076 591.056L726.279 573.281C723.757 570.763 722.368 567.393 722.368 563.792 722.368 560.192 723.757 556.822 726.279 554.303L834.22 446.493C836.746 443.97 840.125 442.581 843.738 442.581 847.35 442.581 850.73 443.97 853.262 446.499L871.053 464.24C873.575 466.759 874.964 470.133 874.964 473.743 874.963 477.354 873.574 480.729 871.052 483.247Z" fill="#FFFFFF"/><path d="M505.378 160.57C507.344 162.532 509.918 163.512 512.492 163.512 515.072 163.512 517.653 162.526 519.62 160.555 523.549 156.618 523.543 150.242 519.606 146.313L482.908 109.688C478.972 105.759 472.595 105.764 468.666 109.702 464.737 113.639 464.743 120.015 468.68 123.944Z" fill="#FFFFFF"/><path d="M765.722 163.512C768.297 163.512 770.873 162.53 772.839 160.567L809.509 123.941C813.444 120.011 813.448 113.634 809.517 109.699 805.587 105.764 799.211 105.76 795.275 109.691L758.605 146.317C754.67 150.247 754.666 156.624 758.597 160.559 760.564 162.528 763.143 163.512 765.722 163.512Z" fill="#FFFFFF"/><path d="M446.819 537.204C442.92 541.17 442.974 547.547 446.941 551.446L446.97 551.474C448.927 553.398 451.468 554.356 454.008 554.356 456.615 554.356 459.222 553.347 461.197 551.338 465.096 547.372 465.027 540.981 461.061 537.082 457.096 533.183 450.72 533.238 446.819 537.204Z" fill="#FFFFFF"/><path d="M726.606 456.267C728.138 456.267 729.692 455.918 731.151 455.183 736.117 452.678 738.112 446.622 735.608 441.656 733.103 436.69 727.046 434.694 722.081 437.199L722.025 437.227C717.059 439.732 715.092 445.774 717.596 450.74 719.364 454.248 722.92 456.267 726.606 456.267Z" fill="#FFFFFF"/></g></svg>