<svg width="512" height="512" xmlns="http://www.w3.org/2000/svg" xmlns:xlink="http://www.w3.org/1999/xlink" overflow="hidden"><defs><clipPath id="clip0"><rect x="384" y="104" width="512" height="512"/></clipPath></defs><g clip-path="url(#clip0)" transform="translate(-384 -104)"><path d="M403.105 469.835C597.682 414.523 668.802 526.298 884.785 469.92 892.801 467.828 897.602 459.633 895.51 451.618 893.418 443.603 885.223 438.802 877.208 440.893 834.805 451.962 798.051 456.059 764.768 456.103L721.281 386.013C746.987 417.954 794.762 419.795 822.754 390.029 835.061 376.943 841.535 359.847 840.985 341.891 839.139 281.697 765.388 254.688 724.771 297.877 705.205 318.683 701.656 348.266 712.672 372.136L653.168 276.232 741.47 250.751C768.893 242.838 781.853 211.448 767.92 186.481 757.803 168.353 736.805 159.711 716.861 165.467L583.178 204.044C548.517 214.047 532.995 254.339 552.027 285.015L592.433 350.138C563.306 368.218 470.923 425.506 469.942 426.186 446.753 428.637 421.919 433.298 394.904 440.978 386.936 443.243 382.312 451.539 384.577 459.508 386.841 467.478 395.14 472.1 403.105 469.835ZM746.624 318.431C760.744 303.417 784.314 302.736 799.285 316.815 814.283 330.92 815.008 354.476 800.901 369.477 786.798 384.473 763.24 385.2 748.24 371.093 733.241 356.987 732.517 333.431 746.624 318.431ZM625.831 347.069 577.518 269.2C568.985 255.447 575.932 237.36 591.494 232.869L725.177 194.292C731.644 192.424 738.444 195.227 741.723 201.101 746.247 209.208 742.019 219.368 733.152 221.927L625.821 252.9C616.268 255.657 612.001 266.787 617.234 275.22L728.52 454.582C658.533 448.707 601.666 427.599 529.66 424.393L620.994 367.722C628.033 363.355 630.199 354.108 625.831 347.069Z" fill="#FFFFFF"/><path d="M877.208 510.893C670.565 564.835 598.054 453.227 394.902 510.978 386.934 513.243 382.31 521.539 384.575 529.508 386.84 537.477 395.139 542.101 403.105 539.835 597.682 484.523 668.802 596.298 884.785 539.92 892.801 537.828 897.602 529.633 895.51 521.618 893.418 513.602 885.223 508.802 877.208 510.893Z" fill="#FFFFFF"/></g></svg>