<svg width="512" height="512" xmlns="http://www.w3.org/2000/svg" xmlns:xlink="http://www.w3.org/1999/xlink" overflow="hidden"><defs><clipPath id="clip0"><rect x="384" y="104" width="512" height="512"/></clipPath></defs><g clip-path="url(#clip0)" transform="translate(-384 -104)"><path d="M856.613 143.389C827.221 113.996 785.768 100.312 739.896 104.858 694.592 109.348 650.315 131.145 615.224 166.235 612.157 169.302 609.179 172.465 606.296 175.695 602.973 168.315 598.298 161.401 592.245 155.347 565.404 128.506 521.73 128.507 494.89 155.347 467.913 182.325 468.05 226.305 495.301 253.109 506.994 264.612 522.534 271.618 538.9 272.71 545.014 273.118 551.034 272.718 556.852 271.587 552.117 294.12 551.804 316.241 555.686 336.818L555.551 336.817C555.337 357.389 550.903 414.657 533.192 432.369L497.258 468.303C495.672 467.856 494.018 467.611 492.325 467.611 487.49 467.611 482.943 469.494 479.524 472.914L423.62 528.817C420.633 531.804 420.633 536.647 423.62 539.634 426.607 542.621 431.45 542.621 434.437 539.634L490.34 483.731C491.055 483.016 491.89 482.909 492.324 482.909 492.758 482.909 493.589 483.016 494.303 483.726L516.282 505.705C517.368 506.799 517.366 508.573 516.276 509.664L426.055 599.885C424.96 600.98 423.183 600.98 422.088 599.885L400.12 577.918C399.025 576.823 399.025 575.046 400.12 573.951L409.342 564.729C412.329 561.742 412.329 556.899 409.342 553.912 406.355 550.925 401.512 550.925 398.525 553.912L389.303 563.134C382.233 570.204 382.233 581.667 389.303 588.737L411.271 610.704C414.8 614.233 419.436 615.998 424.072 615.998 428.708 615.998 433.344 614.234 436.873 610.704L527.094 520.483C531.888 515.689 533.416 508.856 531.699 502.752L567.639 466.812C585.326 449.125 642.611 444.675 663.193 444.453L663.192 444.343C668.345 445.308 673.611 446.015 678.981 446.456 683.436 446.822 687.913 447.005 692.416 447.005 718.716 447.005 745.672 440.785 771.433 428.74 775.385 426.892 777.049 422.164 775.053 418.284L775.053 418.283C773.183 414.646 768.768 413.096 765.064 414.83 737.273 427.846 708.088 433.502 680.234 431.21 649.849 428.712 623.211 416.815 603.198 396.805 571.375 364.981 560.558 316.225 573.939 265.821 580.632 262.525 586.816 258.13 592.246 252.7 608.428 236.518 614.837 214.221 611.508 193.18 616.044 187.607 620.907 182.185 626.043 177.05 658.64 144.454 699.61 124.221 741.406 120.079 782.635 115.993 819.706 128.113 845.797 154.203 900.08 208.496 889.831 307.076 822.951 373.957 814.742 382.167 805.903 389.671 796.606 396.328 793.274 398.714 792.458 403.327 794.722 406.742 797.127 410.369 802.055 411.245 805.592 408.709 815.541 401.579 824.993 393.551 833.769 384.774 868.86 349.682 890.657 305.408 895.146 260.106 899.69 214.239 886.006 172.786 856.613 143.389ZM505.707 241.884C496.921 233.096 491.846 221.988 490.457 210.514 502.278 211.938 513.2 217.218 521.783 225.801 530.378 234.396 535.661 245.324 537.08 257.163 525.236 255.742 514.274 250.45 505.707 241.884ZM611.231 423.218C615.935 426.415 620.846 429.309 625.951 431.881 624.164 432.105 622.35 432.346 620.51 432.608 612.137 433.803 604.473 435.246 597.518 436.93L611.231 423.218ZM592.379 407.624C594.524 409.768 596.734 411.828 599.007 413.806L522.513 490.301 509.704 477.491 586.207 400.988C588.183 403.262 590.235 405.479 592.379 407.624ZM576.802 388.757 563.074 402.485C564.757 395.53 566.201 387.867 567.396 379.493 567.663 377.62 567.908 375.773 568.135 373.955 570.709 379.077 573.594 384.023 576.802 388.757ZM581.427 241.884C573.434 249.877 563.355 255.017 552.422 256.827 550.881 241.025 544.019 226.402 532.601 214.983 521.193 203.576 506.591 196.716 490.796 195.171 492.564 184.543 497.524 174.345 505.707 166.163 513.892 157.979 524.09 153.018 534.721 151.251 536.256 167.035 543.11 181.644 554.525 193.058 565.944 204.478 580.55 211.355 596.335 212.89 594.565 223.515 589.606 233.706 581.427 241.884ZM565.343 182.243C556.752 173.652 551.475 162.736 550.062 150.915 561.535 152.305 572.642 157.378 581.428 166.165 590.214 174.949 595.287 186.056 596.677 197.529 584.848 196.115 573.938 190.839 565.343 182.243Z" fill="#FFFFFF"/><path d="M830.36 169.645C808.979 148.264 778.153 138.376 743.556 141.803 706.769 145.447 670.517 163.446 641.477 192.486 612.437 221.525 594.438 257.777 590.794 294.564 587.367 329.16 597.255 359.988 618.636 381.37 637.241 399.975 662.998 409.877 692.168 409.877 696.52 409.877 700.95 409.657 705.442 409.211 742.229 405.567 778.481 387.567 807.52 358.527 836.56 329.487 854.559 293.236 858.203 256.449 861.628 221.854 851.741 191.025 830.36 169.645ZM824.676 186.146C831.564 194.572 836.643 204.439 839.787 215.367L817.62 193.201 824.676 186.146ZM653.009 275.507 683.345 245.171 713.68 275.506 683.344 305.842 653.009 275.507ZM672.527 316.66 642.188 346.998 611.853 316.663 642.192 286.325 672.527 316.66ZM694.165 234.351 724.494 204.022 754.829 234.357 724.5 264.686 694.165 234.351ZM724.498 286.324 754.83 316.656 724.494 346.992 694.162 316.66 724.498 286.324ZM735.318 275.504 765.647 245.175 795.979 275.507 765.65 305.836 735.318 275.504ZM776.464 234.357 806.802 204.019 837.134 234.351 806.796 264.689 776.464 234.357ZM813.851 175.335 806.801 182.385 784.661 160.244C795.577 163.389 805.434 168.455 813.851 175.335ZM765.65 162.867 795.985 193.202 765.647 223.54 735.311 193.205 765.65 162.867ZM745.063 157.027C746.806 156.855 748.534 156.727 750.251 156.63L724.493 182.388 708.186 166.081C720.221 161.331 732.619 158.26 745.063 157.027ZM693.352 172.881 713.676 193.205 683.347 223.534 657.823 198.011C668.832 187.903 680.804 179.46 693.352 172.881ZM647.003 208.832 672.527 234.354 642.19 264.69 621.867 244.368C628.446 231.818 636.892 219.843 647.003 208.832ZM606.016 296.072C607.249 283.63 610.32 271.234 615.068 259.202L631.373 275.507 605.616 301.264C605.713 299.546 605.843 297.816 606.016 296.072ZM624.318 364.867C617.433 356.444 612.357 346.581 609.211 335.657L631.37 357.816 624.318 364.867ZM635.136 375.686 642.188 368.634 664.348 390.793C653.422 387.648 643.56 382.571 635.136 375.686ZM683.338 388.149 653.005 357.816 683.344 327.478 713.676 357.81 683.338 388.149ZM703.932 393.988C702.187 394.161 700.454 394.292 698.734 394.388L724.494 368.628 740.802 384.936C728.77 389.685 716.375 392.755 703.932 393.988ZM755.637 378.136 735.312 357.81 765.647 327.474 791.174 353C780.163 363.11 768.188 371.557 755.637 378.136ZM801.993 342.181 776.467 316.655 806.796 286.326 827.123 306.653C820.544 319.2 812.1 331.173 801.993 342.181ZM842.978 254.941C841.745 267.386 838.673 279.784 833.924 291.818L817.614 275.508 843.378 249.744C843.281 251.464 843.15 253.196 842.978 254.941Z" fill="#FFFFFF"/></g></svg>