<svg width="512" height="512" xmlns="http://www.w3.org/2000/svg" xmlns:xlink="http://www.w3.org/1999/xlink" overflow="hidden"><defs><clipPath id="clip0"><rect x="384" y="104" width="512" height="512"/></clipPath></defs><g clip-path="url(#clip0)" transform="translate(-384 -104)"><path d="M680 556C674.48 556 670 560.48 670 566 670 571.52 674.48 576 680 576 685.52 576 690 571.52 690 566 690 560.48 685.52 556 680 556Z" fill="#FFFFFF"/><path d="M820 150 790 150 790 134C790 117.458 776.542 104 760 104L520 104C503.458 104 490 117.458 490 134L490 150 460 150C443.458 150 430 163.458 430 180 430 245.057 460.442 292.867 509.828 306.178 526.758 343.443 553.526 375.122 587.502 398.013 595.328 403.286 600 412.313 600 422.16L600 477.259C593.145 479.017 586.856 482.581 581.719 487.719 574.162 495.277 570 505.32 570 516L560 516C543.458 516 530 529.458 530 546L530 606C530 611.523 534.478 616 540 616L740 616C745.522 616 750 611.523 750 606L750 546C750 529.458 736.542 516 720 516L710 516C710 497.396 697.233 481.717 680 477.266L680 422.21C680 412.331 684.675 403.287 692.508 398.014 726.487 375.121 753.255 343.441 770.184 306.175 819.563 292.859 850 245.052 850 180 850 163.458 836.542 150 820 150ZM450 180C450 174.486 454.486 170 460 170L490 170 490 214.7C490 237.495 493.453 259.817 500.27 281.314 468.447 265.551 450 229.146 450 180ZM720 536C725.514 536 730 540.486 730 546L730 596 550 596 550 546C550 540.486 554.486 536 560 536L720 536ZM770 214.7C770 242.016 764.562 268.596 753.834 293.7 738.574 329.417 713.504 359.752 681.336 381.425 667.976 390.418 660 405.665 660 422.21L660 486C660 491.523 664.478 496 670 496 681.028 496 690 504.972 690 516L590 516C590 510.662 592.082 505.641 595.861 501.861 599.455 498.267 604.172 496.209 609.216 496.015 609.475 496.035 609.736 496.045 609.999 496.045 615.521 496.045 619.999 491.523 619.999 486L619.999 422.16C619.999 405.65 612.028 390.423 598.677 381.427 566.506 359.753 541.436 329.418 526.174 293.698 515.442 268.603 510 242.024 510 214.7L510 134C510 128.486 514.486 124 520 124L760 124C765.514 124 770 128.486 770 134L770 214.7ZM779.734 281.312C786.548 259.81 790 237.489 790 214.7L790 170 820 170C825.514 170 830 174.486 830 180 830 229.143 811.555 265.547 779.734 281.312Z" fill="#FFFFFF"/><path d="M719.139 222.16C717.964 218.539 714.834 215.9 711.066 215.354L667.91 209.09 648.607 169.975C646.922 166.561 643.446 164.4 639.639 164.4 635.832 164.4 632.356 166.561 630.671 169.975L611.368 209.09 568.213 215.354C564.445 215.901 561.316 218.54 560.139 222.16 558.963 225.781 559.944 229.755 562.67 232.412L593.904 262.852 586.532 305.839C585.889 309.591 587.431 313.382 590.511 315.62 593.591 317.857 597.674 318.152 601.042 316.381L639.64 296.088 678.247 316.381C681.637 318.163 685.718 317.843 688.778 315.619 691.857 313.381 693.399 309.589 692.755 305.837L685.375 262.851 716.608 232.412C719.335 229.755 720.315 225.781 719.139 222.16ZM667.65 252.198C665.293 254.496 664.216 257.807 664.774 261.052L669.615 289.249 644.292 275.938C641.377 274.407 637.897 274.407 634.986 275.939L609.671 289.249 614.507 261.05C615.063 257.805 613.987 254.495 611.63 252.198L591.146 232.234 619.447 228.126C622.705 227.653 625.521 225.607 626.978 222.655L639.64 196.996 652.302 222.655C653.759 225.607 656.575 227.653 659.833 228.126L688.135 232.234 667.65 252.198Z" fill="#FFFFFF"/><path d="M640 556 600 556C594.478 556 590 560.477 590 566 590 571.523 594.478 576 600 576L640 576C645.522 576 650 571.523 650 566 650 560.477 645.522 556 640 556Z" fill="#FFFFFF"/><path d="M794.01 586 799.585 586C796.745 585.437 794.835 585.381 794.01 586Z" fill="#FFFFFF"/></g></svg>