<svg width="512" height="512" xmlns="http://www.w3.org/2000/svg" xmlns:xlink="http://www.w3.org/1999/xlink" overflow="hidden"><defs><clipPath id="clip0"><rect x="384" y="104" width="512" height="512"/></clipPath></defs><g clip-path="url(#clip0)" transform="translate(-384 -104)"><path d="M856 384C845.715 384 837.715 390.957 834.977 393.688L797.785 416 768 416C763.582 416 760 419.582 760 424L760 440 742.777 440 735.891 398.684C735.155 394.327 731.027 391.392 726.671 392.128 722.327 392.861 719.393 396.969 720.109 401.316L726.557 440 702.937 440 697.105 399.164C695.99 391.368 691.122 384.615 684.078 381.094L659.578 368.844C658.467 368.289 657.242 368 656 368L624 368C622.758 368 621.533 368.289 620.422 368.844L595.922 381.094C588.879 384.617 584.012 391.372 582.9 399.168L577.063 440 553.443 440 559.891 401.316C560.627 396.959 557.691 392.831 553.335 392.096 548.978 391.36 544.85 394.295 544.114 398.652 544.113 398.663 544.111 398.673 544.109 398.684L537.223 440 520 440 520 424C520 419.582 516.418 416 512 416L482.215 416 445.023 393.688C442.285 390.957 434.285 384 424 384 410.751 384.015 400.015 394.751 400 408L400 504C400 507.443 402.203 510.501 405.469 511.59L408 512.434 408 568 400 568 400 584 880 584 880 568 872 568 872 496.7 875.152 495.349C878.092 494.089 879.998 491.199 880 488L880 408C879.985 394.751 869.249 384.015 856 384ZM784 534.873 802.4 568 784 568ZM784 456 808 456C809.242 456 810.467 455.711 811.578 455.156L832 444.945 832 459.566 784 489.566ZM598.73 401.438C599.102 398.836 600.727 396.582 603.078 395.406L625.887 384 654.113 384 676.926 395.406C679.274 396.583 680.897 398.835 681.27 401.434L686.777 440 672 440 672 408C672 403.582 668.418 400 664 400L616 400C611.582 400 608 403.582 608 408L608 440 593.223 440ZM656 440 624 440 624 416 656 416ZM768 456 768 472 512 472 512 456ZM688 489.371 688 488 736 488 736 568 665.062 568 671.598 515.715 680.969 506.344C685.486 501.853 688.018 495.741 688 489.371ZM599.031 506.344 608.402 515.715 614.938 568 544 568 544 488 592 488 592 489.371C591.982 495.741 594.514 501.853 599.031 506.344ZM496 521.49 487.664 493.7C487.091 491.791 485.826 490.164 484.117 489.138L448 467.469 448 444.945 468.422 455.156C469.533 455.711 470.758 456 472 456L496 456ZM424 517.766 449.469 526.254 461.4 568 424 568ZM478.035 568 463.691 517.8C462.966 515.262 461.035 513.245 458.531 512.409L416 498.234 416 408C416.006 403.584 419.584 400.006 424 400 428.188 400 432.793 403.98 434.039 405.336 434.573 405.934 435.195 406.448 435.883 406.859L475.883 430.859C477.127 431.605 478.55 431.999 480 432L504 432 504 440 473.887 440 443.578 424.844C439.626 422.868 434.821 424.47 432.845 428.421 432.289 429.532 432 430.758 432 432L432 472C432 474.81 433.474 477.413 435.883 478.859L473.227 501.266 493.246 568ZM512 568 512 488 528 488 528 568ZM631.062 568 623.937 511.008C623.718 509.243 622.915 507.601 621.656 506.344L610.344 495.031C608.838 493.533 607.994 491.495 608 489.371L608 488 672 488 672 489.371C672.006 491.495 671.162 493.533 669.656 495.031L658.344 506.344C657.085 507.601 656.282 509.243 656.062 511.008L648.937 568ZM752 568 752 488 768 488 768 568ZM820.707 568 786.684 506.758 844.238 470.785C846.577 469.323 847.999 466.759 848 464L848 432C848 427.582 844.419 424 840.001 423.999 838.758 423.999 837.533 424.288 836.422 424.844L806.113 440 776 440 776 432 800 432C801.45 431.999 802.873 431.605 804.117 430.859L844.117 406.859C844.805 406.448 845.427 405.934 845.961 405.336 846.969 404.211 851.633 400 856 400 860.416 400.006 863.994 403.584 864 408L864 482.727 812.848 504.648C809.239 506.195 807.286 510.132 808.238 513.941L821.754 568ZM856 568 838.247 568 825.414 516.668 856 503.56Z" fill="#FFFFFF"/><path d="M664 238.629 664 264C664 268.418 667.583 272 672.001 271.999 673.58 271.999 675.123 271.532 676.437 270.656L704.4 252.011C706.347 263.533 716.314 271.975 728 272L757.578 272 803.562 302.656C807.238 305.107 812.205 304.114 814.656 300.438 815.532 299.124 816 297.58 816 296L816 270.629C825.582 267.228 831.988 258.167 832 248L832 200C831.985 186.751 821.249 176.015 808 176L776 176 776 168C775.985 154.751 765.249 144.015 752 144L672 144C658.751 144.015 648.015 154.751 648 168L648 216C648.011 226.168 654.418 235.229 664 238.629ZM808 192C812.416 192.006 815.994 195.584 816 200L816 248C815.994 252.416 812.416 255.994 808 256 803.582 256 800 259.582 800 264L800 281.051 764.437 257.344C763.123 256.468 761.579 256.001 760 256L728 256C723.584 255.994 720.006 252.416 720 248L720 241.615 722.422 240 752 240C765.249 239.985 775.985 229.249 776 216L776 192ZM720 224 720 200C720.006 195.584 723.584 192.006 728 192L760 192 760 216C759.994 220.416 756.416 223.994 752 224ZM664 168C664.006 163.584 667.584 160.006 672 160L752 160C756.416 160.006 759.994 163.584 760 168L760 176 728 176C714.751 176.015 704.015 186.751 704 200L704 233.052 680 249.052 680 232C680 227.582 676.418 224 672 224 667.584 223.994 664.006 220.416 664 216Z" fill="#FFFFFF"/><path d="M440 264 440 288C440 292.418 443.582 296 448 296 449.58 296 451.124 295.532 452.438 294.656L498.422 264 536 264C549.249 263.985 559.985 253.249 560 240L560 192C559.985 178.751 549.249 168.015 536 168L440 168C426.751 168.015 416.015 178.751 416 192L416 240C416.015 253.249 426.751 263.985 440 264ZM432 192C432.006 187.584 435.584 184.006 440 184L536 184C540.416 184.006 543.994 187.584 544 192L544 240C543.994 244.416 540.416 247.994 536 248L496 248C494.421 248.001 492.876 248.468 491.562 249.344L456 273.051 456 256C456 251.582 452.418 248 448 248L440 248C435.584 247.994 432.006 244.416 432 240Z" fill="#FFFFFF"/><path d="M448 208 464 208 464 224 448 224Z" fill="#FFFFFF"/><path d="M480 208 496 208 496 224 480 224Z" fill="#FFFFFF"/><path d="M512 208 528 208 528 224 512 224Z" fill="#FFFFFF"/><path d="M640 360C657.673 360 672 345.673 672 328 672 310.327 657.673 296 640 296 622.327 296 608 310.327 608 328 608.02 345.665 622.335 359.98 640 360ZM640 312C648.837 312 656 319.163 656 328 656 336.837 648.837 344 640 344 631.163 344 624 336.837 624 328 624.009 319.167 631.167 312.009 640 312Z" fill="#FFFFFF"/><path d="M816 344C816 361.673 830.327 376 848 376 865.673 376 880 361.673 880 344 880 326.327 865.673 312 848 312 830.335 312.02 816.02 326.335 816 344ZM848 328C856.837 328 864 335.163 864 344 864 352.837 856.837 360 848 360 839.163 360 832 352.837 832 344 832.009 335.167 839.167 328.009 848 328Z" fill="#FFFFFF"/><path d="M432 376C449.673 376 464 361.673 464 344 464 326.327 449.673 312 432 312 414.327 312 400 326.327 400 344 400.02 361.665 414.335 375.98 432 376ZM432 328C440.837 328 448 335.163 448 344 448 352.837 440.837 360 432 360 423.163 360 416 352.837 416 344 416.009 335.167 423.167 328.009 432 328Z" fill="#FFFFFF"/></g></svg>