<svg width="512" height="512" xmlns="http://www.w3.org/2000/svg" xmlns:xlink="http://www.w3.org/1999/xlink" overflow="hidden"><defs><clipPath id="clip0"><rect x="384" y="104" width="512" height="512"/></clipPath></defs><g clip-path="url(#clip0)" transform="translate(-384 -104)"><path d="M651.2 294.4 587.2 246.4 596.8 233.6 640.312 266.234 632.412 242.534C631.013 238.343 633.275 233.811 637.466 232.412 638.283 232.139 639.139 232 640 232L656 232C664.832 231.99 671.99 224.832 672 216L672 152C671.99 143.168 664.832 136.01 656 136L512 136C503.168 136.01 496.01 143.168 496 152L496 216C495.998 218.782 496.722 221.517 498.1 223.934L484.215 231.885C481.452 227.047 479.999 221.572 480 216L480 152C480.02 134.335 494.335 120.02 512 120L656 120C673.665 120.02 687.98 134.335 688 152L688 216C687.98 233.665 673.665 247.98 656 248L651.1 248 663.589 285.47C664.986 289.662 662.721 294.192 658.529 295.589 656.039 296.419 653.3 295.975 651.2 294.4ZM648 160 568 160 568 176 648 176ZM520 160 520 176 552 176 552 160ZM520 208 648 208 648 192 520 192ZM880 592C880 596.418 876.418 600 872 600L768 600 768 584 864 584 864 472 640 472 640 456 651.97 456 681.287 363.874C686.525 347.245 701.966 335.953 719.4 336L760 336 760 320 752 320C738.751 319.985 728.015 309.249 728 296L728 272 712 272C707.582 272 704 268.419 704 264 704 263.041 704.172 262.089 704.509 261.191L725.875 204.215C712.346 196.575 703.986 182.237 704 166.7L704 160C704 155.582 707.582 152 712 152L800 152C822.081 152.025 839.975 169.919 840 192L840 248 824 248 824 234.667 804 208 741.544 208 723.544 256 736 256C740.418 256 744 259.582 744 264L744 272 748.687 272C753.812 272.014 758.729 269.977 762.343 266.343L773.657 277.657C767.049 284.301 758.058 288.025 748.687 288L744 288 744 296C744.005 300.416 747.584 303.995 752 304L768 304C772.418 304 776 307.582 776 312L776 336 824 336 824 264 840 264 840 336 872 336C876.418 336 880 339.582 880 344ZM737.384 192 808 192C810.518 192 812.889 193.186 814.4 195.2L824 208 824 192C823.985 178.751 813.249 168.015 800 168L720.031 168C720.535 178.737 727.346 188.157 737.384 192ZM783.872 370.229 771.719 352 719.4 352C708.94 351.97 699.676 358.746 696.535 368.723L668.761 456 707.322 456 720.354 413.647C721.654 409.424 726.131 407.055 730.353 408.354 733.71 409.387 736 412.488 736 416L736 456 779.36 456ZM804.618 456 800.011 368.42C800.004 368.284 800 368.148 800 368.014 800 368.148 800 368.284 799.989 368.42L795.382 456ZM809.052 352 790.952 352 798.66 363.562C799.532 364.873 799.998 366.412 800 367.986 800.003 366.411 800.47 364.872 801.344 363.562ZM864 352 828.281 352 816.128 370.229 820.64 456 864 456ZM760 236C760 242.627 765.373 248 772 248 778.627 248 784 242.627 784 236 784 229.373 778.627 224 772 224 765.376 224.007 760.007 229.376 760 236ZM400 592 400 480C400.02 462.335 414.335 448.02 432 448L440 448 440 440C440.02 422.335 454.335 408.02 472 408L480 408 480 300.111 470.683 301.661C466.822 302.296 463.992 305.637 464 309.55L464 360C463.97 386.497 442.497 407.97 416 408 411.582 408 408 404.418 408 400L408 304C407.994 298.521 408.929 293.081 410.763 287.918L425.838 293.279C424.617 296.721 423.995 300.348 424 304L424 390.987C438.119 387.322 447.982 374.587 448 360L448 309.55C447.971 297.809 456.466 287.781 468.052 285.879L480.239 283.851C480.603 279.828 481.394 275.855 482.6 272L456 272C446.232 271.978 436.994 276.438 430.936 284.1L418.412 274.143C427.497 262.653 441.352 255.966 456 256L490.5 256C492.43 253.241 494.601 250.657 496.986 248.28 507.313 237.881 521.356 232.023 536.012 232L536.417 232C551.134 232.07 565.224 237.97 575.6 248.407 577.897 250.704 579.991 253.196 581.858 255.855 588.485 265.262 592.029 276.493 592 288L592 300.687 605.657 314.343C608.781 317.467 608.781 322.532 605.657 325.657 605.657 325.657 605.657 325.657 605.657 325.657L592 339.313 592 360C591.985 373.248 581.248 383.985 568 384L552 384 552 408 576.47 408C593.985 407.947 609.48 419.338 614.655 436.071L641.718 522.671 656.845 492.417C658.202 489.709 660.971 487.999 664 488L760 488C764.418 488 768 491.582 768 496 768 497.242 767.71 498.467 767.155 499.578L742.1 549.7C748.486 556.972 752.006 566.322 752 576L752 592C752 596.418 748.418 600 744 600 744 600 614.773 599.918 614.183 599.78 601.541 598.325 590.943 589.559 587.144 577.413L576 541.2 576 592C576 596.418 572.418 600 568 600L408 600C403.582 600 400 596.418 400 592ZM736 576C735.985 562.751 725.249 552.015 712 552L696 552 696 584 736 584ZM652.944 536 712 536C717.925 535.994 723.776 537.313 729.126 539.86L747.056 504 668.944 504ZM496 305.963C515.287 299.492 542.9 286.335 564.981 260.446 564.749 260.202 564.521 259.955 564.281 259.718 556.872 252.264 546.81 248.05 536.3 248L536.016 248C525.585 248.035 515.596 252.221 508.258 259.635 500.468 267.367 496.06 277.871 496 288.847ZM496 408 536 408 536 376C536 371.582 539.582 368 544 368L568 368C572.416 367.995 575.995 364.416 576 360L576 352 571.313 352C561.942 352.025 552.951 348.301 546.343 341.657L557.657 330.343C561.271 333.977 566.188 336.014 571.313 336L576 336C576 333.878 576.843 331.843 578.343 330.343L588.686 320 578.343 309.657C576.843 308.157 576 306.122 576 304L576 288C576.006 283.471 575.242 278.973 573.741 274.7 566.488 282.634 558.456 289.817 549.764 296.142 556.342 297.097 560.9 303.203 559.945 309.781 558.99 316.359 552.884 320.917 546.306 319.962 539.728 319.007 535.17 312.901 536.125 306.323 536.192 305.864 536.285 305.409 536.404 304.96 523.697 312.489 510.132 318.464 496 322.756ZM456 448 506.658 448C522.884 448.003 536.54 460.147 538.439 476.261L551.114 584 560 584 560 488C560 483.582 563.582 480 568 480 571.512 480.001 574.613 482.291 575.646 485.647L602.436 572.707C604.383 578.952 609.918 583.396 616.436 583.948L616.69 583.962C617.035 583.988 617.379 584 617.729 584L680 584 680 552 640 552C636.501 552 633.408 549.726 632.364 546.386L599.384 440.846C596.279 430.805 586.98 423.969 576.47 424L472 424C463.168 424.01 456.01 431.168 456 440ZM416 584 535 584 522.548 478.13C521.6 470.073 514.771 464 506.658 464L432 464C423.168 464.01 416.01 471.168 416 480Z" fill="#FFFFFF"/></g></svg>