<svg width="488" height="488" xmlns="http://www.w3.org/2000/svg" xmlns:xlink="http://www.w3.org/1999/xlink" overflow="hidden"><defs><clipPath id="clip0"><rect x="396" y="116" width="488" height="488"/></clipPath></defs><g clip-path="url(#clip0)" transform="translate(-396 -116)"><path d="M846.408 284.648C857.208 274.432 864 260.008 864 244 864 213.12 838.88 188 808 188 777.12 188 752 213.12 752 244 752 263.648 762.192 280.936 777.544 290.928 766.968 298.136 760 310.264 760 324L760 380 728 380 728 340C728 311.376 706.4 287.728 678.64 284.432 689.312 274.232 696 259.896 696 244 696 213.12 670.88 188 640 188 609.12 188 584 213.12 584 244 584 259.896 590.688 274.232 601.36 284.432 573.6 287.728 552 311.376 552 340L552 380 520 380 520 324C520 310.264 513.032 298.136 502.456 290.928 517.808 280.936 528 263.648 528 244 528 213.12 502.88 188 472 188 441.12 188 416 213.12 416 244 416 260.008 422.792 274.432 433.592 284.648 414.592 287.736 400 304.136 400 324L400 444C400 463.312 413.768 479.472 432 483.192L432 604 448 604 448 484 520 484 520 596C520 600.416 523.584 604 528 604L576 604C580.416 604 584 600.416 584 596L584 468 632 468 632 588 600 588 600 604 680 604 680 588 648 588 648 468 696 468 696 596C696 600.416 699.584 604 704 604L752 604C756.416 604 760 600.416 760 596L760 484 832 484 832 604 848 604 848 483.192C866.232 479.472 880 463.32 880 444L880 324C880 304.136 865.408 287.736 846.408 284.648ZM768 244C768 221.944 785.944 204 808 204 830.056 204 848 221.944 848 244 848 266.056 830.056 284 808 284 785.944 284 768 266.056 768 244ZM600 244C600 221.944 617.944 204 640 204 662.056 204 680 221.944 680 244 680 266.056 662.056 284 640 284 617.944 284 600 266.056 600 244ZM652.456 300 640 333.216 627.544 300 652.456 300ZM568 340C568 317.944 585.944 300 608 300L610.456 300 632.512 358.808C633.68 361.928 636.664 364 640 364 643.336 364 646.32 361.928 647.496 358.808L669.544 300 672 300C694.056 300 712 317.944 712 340L712 380 680 380C675.584 380 672 383.584 672 388L672 420 608 420 608 388C608 383.584 604.416 380 600 380L568 380 568 340ZM432 244C432 221.944 449.944 204 472 204 494.056 204 512 221.944 512 244 512 266.056 494.056 284 472 284 449.944 284 432 266.056 432 244ZM568 588 536 588 536 476C536 471.584 532.416 468 528 468L440 468C426.768 468 416 457.232 416 444L416 324C416 310.768 426.768 300 440 300L480 300C493.232 300 504 310.768 504 324L504 388C504 392.416 507.584 396 512 396L592 396 592 420 480 420 480 348 464 348 464 428C464 432.416 467.584 436 472 436L544 436C557.232 436 568 446.768 568 460L568 588ZM696.896 452 583.104 452C581.896 446.104 579.472 440.648 575.984 436L600 436 680 436 704.016 436C700.528 440.648 698.104 446.104 696.896 452ZM864 444C864 457.232 853.232 468 840 468L752 468C747.584 468 744 471.584 744 476L744 588 712 588 712 460C712 446.768 722.768 436 736 436L808 436C812.416 436 816 432.416 816 428L816 348 800 348 800 420 688 420 688 396 768 396C772.416 396 776 392.416 776 388L776 324C776 310.768 786.768 300 800 300L840 300C853.232 300 864 310.768 864 324L864 444Z" fill="#FFFFFF"/><path d="M632 380 648 380 648 396 632 396Z" fill="#FFFFFF"/><path d="M600 116 488 116C483.584 116 480 119.584 480 124L480 164C480 168.416 483.584 172 488 172L520 172 520 188C520 191.032 521.712 193.8 524.424 195.16 525.552 195.72 526.784 196 528 196 529.696 196 531.384 195.456 532.8 194.4L562.664 172 600 172C604.416 172 608 168.416 608 164L608 124C608 119.584 604.416 116 600 116ZM592 156 560 156C558.272 156 556.584 156.56 555.2 157.6L536 172 536 164C536 159.584 532.416 156 528 156L496 156 496 132 592 132 592 156Z" fill="#FFFFFF"/><path d="M680 140 696 140 696 156 680 156Z" fill="#FFFFFF"/><path d="M712 140 728 140 728 156 712 156Z" fill="#FFFFFF"/><path d="M744 140 760 140 760 156 744 156Z" fill="#FFFFFF"/></g></svg>