<svg width="683" height="683" xmlns="http://www.w3.org/2000/svg" xmlns:xlink="http://www.w3.org/1999/xlink" overflow="hidden"><defs><clipPath id="clip0"><rect x="298" y="18" width="683" height="683"/></clipPath></defs><g clip-path="url(#clip0)" transform="translate(-298 -18)"><path d="M935.326 278.085C934.477 272.535 929.698 268.434 924.081 268.434L901.315 268.434 901.315 234.282C901.268 194.69 872.196 161.116 833.016 155.405L833.016 143.024C847.372 132.384 855.824 115.553 855.782 97.6845L855.782 74.9183C855.782 43.4811 830.301 18 798.864 18 767.432 18 741.951 43.4811 741.951 74.9183L741.951 97.6845C741.909 115.553 750.356 132.384 764.717 143.024L764.717 155.405C725.537 161.116 696.465 194.69 696.413 234.282L696.413 268.434 582.582 268.434 582.582 234.282C582.535 194.69 553.463 161.116 514.283 155.405L514.283 143.024C528.639 132.384 537.091 115.553 537.049 97.6845L537.049 74.9183C537.049 43.4811 511.568 18 480.131 18 448.699 18 423.218 43.4811 423.218 74.9183L423.218 97.6845C423.176 115.553 431.623 132.384 445.984 143.024L445.984 155.405C406.804 161.116 377.732 194.69 377.685 234.282L377.685 268.434 354.914 268.434C349.297 268.434 344.523 272.535 343.669 278.085L298.136 574.051C297.178 580.268 301.44 586.078 307.657 587.031 308.23 587.12 308.803 587.167 309.381 587.167L367.279 587.167C366.68 590.934 366.352 594.738 366.3 598.547L366.3 689.618C366.3 695.902 371.396 700.998 377.685 700.998L559.815 700.998C566.105 700.998 571.201 695.902 571.201 689.618L571.201 598.547C571.149 594.738 570.821 590.929 570.222 587.167L697.315 587.167C696.736 590.934 696.439 594.738 696.413 598.547L696.413 689.618C696.413 695.902 701.514 700.998 707.799 700.998L889.934 700.998C896.218 700.998 901.315 695.902 901.315 689.618L901.315 598.547C901.294 594.738 900.992 590.934 900.418 587.167L969.613 587.167C975.903 587.162 980.994 582.065 980.994 575.776 980.994 575.198 980.947 574.624 980.864 574.051ZM719.179 234.282C719.221 202.866 744.681 177.406 776.098 177.369 782.387 177.369 787.483 172.268 787.483 165.983L787.483 136.954C787.483 132.92 785.347 129.189 781.871 127.142 771.288 121.102 764.743 109.868 764.712 97.6845L764.712 74.9183C764.712 56.0549 780.006 40.7663 798.864 40.7663 817.722 40.7663 833.016 56.0549 833.016 74.9183L833.016 97.6845C832.984 109.868 826.44 121.102 815.856 127.142 812.381 129.189 810.244 132.92 810.244 136.954L810.244 165.983C810.244 172.268 815.346 177.364 821.63 177.364 853.046 177.406 878.512 202.866 878.548 234.282L878.548 268.434 719.179 268.434ZM400.452 234.282C400.488 202.866 425.948 177.406 457.365 177.369 463.654 177.369 468.75 172.268 468.75 165.983L468.75 136.954C468.75 132.92 466.614 129.189 463.138 127.142 452.555 121.102 446.015 109.868 445.984 97.6845L445.984 74.9183C445.984 56.0549 461.273 40.7663 480.131 40.7663 498.994 40.7663 514.283 56.0549 514.283 74.9183L514.283 97.6845C514.252 109.868 507.707 121.102 497.129 127.142 493.648 129.189 491.517 132.92 491.517 136.954L491.517 165.983C491.517 172.268 496.613 177.364 502.897 177.364 534.319 177.406 559.779 202.866 559.815 234.282L559.815 268.434 400.446 268.434 400.446 234.282ZM548.43 678.232 389.066 678.232 389.066 598.547C389.056 592.117 390.165 585.734 392.354 579.684L392.437 579.528C400.42 556.798 421.894 541.603 445.984 541.634 452.268 541.634 457.365 536.538 457.365 530.249L457.365 501.219C457.365 497.186 455.233 493.455 451.753 491.407 441.175 485.368 434.63 474.133 434.598 461.95L434.598 439.184C434.598 420.32 449.887 405.032 468.75 405.032 487.609 405.032 502.897 420.32 502.897 439.184L502.897 461.95C502.866 474.133 496.326 485.368 485.743 491.407 482.267 493.455 480.131 497.186 480.131 501.219L480.131 530.249C480.131 536.538 485.227 541.634 491.517 541.634 515.607 541.593 537.096 556.788 545.084 579.517L545.163 579.674C547.346 585.729 548.451 592.117 548.43 598.547ZM878.548 678.232 719.179 678.232 719.179 598.547C719.221 567.131 744.681 541.671 776.098 541.634 782.387 541.634 787.483 536.538 787.483 530.249L787.483 501.219C787.483 497.186 785.347 493.455 781.871 491.407 771.288 485.368 764.743 474.133 764.712 461.95L764.712 439.184C764.712 420.32 780.006 405.032 798.864 405.032 817.722 405.032 833.016 420.32 833.016 439.184L833.016 461.95C832.984 474.133 826.44 485.368 815.856 491.407 812.381 493.455 810.244 497.186 810.244 501.219L810.244 530.249C810.244 536.538 815.346 541.634 821.63 541.634 853.046 541.671 878.512 567.131 878.548 598.547ZM893.587 564.401C882.128 540.311 859.409 523.532 833.016 519.676L833.016 507.29C847.372 496.649 855.824 479.818 855.782 461.95L855.782 439.184C855.782 407.746 830.301 382.265 798.864 382.265 767.432 382.265 741.951 407.746 741.951 439.184L741.951 461.95C741.909 479.823 750.356 496.649 764.717 507.29L764.717 519.676C738.324 523.532 715.599 540.311 704.146 564.401L563.468 564.401C552.067 540.269 529.316 523.475 502.897 519.676L502.897 507.29C517.258 496.649 525.705 479.818 525.663 461.95L525.663 439.184C525.663 407.746 500.182 382.265 468.75 382.265 437.313 382.265 411.832 407.746 411.832 439.184L411.832 461.95C411.79 479.823 420.243 496.649 434.598 507.29L434.598 519.676C408.185 523.475 385.434 540.269 374.027 564.401L322.653 564.401 364.684 291.2 914.316 291.2 956.341 564.401Z" fill="#FFFFFF"/></g></svg>