<svg width="683" height="683" xmlns="http://www.w3.org/2000/svg" xmlns:xlink="http://www.w3.org/1999/xlink" overflow="hidden"><defs><clipPath id="clip0"><rect x="298" y="18" width="683" height="683"/></clipPath></defs><g clip-path="url(#clip0)" transform="translate(-298 -18)"><path d="M434.598 565.209 434.598 552.823C448.959 542.182 457.406 525.356 457.364 507.483L457.364 484.717C457.364 453.285 431.883 427.798 400.451 427.798 369.014 427.798 343.533 453.285 343.533 484.717L343.533 507.483C343.491 525.356 351.943 542.182 366.299 552.823L366.299 565.209C327.118 570.915 298.047 604.489 298 644.081L298 689.619C298 695.903 303.096 700.999 309.386 700.999L491.516 700.999C497.806 700.999 502.902 695.903 502.902 689.619L502.902 644.081C502.85 604.489 473.778 570.915 434.598 565.209ZM480.136 678.233 320.766 678.233 320.766 644.081C320.803 612.664 346.263 587.204 377.685 587.168 383.969 587.168 389.065 582.071 389.065 575.782L389.065 546.757C389.065 542.719 386.929 538.988 383.453 536.945 372.875 530.901 366.33 519.666 366.299 507.483L366.299 484.717C366.299 465.859 381.588 450.565 400.451 450.565 419.309 450.565 434.598 465.859 434.598 484.717L434.598 507.483C434.566 519.666 428.027 530.901 417.444 536.945 413.968 538.988 411.831 542.719 411.831 546.757L411.831 575.782C411.831 582.071 416.928 587.168 423.217 587.168 454.634 587.204 480.094 612.664 480.13 644.081L480.13 678.233Z" fill="#FFFFFF"/><path d="M912.7 565.209 912.7 552.823C927.056 542.182 935.508 525.356 935.467 507.483L935.467 484.717C935.467 453.285 909.985 427.798 878.548 427.798 847.116 427.798 821.635 453.285 821.635 484.717L821.635 507.483C821.593 525.356 830.04 542.182 844.401 552.823L844.401 565.209C805.221 570.915 776.149 604.489 776.097 644.081L776.097 689.619C776.097 695.903 781.199 700.999 787.483 700.999L969.619 700.999C975.903 700.999 980.999 695.903 980.999 689.619L980.999 644.081C980.952 604.489 951.881 570.915 912.7 565.209ZM958.233 678.233 798.864 678.233 798.864 644.081C798.905 612.664 824.366 587.204 855.782 587.168 862.071 587.168 867.168 582.071 867.168 575.782L867.168 546.757C867.168 542.719 865.031 538.988 861.556 536.945 850.972 530.901 844.433 519.666 844.396 507.483L844.396 484.717C844.396 465.859 859.69 450.565 878.548 450.565 897.412 450.565 912.7 465.859 912.7 484.717L912.7 507.483C912.669 519.666 906.124 530.901 895.546 536.945 892.065 538.988 889.929 542.719 889.929 546.757L889.929 575.782C889.929 582.071 895.03 587.168 901.315 587.168 932.731 587.204 958.196 612.664 958.233 644.081Z" fill="#FFFFFF"/><path d="M514.282 348.114 514.282 222.902 605.348 222.902C611.637 222.902 616.733 217.8 616.733 211.516L616.733 165.983C616.733 159.694 611.637 154.598 605.348 154.598L445.983 154.598 445.983 143.024C460.339 132.384 468.791 115.553 468.75 97.6846L468.75 74.9183C468.75 43.4812 443.269 18 411.831 18 380.399 18 354.918 43.4812 354.918 74.9183L354.918 97.6846C354.877 115.553 363.323 132.384 377.685 143.024L377.685 155.405C338.504 161.117 309.433 194.69 309.381 234.282L309.381 348.114C309.381 354.403 314.482 359.5 320.766 359.5L502.902 359.5C509.186 359.5 514.282 354.403 514.282 348.114ZM377.685 74.9183C377.685 56.055 392.973 40.7663 411.831 40.7663 430.695 40.7663 445.983 56.055 445.983 74.9183L445.983 97.6846C445.952 109.868 439.407 121.102 428.829 127.142 425.354 129.19 423.217 132.921 423.217 136.954L423.217 154.598 400.451 154.598 400.451 136.954C400.451 132.921 398.314 129.19 394.839 127.142 384.256 121.102 377.716 109.868 377.685 97.6846ZM422.613 298.475 411.831 309.251 401.055 298.475 410.503 222.902 413.165 222.902ZM403.65 177.369 420.018 177.369 414.327 200.136 409.341 200.136ZM491.516 211.516 491.516 336.733 332.152 336.733 332.152 234.282C332.256 206.274 352.719 182.507 380.405 178.245L388.893 212.199 377.773 301.169C377.341 304.655 378.534 308.146 381.02 310.632L403.786 333.398C408.231 337.843 415.437 337.843 419.882 333.398L442.649 310.632C445.129 308.146 446.327 304.655 445.89 301.169L434.77 212.199 443.284 178.161C443.581 178.161 443.811 178.161 444.102 178.234 446.077 178.516 448.094 178.213 449.897 177.369L593.967 177.369 593.967 200.136 502.902 200.136C496.612 200.136 491.516 205.232 491.516 211.516Z" fill="#FFFFFF"/><path d="M753.331 348.114 525.668 348.114C519.561 348.109 514.538 352.923 514.282 359.02L502.902 632.221C502.636 638.505 507.513 643.81 513.793 644.076 513.959 644.081 514.121 644.086 514.282 644.081L764.717 644.081C771.001 644.086 776.103 638.995 776.108 632.711 776.108 632.549 776.108 632.382 776.097 632.221L764.717 359.02C764.461 352.923 759.438 348.109 753.331 348.114ZM526.158 621.315 536.585 370.885 742.414 370.885 752.841 621.315Z" fill="#FFFFFF"/><path d="M662.266 257.049 741.951 257.049 741.951 302.581 719.184 302.581 719.184 325.348 833.016 325.348 833.016 302.581 810.249 302.581 810.249 257.049 889.934 257.049C902.508 257.049 912.7 246.856 912.7 234.282L912.7 97.6846C912.7 85.1108 902.508 74.9183 889.934 74.9183L662.266 74.9183C649.692 74.9183 639.5 85.1108 639.5 97.6846L639.5 234.282C639.5 246.856 649.692 257.049 662.266 257.049ZM787.483 302.581 764.717 302.581 764.717 257.049 787.483 257.049ZM662.266 97.6846 889.934 97.6846 889.934 234.282 662.266 234.282Z" fill="#FFFFFF"/><path d="M719.184 165.983 741.951 165.983 741.951 211.516 719.184 211.516Z" fill="#FFFFFF"/><path d="M764.717 143.217 787.483 143.217 787.483 211.516 764.717 211.516Z" fill="#FFFFFF"/><path d="M810.249 120.451 833.016 120.451 833.016 211.516 810.249 211.516Z" fill="#FFFFFF"/></g></svg>