<svg width="512" height="512" xmlns="http://www.w3.org/2000/svg" xmlns:xlink="http://www.w3.org/1999/xlink" overflow="hidden"><defs><clipPath id="clip0"><rect x="440" y="104" width="512" height="512"/></clipPath></defs><g clip-path="url(#clip0)" transform="translate(-440 -104)"><path d="M925.434 327.983 916.242 327.983 918.891 280.577C919.203 274.984 917.009 269.613 912.87 265.841 908.713 262.053 903.133 260.361 897.562 261.194 877.842 264.147 857.937 265.111 838.095 264.105L840.099 228.241C840.411 222.648 838.217 217.277 834.078 213.505 829.921 209.717 824.338 208.024 818.769 208.858 800.639 211.572 782.232 212.629 764.065 211.99 759.913 211.862 756.453 215.084 756.307 219.223 756.161 223.362 759.4 226.836 763.539 226.981 782.625 227.65 801.954 226.543 820.989 223.692 822.487 223.467 823.5 224.16 823.973 224.591 824.437 225.013 825.202 225.941 825.12 227.403L823.133 262.967C818.373 262.486 813.619 261.903 808.877 261.192 803.301 260.357 797.726 262.051 793.568 265.839 789.429 269.61 787.235 274.982 787.547 280.575L790.195 327.981 759.016 327.981 761.664 280.575C761.976 274.982 759.782 269.611 755.643 265.839 751.486 262.051 745.905 260.359 740.335 261.192 735.473 261.92 730.6 262.516 725.72 263.003L723.731 227.403C723.649 225.941 724.415 225.013 724.878 224.591 725.352 224.159 726.371 223.47 727.86 223.692 729.512 223.94 731.164 224.167 732.815 224.388 736.917 224.937 740.694 222.055 741.244 217.95 741.794 213.845 738.911 210.071 734.806 209.521 733.233 209.31 731.658 209.094 730.082 208.858 724.515 208.022 718.931 209.716 714.774 213.505 710.635 217.276 708.441 222.648 708.753 228.241L710.758 264.121C700.919 264.608 691.066 264.608 681.228 264.121L683.233 228.24C683.545 222.647 681.351 217.276 677.212 213.504 673.056 209.717 667.478 208.025 661.905 208.858 647.528 211.011 632.917 212.125 618.478 212.17 614.335 212.183 610.988 215.551 611.001 219.693 611.014 223.827 614.369 227.17 618.501 227.17L618.525 227.17C633.69 227.123 649.032 225.953 664.127 223.693 665.618 223.465 666.636 224.16 667.11 224.592 667.574 225.014 668.339 225.942 668.258 227.404L666.269 263.004C661.389 262.517 656.515 261.921 651.654 261.193 646.083 260.36 640.504 262.052 636.346 265.839 632.207 269.61 630.012 274.982 630.325 280.575L632.974 327.981 601.8 327.981 604.448 280.575C604.761 274.982 602.566 269.611 598.427 265.839 594.271 262.052 588.696 260.359 583.119 261.192 578.377 261.902 573.623 262.485 568.863 262.967L566.876 227.403C566.794 225.941 567.56 225.013 568.023 224.591 568.497 224.159 569.515 223.465 571.006 223.692 576.514 224.517 582.166 225.209 587.805 225.748 591.941 226.15 595.591 223.12 595.985 218.997 596.38 214.873 593.357 211.211 589.234 210.817 583.859 210.303 578.474 209.644 573.228 208.858 567.655 208.022 562.076 209.717 557.92 213.505 553.781 217.276 551.586 222.648 551.899 228.241L553.903 264.105C534.061 265.11 514.156 264.147 494.437 261.194 488.864 260.359 483.285 262.053 479.129 265.84 474.99 269.611 472.795 274.983 473.108 280.576L475.757 327.982 466.566 327.982C451.917 327.983 440 339.901 440 354.549L440 369.275C440 373.418 443.358 376.775 447.5 376.775L478.483 376.775 479.855 401.327C480.711 416.665 493.416 428.68 508.777 428.68L517.222 428.68 517.222 459.405C517.222 464.979 521.756 469.513 527.33 469.513L531.278 469.513 531.278 485.015C520.426 485.62 509.585 487.515 498.806 490.747 495.633 491.698 493.46 494.618 493.46 497.931L493.46 503.85C493.46 507.993 496.818 511.35 500.96 511.35 505.102 511.35 508.46 507.993 508.46 503.85L508.46 503.634C528.604 498.514 548.952 498.512 569.095 503.634L569.095 503.85C569.095 507.993 572.453 511.35 576.595 511.35 580.737 511.35 584.095 507.993 584.095 503.85L584.095 497.931C584.095 494.619 581.922 491.699 578.749 490.747 567.97 487.515 557.129 485.62 546.277 485.015L546.277 469.513 550.225 469.513C555.799 469.513 560.333 464.979 560.333 459.405L560.333 428.68 568.778 428.68C581.452 428.68 592.31 420.498 596.205 409.021 597.117 413.664 601.214 417.178 606.12 417.178L610.068 417.178 610.068 432.68C599.216 433.285 588.375 435.18 577.596 438.412 574.423 439.363 572.25 442.283 572.25 445.596L572.25 451.515C572.25 455.658 575.608 459.015 579.75 459.015 583.892 459.015 587.25 455.658 587.25 451.515L587.25 451.299C607.393 446.179 627.744 446.179 647.884 451.299L647.884 451.515C647.884 455.658 651.242 459.015 655.384 459.015 659.526 459.015 662.884 455.658 662.884 451.515L662.884 445.596C662.884 442.284 660.711 439.364 657.538 438.412 646.759 435.18 635.919 433.285 625.067 432.68L625.067 417.178 629.015 417.178C633.7 417.178 637.639 413.97 638.78 409.638 642.849 420.791 653.549 428.68 665.997 428.68L674.442 428.68 674.442 459.405C674.442 464.979 678.977 469.513 684.55 469.513L688.498 469.513 688.498 485.014C677.646 485.619 666.805 487.515 656.026 490.747 652.853 491.698 650.68 494.618 650.68 497.931L650.68 503.85C650.68 507.993 654.038 511.35 658.18 511.35 662.322 511.35 665.68 507.993 665.68 503.85L665.68 503.634C685.821 498.514 706.171 498.512 726.314 503.634L726.314 503.85C726.314 507.993 729.671 511.35 733.814 511.35 737.957 511.35 741.314 507.993 741.314 503.85L741.314 497.931C741.314 494.619 739.141 491.699 735.968 490.747 725.19 487.515 714.349 485.619 703.497 485.014L703.497 469.513 707.444 469.513C713.018 469.513 717.552 464.979 717.552 459.405L717.552 428.68 726 428.68C738.447 428.68 749.148 420.79 753.217 409.637 754.357 413.97 758.296 417.178 762.982 417.178L766.93 417.178 766.93 432.68C756.078 433.285 745.237 435.18 734.458 438.412 731.285 439.363 729.112 442.283 729.112 445.596L729.112 451.515C729.112 455.658 732.469 459.015 736.612 459.015 740.755 459.015 744.112 455.658 744.112 451.515L744.112 451.299C764.255 446.178 784.604 446.178 804.747 451.299L804.747 451.515C804.747 455.658 808.104 459.015 812.247 459.015 816.39 459.015 819.747 455.658 819.747 451.515L819.747 445.596C819.747 442.284 817.574 439.364 814.401 438.412 803.622 435.18 792.781 433.285 781.929 432.68L781.929 417.178 785.876 417.178C790.782 417.178 794.879 413.664 795.791 409.022 799.686 420.498 810.544 428.68 823.218 428.68L831.663 428.68 831.663 459.405C831.663 464.979 836.197 469.513 841.771 469.513L845.718 469.513 845.718 485.015C834.866 485.62 824.025 487.515 813.246 490.747 810.073 491.698 807.9 494.618 807.9 497.931L807.9 503.85C807.9 507.993 811.257 511.35 815.4 511.35 819.543 511.35 822.9 507.993 822.9 503.85L822.9 503.634C843.043 498.513 863.392 498.513 883.535 503.634L883.535 503.85C883.535 507.993 886.892 511.35 891.035 511.35 895.178 511.35 898.535 507.993 898.535 503.85L898.535 497.931C898.535 494.619 896.362 491.699 893.189 490.747 882.41 487.515 871.569 485.62 860.717 485.015L860.717 469.513 864.665 469.513C870.238 469.513 874.772 464.979 874.772 459.405L874.772 428.68 883.217 428.68C889.053 428.68 894.696 426.931 899.539 423.622 902.959 421.285 903.837 416.618 901.5 413.198 899.164 409.778 894.496 408.897 891.076 411.237 888.738 412.835 886.019 413.679 883.217 413.679L823.22 413.679C815.813 413.679 809.687 407.886 809.274 400.491L802.528 279.741C802.446 278.279 803.212 277.352 803.675 276.929 804.149 276.498 805.162 275.807 806.658 276.03 837.48 280.645 868.814 280.667 899.783 276.03 901.28 275.805 902.293 276.497 902.766 276.929 903.23 277.351 903.995 278.279 903.913 279.741L897.881 387.707C897.65 391.843 900.816 395.382 904.951 395.613 909.079 395.841 912.627 392.679 912.857 388.543L913.514 376.775 944.5 376.775C948.643 376.775 952 373.418 952 369.275L952 354.549C952 339.901 940.083 327.983 925.434 327.983ZM859.777 428.679 859.777 454.512 846.666 454.512 846.666 428.679ZM780.986 402.177 767.875 402.177 767.875 376.775 780.986 376.775ZM791.038 342.983 792.088 361.775 757.133 361.775 758.183 342.983ZM624.125 402.177 611.013 402.177 611.013 376.775 624.125 376.775ZM633.816 342.983 634.866 361.775 599.912 361.775 600.962 342.983ZM455 361.775 455 354.549C455 348.172 460.188 342.983 466.566 342.983L476.595 342.983 477.645 361.775ZM545.334 454.512 532.223 454.512 532.223 428.679 545.335 428.679 545.335 454.512ZM568.779 413.679 508.777 413.679C501.37 413.679 495.244 407.886 494.831 400.491L488.084 279.741C488.002 278.278 488.768 277.351 489.232 276.929 489.642 276.555 490.461 275.987 491.643 275.987 491.825 275.987 492.016 276.001 492.215 276.03 523.159 280.663 554.494 280.649 585.34 276.03 586.83 275.802 587.85 276.497 588.323 276.929 588.787 277.351 589.552 278.279 589.47 279.741L582.724 400.49C582.312 407.886 576.186 413.679 568.779 413.679ZM702.556 454.512 689.444 454.512 689.444 428.679 702.556 428.679ZM726 413.679 665.999 413.679C658.592 413.679 652.466 407.886 652.053 400.491L645.306 279.741C645.224 278.279 645.99 277.351 646.454 276.929 646.865 276.555 647.683 275.987 648.865 275.987 649.047 275.987 649.238 276.001 649.437 276.03 680.677 280.707 712.06 280.597 742.562 276.03 744.059 275.805 745.072 276.497 745.545 276.929 746.009 277.351 746.774 278.279 746.692 279.741L739.946 400.49C739.534 407.886 733.408 413.679 726 413.679ZM937 361.775 914.355 361.775 915.405 342.983 925.435 342.983C931.812 342.983 937 348.171 937 354.549Z" fill="#FFFFFF"/></g></svg>