<svg width="683" height="683" xmlns="http://www.w3.org/2000/svg" xmlns:xlink="http://www.w3.org/1999/xlink" overflow="hidden"><defs><clipPath id="clip0"><rect x="298" y="18" width="683" height="683"/></clipPath></defs><g clip-path="url(#clip0)" transform="translate(-298 -18)"><path d="M900.961 178.078C945.097 178.078 981 142.175 981 98.0391 981 53.9029 945.097 18 900.961 18 856.825 18 820.922 53.9029 820.922 98.0391 820.922 142.175 856.825 178.078 900.961 178.078ZM900.961 71.3594C915.671 71.3594 927.641 83.3288 927.641 98.0391 927.641 112.749 915.671 124.719 900.961 124.719 886.251 124.719 874.281 112.749 874.281 98.0391 874.281 83.3288 886.251 71.3594 900.961 71.3594ZM378.039 178.078C422.175 178.078 458.078 142.175 458.078 98.0391 458.078 53.9029 422.175 18 378.039 18 333.903 18 298 53.9029 298 98.0391 298 142.175 333.903 178.078 378.039 178.078ZM378.039 71.3594C392.749 71.3594 404.719 83.3288 404.719 98.0391 404.719 112.749 392.749 124.719 378.039 124.719 363.329 124.719 351.359 112.749 351.359 98.0391 351.359 83.3288 363.329 71.3594 378.039 71.3594ZM901.378 203.424C901.248 203.424 901.117 203.424 900.987 203.424 845.762 203.424 824.825 243.631 811.631 282.989 807.144 296.375 797.405 325.624 791.011 344.826L759.559 344.826 759.559 283.463C759.559 239.327 723.656 203.424 679.52 203.424L599.48 203.424C555.344 203.424 519.441 239.327 519.441 283.463L519.441 344.826 487.989 344.826C481.595 325.624 471.856 296.375 467.369 282.989 454.17 243.631 433.243 203.424 378.013 203.424 377.883 203.424 377.747 203.424 377.617 203.424 333.715 203.575 298 239.483 298 283.463L298 428.867C298 463.65 320.308 493.305 351.359 504.315L351.359 504.904C352.047 504.904 352.719 504.956 353.397 505.009 356.367 505.973 359.41 506.77 362.521 507.385 371.666 511.616 378.039 520.86 378.039 531.584L378.039 701 431.398 701 431.398 531.584C431.398 523.71 430.236 516.102 428.105 508.906L459.412 508.906C474.122 508.906 486.092 520.876 486.092 535.586L486.092 701 539.451 701 539.451 535.586C539.451 491.45 503.548 455.547 459.412 455.547L378.039 455.547C377.351 455.547 376.679 455.495 376.002 455.443 373.031 454.479 369.988 453.681 366.877 453.066 357.732 448.835 351.359 439.591 351.359 428.867L351.359 283.463C351.359 268.805 363.225 256.835 377.805 256.783 389.863 256.742 402.275 256.7 416.772 299.945 423.702 320.616 443.238 379.338 443.436 379.927L449.506 398.186 829.494 398.186 835.564 379.927C835.762 379.338 855.298 320.616 862.229 299.945 876.72 256.7 889.137 256.757 901.195 256.783 915.775 256.835 927.641 268.805 927.641 283.463L927.641 428.867C927.641 439.591 921.268 448.835 912.123 453.066 909.012 453.681 905.969 454.479 902.998 455.443 902.321 455.495 901.649 455.547 900.961 455.547L820.922 455.547C776.786 455.547 740.883 491.45 740.883 535.586L740.883 701 794.242 701 794.242 535.586C794.242 520.876 806.212 508.906 820.922 508.906L850.895 508.906C848.764 516.102 847.602 523.71 847.602 531.584L847.602 701 900.961 701 900.961 531.584C900.961 520.86 907.334 511.616 916.479 507.385 919.59 506.77 922.633 505.973 925.603 505.009 926.281 504.956 926.953 504.904 927.641 504.904L927.641 504.315C958.692 493.305 981 463.65 981 428.867L981 283.463C981 239.483 945.285 203.575 901.378 203.424ZM572.801 283.463C572.801 268.753 584.77 256.783 599.48 256.783L679.52 256.783C694.23 256.783 706.199 268.753 706.199 283.463L706.199 344.826 572.801 344.826ZM639.5 178.078C683.636 178.078 719.539 142.175 719.539 98.0391 719.539 53.9029 683.636 18 639.5 18 595.364 18 559.461 53.9029 559.461 98.0391 559.461 142.175 595.364 178.078 639.5 178.078ZM639.5 71.3594C654.21 71.3594 666.18 83.3288 666.18 98.0391 666.18 112.749 654.21 124.719 639.5 124.719 624.79 124.719 612.82 112.749 612.82 98.0391 612.82 83.3288 624.79 71.3594 639.5 71.3594Z" fill="#FFFFFF"/></g></svg>