<svg width="512" height="512" xmlns="http://www.w3.org/2000/svg" xmlns:xlink="http://www.w3.org/1999/xlink" overflow="hidden"><defs><clipPath id="clip0"><rect x="384" y="104" width="512" height="512"/></clipPath></defs><g clip-path="url(#clip0)" transform="translate(-384 -104)"><path d="M616.018 499.034C620.624 494.109 623.452 487.501 623.452 480.242 623.452 465.056 611.098 452.701 595.911 452.701 580.725 452.701 568.371 465.055 568.371 480.242 568.371 487.501 571.199 494.109 575.805 499.034 566.482 505.451 560.355 516.191 560.355 528.339L560.355 548.379C560.355 552.521 563.713 555.879 567.855 555.879 571.997 555.879 575.355 552.521 575.355 548.379L575.355 528.339C575.355 517.004 584.577 507.782 595.911 507.782 607.246 507.782 616.468 517.004 616.468 528.339L616.468 548.379C616.468 552.521 619.826 555.879 623.968 555.879 628.11 555.879 631.468 552.521 631.468 548.379L631.468 528.339C631.468 516.19 625.34 505.45 616.018 499.034ZM583.371 480.242C583.371 473.327 588.996 467.701 595.911 467.701 602.826 467.701 608.452 473.326 608.452 480.242 608.452 487.157 602.827 492.782 595.911 492.782 588.997 492.782 583.371 487.157 583.371 480.242Z" fill="#FFFFFF"/><path d="M423.564 435.635C427.706 435.635 431.064 432.278 431.064 428.135L431.064 420.121C431.064 419.836 431.295 419.604 431.58 419.604L744.209 419.604C748.351 419.604 751.709 416.247 751.709 412.104 751.709 407.962 748.351 404.604 744.209 404.604L663.532 404.604 663.532 299.94 690.468 290.961C694.398 289.651 696.521 285.403 695.212 281.474 693.901 277.545 689.654 275.42 685.725 276.731L655.373 286.848C645.459 290.153 634.54 290.153 624.627 286.848L594.275 276.73C590.346 275.42 586.098 277.544 584.788 281.473 583.478 285.403 585.602 289.65 589.532 290.96L616.468 299.939 616.468 404.603 447.097 404.603 447.097 187.653C447.097 182.948 450.925 179.121 455.629 179.121L824.371 179.121C829.076 179.121 832.903 182.948 832.903 187.653L832.903 404.604 776.274 404.604C772.132 404.604 768.774 407.962 768.774 412.104 768.774 416.247 772.132 419.604 776.274 419.604L848.419 419.604C848.704 419.604 848.935 419.835 848.935 420.121L848.935 428.137C848.935 432.279 852.293 435.637 856.435 435.637 860.577 435.637 863.935 432.279 863.935 428.137L863.935 420.121C863.935 411.565 856.975 404.604 848.419 404.604L847.903 404.604 847.903 187.653C847.903 174.677 837.346 164.121 824.371 164.121L455.629 164.121C442.653 164.121 432.097 174.678 432.097 187.653L432.097 404.604 431.581 404.604C423.025 404.604 416.065 411.565 416.065 420.121L416.065 428.135C416.064 432.277 419.422 435.635 423.564 435.635ZM648.532 303.743 648.532 340.476 631.468 340.476 631.468 303.743C634.297 304.121 637.148 304.323 640 304.323 642.852 304.323 645.704 304.121 648.532 303.743ZM631.468 355.475 648.532 355.475 648.532 404.604 631.468 404.604Z" fill="#FFFFFF"/><path d="M527.84 499.034C532.446 494.109 535.274 487.501 535.274 480.242 535.274 465.056 522.92 452.701 507.733 452.701 492.546 452.701 480.192 465.055 480.192 480.242 480.192 487.501 483.02 494.109 487.626 499.034 478.303 505.45 472.176 516.19 472.176 528.339L472.176 548.379C472.176 552.521 475.534 555.879 479.676 555.879 483.818 555.879 487.176 552.521 487.176 548.379L487.176 528.339C487.176 517.004 496.398 507.782 507.733 507.782 519.068 507.782 528.29 517.004 528.29 528.339L528.29 548.379C528.29 552.521 531.648 555.879 535.79 555.879 539.932 555.879 543.29 552.521 543.29 548.379L543.29 528.339C543.291 516.19 537.163 505.45 527.84 499.034ZM495.193 480.242C495.193 473.327 500.818 467.701 507.734 467.701 514.65 467.701 520.275 473.326 520.275 480.242 520.275 487.157 514.65 492.782 507.734 492.782 500.818 492.782 495.193 487.157 495.193 480.242Z" fill="#FFFFFF"/><path d="M439.663 499.034C444.269 494.109 447.097 487.501 447.097 480.242 447.097 465.056 434.743 452.701 419.557 452.701 404.371 452.701 392.016 465.055 392.016 480.242 392.016 487.501 394.844 494.109 399.45 499.034 390.127 505.45 384 516.19 384 528.339L384 548.379C384 552.521 387.358 555.879 391.5 555.879 395.642 555.879 399 552.521 399 548.379L399 528.339C399 517.004 408.222 507.782 419.557 507.782 430.891 507.782 440.113 517.004 440.113 528.339L440.113 548.379C440.113 552.521 443.471 555.879 447.613 555.879 451.755 555.879 455.113 552.521 455.113 548.379L455.113 528.339C455.113 516.19 448.986 505.45 439.663 499.034ZM407.016 480.242C407.016 473.327 412.641 467.701 419.557 467.701 426.472 467.701 432.097 473.326 432.097 480.242 432.097 487.157 426.472 492.782 419.557 492.782 412.642 492.782 407.016 487.157 407.016 480.242Z" fill="#FFFFFF"/><path d="M880.55 499.034C885.156 494.109 887.984 487.501 887.984 480.242 887.984 465.056 875.63 452.701 860.443 452.701 845.257 452.701 832.903 465.055 832.903 480.242 832.903 487.501 835.731 494.109 840.337 499.034 831.014 505.451 824.887 516.191 824.887 528.339L824.887 548.379C824.887 552.521 828.245 555.879 832.387 555.879 836.529 555.879 839.887 552.521 839.887 548.379L839.887 528.339C839.887 517.004 849.109 507.782 860.443 507.782 871.778 507.782 881 517.004 881 528.339L881 548.379C881 552.521 884.358 555.879 888.5 555.879 892.642 555.879 896 552.521 896 548.379L896 528.339C896 516.19 889.873 505.45 880.55 499.034ZM847.903 480.242C847.903 473.327 853.528 467.701 860.443 467.701 867.358 467.701 872.984 473.326 872.984 480.242 872.984 487.157 867.359 492.782 860.443 492.782 853.529 492.782 847.903 487.157 847.903 480.242Z" fill="#FFFFFF"/><path d="M792.373 499.034C796.979 494.109 799.807 487.501 799.807 480.242 799.807 465.056 787.453 452.701 772.266 452.701 757.079 452.701 744.725 465.055 744.725 480.242 744.725 487.501 747.553 494.109 752.159 499.034 742.836 505.45 736.709 516.19 736.709 528.339L736.709 548.379C736.709 552.521 740.067 555.879 744.209 555.879 748.351 555.879 751.709 552.521 751.709 548.379L751.709 528.339C751.709 517.004 760.931 507.782 772.266 507.782 783.601 507.782 792.823 517.004 792.823 528.339L792.823 548.379C792.823 552.521 796.181 555.879 800.323 555.879 804.465 555.879 807.823 552.521 807.823 548.379L807.823 528.339C807.823 516.19 801.695 505.45 792.373 499.034ZM759.726 480.242C759.726 473.327 765.351 467.701 772.267 467.701 779.183 467.701 784.808 473.326 784.808 480.242 784.808 487.157 779.183 492.782 772.267 492.782 765.351 492.782 759.726 487.157 759.726 480.242Z" fill="#FFFFFF"/><path d="M704.195 499.034C708.801 494.109 711.629 487.501 711.629 480.242 711.629 465.056 699.275 452.701 684.089 452.701 668.903 452.701 656.548 465.055 656.548 480.242 656.548 487.501 659.376 494.109 663.982 499.034 654.659 505.45 648.532 516.19 648.532 528.339L648.532 548.379C648.532 552.521 651.89 555.879 656.032 555.879 660.174 555.879 663.532 552.521 663.532 548.379L663.532 528.339C663.532 517.004 672.754 507.782 684.089 507.782 695.423 507.782 704.645 517.004 704.645 528.339L704.645 548.379C704.645 552.521 708.003 555.879 712.145 555.879 716.287 555.879 719.645 552.521 719.645 548.379L719.645 528.339C719.645 516.19 713.518 505.45 704.195 499.034ZM671.548 480.242C671.548 473.327 677.173 467.701 684.089 467.701 691.004 467.701 696.629 473.326 696.629 480.242 696.629 487.157 691.004 492.782 684.089 492.782 677.174 492.782 671.548 487.157 671.548 480.242Z" fill="#FFFFFF"/><path d="M616.468 251.782C616.468 264.758 627.025 275.314 640 275.314 652.975 275.314 663.532 264.757 663.532 251.782 663.532 238.807 652.976 228.25 640 228.25 627.024 228.25 616.468 238.807 616.468 251.782ZM648.532 251.782C648.532 256.487 644.704 260.314 640 260.314 635.296 260.314 631.468 256.486 631.468 251.782 631.468 247.078 635.296 243.25 640 243.25 644.704 243.25 648.532 247.078 648.532 251.782Z" fill="#FFFFFF"/></g></svg>