<svg width="683" height="683" xmlns="http://www.w3.org/2000/svg" xmlns:xlink="http://www.w3.org/1999/xlink" overflow="hidden"><defs><clipPath id="clip0"><rect x="298" y="18" width="683" height="683"/></clipPath></defs><g clip-path="url(#clip0)" transform="translate(-298 -18)"><path d="M962.626 605.729C975.278 587.846 981.739 566.309 980.931 544.152 980.009 518.739 969.587 494.826 951.589 476.833L906.953 432.197C916.145 398.404 918.849 363.596 914.967 328.62 914.357 323.133 909.412 319.184 903.92 319.783 898.428 320.392 894.473 325.338 895.082 330.83 898.256 359.411 896.677 387.873 890.434 415.673L876.115 401.354C868.773 394.012 859.002 389.968 848.612 389.968 838.195 389.968 828.425 394.012 821.098 401.359 805.945 416.528 805.945 441.206 821.104 456.365L858.695 493.94C848.195 510.996 835.652 526.884 821.317 541.229 758.766 603.78 668.91 629.506 583.274 610.393L597.615 596.053C604.957 588.705 609 578.945 609 568.56 609 558.149 604.952 548.378 597.609 541.052 582.451 525.899 557.778 525.899 542.598 541.052L504.96 578.685C487.796 568.143 471.861 555.58 457.526 541.229 442.43 526.133 429.288 509.276 418.439 491.142 418.335 490.929 418.256 490.704 418.131 490.501 413.895 483.321 410.029 475.984 406.621 468.652 401.686 458.142 397.423 447.157 393.969 436.011 393.812 435.511 393.609 435.037 393.385 434.578 383.63 402.599 380.207 369.453 383.229 336.025 383.729 330.522 379.67 325.661 374.167 325.16 368.68 324.655 363.803 328.719 363.303 334.222 360.171 368.781 363.443 403.068 373 436.235L329.917 479.319C312.012 497.218 301.595 520.995 300.579 546.263 299.694 568.289 305.999 589.737 318.453 607.6L317.452 608.6C309.928 616.125 305.785 626.125 305.785 636.76 305.785 647.395 309.928 657.395 317.452 664.92L336.003 683.47C343.762 691.234 353.96 695.117 364.157 695.117 374.355 695.117 384.547 691.234 392.312 683.47L393.208 682.574C410.19 694.601 430.299 700.963 450.965 700.963 457.109 700.963 463.304 700.4 469.474 699.259 474.909 698.253 478.499 693.032 477.494 687.602 476.488 682.168 471.256 678.588 465.837 679.583 445.41 683.361 424.739 679.192 407.637 668.15L428.709 647.078C433.879 641.908 437.448 635.572 439.178 628.657 453.956 638.917 474.456 637.484 487.613 624.322L513.532 598.408C513.548 598.392 513.563 598.377 513.584 598.356L556.741 555.205C564.114 547.842 576.104 547.842 583.472 555.21 587.031 558.758 588.991 563.5 588.991 568.56 588.991 573.599 587.026 578.341 583.462 581.905L556.782 608.585C556.741 608.621 556.709 608.658 556.673 608.694L507.982 657.379C505.335 660.027 502.495 662.502 499.536 664.742 495.127 668.072 494.257 674.346 497.592 678.754 499.556 681.355 502.547 682.725 505.575 682.725 507.68 682.725 509.801 682.063 511.604 680.698 515.293 677.91 518.837 674.825 522.13 671.527L566.751 626.917C590.757 633.42 615.165 636.599 639.395 636.599 665.434 636.599 691.249 632.909 716.094 625.76L759.36 669.041C777.265 686.941 801.042 697.357 826.315 698.368 827.675 698.425 829.029 698.452 830.384 698.452 850.972 698.452 870.899 692.172 887.657 680.49L888.668 681.501C896.427 689.26 906.624 693.142 916.822 693.142 927.02 693.142 937.212 689.26 944.976 681.501L963.527 662.95C971.052 655.425 975.194 645.426 975.194 634.79 975.194 624.155 971.052 614.155 963.527 606.636ZM320.568 547.07C321.381 526.837 329.724 507.801 344.059 493.466L380.05 457.48C384.792 470.033 390.451 482.242 396.975 493.977L377.111 513.836C369.946 520.99 366.002 530.516 366.002 540.651 366.002 548.274 368.232 555.554 372.39 561.739 365.59 563.417 359.15 566.908 353.845 572.208L332.876 593.176C324.237 579.513 319.906 563.49 320.568 547.07ZM414.562 632.93 385.48 662.007C385.48 662.012 385.475 662.012 385.47 662.017L378.164 669.323C370.442 677.045 357.873 677.045 350.145 669.323L331.594 650.772C327.853 647.031 325.79 642.054 325.79 636.76 325.79 631.471 327.853 626.495 331.594 622.753L338.749 615.599C338.775 615.573 338.801 615.552 338.822 615.526L367.992 586.36C371.854 582.499 376.924 580.566 381.999 580.566 387.049 580.566 392.093 582.484 395.949 586.308L413.671 604.02 414.562 604.911C418.303 608.653 420.362 613.629 420.362 618.918 420.367 624.212 418.303 629.189 414.562 632.93ZM473.466 610.174C470.084 613.561 465.582 615.427 460.798 615.427 456.014 615.427 451.512 613.561 448.13 610.174L428.808 590.857C428.808 590.857 428.709 590.764 428.709 590.758L420.07 582.119 410.159 572.213C410.138 572.192 410.112 572.171 410.091 572.15L391.259 553.324C387.872 549.942 386.006 545.44 386.006 540.651 386.006 535.867 387.872 531.37 391.259 527.988L407.678 511.569C416.787 525.393 427.151 538.436 438.647 550.499L433.503 555.642C429.595 559.551 429.595 565.882 433.503 569.79 435.458 571.744 438.021 572.718 440.58 572.718 443.138 572.718 445.702 571.744 447.656 569.79L452.966 564.48C464.649 575.115 477.197 584.719 490.458 593.187ZM835.256 415.496C838.805 411.937 843.547 409.978 848.607 409.978 853.661 409.978 858.403 411.942 861.967 415.501L937.442 490.981C964.34 517.879 968.264 560.077 948.207 591.311L927.134 570.238C921.861 564.97 915.467 561.494 908.714 559.801 913.117 553.496 915.499 546.008 915.499 538.155 915.499 528.025 911.554 518.505 904.389 511.34L835.251 442.217C827.888 434.854 827.888 422.869 835.256 415.496ZM830.478 560.238 835.689 565.449C837.643 567.398 840.207 568.378 842.765 568.378 845.324 568.378 847.888 567.398 849.842 565.444 853.745 561.536 853.745 555.205 849.836 551.297L844.448 545.909C855.11 534.205 864.724 521.668 873.186 508.437L890.241 525.487C893.629 528.869 895.489 533.366 895.489 538.155 895.489 542.938 893.629 547.435 890.241 550.822L870.873 570.191C870.857 570.207 870.836 570.222 870.821 570.238L852.27 588.789C852.249 588.804 852.233 588.825 852.218 588.841L833.375 607.689C826.387 614.671 815.023 614.671 808.03 607.689L791.495 591.149C805.257 582.119 818.316 571.807 830.478 560.238ZM827.112 678.379C806.878 677.566 787.843 669.224 773.508 654.894L737.412 618.793C744.113 616.271 750.726 613.488 757.192 610.461 762.81 607.84 768.427 604.974 773.956 601.915L793.882 621.836C806.883 634.832 827.039 636.4 841.765 626.557 843.484 633.519 847.064 639.907 852.265 645.108L873.223 666.061C859.555 674.7 843.521 679.031 827.112 678.379ZM949.38 648.797 930.824 667.348C923.106 675.07 910.538 675.076 902.81 667.348L866.417 630.955C862.671 627.214 860.612 622.237 860.612 616.948 860.612 611.67 862.666 606.704 866.391 602.968L884.994 584.365C888.855 580.519 893.915 578.596 898.975 578.596 904.045 578.596 909.12 580.524 912.982 584.386L942.236 613.639C942.241 613.639 942.246 613.645 942.246 613.65L949.38 620.778C953.126 624.52 955.185 629.496 955.185 634.79 955.185 640.085 953.121 645.056 949.38 648.797Z" fill="#FFFFFF"/><path d="M402.895 317.532C410.237 324.874 420.002 328.917 430.387 328.917 440.804 328.917 450.574 324.874 457.901 317.526 473.054 302.358 473.054 277.679 457.896 262.521L420.138 224.768C429.913 208.875 441.476 194.013 454.618 180.449 454.899 180.22 455.175 179.98 455.441 179.715 455.77 179.386 456.061 179.032 456.338 178.667 456.728 178.271 457.124 177.87 457.52 177.469 472.455 162.54 489.093 149.544 506.982 138.788 507.493 138.59 507.993 138.351 508.477 138.064 515.596 133.859 522.927 129.987 530.295 126.553 540.842 121.613 551.827 117.356 562.952 113.906 563.536 113.724 564.088 113.479 564.619 113.198 607.474 100.212 652.501 98.6021 695.954 108.388L681.452 122.89C674.1 130.237 670.051 140.003 670.051 150.383 670.051 160.783 674.105 170.554 681.452 177.886 696.616 193.049 721.289 193.049 736.448 177.886L774.159 140.18C791.209 150.68 807.045 163.191 821.307 177.469 837.398 193.57 851.254 211.626 862.494 231.13 866.886 238.769 879.392 265.188 884.812 281.848 884.952 282.588 885.182 283.307 885.489 284 885.494 284.015 885.5 284.026 885.5 284.036 887.511 290.68 891.492 289.971 894.634 289.971L894.645 289.971C897.203 289.966 899.757 288.992 901.711 287.043L949.145 239.624C967.05 221.719 977.466 197.947 978.477 172.675 979.363 150.654 973.058 129.2 960.604 111.338L961.604 110.337C969.124 102.818 973.266 92.8181 973.266 82.1775 973.266 71.5421 969.124 61.5424 961.604 54.0231L943.054 35.4725C927.525 19.9493 902.268 19.9493 886.74 35.4725L885.844 36.3687C867.96 23.7167 846.439 17.25 824.251 18.0681 798.832 18.9957 774.92 29.4174 756.921 47.4158L712.462 91.8749C663.235 78.4569 611.71 78.8165 562.681 92.9067L519.634 49.8492C501.729 31.9499 477.952 21.5334 452.679 20.5225 430.679 19.6314 409.205 25.9418 391.337 38.3957L390.337 37.39C374.808 21.8669 349.551 21.8721 334.023 37.39L315.477 55.9407C307.953 63.46 303.81 73.4597 303.81 84.0951 303.81 94.7357 307.953 104.735 315.477 112.255L316.379 113.156C303.722 131.045 297.265 152.582 298.068 174.738 298.99 200.152 309.412 224.059 327.41 242.057ZM849.93 127.762C850.066 127.898 850.201 128.044 850.342 128.179L887.792 165.614C891.179 169.001 893.045 173.503 893.045 178.287 893.045 183.076 891.185 187.573 887.792 190.954L871.342 207.405C862.254 193.575 851.9 180.527 840.41 168.438L845.553 163.3C849.461 159.392 849.461 153.056 845.553 149.153 841.645 145.245 835.308 145.245 831.406 149.153L826.117 154.442C814.439 143.786 801.907 134.166 788.661 125.688L805.586 108.763C812.573 101.776 823.949 101.776 830.937 108.763ZM958.488 171.872C957.681 192.106 949.338 211.136 935.003 225.471L898.746 261.713C893.608 248.092 886.068 232.813 881.977 225.07L901.935 205.107C909.105 197.947 913.049 188.427 913.049 178.292 913.049 170.668 910.819 163.394 906.661 157.204 913.461 155.526 919.907 152.034 925.212 146.73L946.175 125.766C954.82 139.435 959.15 155.453 958.488 171.872ZM914.899 43.8255C919.975 43.8255 925.045 45.7587 928.906 49.62L947.462 68.1707C951.203 71.9121 953.262 76.8832 953.262 82.1775 953.262 87.4717 951.203 92.4481 947.462 96.1895L940.182 103.469C940.162 103.49 940.136 103.511 940.12 103.532L911.064 132.582C903.342 140.305 890.773 140.305 883.05 132.582L864.5 114.032C856.772 106.304 856.772 93.7352 864.495 86.0127L900.893 49.62C904.754 45.7535 909.824 43.8255 914.899 43.8255ZM771.074 61.5581C797.978 34.6543 840.181 30.7306 871.425 50.7924L850.347 71.8652C845.074 77.1386 841.593 83.5375 839.904 90.296 825.126 80.0202 804.606 81.448 791.438 94.6158L722.311 163.738C714.948 171.101 702.968 171.101 695.595 163.733 692.025 160.174 690.066 155.432 690.066 150.383 690.066 145.349 692.03 140.607 695.605 137.032ZM388.768 193.398C385.381 190.016 383.521 185.519 383.521 180.731 383.521 175.947 385.381 171.45 388.768 168.063L445.64 111.202C452.627 104.214 463.992 104.214 470.98 111.202L487.321 127.538C473.497 136.631 460.444 146.99 448.36 158.485L443.31 153.436C439.402 149.533 433.071 149.533 429.163 153.436 425.26 157.344 425.26 163.681 429.163 167.589L434.363 172.784C423.707 184.472 414.103 197.03 405.641 210.271ZM451.882 40.5114C472.116 41.319 491.157 49.6617 505.492 63.9968L541.436 99.9465C528.868 104.688 516.653 110.347 504.929 116.851L485.128 97.0493C472.132 84.0534 451.966 82.4849 437.24 92.3387 435.52 85.3717 431.94 78.9832 426.735 73.7828L405.771 52.8246C419.445 44.1798 435.473 39.8496 451.882 40.5114ZM329.625 70.0883 348.175 51.5376C352.037 47.6763 357.107 45.7483 362.182 45.7483 367.258 45.7483 372.328 47.6763 376.194 51.5376L383.443 58.7911C383.479 58.8224 383.516 58.864 383.552 58.8953L412.592 87.9303C416.334 91.6769 418.392 96.6481 418.392 101.942 418.392 107.237 416.334 112.208 412.592 115.949L394.036 134.5C386.314 142.222 373.745 142.228 366.017 134.5L329.625 98.1071C325.878 94.3657 323.82 89.3893 323.82 84.0951 323.82 78.806 325.878 73.8297 329.625 70.0883ZM330.802 127.58 351.87 148.647C357.143 153.921 363.542 157.396 370.296 159.09 365.892 165.395 363.511 172.878 363.511 180.731 363.511 190.861 367.461 200.386 374.621 207.546L443.748 276.668C451.111 284.031 451.111 296.016 443.743 303.389 440.189 306.948 435.447 308.908 430.387 308.908 425.348 308.908 420.607 306.948 417.042 303.384L341.558 227.905C314.654 201.006 310.735 158.814 330.802 127.58Z" fill="#FFFFFF"/><path d="M504.71 394.72 455.608 438.241C447.859 445.109 447.14 457.001 454.008 464.749L481.063 495.269C481.094 495.301 481.12 495.337 481.146 495.373 481.173 495.4 481.193 495.42 481.219 495.441L507.17 524.716C510.869 528.895 516.038 531.026 521.229 531.026 525.658 531.026 530.103 529.473 533.672 526.31L582.774 482.784C590.528 475.921 591.242 464.025 584.374 456.276L531.218 396.315C524.35 388.566 512.459 387.852 504.71 394.72ZM517.06 410.509 536.35 432.265 489.39 474.504 469.797 452.399ZM521.322 510.521 502.667 489.475 549.622 447.241 568.585 468.626Z" fill="#FFFFFF"/><path d="M749.136 196.129 678.701 258.555C674.642 262.156 672.229 267.122 671.901 272.536 671.578 277.95 673.375 283.166 676.976 287.225L728.105 344.899C731.701 348.958 736.667 351.371 742.081 351.699 742.498 351.725 742.915 351.736 743.326 351.736 748.292 351.736 753.029 349.943 756.77 346.624L827.206 284.193C831.265 280.597 833.677 275.631 834.006 270.217 834.334 264.798 832.531 259.582 828.93 255.522L777.807 197.854C770.376 189.475 757.515 188.703 749.136 196.129ZM814.032 269.013C814.027 269.138 813.97 269.19 813.933 269.216L813.933 269.222 743.498 331.648C743.462 331.679 743.42 331.742 743.285 331.726 743.159 331.721 743.107 331.658 743.076 331.627L691.952 273.953C691.921 273.922 691.869 273.859 691.874 273.74 691.885 273.614 691.942 273.562 691.973 273.531L762.408 211.105C762.466 211.053 762.539 211.027 762.606 211.027 762.695 211.027 762.773 211.058 762.83 211.126L813.96 268.8C813.991 268.831 814.043 268.893 814.032 269.013Z" fill="#FFFFFF"/></g></svg>