<svg width="512" height="512" xmlns="http://www.w3.org/2000/svg" xmlns:xlink="http://www.w3.org/1999/xlink" overflow="hidden"><defs><clipPath id="clip0"><rect x="384" y="104" width="512" height="512"/></clipPath></defs><g clip-path="url(#clip0)" transform="translate(-384 -104)"><path d="M888 104 568 104C563.576 104 560 107.576 560 112L560 263.992 512 263.968 512 255.28C531.088 244.2 543.976 223.608 544 200.016 544 200.008 544 200.008 544 200L544 171.992C544 154.416 537.232 138.432 526.248 126.344 526.064 126.112 525.856 125.896 525.648 125.688 513.224 112.376 495.592 104 475.992 104 438.504 104 408 134.504 408 171.992L408 175.96C408 176.304 408.16 176.592 408.192 176.92 408.256 177.456 408.336 177.968 408.504 178.464 408.672 178.968 408.896 179.4 409.144 179.848 409.392 180.288 409.648 180.696 409.976 181.08 410.312 181.48 410.696 181.808 411.112 182.136 411.504 182.456 411.888 182.728 412.336 182.96 412.824 183.216 413.328 183.376 413.856 183.528 414.168 183.616 414.416 183.8 414.744 183.856 415.184 183.928 415.56 183.944 416 184.008L416 200 416 200.016C416.024 223.608 428.912 244.2 448 255.28L448 264.016 424.08 264.016C424.048 264.016 424.032 264 424 264 401.944 264 384 281.944 384 304L384 352C384 356.424 387.576 360 392 360 396.424 360 400 356.424 400 352L400 304C400 290.784 410.736 280.032 423.944 280.008 423.968 280.008 423.984 280.016 424 280.016L452.744 280.016 458.344 285.616C458.424 285.704 458.536 285.728 458.624 285.8 459.224 286.352 459.904 286.792 460.64 287.136 460.872 287.248 461.096 287.352 461.328 287.432 462.176 287.736 463.064 287.944 463.984 287.952L464 287.952 464.008 287.952C464.024 287.952 464.032 287.944 464.048 287.944 465.168 287.936 466.256 287.648 467.296 287.168 467.392 287.128 467.48 287.152 467.576 287.104L480 280.904 492.424 287.112C492.52 287.16 492.608 287.136 492.704 287.176 493.744 287.656 494.84 287.944 495.952 287.952 495.968 287.952 495.976 287.96 495.992 287.96L496 287.96 496.016 287.96C496.936 287.952 497.824 287.744 498.672 287.44 498.904 287.36 499.128 287.256 499.36 287.144 500.096 286.8 500.776 286.36 501.384 285.8 501.464 285.728 501.576 285.696 501.656 285.624L507.312 279.968 567.976 280C567.984 279.992 567.992 280 568 280 568.008 280 568.016 279.992 568.024 279.992L575.992 280 576 280C593.648 280 608 265.648 608 248 608 243.584 611.584 240 616 240 620.416 240 624 243.584 624 248 624 274.472 602.472 296 576 296L536 296C531.576 296 528 299.576 528 304L528 352C528 356.424 531.576 360 536 360 540.424 360 544 356.424 544 352L544 312 560 312 560 352C560 356.424 563.576 360 568 360L888 360C892.424 360 896 356.424 896 352L896 112C896 107.576 892.424 104 888 104ZM521.352 146.624C524 151.352 525.944 156.52 527.016 162.008 523.36 159.232 519.904 157.464 516.52 156.456ZM475.992 120C489.12 120 501.08 124.92 510.24 132.96L498.384 157.104C495.216 158.032 491.936 159.272 488.448 160.648 475.168 165.912 457.088 172.824 424.16 168.896 425.768 141.672 448.368 120 475.992 120ZM432 199.96 432 185.752C463.048 187.8 481.544 180.6 494.336 175.528 509.424 169.552 513.912 167.84 528 185.728L528 199.96C528 226.416 506.472 247.936 480 247.936 453.528 247.936 432 226.416 432 199.96ZM480 263.936C485.528 263.936 490.872 263.152 496 261.824L496 268.648 494.424 270.224 483.584 264.8C483.408 264.712 483.216 264.728 483.04 264.648 482.536 264.44 482.016 264.336 481.48 264.224 480.976 264.128 480.504 264.04 480.008 264.04 479.504 264.04 479.04 264.136 478.536 264.224 478 264.336 477.48 264.432 476.976 264.648 476.8 264.728 476.608 264.712 476.432 264.8L465.592 270.224 464 268.648 464 261.824C469.128 263.16 474.472 263.936 480 263.936ZM880 344 576 344 576 312C611.288 312 640 283.288 640 248 640 234.768 629.232 224 616 224 602.768 224 592 234.768 592 248 592 256.824 584.824 264 576 264L576 120 880 120Z" fill="#FFFFFF"/><path d="M432 352 432 312C432 307.576 428.424 304 424 304 419.576 304 416 307.576 416 312L416 352C416 356.424 419.576 360 424 360 428.424 360 432 356.424 432 352Z" fill="#FFFFFF"/><path d="M864 551.968C863.912 551.968 863.848 552.016 863.768 552.016L848 552.016 848 535.28C866.928 524.296 879.744 503.928 879.968 480.576 879.968 480.528 879.976 480.48 879.976 480.424 879.976 480.28 880 480.152 880 480.008 880 480 880 480 880 479.992L880 440.08C880 440.048 880.016 440.024 880.016 440 880.016 425.136 869.776 412.704 856 409.128L856 392C856 387.576 852.424 384 848 384L808 384C777.144 384 752.024 409.104 752 439.96L752 439.968 752 480 752 480.016C752 480.16 752.024 480.288 752.024 480.432 752.024 480.488 752.032 480.536 752.032 480.584 752.256 503.936 765.072 524.304 784 535.288L784 552.024 768.232 552.024C768.144 552.024 768.08 551.976 768 551.976 750.352 551.976 736 566.328 736 583.968L736 608C736 612.424 739.576 616 744 616L888 616C892.424 616 896 612.424 896 608L896 583.96C896 566.32 881.648 551.968 864 551.968ZM808 400 840 400 840 416C840 420.424 843.576 424 848 424 856.808 424 863.968 431.144 864.008 439.928 864.008 439.944 864 439.952 864 439.968L864 477.88C860.544 483.552 846.008 504 816 504 785.976 504 771.528 483.728 768 477.896L768 440C768 417.944 785.944 400 808 400ZM778.624 509.992C788.112 515.656 800.392 520 816 520 831.608 520 843.888 515.656 853.376 509.992 844.568 520.92 831.096 527.936 816 527.936 800.904 527.936 787.432 520.92 778.624 509.992ZM816 543.936C821.528 543.936 826.872 543.152 832 541.824L832 551.96 800 551.96 800 541.824C805.128 543.16 810.472 543.936 816 543.936ZM767.84 567.984C767.896 567.984 767.944 568.016 768 568.016L792 568.016C792.096 568.016 792.168 567.96 792.272 567.96L839.728 567.96C839.832 567.96 839.904 568.016 840 568.016L864 568.016C864.056 568.016 864.104 567.984 864.16 567.984 872.912 568.072 880 575.192 880 583.96L880 600 752 600 752 583.96C752 575.192 759.096 568.072 767.84 567.984Z" fill="#FFFFFF"/><path d="M392 616 536 616C540.424 616 544 612.424 544 608L544 583.96C544 566.32 529.648 551.968 512 551.968 511.912 551.968 511.848 552.016 511.768 552.016L496 552.016 496 535.28C514.928 524.296 527.744 503.928 527.968 480.576 527.968 480.528 527.976 480.48 527.976 480.424 527.976 480.28 528 480.152 528 480.008 528 480 528 480 528 479.992L528 447.96C528 412.696 499.288 384 464 384 428.712 384 400 412.696 400 447.968L400 480 400 480.016C400 480.16 400.024 480.288 400.024 480.432 400.024 480.488 400.032 480.536 400.032 480.584 400.256 503.928 413.072 524.296 432 535.28L432 552.016 416.232 552.016C416.144 552.016 416.08 551.968 416 551.968 398.352 551.968 384 566.32 384 583.96L384 608C384 612.424 387.576 616 392 616ZM464 400C490.472 400 512 421.512 512 447.968L512 477.88C508.544 483.552 494.008 504 464 504 433.976 504 419.528 483.728 416 477.896L416 447.968C416 421.512 437.528 400 464 400ZM426.624 509.992C436.112 515.656 448.392 520 464 520 479.608 520 491.888 515.656 501.376 509.992 492.568 520.92 479.096 527.936 464 527.936 448.904 527.936 435.432 520.92 426.624 509.992ZM464 543.936C469.528 543.936 474.872 543.152 480 541.824L480 551.96 448 551.96 448 541.824C453.128 543.16 458.472 543.936 464 543.936ZM415.84 567.984C415.896 567.984 415.944 568.016 416 568.016L440 568.016C440.096 568.016 440.168 567.96 440.272 567.96L487.728 567.96C487.832 567.96 487.904 568.016 488 568.016L512 568.016C512.056 568.016 512.104 567.984 512.16 567.984 520.912 568.072 528 575.192 528 583.96L528 600 400 600 400 583.96C400 575.192 407.096 568.072 415.84 567.984Z" fill="#FFFFFF"/><path d="M608 552.016 592.232 552.016C592.144 552.016 592.08 551.968 592 551.968 574.352 551.968 560 566.32 560 583.96L560 608C560 612.424 563.576 616 568 616L712 616C716.424 616 720 612.424 720 608L720 583.96C720 566.32 705.648 551.968 688 551.968 687.912 551.968 687.848 552.016 687.768 552.016L672 552.016 672 546.544C672 545.64 671.768 544.808 671.488 544L712 544C716.424 544 720 540.424 720 536L720 456.336C720 412.224 684.112 376.336 640 376.336 595.888 376.336 560 412.224 560 456.336L560 536C560 540.424 563.576 544 568 544L608.512 544C608.232 544.816 608 545.64 608 546.544ZM704 583.96 704 600 576 600 576 583.96C576 575.192 583.096 568.072 591.84 567.984 591.896 567.984 591.944 568.016 592 568.016L614.872 568.016 637.464 575.544C637.48 575.552 637.496 575.544 637.504 575.552 638.304 575.808 639.136 575.96 640 575.96 640.864 575.96 641.696 575.808 642.496 575.552 642.512 575.544 642.52 575.552 642.536 575.544L665.128 568.016 688 568.016C688.056 568.016 688.104 567.984 688.16 567.984 696.904 568.072 704 575.192 704 583.96ZM640 392.336C675.288 392.336 704 421.048 704 456.336L704 528 576 528 576 456.336C576 421.048 604.712 392.336 640 392.336ZM656.512 544C656.232 544.816 656 545.64 656 546.544L656 554.192 640 559.528 624 554.192 624 546.544C624 545.64 623.768 544.808 623.488 544Z" fill="#FFFFFF"/><path d="M679.984 279.992C666.752 279.992 655.984 290.76 655.984 303.992 655.984 317.224 666.752 327.992 679.984 327.992L727.968 327.992C738.384 327.992 747.176 321.288 750.488 312L816 312C820.424 312 824 308.424 824 304L824 256.008 856 256.008C860.424 256.008 864 252.432 864 248.008L864 216C864 211.576 860.424 208 856 208L776 208C771.576 208 768 211.576 768 216L768 224.008 746.184 224.008 711.976 203.48 711.976 184 727.968 184C741.2 184 751.968 173.232 751.968 160 751.968 146.768 741.2 136 727.968 136L679.984 136C666.752 136 655.984 146.768 655.984 160 655.984 173.232 666.752 184 679.984 184L695.976 184 695.976 203.48 659.864 225.152C657.456 226.6 655.984 229.2 655.984 232.008 655.984 234.816 657.464 237.424 659.864 238.864L695.976 260.536 695.976 279.992ZM679.984 152 727.968 152C732.384 152 735.968 155.584 735.968 160 735.968 164.416 732.384 168 727.968 168L679.984 168C675.568 168 671.984 164.416 671.984 160 671.984 155.584 675.568 152 679.984 152ZM679.984 295.992 727.968 295.992C732.384 295.992 735.968 299.576 735.968 303.992 735.968 308.408 732.384 311.992 727.968 311.992L679.984 311.992C675.568 311.992 671.984 308.408 671.984 303.992 671.984 299.576 675.568 295.992 679.984 295.992ZM784 224 848 224 848 240.008 784 240.008ZM703.976 217.336 728.424 232.008 703.976 246.68 679.528 232.008ZM711.976 260.536 746.184 240.008 768 240.008 768 248.008C768 252.432 771.576 256.008 776 256.008L808 256.008 808 296 750.496 296C747.184 286.704 738.384 279.992 727.968 279.992L711.976 279.992Z" fill="#FFFFFF"/></g></svg>