<svg xmlns="http://www.w3.org/2000/svg" viewBox="0 0 207.96 125.73"><path d="M168.15 9a30.81 30.81 0 11-16 57.14h-8.52l-.3-8.08a31.79 31.79 0 01-2.33-3.71v.13q-.21 5.19-.35 11.94L135 62.11c-1.09-.75-2.71-1.89-4.86-3.4l-.14 7.43h-4.51q-.12-2.85-.52-10.75-.36-6.39-.72-10.8h7l5.22 4.94v-2.67c0-.67-.09-1.32-.17-2.27h1.39a31.36 31.36 0 01-.37-4.78A30.8 30.8 0 01168.15 9m0-9a39.87 39.87 0 00-39.59 35.59h-4.28a9 9 0 00-9 9.74c.24 2.84.47 6.39.7 10.56.26 5.15.44 8.73.51 10.61a9 9 0 009 8.64H130a9 9 0 005.11-1.58 9 9 0 005.49 1.86 9.12 9.12 0 002.32-.3h6.85A39.81 39.81 0 10168.15 0zM58.3 16.8l-2.64 58.9q4.48 0 13.46-1a42.25 42.25 0 005.08-.93c-.31 1.24-.88 3.56-1.71 7q-.64 3-1.11 7h-29.2v20.93A33.36 33.36 0 019 75.38h20.2q-.3-9.51-.81-23.35-.6-12.76-2.17-35.23H58.3m0-9H26.22a9 9 0 00-9 9.63c1 14.83 1.76 26.6 2.16 35 .18 5.07.35 9.74.5 14H9a9 9 0 00-9 9 42.46 42.46 0 0042.13 42.36 9 9 0 009-9V96.81h20.2a9 9 0 008.94-8c.27-2.33.59-4.36 1-6q1.13-4.64 1.6-6.53a9 9 0 00-8.44-11.45h-.66a9.12 9.12 0 00-1.75.26 32.29 32.29 0 01-3.8.7h-.07c-1.07.12-2.08.22-3.05.31l2.19-48.9a9 9 0 00-9-9.4zm0 18z" fill="#271534"/><path d="M104.78 29.17Q124 29.17 124 43a12.39 12.39 0 01-2.36 7.46 11.73 11.73 0 01-5.21 4.07c.44.68 1.53 2.13 3.27 4.32a52.22 52.22 0 004 4c-.72.26-2.3.91-4.74 2-1.71.77-3.31 1.54-4.82 2.28-.45-.55-1.43-2-3-4.25-.71-1.16-1.73-3.11-3.09-5.85l-.23 8H95q-.26-5-.71-16.44-.29-6.82-.99-18.76a110.88 110.88 0 0111.48-.66m3.5 22.83a6.69 6.69 0 003.39-.85 3.52 3.52 0 002-3.27 3.23 3.23 0 00-1.83-3.11 6.39 6.39 0 00-2.91-.6h-.47l-.18 7.83m-3.5-31.87a120.64 120.64 0 00-12.42.71 9 9 0 00-8 9.5c.48 7.84.79 14 .92 18.41v.09c.31 7.77.54 13.18.71 16.53A9 9 0 0095 74h13.38a9 9 0 009.8 1.18c1.39-.69 2.89-1.4 4.48-2.13 3.09-1.33 4-1.66 4.15-1.73a9 9 0 003-15.07l-.72-.67A21.26 21.26 0 00133 43c0-9.52-4.66-14.86-8.56-17.67-4.82-3.46-11.26-5.14-19.68-5.14z" fill="#271534"/><path d="M93.66 68a15.51 15.51 0 0112 5.13q4.92 5.43 4.93 14.94a27 27 0 01-2.28 11.26 14.87 14.87 0 01-6.77 7.56c.62.62 1.5 1.45 2.63 2.47a28 28 0 004.09 2.68c-.62.63-1.66 1.55-3.11 2.76a26.94 26.94 0 01-3.41 1.92 18.2 18.2 0 01-3-2.91 16.3 16.3 0 01-1.95-3.06 13.81 13.81 0 001.7-2.17 12.56 12.56 0 01-4.91 1 14.93 14.93 0 01-12.57-6.53 24.59 24.59 0 01-4.52-15q0-9.57 4.93-15A15.65 15.65 0 0193.66 68m0 32.72q1.95 0 3.44-2.81a11.06 11.06 0 001.37-5.28c0-4.69-1.56-7-4.66-7a4.07 4.07 0 00-3.74 2.09 9.36 9.36 0 00-1 5A13.54 13.54 0 0090.35 98c.89 1.84 2 2.76 3.31 2.76m0-41.72a24.71 24.71 0 00-18.82 8c-4.82 5.3-7.27 12.38-7.27 21 0 7.88 2.11 14.73 6.29 20.38a23.82 23.82 0 0017.22 10l.61.82.08.1a27.58 27.58 0 004.37 4.33 9 9 0 009.59 1.07 36.69 36.69 0 004.59-2.61c.22-.16.44-.32.65-.5 1.69-1.41 2.86-2.46 3.69-3.29A9 9 0 00115 106a31.51 31.51 0 001.56-3 36.11 36.11 0 003.07-15c0-8.61-2.45-15.67-7.27-21a24.52 24.52 0 00-18.7-8zm-4.28 32.45z" fill="#271534"/><path d="M74 43.89l-.6 8.88c-.35-.06-1.09-.15-2.24-.29-.79-.08-1.65-.13-2.59-.14L68.34 55h1c1 0 2.36 0 4-.08-.1.34-.27 1-.49 1.93-.13.57-.25 1.23-.35 2a18.35 18.35 0 00-2-.25h-2.24l-.14 3.13q1 0 3.87-.18a12.91 12.91 0 001.76-.34c-.08.29-.25 1-.52 2.09-.14.57-.29 1.29-.48 2.16H60.19l-.4-11c-.08-2.52-.26-6-.55-10.55H74m0-9H59.24a9 9 0 00-9 9.58c.28 4.38.46 7.83.53 10.24v.06l.41 11a9 9 0 009 8.67h12.57a9 9 0 008.8-7.11l.43-2c.25-1 .41-1.64.48-1.91a9 9 0 00-.46-5.86v-.07a9.12 9.12 0 00.31-3.66v-.47l.69-8.65v-.84a9 9 0 00-9-9z" fill="#271534"/><path d="M87.52 43.89q.39 2.2 2.15 10.26 1 4.2 2.68 11.29h-7.68l-.51-1.87c-.22.09-.76.37-1.62.86a16.2 16.2 0 00-1.84 1.42l-.8-1.7c-.15-.34-.38-.81-.68-1.42l-.76 2.71h-4.07Q75.29 62 77.17 54q1.15-5.34 1.92-10.12h8.43m-7.88 17.56c.28 0 .91 0 1.91-.17a14.53 14.53 0 002-.43c-.16-.5-.44-1.3-.85-2.42-.24-.61-.61-1.46-1.1-2.55-.22.54-.56 1.43-1 2.67-.26.71-.56 1.68-.9 2.9m7.88-26.55h-8.49a9 9 0 00-8.88 7.57c-.49 3-1.1 6.21-1.82 9.56-1.23 5.19-2.14 8.94-2.71 11.16a9 9 0 008.71 11.26H78c.27.08.55.16.83.22a9.58 9.58 0 001.84.19 8.75 8.75 0 002.88-.48 8 8 0 001.09.07h7.68a9 9 0 008.75-11.11c-1.12-4.62-2-8.37-2.65-11.15-1.41-6.48-1.9-8.94-2.07-9.87a9 9 0 00-8.86-7.42zM133.47 79.29l-.32 9.08c-.1 2.59-.14 6.51-.14 11.76a21.57 21.57 0 01-7.33 1.29q-4.61 0-7-1.84a8.56 8.56 0 01-2.88-4.85 51.13 51.13 0 01-.92-6.93c-.28-3.11-.46-5.94-.52-8.51h9c0 1.24-.1 3.25-.17 6v6.6a11.72 11.72 0 00.56 4.4 2.29 2.29 0 002.3 1.2 2.63 2.63 0 001.1-.28q0-2.9-.17-9.19c-.1-2.1-.27-5-.52-8.77h6.93m0-9h-6.93a9.16 9.16 0 00-1.57.14 9 9 0 00-1.56-.14h-9a9 9 0 00-9 9.23c.07 2.74.26 5.8.55 9.08a55.09 55.09 0 001.21 8.44 17.25 17.25 0 006.12 9.74c3.2 2.45 7.39 3.69 12.47 3.69a30.53 30.53 0 0010.37-1.82 9 9 0 006-8.47c0-5.11 0-9 .13-11.44l.31-8.85a5 5 0 000-.55 9 9 0 00-9-9zm0 18z" fill="#271534"/><path d="M144.36 79.29l-.55 11.47c-.1 2.47-.23 5.83-.37 10.08h-7.87l-.95-21.55h9.74m0-9h-9.74a9 9 0 00-9 9.4l1 21.55a9 9 0 009 8.6h7.87a9 9 0 009-8.7c.14-4.33.26-7.59.36-10l.48-11.14v-.66a9 9 0 00-9-9zm0 18z" fill="#271534"/><path d="M162.75 79.29L155 96.56h.66c.82 0 1.94-.07 3.34-.21a11.77 11.77 0 001.74-.38l-.74 2.21c-.19.59-.43 1.48-.74 2.66h-12.63l3.79-13.18-1.93.11c-.69 0-1.64.16-2.84.35l-.31-8.83h17.41m0-9h-17.41a9 9 0 00-9 9.32l.31 8.82a9 9 0 002.48 5.9l-1.15 4a9 9 0 008.65 11.48h12.67a9 9 0 008.71-6.73c.35-1.35.53-2 .61-2.2.31-1 .54-1.68.68-2.09a9 9 0 00-1.6-8.56l3.16-7.05a9 9 0 00-8.11-12.92z" fill="#271534"/><circle cx="168.15" cy="39.81" r="30.81" fill="#f2e3f8"/><path d="M42.18 75.38H9a33.36 33.36 0 0033.18 33.36z" fill="#bfbfbf"/><path d="M55.66 75.7l2.64-58.9H26.22q1.56 22.47 2.17 35.2.91 24.91 1.15 35.78h41.84q.47-4 1.11-7c.83-3.42 1.4-5.74 1.71-7a42.25 42.25 0 01-5.08.93q-8.97.99-13.46.99zM123.7 62.81a52.22 52.22 0 01-4-4c-1.74-2.19-2.83-3.64-3.27-4.32a11.73 11.73 0 005.21-4.07A12.39 12.39 0 00124 43q0-13.81-19.24-13.81a110.88 110.88 0 00-11.48.66q.74 11.94.94 18.69Q94.69 60 95 65h12.87l.23-8c1.36 2.74 2.38 4.69 3.09 5.85 1.52 2.29 2.5 3.7 3 4.25 1.51-.74 3.11-1.51 4.82-2.28 2.39-1.1 3.99-1.75 4.69-2.01zm-12-11.62a6.69 6.69 0 01-3.39.85l.14-7.82a6.71 6.71 0 013.38.59 3.23 3.23 0 011.83 3.11 3.52 3.52 0 01-1.99 3.27z" fill="#ff8a64"/><path d="M93.66 68a15.65 15.65 0 00-12.16 5.09q-4.94 5.41-4.93 15a24.59 24.59 0 004.52 15 14.93 14.93 0 0012.57 6.53 12.56 12.56 0 004.91-1 13.81 13.81 0 01-1.7 2.17 16.3 16.3 0 001.95 3.06 18.2 18.2 0 003 2.91 26.94 26.94 0 003.41-1.92c1.45-1.21 2.49-2.13 3.11-2.76a28 28 0 01-4.09-2.68c-1.13-1-2-1.85-2.63-2.47a14.87 14.87 0 006.77-7.56 27 27 0 002.28-11.26q0-9.49-4.93-14.94A15.51 15.51 0 0093.66 68zm3.44 29.92q-1.48 2.81-3.44 2.81c-1.31 0-2.42-.92-3.31-2.76a13.54 13.54 0 01-1.27-5.28 9.36 9.36 0 011-5 4.07 4.07 0 013.74-2.09c3.1 0 4.66 2.34 4.66 7a11.06 11.06 0 01-1.38 5.32z" fill="#595959"/><path d="M60.19 65.44h12.56c.19-.87.34-1.59.48-2.16.27-1.1.44-1.8.52-2.09a12.91 12.91 0 01-1.76.34q-2.82.16-3.87.18l.14-3.13h2.24a18.35 18.35 0 012 .25c.1-.75.22-1.41.35-2 .22-.94.39-1.59.49-1.93-2.33.07-4 .09-5 .07l.21-2.68c.94 0 1.8.06 2.59.14 1.15.14 1.89.23 2.24.29l.6-8.88H59.24c.29 4.52.47 8 .55 10.55zM79.22 62.73c.3.61.53 1.08.68 1.42l.8 1.7a16.2 16.2 0 011.84-1.42c.86-.49 1.4-.77 1.62-.86l.51 1.87h7.68q-1.71-7.08-2.68-11.29-1.76-8.05-2.15-10.26h-8.43q-.77 4.79-1.92 10.11-1.89 8-2.78 11.43h4.07zm1.32-4.19c.45-1.24.79-2.13 1-2.67.49 1.09.86 1.94 1.1 2.55.41 1.12.69 1.92.85 2.42a14.53 14.53 0 01-2 .43c-1 .12-1.63.17-1.91.17.42-1.22.7-2.19.96-2.9zM125.52 66.14H130l.14-7.43 4.86 3.41c2.5 1.9 4.37 3.34 5.6 4.3q.13-6.75.35-11.94.35-7 .54-9.89h-5.2c.08.95.14 1.7.17 2.27s0 1.54 0 2.67l-5.22-4.94h-7q.36 4.41.72 10.8.45 7.9.56 10.75zM143.63 66.14h12.56c.18-.87.34-1.59.47-2.16.27-1.1.45-1.8.52-2.09a12.85 12.85 0 01-1.75.34q-2.82.17-3.87.18l.14-3.13h2.24c1.08.1 1.76.19 2 .25.11-.75.22-1.41.36-2 .22-.94.38-1.59.49-1.93-2.33.07-4 .1-5 .07L152 53c.94 0 1.8.06 2.58.14l2.25.29.6-8.88h-14.76c.29 4.52.48 8 .55 10.55zM174.83 62.38c-1.06-1.35-1.73-2.23-2-2.65a7.17 7.17 0 003.2-2.5 7.54 7.54 0 001.45-4.57q0-8.47-11.8-8.48a68 68 0 00-7 .41c.3 4.88.49 8.71.57 11.46.19 4.69.33 8 .44 10.09h7.9l.14-4.91c.84 1.68 1.47 2.88 1.9 3.59.93 1.41 1.54 2.28 1.81 2.61.92-.46 1.91-.92 3-1.4 1.49-.65 2.46-1 2.9-1.21a32.34 32.34 0 01-2.51-2.44zm-4.94-4.68a4.18 4.18 0 01-2.07.52l.08-4.8a4.16 4.16 0 012.08.36 2 2 0 011.12 1.91 2.16 2.16 0 01-1.21 2.01z" fill="#ff8a64"/><path d="M127.06 88.06q.16 6.3.17 9.19a2.63 2.63 0 01-1.1.28 2.29 2.29 0 01-2.3-1.2 11.72 11.72 0 01-.56-4.4q-.08-4.28 0-6.6c.07-2.79.12-4.8.17-6h-9c.06 2.57.24 5.4.52 8.51a51.13 51.13 0 00.92 6.93 8.56 8.56 0 002.88 4.85q2.4 1.85 7 1.84a21.57 21.57 0 007.33-1.29c0-5.25 0-9.17.14-11.76l.32-9.08h-6.93c.17 3.67.38 6.67.44 8.73zM135.57 100.84h7.87c.14-4.25.27-7.61.37-10.08l.55-11.47h-9.74zM145.34 79.29l.31 8.83c1.2-.19 2.15-.31 2.84-.35l1.93-.11-3.79 13.18h12.67c.31-1.18.55-2.07.74-2.66l.72-2.19a11.77 11.77 0 01-1.74.38 25.48 25.48 0 01-4 .19l7.73-17.27z" fill="#595959"/></svg>