<svg xmlns="http://www.w3.org/2000/svg" style="color: white" viewBox="0 0 512 453.37"><path style="fill: white !important;" d="M238.52 58L192 9.28a30 30 0 00-42.41-1L9.28 142.3a30 30 0 00-1 42.42l90.69 95V118a60.07 60.07 0 0160-60zM489.37 61.46l-188-47.69a30 30 0 00-36.45 21.71L259.16 58H353a60.07 60.07 0 0160 60v298.51a30.2 30.2 0 009.13-3.58 29.83 29.83 0 0013.73-18.41l75.22-296.61a30 30 0 00-21.71-36.45z"/><path style="fill: white !important;" d="M354 87.37H160a30 30 0 00-30 30v306a30 30 0 0030 30h194a30 30 0 0030-30v-306a30 30 0 00-30-30zm-153 56a15 15 0 11-15 15 15 15 0 0115-15zm112 254a15 15 0 1115-15 15 15 0 01-15 15zm-19-116.55l8.73 50.93L257 307.7l-45.74 24.05 8.74-50.93-37-36.06 51.13-7.43L257 191l22.87 46.34 51.13 7.42z"/></svg>