<svg xmlns="http://www.w3.org/2000/svg" viewBox="0 0 284.47 173.84"><path d="M143.67 39.55q26.55 0 26.55 19.07A17.06 17.06 0 01167 68.91a16.22 16.22 0 01-7.2 5.62q.91 1.41 4.52 6a74.94 74.94 0 005.49 5.5c-1 .35-3.17 1.26-6.54 2.71a240.36 240.36 0 00-6.66 3.16c-.61-.76-2-2.72-4.07-5.87q-1.45-2.4-4.26-8.09h-.06l-.32 11h-17.8q-.34-6.89-1-22.69-.28-9.32-1.3-25.8a152.19 152.19 0 0115.85-.91m4.83 31.57a9.23 9.23 0 004.69-1.11 4.89 4.89 0 002.72-4.52 4.45 4.45 0 00-2.53-4.29 8.73 8.73 0 00-4-.83h-.65l-.19 10.8m-4.83-45.57a166.28 166.28 0 00-17.31 1 14 14 0 00-12.51 14.78c.66 10.79 1.09 19.33 1.28 25.36v.13c.43 10.79.75 18.26 1 22.85a14 14 0 0014 13.29H148a14 14 0 008.55 2.91 13.83 13.83 0 006.2-1.46c1.91-.94 4-1.92 6.13-2.9 4.33-1.87 5.44-2.28 5.62-2.35a14 14 0 004.74-23.45 30.89 30.89 0 004.94-17.08c0-13.82-6.78-21.59-12.47-25.68-6.93-5-16.11-7.39-28.08-7.39z" fill="#fff"/><path d="M102.45 61.12l-.8 11.79c-.46-.07-1.45-.2-3-.39-1-.1-2.19-.16-3.43-.18L95 75.89h1.32c1.33 0 3.12 0 5.37-.11-.14.46-.35 1.32-.65 2.57-.18.76-.33 1.64-.47 2.63a26.4 26.4 0 00-2.7-.34h-2.98l-.19 4.15c.93 0 2.65-.09 5.15-.24a17.9 17.9 0 002.32-.45c-.1.39-.33 1.31-.68 2.78-.18.76-.39 1.71-.64 2.87H84.14l-.54-14.62q-.15-5-.73-14h19.58m0-14H82.87A14 14 0 0068.9 62c.37 5.81.61 10.36.7 13.53v.1l.54 14.61a14 14 0 0014 13.48h16.67a14 14 0 0013.69-11.04c.22-1 .41-1.89.57-2.57.32-1.32.53-2.16.62-2.51a14 14 0 00-.45-8.43 14 14 0 00.34-4.85v-.46l.8-11.79a14 14 0 00-14-15z" fill="#fff"/><path d="M120.43 61.12q.57 2.88 2.85 13.62 1.29 5.6 3.56 15h-10.19l-.65-2.48a23 23 0 00-2.14 1.14 20.45 20.45 0 00-2.44 1.88L110.31 88c-.21-.44-.51-1.07-.91-1.88l-1 3.6H103q1.2-4.6 3.69-15.19 1.53-7.08 2.55-13.43h11.2M110 84.43c.37 0 1.22-.08 2.53-.23a18.26 18.26 0 002.59-.57c-.21-.66-.58-1.73-1.12-3.21q-.48-1.23-1.47-3.39c-.28.72-.73 1.9-1.34 3.54-.33.94-.73 2.23-1.19 3.86m10.47-37.31h-11.2a14 14 0 00-13.86 11.77C94.78 62.83 94 67.06 93 71.47c-1.61 6.86-2.82 11.82-3.58 14.76A14 14 0 00103 103.74h4.53q.49.14 1 .24a13.9 13.9 0 002.86.3 13.72 13.72 0 004-.6c.41 0 .82.06 1.24.06h10.19a14 14 0 0013.61-17.29c-1.47-6.09-2.65-11.06-3.51-14.77-1.86-8.56-2.51-11.81-2.73-13a14 14 0 00-13.78-11.54z" fill="#fff"/><path d="M129.18 91.81q10.31 0 16.81 7.17 6.88 7.59 6.88 20.86a37.66 37.66 0 01-3.18 15.71q-3.39 7.51-9.46 10.56c.87.87 2.1 2 3.67 3.46a41 41 0 005.72 3.74q-1.31 1.31-4.34 3.85a37.13 37.13 0 01-4.77 2.68 26.57 26.57 0 01-4.13-4.06 22.5 22.5 0 01-2.71-4.27 20.55 20.55 0 002.36-3 17.39 17.39 0 01-6.85 1.45q-10.83 0-17.54-9.11-6.33-8.53-6.32-21 0-13.38 6.88-20.93 6.47-7.09 17-7.1m0 45.68c1.81 0 3.41-1.3 4.8-3.92a15.42 15.42 0 001.91-7.37q0-9.83-6.5-9.82a5.67 5.67 0 00-5.22 2.93 12.91 12.91 0 00-1.38 7 18.8 18.8 0 001.77 7.37c1.24 2.57 2.79 3.85 4.62 3.85m0-59.68c-10.93 0-20.38 4-27.33 11.67s-10.53 17.89-10.53 30.36c0 11.31 3.05 21.17 9.06 29.3 6.21 8.43 14.59 13.4 24.42 14.53l.5.66.11.15a40.56 40.56 0 006.34 6.28 14 14 0 0014.91 1.66 50.7 50.7 0 006.6-3.76c.34-.24.68-.5 1-.77 2.39-2 4.06-3.48 5.26-4.68a14 14 0 001.19-18.45c.62-1.1 1.2-2.26 1.75-3.46a51.81 51.81 0 004.41-21.46c0-12.39-3.54-22.58-10.52-30.27a35.65 35.65 0 00-27.17-11.76z" fill="#fff"/><path d="M184.76 107.84l-.43 12.06q-.18 5.16-.19 15.61a28.61 28.61 0 01-9.72 1.71c-4.08 0-7.17-.81-9.3-2.44a11.28 11.28 0 01-3.82-6.44 67.2 67.2 0 01-1.23-9.21q-.56-6.18-.69-11.29h12c-.06 1.64-.14 4.31-.22 8v8.78c0 2.88.27 4.83.75 5.83a3 3 0 003 1.6 3.49 3.49 0 001.46-.37q0-3.84-.22-12.2-.19-4.2-.69-11.65h9.2m0-14h-9.2a14.35 14.35 0 00-2.08.16 14.46 14.46 0 00-2.08-.16h-12a14 14 0 00-14 14.36c.09 3.66.34 7.76.74 12.16a74.31 74.31 0 001.62 11.48 24.89 24.89 0 008.86 14.06c4.61 3.53 10.6 5.32 17.81 5.32a42.75 42.75 0 0014.46-2.53 14 14 0 009.26-13.18c0-6.78.06-11.87.18-15.1l.42-11.79v-.78a14 14 0 00-14-14z" fill="#fff"/><path d="M203 107.84l-.72 15.22q-.21 4.92-.49 13.4h-10.42l-1.27-28.62H203m0-14h-12.9a14 14 0 00-14 14.62l1.26 28.62a14 14 0 0014 13.38h10.45a14 14 0 0014-13.54c.18-5.49.35-9.94.48-13.23l.71-14.89v-1a14 14 0 00-14-14zm0 28z" fill="#fff"/><path d="M231.27 107.84L221 130.78h.88c1.09 0 2.57-.09 4.43-.28a14.72 14.72 0 002.31-.51c-.19.56-.5 1.53-.95 2.91q-.37 1.17-1 3.54h-16.8l5-17.51-2.56.15c-.91.06-2.17.21-3.78.46l-.41-11.72h23.12m0-14h-23.09a14 14 0 00-14 14.49l.41 11.72a14 14 0 003.07 8.27l-1.23 4.28a14 14 0 0013.46 17.86h16.82A14 14 0 00240.24 140c.44-1.7.67-2.47.77-2.79.42-1.3.72-2.21.9-2.74a14 14 0 00-1.7-12.3l3.69-8.24a14 14 0 00-12.61-20.07z" fill="#fff"/><path d="M230.64 14a39.83 39.83 0 11-17.94 75.39c0 .12 0 .23-.08.35H196l-.54-14.61c0-.88-.07-1.87-.11-2.94a38.32 38.32 0 01-2.46-5.82c-.12 2.18-.26 4.8-.41 7.88q-.28 6.9-.47 15.86-2.44-1.92-7.43-5.72c-1.44-1-3.59-2.51-6.45-4.53l-.19 9.88h-6q-.15-3.78-.68-14.27c-.32-5.67-.63-10.45-1-14.35h9.36l6.93 6.56c0-1.51 0-2.69-.08-3.54s-.11-1.77-.22-3h5.25A39.79 39.79 0 01230.64 14m0-14a53.92 53.92 0 00-53.42 47.12h-7a14 14 0 00-13.92 15.16c.31 3.74.62 8.43.93 14 .35 6.83.58 11.58.68 14.06a14 14 0 0014 13.45h6a13.87 13.87 0 006.72-1.72 14 14 0 0010.63 1.7H210.48a53.29 53.29 0 0020.18 3.92A53.83 53.83 0 10230.64 0zM79.47 23.68L76 102.35q6 0 18-1.3a59.61 59.61 0 006.79-1.23q-.61 2.46-2.28 9.32c-.58 2.68-1.08 5.8-1.49 9.39h-40v27.91h-.37A42.55 42.55 0 0114 103.89h26.67q-.42-13.2-1.15-33.16-.81-17-2.9-47.05h42.85m0-14H36.62a14 14 0 00-14 15C24 44.44 25 60.14 25.53 71.32q.38 10.13.67 18.57H14a14 14 0 00-14 14 56.62 56.62 0 0056.55 56.56h.66a14 14 0 0013.71-14v-13.92h26a14 14 0 0013.91-12.41c.35-3 .76-5.67 1.23-7.86q1.48-6.14 2.12-8.66a14.31 14.31 0 00.51-3.78 14 14 0 00-13.58-14h-1.06a13.92 13.92 0 00-2.76.4 42.85 42.85 0 01-4.78.89h-.12l-1.77.19 2.81-63a14 14 0 00-14-14.63zm0 28z" fill="#fff"/><path d="M152.87 119.84a37.66 37.66 0 01-3.18 15.71q-3.39 7.51-9.46 10.56c.87.87 2.1 2 3.67 3.46a41 41 0 005.72 3.74q-1.31 1.31-4.34 3.85a37.13 37.13 0 01-4.77 2.68 26.57 26.57 0 01-4.13-4.06 22.5 22.5 0 01-2.71-4.27 20.55 20.55 0 002.36-3 17.39 17.39 0 01-6.85 1.45q-10.83 0-17.54-9.11-6.33-8.53-6.32-21 0-13.38 6.88-20.93 6.47-7.09 17-7.1 10.31 0 16.81 7.17 6.87 7.58 6.86 20.85zm-17 6.36q0-9.83-6.5-9.82a5.67 5.67 0 00-5.22 2.93 12.91 12.91 0 00-1.38 7 18.8 18.8 0 001.77 7.37c1.24 2.57 2.79 3.85 4.62 3.85s3.41-1.3 4.8-3.92a15.42 15.42 0 001.93-7.41zM184.76 107.84l-.43 12.06q-.18 5.16-.19 15.61a28.61 28.61 0 01-9.72 1.71c-4.08 0-7.17-.81-9.3-2.44a11.28 11.28 0 01-3.82-6.44 67.2 67.2 0 01-1.23-9.21q-.56-6.18-.69-11.29h12c-.06 1.64-.14 4.31-.22 8v8.78c0 2.88.27 4.83.75 5.83a3 3 0 003 1.6 3.49 3.49 0 001.46-.37q0-3.84-.22-12.2-.19-4.2-.69-11.65zM203 107.84l-.72 15.22q-.21 4.92-.49 13.4h-10.42l-1.27-28.62zM231.27 107.84L221 130.78a35.58 35.58 0 005.31-.26 14.72 14.72 0 002.31-.51c-.19.56-.5 1.53-.95 2.91q-.37 1.17-1 3.54h-16.8l5-17.51-2.56.15c-.91.06-2.17.21-3.78.46l-.41-11.72z" fill="#656565"/><circle cx="230.64" cy="53.83" r="39.83" fill="#f1e2f7"/><path d="M56.92 103.89H14a42.55 42.55 0 0042.55 42.56h.37z" fill="#bebebe"/><path d="M100.71 99.82q-.61 2.46-2.28 9.32c-.58 2.68-1.08 5.8-1.49 9.39H41.06q-.3-14.52-1.54-47.8-.81-17-2.9-47.05h42.85L76 102.35q6 0 18-1.3a59.61 59.61 0 006.71-1.23z" fill="#fe8963"/><text transform="translate(126.53 88.95)" font-size="64.652" fill="#fe8963" font-family="ShowcardGothic-Reg,Showcard Gothic">R</text><text transform="translate(82.11 89.74)" font-size="38.157" fill="#fe8963" font-family="ShowcardGothic-Reg,Showcard Gothic">ea</text><path d="M193.15 61.12q-.26 3.77-.72 13.13-.28 6.9-.47 15.86-2.44-1.92-7.43-5.72c-1.44-1-3.59-2.51-6.45-4.53l-.19 9.88h-6q-.15-3.78-.68-14.27c-.32-5.67-.63-10.45-1-14.35h9.36l6.93 6.56c0-1.51 0-2.69-.08-3.54s-.11-1.77-.22-3zM214.26 61.12l-.8 11.79c-.46-.07-1.45-.2-3-.39-1-.1-2.19-.16-3.43-.18l-.28 3.55q2.05.06 6.69-.09c-.14.46-.35 1.32-.65 2.57-.18.76-.33 1.64-.47 2.63a26.4 26.4 0 00-2.7-.34h-3l-.19 4.15c.94 0 2.65-.09 5.15-.24a18 18 0 002.33-.45c-.1.39-.33 1.31-.69 2.78-.18.76-.39 1.71-.64 2.87H196l-.54-14.61q-.15-5-.73-14zM240.89 71.83a10.1 10.1 0 01-1.89 6.08 9.52 9.52 0 01-4.25 3.31c.36.56 1.25 1.74 2.66 3.52a44.31 44.31 0 003.22 3.26c-.59.21-1.87.74-3.86 1.6q-2.09.94-3.93 1.86c-.36-.45-1.16-1.6-2.41-3.46q-.85-1.42-2.51-4.77l-.18 6.52h-10.53q-.21-4.06-.58-13.4-.16-5.49-.77-15.22a90 90 0 019.36-.54q15.66-.01 15.67 11.24zm-8.46 4a2.65 2.65 0 00-1.49-2.54 5.54 5.54 0 00-2.76-.48l-.11 6.37a5.49 5.49 0 002.76-.69 2.89 2.89 0 001.6-2.63z" fill="#fe8963"/></svg>