<svg xmlns="http://www.w3.org/2000/svg" viewBox="0 0 122.84 187.82"><path d="M101 182.82H21.89A16.93 16.93 0 015 165.84V32a16.93 16.93 0 0116.89-17H101a16.93 16.93 0 0116.89 17v133.84A16.93 16.93 0 01101 182.82z" fill="#e0e0e0" stroke="#e2e2e2" stroke-miterlimit="10" stroke-width="10"/><rect x="5" y="9.86" width="112.84" height="167.8" rx="16.45" fill="#efefef" stroke="#efefef" stroke-miterlimit="10" stroke-width="10"/><rect x="5" y="5" width="112.84" height="167.8" rx="16.45" fill="#ff8a64" stroke="#fff" stroke-miterlimit="10" stroke-width="10"/><path d="M73.93 76.47a16.81 16.81 0 00-13 5.45Q55.61 87.71 55.61 98q0 9.54 4.85 16.1a16 16 0 0013.47 7 13.39 13.39 0 005.25-1.1 15.5 15.5 0 01-1.81 2.33 17.44 17.44 0 002.08 3.28 20.4 20.4 0 003.17 3.11 27.45 27.45 0 003.66-2.06q2.32-2 3.33-3a31.79 31.79 0 01-4.39-2.87c-1.21-1.11-2.15-2-2.81-2.66a15.91 15.91 0 007.26-8.1A29 29 0 0092.11 98q0-10.19-5.29-16a16.61 16.61 0 00-12.89-5.53zm3.68 32.05c-1.07 2-2.29 3-3.68 3s-2.6-1-3.55-3a14.33 14.33 0 01-1.38-5.6 9.85 9.85 0 011.06-5.34 4.35 4.35 0 014-2.25q5 0 5 7.53a11.79 11.79 0 01-1.45 5.66z" fill="#595959"/><path d="M51.31 100.29l1.84-41.15H30.73q1.11 15.7 1.52 24.61.64 17.41.81 25h29.23c.21-1.88.47-3.51.77-4.91q.87-3.59 1.2-4.88a30.79 30.79 0 01-3.56.65c-4.17.45-7.31.68-9.39.68z" fill="#fff"/></svg>