<svg xmlns="http://www.w3.org/2000/svg" viewBox="0 0 562 562"><circle cx="281" cy="281" r="281" fill="#a4a19a"/><path d="M281 79.13c-57.39 0-104.31 46.92-104.31 104.31s46.95 104.3 104.31 104.3 104.3-46.91 104.3-104.3S338.42 79.13 281 79.13zM460 383.1a97.28 97.28 0 00-10.44-19.1c-21-31-53.3-51.47-89.73-56.48-4.56-.46-9.57.45-13.21 3.18a111.17 111.17 0 01-131.18 0 17.12 17.12 0 00-13.21-3.18A128.69 128.69 0 00112.5 364a111.69 111.69 0 00-10.5 19.1 9.65 9.65 0 00.45 8.65A181 181 0 00114.78 410a172.67 172.67 0 0020.95 23.68 272.27 272.27 0 0021 18.22 207.68 207.68 0 00247.78 0 199.33 199.33 0 0021-18.22A210.92 210.92 0 00446.37 410a160.74 160.74 0 0012.3-18.22c2.27-2.78 2.73-5.95 1.33-8.68z" fill="#f7efdf"/></svg>