<svg xmlns="http://www.w3.org/2000/svg" viewBox="0 0 585.87 603.31"><path style="fill: white !important;" d="M369.06 337.94c33.88 0 63.22-12.15 87.19-36.13s36.13-53.3 36.13-87.19-12.15-63.21-36.13-87.19-53.31-36.12-87.19-36.12-63.22 12.15-87.19 36.12-36.13 53.31-36.13 87.19 12.15 63.22 36.13 87.2 53.31 36.12 87.19 36.12zM584.84 485a306.61 306.61 0 00-4.15-32.35 256 256 0 00-8-32.53 160.71 160.71 0 00-13.37-30.33 114.34 114.34 0 00-20.16-26.28 89.06 89.06 0 00-29-18.2 100.16 100.16 0 00-37-6.69c-5.22 0-10.28 2.14-20 8.5-6 3.92-13 8.45-20.88 13.46-6.7 4.27-15.79 8.28-27 11.9a104.91 104.91 0 01-66.09 0c-11.21-3.62-20.3-7.62-27-11.9-7.76-5-14.8-9.49-20.89-13.47-9.75-6.35-14.81-8.5-20-8.5a100.07 100.07 0 00-37 6.7 88.83 88.83 0 00-29 18.2 114.34 114.34 0 00-20.1 26.29 160.51 160.51 0 00-13.37 30.34 255.39 255.39 0 00-8 32.52 302.88 302.88 0 00-4.1 32.34c-.68 9.8-1 20-1 30.24 0 26.72 8.49 48.36 25.25 64.32 16.54 15.74 38.44 23.73 65.06 23.73h246.52c26.62 0 48.51-8 65.06-23.73 16.76-16 25.25-37.59 25.25-64.33 0-10.29-.35-20.47-1.03-30.23z"/><path style="fill: white !important;" d="M127 480.6a332.88 332.88 0 014.51-35.27 281.78 281.78 0 018.82-36 187.7 187.7 0 0115.6-35.45 141.52 141.52 0 0125-32.44 115.76 115.76 0 0137.69-23.8 122.47 122.47 0 0130.56-7.64 150.37 150.37 0 01-17.73-25.08 104.21 104.21 0 01-17.88 1.58 107.2 107.2 0 01-33-5.34c-11.21-3.62-20.29-7.62-27-11.89-7.77-5-14.8-9.5-20.9-13.47-9.75-6.36-14.81-8.5-20-8.5a99.87 99.87 0 00-37 6.7 88.75 88.75 0 00-29 18.19 114.74 114.74 0 00-20.17 26.3 160.51 160.51 0 00-13.37 30.34 255.37 255.37 0 00-8 32.52A302.88 302.88 0 001 393.71c-.68 9.8-1 20-1 30.24 0 26.73 8.5 48.36 25.25 64.32C41.8 504 63.69 512 90.32 512h35.56c.02-10.65.38-21.22 1.12-31.4zM216.68 246.49a155.92 155.92 0 01-3.77-34.43 151.79 151.79 0 0192.67-139.18 143.17 143.17 0 0115.13-5.28 125.23 125.23 0 00-23.17-31.48C273.57 12.15 244.23 0 210.35 0s-63.22 12.15-87.19 36.13S87 89.43 87 123.31s12.16 63.23 36.13 87.2 53.32 36.12 87.19 36.12q3.23 0 6.36-.14z"/></svg>